%TF.GenerationSoftware,KiCad,Pcbnew,8.0.8*%
%TF.CreationDate,2025-02-21T17:55:20+11:00*%
%TF.ProjectId,panel,70616e65-6c2e-46b6-9963-61645f706362,rev?*%
%TF.SameCoordinates,Original*%
%TF.FileFunction,Soldermask,Top*%
%TF.FilePolarity,Negative*%
%FSLAX46Y46*%
G04 Gerber Fmt 4.6, Leading zero omitted, Abs format (unit mm)*
G04 Created by KiCad (PCBNEW 8.0.8) date 2025-02-21 17:55:20*
%MOMM*%
%LPD*%
G01*
G04 APERTURE LIST*
G04 Aperture macros list*
%AMRoundRect*
0 Rectangle with rounded corners*
0 $1 Rounding radius*
0 $2 $3 $4 $5 $6 $7 $8 $9 X,Y pos of 4 corners*
0 Add a 4 corners polygon primitive as box body*
4,1,4,$2,$3,$4,$5,$6,$7,$8,$9,$2,$3,0*
0 Add four circle primitives for the rounded corners*
1,1,$1+$1,$2,$3*
1,1,$1+$1,$4,$5*
1,1,$1+$1,$6,$7*
1,1,$1+$1,$8,$9*
0 Add four rect primitives between the rounded corners*
20,1,$1+$1,$2,$3,$4,$5,0*
20,1,$1+$1,$4,$5,$6,$7,0*
20,1,$1+$1,$6,$7,$8,$9,0*
20,1,$1+$1,$8,$9,$2,$3,0*%
G04 Aperture macros list end*
%ADD10O,1.100000X1.100000*%
%ADD11R,1.700000X1.700000*%
%ADD12C,3.200000*%
%ADD13RoundRect,0.237500X0.287500X0.237500X-0.287500X0.237500X-0.287500X-0.237500X0.287500X-0.237500X0*%
%ADD14O,1.700000X1.700000*%
%ADD15C,1.700000*%
%ADD16RoundRect,0.250000X-1.075000X0.400000X-1.075000X-0.400000X1.075000X-0.400000X1.075000X0.400000X0*%
%ADD17C,2.000000*%
%ADD18C,2.100000*%
%ADD19RoundRect,0.250000X-0.725000X0.600000X-0.725000X-0.600000X0.725000X-0.600000X0.725000X0.600000X0*%
%ADD20O,1.950000X1.700000*%
%ADD21C,0.800000*%
G04 APERTURE END LIST*
D10*
%TO.C,H2*%
X162816155Y-31179500D03*
X162816155Y-32979500D03*
X164375000Y-30279500D03*
X164375000Y-33879500D03*
X165933845Y-31179500D03*
X165933845Y-32979499D03*
%TD*%
D11*
%TO.C,J8*%
X157385000Y-49224500D03*
X159925000Y-49224500D03*
%TD*%
D12*
%TO.C,H1*%
X152310000Y-42239500D03*
%TD*%
D13*
%TO.C,D1*%
X170330000Y-76529500D03*
X168580000Y-76529500D03*
%TD*%
D12*
%TO.C,H1*%
X126275000Y-52399500D03*
%TD*%
%TO.C,H1*%
X152310000Y-32079500D03*
%TD*%
%TO.C,H1*%
X152310000Y-52399500D03*
%TD*%
D14*
%TO.C,J9*%
X131350000Y-65734500D03*
X133890000Y-65734500D03*
%TD*%
D13*
%TO.C,D1*%
X170330000Y-56209500D03*
X168580000Y-56209500D03*
%TD*%
D11*
%TO.C,J8*%
X157385000Y-69544500D03*
X159925000Y-69544500D03*
%TD*%
D14*
%TO.C,J9*%
X131350000Y-55574500D03*
X133890000Y-55574500D03*
%TD*%
D15*
%TO.C,KiKit_FID_T_2*%
X169535000Y-22500000D03*
%TD*%
D13*
%TO.C,D1*%
X170330000Y-35889500D03*
X168580000Y-35889500D03*
%TD*%
D16*
%TO.C,R1*%
X169455000Y-61009500D03*
X169455000Y-64109500D03*
%TD*%
D10*
%TO.C,H2*%
X162816155Y-71819500D03*
X162816155Y-73619500D03*
X164375000Y-70919500D03*
X164375000Y-74519500D03*
X165933845Y-71819500D03*
X165933845Y-73619499D03*
%TD*%
D17*
%TO.C,KiKit_TO_3*%
X124965000Y-82299500D03*
%TD*%
D13*
%TO.C,D1*%
X144295000Y-35889500D03*
X142545000Y-35889500D03*
%TD*%
D12*
%TO.C,H1*%
X152310000Y-72719500D03*
%TD*%
D16*
%TO.C,R1*%
X169455000Y-71169500D03*
X169455000Y-74269500D03*
%TD*%
D10*
%TO.C,H2*%
X162816155Y-61659500D03*
X162816155Y-63459500D03*
X164375000Y-60759500D03*
X164375000Y-64359500D03*
X165933845Y-61659500D03*
X165933845Y-63459499D03*
%TD*%
D16*
%TO.C,R1*%
X143420000Y-30529500D03*
X143420000Y-33629500D03*
%TD*%
D11*
%TO.C,J8*%
X157385000Y-59384500D03*
X159925000Y-59384500D03*
%TD*%
D16*
%TO.C,R1*%
X169455000Y-40689500D03*
X169455000Y-43789500D03*
%TD*%
D13*
%TO.C,D1*%
X144295000Y-66369500D03*
X142545000Y-66369500D03*
%TD*%
D17*
%TO.C,KiKit_TO_2*%
X172035000Y-22500000D03*
%TD*%
D14*
%TO.C,J9*%
X157385000Y-55574500D03*
X159925000Y-55574500D03*
%TD*%
D16*
%TO.C,R1*%
X143420000Y-40689500D03*
X143420000Y-43789500D03*
%TD*%
D12*
%TO.C,H1*%
X126275000Y-72719500D03*
%TD*%
D14*
%TO.C,J9*%
X131350000Y-35254500D03*
X133890000Y-35254500D03*
%TD*%
D15*
%TO.C,KiKit_FID_T_3*%
X127465000Y-82299500D03*
%TD*%
D13*
%TO.C,D1*%
X170330000Y-46049500D03*
X168580000Y-46049500D03*
%TD*%
D10*
%TO.C,H2*%
X162816155Y-51499500D03*
X162816155Y-53299500D03*
X164375000Y-50599500D03*
X164375000Y-54199500D03*
X165933845Y-51499500D03*
X165933845Y-53299499D03*
%TD*%
D13*
%TO.C,D1*%
X144295000Y-46049500D03*
X142545000Y-46049500D03*
%TD*%
%TO.C,D1*%
X144295000Y-56209500D03*
X142545000Y-56209500D03*
%TD*%
D10*
%TO.C,H2*%
X136781155Y-71819500D03*
X136781155Y-73619500D03*
X138340000Y-70919500D03*
X138340000Y-74519500D03*
X139898845Y-71819500D03*
X139898845Y-73619499D03*
%TD*%
D12*
%TO.C,H1*%
X126275000Y-62559500D03*
%TD*%
D11*
%TO.C,J8*%
X131350000Y-28904500D03*
X133890000Y-28904500D03*
%TD*%
D14*
%TO.C,J9*%
X157385000Y-65734500D03*
X159925000Y-65734500D03*
%TD*%
D11*
%TO.C,J8*%
X131350000Y-39064500D03*
X133890000Y-39064500D03*
%TD*%
D16*
%TO.C,R1*%
X143420000Y-71169500D03*
X143420000Y-74269500D03*
%TD*%
D10*
%TO.C,H2*%
X136781155Y-51499500D03*
X136781155Y-53299500D03*
X138340000Y-50599500D03*
X138340000Y-54199500D03*
X139898845Y-51499500D03*
X139898845Y-53299499D03*
%TD*%
D17*
%TO.C,KiKit_TO_4*%
X172035000Y-82299500D03*
%TD*%
D15*
%TO.C,KiKit_FID_T_4*%
X169535000Y-82299500D03*
%TD*%
D10*
%TO.C,H2*%
X162816155Y-41339500D03*
X162816155Y-43139500D03*
X164375000Y-40439500D03*
X164375000Y-44039500D03*
X165933845Y-41339500D03*
X165933845Y-43139499D03*
%TD*%
D12*
%TO.C,H1*%
X126275000Y-32079500D03*
%TD*%
D10*
%TO.C,H2*%
X136781155Y-31179500D03*
X136781155Y-32979500D03*
X138340000Y-30279500D03*
X138340000Y-33879500D03*
X139898845Y-31179500D03*
X139898845Y-32979499D03*
%TD*%
D14*
%TO.C,J9*%
X131350000Y-75894500D03*
X133890000Y-75894500D03*
%TD*%
D12*
%TO.C,H1*%
X152310000Y-62559500D03*
%TD*%
D13*
%TO.C,D1*%
X170330000Y-66369500D03*
X168580000Y-66369500D03*
%TD*%
D12*
%TO.C,H1*%
X126275000Y-42239500D03*
%TD*%
D16*
%TO.C,R1*%
X169455000Y-50849500D03*
X169455000Y-53949500D03*
%TD*%
%TO.C,R1*%
X169455000Y-30529500D03*
X169455000Y-33629500D03*
%TD*%
D11*
%TO.C,J8*%
X131350000Y-49224500D03*
X133890000Y-49224500D03*
%TD*%
D14*
%TO.C,J9*%
X157385000Y-35254500D03*
X159925000Y-35254500D03*
%TD*%
D13*
%TO.C,D1*%
X144295000Y-76529500D03*
X142545000Y-76529500D03*
%TD*%
D11*
%TO.C,J8*%
X157385000Y-28904500D03*
X159925000Y-28904500D03*
%TD*%
%TO.C,J8*%
X157385000Y-39064500D03*
X159925000Y-39064500D03*
%TD*%
D14*
%TO.C,J9*%
X131350000Y-45414500D03*
X133890000Y-45414500D03*
%TD*%
D16*
%TO.C,R1*%
X143420000Y-50849500D03*
X143420000Y-53949500D03*
%TD*%
D14*
%TO.C,J9*%
X157385000Y-75894500D03*
X159925000Y-75894500D03*
%TD*%
D10*
%TO.C,H2*%
X136781155Y-61659500D03*
X136781155Y-63459500D03*
X138340000Y-60759500D03*
X138340000Y-64359500D03*
X139898845Y-61659500D03*
X139898845Y-63459499D03*
%TD*%
D11*
%TO.C,J8*%
X131350000Y-59384500D03*
X133890000Y-59384500D03*
%TD*%
%TO.C,J8*%
X131350000Y-69544500D03*
X133890000Y-69544500D03*
%TD*%
D10*
%TO.C,H2*%
X136781155Y-41339500D03*
X136781155Y-43139500D03*
X138340000Y-40439500D03*
X138340000Y-44039500D03*
X139898845Y-41339500D03*
X139898845Y-43139499D03*
%TD*%
D16*
%TO.C,R1*%
X143420000Y-61009500D03*
X143420000Y-64109500D03*
%TD*%
D17*
%TO.C,KiKit_TO_1*%
X124965000Y-22500000D03*
%TD*%
D15*
%TO.C,KiKit_FID_T_1*%
X127465000Y-22500000D03*
%TD*%
D14*
%TO.C,J9*%
X157385000Y-45414500D03*
X159925000Y-45414500D03*
%TD*%
D18*
%TO.C,H4*%
X138340000Y-62559500D03*
%TD*%
D19*
%TO.C,J3*%
X172630000Y-29579500D03*
D20*
X172630000Y-32079500D03*
X172630000Y-34579500D03*
%TD*%
D19*
%TO.C,J3*%
X146595000Y-29579500D03*
D20*
X146595000Y-32079500D03*
X146595000Y-34579500D03*
%TD*%
D19*
%TO.C,J3*%
X172630000Y-70219500D03*
D20*
X172630000Y-72719500D03*
X172630000Y-75219500D03*
%TD*%
D18*
%TO.C,H4*%
X164375000Y-32079500D03*
%TD*%
%TO.C,H4*%
X138340000Y-42239500D03*
%TD*%
%TO.C,H4*%
X164375000Y-42239500D03*
%TD*%
%TO.C,H4*%
X138340000Y-72719500D03*
%TD*%
D19*
%TO.C,J3*%
X172630000Y-60059500D03*
D20*
X172630000Y-62559500D03*
X172630000Y-65059500D03*
%TD*%
D18*
%TO.C,H4*%
X164375000Y-72719500D03*
%TD*%
D19*
%TO.C,J3*%
X146595000Y-49899500D03*
D20*
X146595000Y-52399500D03*
X146595000Y-54899500D03*
%TD*%
D19*
%TO.C,J3*%
X172630000Y-39739500D03*
D20*
X172630000Y-42239500D03*
X172630000Y-44739500D03*
%TD*%
D18*
%TO.C,H4*%
X164375000Y-52399500D03*
%TD*%
%TO.C,H4*%
X138340000Y-52399500D03*
%TD*%
D19*
%TO.C,J3*%
X172630000Y-49899500D03*
D20*
X172630000Y-52399500D03*
X172630000Y-54899500D03*
%TD*%
D19*
%TO.C,J3*%
X146595000Y-70219500D03*
D20*
X146595000Y-72719500D03*
X146595000Y-75219500D03*
%TD*%
D19*
%TO.C,J3*%
X146595000Y-60059500D03*
D20*
X146595000Y-62559500D03*
X146595000Y-65059500D03*
%TD*%
D18*
%TO.C,H4*%
X138340000Y-32079500D03*
%TD*%
%TO.C,H4*%
X164375000Y-62559500D03*
%TD*%
D19*
%TO.C,J3*%
X146595000Y-39739500D03*
D20*
X146595000Y-42239500D03*
X146595000Y-44739500D03*
%TD*%
D21*
X141515000Y-30199500D03*
X167550000Y-30199500D03*
X141515000Y-40359500D03*
X167550000Y-40359500D03*
X141515000Y-50519500D03*
X167550000Y-50519500D03*
X141515000Y-60679500D03*
X167550000Y-60679500D03*
X141515000Y-70839500D03*
X167550000Y-70839500D03*
M02*
