%TF.GenerationSoftware,KiCad,Pcbnew,8.0.8*%
%TF.CreationDate,2025-02-21T17:55:20+11:00*%
%TF.ProjectId,panel,70616e65-6c2e-46b6-9963-61645f706362,rev?*%
%TF.SameCoordinates,Original*%
%TF.FileFunction,Paste,Bot*%
%TF.FilePolarity,Positive*%
%FSLAX46Y46*%
G04 Gerber Fmt 4.6, Leading zero omitted, Abs format (unit mm)*
G04 Created by KiCad (PCBNEW 8.0.8) date 2025-02-21 17:55:20*
%MOMM*%
%LPD*%
G01*
G04 APERTURE LIST*
G04 Aperture macros list*
%AMFreePoly0*
4,1,71,-0.722917,0.807867,-0.515122,0.759336,-0.294958,0.678218,-0.086471,0.570583,0.107160,0.438071,0.282982,0.282703,0.438313,0.106849,0.570784,-0.086809,0.678377,-0.295318,0.759449,-0.515499,0.811919,-0.740370,0.812243,-0.741151,0.812243,-0.741755,0.812765,-0.743993,0.812243,-0.749509,0.812243,-0.780169,0.808483,-0.789245,0.807889,-0.795527,0.803077,-0.802295,0.797311,-0.816217,
0.783030,-0.830497,0.777898,-0.837718,0.774047,-0.839480,0.769721,-0.843807,0.733673,-0.858739,0.731505,-0.858952,0.730831,-0.859261,0.729576,-0.859142,0.714164,-0.860660,0.306819,-0.860660,0.287310,-0.858739,0.281120,-0.856175,0.276538,-0.855965,0.269067,-0.851182,0.251262,-0.843807,0.240081,-0.832626,0.232942,-0.828056,0.230183,-0.822728,0.223672,-0.816217,0.211108,-0.785887,
0.209142,-0.782089,0.209141,-0.782089,0.186374,-0.678671,0.108108,-0.481875,-0.000978,-0.300341,-0.122076,-0.157628,-0.124698,-0.156366,-0.140042,-0.137124,-0.299366,-0.001679,-0.480799,0.107575,-0.677523,0.186022,-0.780920,0.208884,-0.780920,0.208885,-0.785239,0.211126,-0.814703,0.223225,-0.821422,0.229903,-0.826865,0.232728,-0.831389,0.239809,-0.842377,0.250730,-0.849958,0.268873,
-0.854734,0.276349,-0.854933,0.280780,-0.857420,0.286732,-0.859401,0.306235,-0.860660,0.717034,-0.858798,0.736548,-0.843977,0.772642,-0.816472,0.800316,-0.780469,0.815359,-0.741452,0.815478,-0.722917,0.807867,-0.722917,0.807867,$1*%
G04 Aperture macros list end*
%ADD10FreePoly0,270.000000*%
%ADD11FreePoly0,0.000000*%
%ADD12FreePoly0,180.000000*%
%ADD13FreePoly0,90.000000*%
G04 APERTURE END LIST*
D10*
%TO.C,H4*%
X139400660Y-63620160D03*
D11*
X139400660Y-61498840D03*
D12*
X137279340Y-63620160D03*
D13*
X137279340Y-61498840D03*
%TD*%
D10*
%TO.C,H4*%
X165435660Y-33140160D03*
D11*
X165435660Y-31018840D03*
D12*
X163314340Y-33140160D03*
D13*
X163314340Y-31018840D03*
%TD*%
D10*
%TO.C,H4*%
X139400660Y-43300160D03*
D11*
X139400660Y-41178840D03*
D12*
X137279340Y-43300160D03*
D13*
X137279340Y-41178840D03*
%TD*%
D10*
%TO.C,H4*%
X165435660Y-43300160D03*
D11*
X165435660Y-41178840D03*
D12*
X163314340Y-43300160D03*
D13*
X163314340Y-41178840D03*
%TD*%
D10*
%TO.C,H4*%
X139400660Y-73780160D03*
D11*
X139400660Y-71658840D03*
D12*
X137279340Y-73780160D03*
D13*
X137279340Y-71658840D03*
%TD*%
D10*
%TO.C,H4*%
X165435660Y-73780160D03*
D11*
X165435660Y-71658840D03*
D12*
X163314340Y-73780160D03*
D13*
X163314340Y-71658840D03*
%TD*%
D10*
%TO.C,H4*%
X165435660Y-53460160D03*
D11*
X165435660Y-51338840D03*
D12*
X163314340Y-53460160D03*
D13*
X163314340Y-51338840D03*
%TD*%
D10*
%TO.C,H4*%
X139400660Y-53460160D03*
D11*
X139400660Y-51338840D03*
D12*
X137279340Y-53460160D03*
D13*
X137279340Y-51338840D03*
%TD*%
D10*
%TO.C,H4*%
X139400660Y-33140160D03*
D11*
X139400660Y-31018840D03*
D12*
X137279340Y-33140160D03*
D13*
X137279340Y-31018840D03*
%TD*%
D10*
%TO.C,H4*%
X165435660Y-63620160D03*
D11*
X165435660Y-61498840D03*
D12*
X163314340Y-63620160D03*
D13*
X163314340Y-61498840D03*
%TD*%
M02*
