%TF.GenerationSoftware,KiCad,Pcbnew,8.0.8*%
%TF.CreationDate,2025-02-21T17:55:20+11:00*%
%TF.ProjectId,panel,70616e65-6c2e-46b6-9963-61645f706362,rev?*%
%TF.SameCoordinates,Original*%
%TF.FileFunction,Other,Comment*%
%FSLAX46Y46*%
G04 Gerber Fmt 4.6, Leading zero omitted, Abs format (unit mm)*
G04 Created by KiCad (PCBNEW 8.0.8) date 2025-02-21 17:55:20*
%MOMM*%
%LPD*%
G01*
G04 APERTURE LIST*
%ADD10C,0.300000*%
%ADD11C,0.150000*%
G04 APERTURE END LIST*
D10*
X119465000Y-57479500D02*
X177535000Y-57479500D01*
X148502500Y-17000000D02*
X148502500Y-87799500D01*
X119465000Y-77799500D02*
X177535000Y-77799500D01*
X119465000Y-47319500D02*
X177535000Y-47319500D01*
X119465000Y-26999500D02*
X177535000Y-26999500D01*
X119465000Y-67639500D02*
X177535000Y-67639500D01*
X119465000Y-37159500D02*
X177535000Y-37159500D01*
X180922844Y-76709138D02*
X181589510Y-78709138D01*
X181589510Y-78709138D02*
X182256177Y-76709138D01*
X182922844Y-77947233D02*
X184446654Y-77947233D01*
X186541891Y-78518661D02*
X186446653Y-78613900D01*
X186446653Y-78613900D02*
X186160939Y-78709138D01*
X186160939Y-78709138D02*
X185970463Y-78709138D01*
X185970463Y-78709138D02*
X185684748Y-78613900D01*
X185684748Y-78613900D02*
X185494272Y-78423423D01*
X185494272Y-78423423D02*
X185399034Y-78232947D01*
X185399034Y-78232947D02*
X185303796Y-77851995D01*
X185303796Y-77851995D02*
X185303796Y-77566280D01*
X185303796Y-77566280D02*
X185399034Y-77185328D01*
X185399034Y-77185328D02*
X185494272Y-76994852D01*
X185494272Y-76994852D02*
X185684748Y-76804376D01*
X185684748Y-76804376D02*
X185970463Y-76709138D01*
X185970463Y-76709138D02*
X186160939Y-76709138D01*
X186160939Y-76709138D02*
X186446653Y-76804376D01*
X186446653Y-76804376D02*
X186541891Y-76899614D01*
X187399034Y-76709138D02*
X187399034Y-78328185D01*
X187399034Y-78328185D02*
X187494272Y-78518661D01*
X187494272Y-78518661D02*
X187589510Y-78613900D01*
X187589510Y-78613900D02*
X187779986Y-78709138D01*
X187779986Y-78709138D02*
X188160939Y-78709138D01*
X188160939Y-78709138D02*
X188351415Y-78613900D01*
X188351415Y-78613900D02*
X188446653Y-78518661D01*
X188446653Y-78518661D02*
X188541891Y-78328185D01*
X188541891Y-78328185D02*
X188541891Y-76709138D01*
X189208558Y-76709138D02*
X190351415Y-76709138D01*
X189779986Y-78709138D02*
X189779986Y-76709138D01*
X180922844Y-36069138D02*
X181589510Y-38069138D01*
X181589510Y-38069138D02*
X182256177Y-36069138D01*
X182922844Y-37307233D02*
X184446654Y-37307233D01*
X186541891Y-37878661D02*
X186446653Y-37973900D01*
X186446653Y-37973900D02*
X186160939Y-38069138D01*
X186160939Y-38069138D02*
X185970463Y-38069138D01*
X185970463Y-38069138D02*
X185684748Y-37973900D01*
X185684748Y-37973900D02*
X185494272Y-37783423D01*
X185494272Y-37783423D02*
X185399034Y-37592947D01*
X185399034Y-37592947D02*
X185303796Y-37211995D01*
X185303796Y-37211995D02*
X185303796Y-36926280D01*
X185303796Y-36926280D02*
X185399034Y-36545328D01*
X185399034Y-36545328D02*
X185494272Y-36354852D01*
X185494272Y-36354852D02*
X185684748Y-36164376D01*
X185684748Y-36164376D02*
X185970463Y-36069138D01*
X185970463Y-36069138D02*
X186160939Y-36069138D01*
X186160939Y-36069138D02*
X186446653Y-36164376D01*
X186446653Y-36164376D02*
X186541891Y-36259614D01*
X187399034Y-36069138D02*
X187399034Y-37688185D01*
X187399034Y-37688185D02*
X187494272Y-37878661D01*
X187494272Y-37878661D02*
X187589510Y-37973900D01*
X187589510Y-37973900D02*
X187779986Y-38069138D01*
X187779986Y-38069138D02*
X188160939Y-38069138D01*
X188160939Y-38069138D02*
X188351415Y-37973900D01*
X188351415Y-37973900D02*
X188446653Y-37878661D01*
X188446653Y-37878661D02*
X188541891Y-37688185D01*
X188541891Y-37688185D02*
X188541891Y-36069138D01*
X189208558Y-36069138D02*
X190351415Y-36069138D01*
X189779986Y-38069138D02*
X189779986Y-36069138D01*
X180922844Y-66549138D02*
X181589510Y-68549138D01*
X181589510Y-68549138D02*
X182256177Y-66549138D01*
X182922844Y-67787233D02*
X184446654Y-67787233D01*
X186541891Y-68358661D02*
X186446653Y-68453900D01*
X186446653Y-68453900D02*
X186160939Y-68549138D01*
X186160939Y-68549138D02*
X185970463Y-68549138D01*
X185970463Y-68549138D02*
X185684748Y-68453900D01*
X185684748Y-68453900D02*
X185494272Y-68263423D01*
X185494272Y-68263423D02*
X185399034Y-68072947D01*
X185399034Y-68072947D02*
X185303796Y-67691995D01*
X185303796Y-67691995D02*
X185303796Y-67406280D01*
X185303796Y-67406280D02*
X185399034Y-67025328D01*
X185399034Y-67025328D02*
X185494272Y-66834852D01*
X185494272Y-66834852D02*
X185684748Y-66644376D01*
X185684748Y-66644376D02*
X185970463Y-66549138D01*
X185970463Y-66549138D02*
X186160939Y-66549138D01*
X186160939Y-66549138D02*
X186446653Y-66644376D01*
X186446653Y-66644376D02*
X186541891Y-66739614D01*
X187399034Y-66549138D02*
X187399034Y-68168185D01*
X187399034Y-68168185D02*
X187494272Y-68358661D01*
X187494272Y-68358661D02*
X187589510Y-68453900D01*
X187589510Y-68453900D02*
X187779986Y-68549138D01*
X187779986Y-68549138D02*
X188160939Y-68549138D01*
X188160939Y-68549138D02*
X188351415Y-68453900D01*
X188351415Y-68453900D02*
X188446653Y-68358661D01*
X188446653Y-68358661D02*
X188541891Y-68168185D01*
X188541891Y-68168185D02*
X188541891Y-66549138D01*
X189208558Y-66549138D02*
X190351415Y-66549138D01*
X189779986Y-68549138D02*
X189779986Y-66549138D01*
X180922844Y-46229138D02*
X181589510Y-48229138D01*
X181589510Y-48229138D02*
X182256177Y-46229138D01*
X182922844Y-47467233D02*
X184446654Y-47467233D01*
X186541891Y-48038661D02*
X186446653Y-48133900D01*
X186446653Y-48133900D02*
X186160939Y-48229138D01*
X186160939Y-48229138D02*
X185970463Y-48229138D01*
X185970463Y-48229138D02*
X185684748Y-48133900D01*
X185684748Y-48133900D02*
X185494272Y-47943423D01*
X185494272Y-47943423D02*
X185399034Y-47752947D01*
X185399034Y-47752947D02*
X185303796Y-47371995D01*
X185303796Y-47371995D02*
X185303796Y-47086280D01*
X185303796Y-47086280D02*
X185399034Y-46705328D01*
X185399034Y-46705328D02*
X185494272Y-46514852D01*
X185494272Y-46514852D02*
X185684748Y-46324376D01*
X185684748Y-46324376D02*
X185970463Y-46229138D01*
X185970463Y-46229138D02*
X186160939Y-46229138D01*
X186160939Y-46229138D02*
X186446653Y-46324376D01*
X186446653Y-46324376D02*
X186541891Y-46419614D01*
X187399034Y-46229138D02*
X187399034Y-47848185D01*
X187399034Y-47848185D02*
X187494272Y-48038661D01*
X187494272Y-48038661D02*
X187589510Y-48133900D01*
X187589510Y-48133900D02*
X187779986Y-48229138D01*
X187779986Y-48229138D02*
X188160939Y-48229138D01*
X188160939Y-48229138D02*
X188351415Y-48133900D01*
X188351415Y-48133900D02*
X188446653Y-48038661D01*
X188446653Y-48038661D02*
X188541891Y-47848185D01*
X188541891Y-47848185D02*
X188541891Y-46229138D01*
X189208558Y-46229138D02*
X190351415Y-46229138D01*
X189779986Y-48229138D02*
X189779986Y-46229138D01*
X180922844Y-56389138D02*
X181589510Y-58389138D01*
X181589510Y-58389138D02*
X182256177Y-56389138D01*
X182922844Y-57627233D02*
X184446654Y-57627233D01*
X186541891Y-58198661D02*
X186446653Y-58293900D01*
X186446653Y-58293900D02*
X186160939Y-58389138D01*
X186160939Y-58389138D02*
X185970463Y-58389138D01*
X185970463Y-58389138D02*
X185684748Y-58293900D01*
X185684748Y-58293900D02*
X185494272Y-58103423D01*
X185494272Y-58103423D02*
X185399034Y-57912947D01*
X185399034Y-57912947D02*
X185303796Y-57531995D01*
X185303796Y-57531995D02*
X185303796Y-57246280D01*
X185303796Y-57246280D02*
X185399034Y-56865328D01*
X185399034Y-56865328D02*
X185494272Y-56674852D01*
X185494272Y-56674852D02*
X185684748Y-56484376D01*
X185684748Y-56484376D02*
X185970463Y-56389138D01*
X185970463Y-56389138D02*
X186160939Y-56389138D01*
X186160939Y-56389138D02*
X186446653Y-56484376D01*
X186446653Y-56484376D02*
X186541891Y-56579614D01*
X187399034Y-56389138D02*
X187399034Y-58008185D01*
X187399034Y-58008185D02*
X187494272Y-58198661D01*
X187494272Y-58198661D02*
X187589510Y-58293900D01*
X187589510Y-58293900D02*
X187779986Y-58389138D01*
X187779986Y-58389138D02*
X188160939Y-58389138D01*
X188160939Y-58389138D02*
X188351415Y-58293900D01*
X188351415Y-58293900D02*
X188446653Y-58198661D01*
X188446653Y-58198661D02*
X188541891Y-58008185D01*
X188541891Y-58008185D02*
X188541891Y-56389138D01*
X189208558Y-56389138D02*
X190351415Y-56389138D01*
X189779986Y-58389138D02*
X189779986Y-56389138D01*
X180922844Y-25909138D02*
X181589510Y-27909138D01*
X181589510Y-27909138D02*
X182256177Y-25909138D01*
X182922844Y-27147233D02*
X184446654Y-27147233D01*
X186541891Y-27718661D02*
X186446653Y-27813900D01*
X186446653Y-27813900D02*
X186160939Y-27909138D01*
X186160939Y-27909138D02*
X185970463Y-27909138D01*
X185970463Y-27909138D02*
X185684748Y-27813900D01*
X185684748Y-27813900D02*
X185494272Y-27623423D01*
X185494272Y-27623423D02*
X185399034Y-27432947D01*
X185399034Y-27432947D02*
X185303796Y-27051995D01*
X185303796Y-27051995D02*
X185303796Y-26766280D01*
X185303796Y-26766280D02*
X185399034Y-26385328D01*
X185399034Y-26385328D02*
X185494272Y-26194852D01*
X185494272Y-26194852D02*
X185684748Y-26004376D01*
X185684748Y-26004376D02*
X185970463Y-25909138D01*
X185970463Y-25909138D02*
X186160939Y-25909138D01*
X186160939Y-25909138D02*
X186446653Y-26004376D01*
X186446653Y-26004376D02*
X186541891Y-26099614D01*
X187399034Y-25909138D02*
X187399034Y-27528185D01*
X187399034Y-27528185D02*
X187494272Y-27718661D01*
X187494272Y-27718661D02*
X187589510Y-27813900D01*
X187589510Y-27813900D02*
X187779986Y-27909138D01*
X187779986Y-27909138D02*
X188160939Y-27909138D01*
X188160939Y-27909138D02*
X188351415Y-27813900D01*
X188351415Y-27813900D02*
X188446653Y-27718661D01*
X188446653Y-27718661D02*
X188541891Y-27528185D01*
X188541891Y-27528185D02*
X188541891Y-25909138D01*
X189208558Y-25909138D02*
X190351415Y-25909138D01*
X189779986Y-27909138D02*
X189779986Y-25909138D01*
X147412138Y-13612155D02*
X149412138Y-12945489D01*
X149412138Y-12945489D02*
X147412138Y-12278822D01*
X148650233Y-11612155D02*
X148650233Y-10088346D01*
X149221661Y-7993108D02*
X149316900Y-8088346D01*
X149316900Y-8088346D02*
X149412138Y-8374060D01*
X149412138Y-8374060D02*
X149412138Y-8564536D01*
X149412138Y-8564536D02*
X149316900Y-8850251D01*
X149316900Y-8850251D02*
X149126423Y-9040727D01*
X149126423Y-9040727D02*
X148935947Y-9135965D01*
X148935947Y-9135965D02*
X148554995Y-9231203D01*
X148554995Y-9231203D02*
X148269280Y-9231203D01*
X148269280Y-9231203D02*
X147888328Y-9135965D01*
X147888328Y-9135965D02*
X147697852Y-9040727D01*
X147697852Y-9040727D02*
X147507376Y-8850251D01*
X147507376Y-8850251D02*
X147412138Y-8564536D01*
X147412138Y-8564536D02*
X147412138Y-8374060D01*
X147412138Y-8374060D02*
X147507376Y-8088346D01*
X147507376Y-8088346D02*
X147602614Y-7993108D01*
X147412138Y-7135965D02*
X149031185Y-7135965D01*
X149031185Y-7135965D02*
X149221661Y-7040727D01*
X149221661Y-7040727D02*
X149316900Y-6945489D01*
X149316900Y-6945489D02*
X149412138Y-6755013D01*
X149412138Y-6755013D02*
X149412138Y-6374060D01*
X149412138Y-6374060D02*
X149316900Y-6183584D01*
X149316900Y-6183584D02*
X149221661Y-6088346D01*
X149221661Y-6088346D02*
X149031185Y-5993108D01*
X149031185Y-5993108D02*
X147412138Y-5993108D01*
X147412138Y-5326441D02*
X147412138Y-4183584D01*
X149412138Y-4755013D02*
X147412138Y-4755013D01*
D11*
%TO.C,H1*%
X155110000Y-42239500D02*
G75*
G02*
X149510000Y-42239500I-2800000J0D01*
G01*
X149510000Y-42239500D02*
G75*
G02*
X155110000Y-42239500I2800000J0D01*
G01*
X129075000Y-52399500D02*
G75*
G02*
X123475000Y-52399500I-2800000J0D01*
G01*
X123475000Y-52399500D02*
G75*
G02*
X129075000Y-52399500I2800000J0D01*
G01*
X155110000Y-32079500D02*
G75*
G02*
X149510000Y-32079500I-2800000J0D01*
G01*
X149510000Y-32079500D02*
G75*
G02*
X155110000Y-32079500I2800000J0D01*
G01*
X155110000Y-52399500D02*
G75*
G02*
X149510000Y-52399500I-2800000J0D01*
G01*
X149510000Y-52399500D02*
G75*
G02*
X155110000Y-52399500I2800000J0D01*
G01*
X155110000Y-72719500D02*
G75*
G02*
X149510000Y-72719500I-2800000J0D01*
G01*
X149510000Y-72719500D02*
G75*
G02*
X155110000Y-72719500I2800000J0D01*
G01*
X129075000Y-72719500D02*
G75*
G02*
X123475000Y-72719500I-2800000J0D01*
G01*
X123475000Y-72719500D02*
G75*
G02*
X129075000Y-72719500I2800000J0D01*
G01*
X129075000Y-62559500D02*
G75*
G02*
X123475000Y-62559500I-2800000J0D01*
G01*
X123475000Y-62559500D02*
G75*
G02*
X129075000Y-62559500I2800000J0D01*
G01*
X129075000Y-32079500D02*
G75*
G02*
X123475000Y-32079500I-2800000J0D01*
G01*
X123475000Y-32079500D02*
G75*
G02*
X129075000Y-32079500I2800000J0D01*
G01*
X155110000Y-62559500D02*
G75*
G02*
X149510000Y-62559500I-2800000J0D01*
G01*
X149510000Y-62559500D02*
G75*
G02*
X155110000Y-62559500I2800000J0D01*
G01*
X129075000Y-42239500D02*
G75*
G02*
X123475000Y-42239500I-2800000J0D01*
G01*
X123475000Y-42239500D02*
G75*
G02*
X129075000Y-42239500I2800000J0D01*
G01*
%TD*%
M02*
