%TF.GenerationSoftware,KiCad,Pcbnew,8.0.8*%
%TF.CreationDate,2025-02-21T17:55:20+11:00*%
%TF.ProjectId,panel,70616e65-6c2e-46b6-9963-61645f706362,rev?*%
%TF.SameCoordinates,Original*%
%TF.FileFunction,Copper,L1,Top*%
%TF.FilePolarity,Positive*%
%FSLAX46Y46*%
G04 Gerber Fmt 4.6, Leading zero omitted, Abs format (unit mm)*
G04 Created by KiCad (PCBNEW 8.0.8) date 2025-02-21 17:55:20*
%MOMM*%
%LPD*%
G01*
G04 APERTURE LIST*
G04 Aperture macros list*
%AMRoundRect*
0 Rectangle with rounded corners*
0 $1 Rounding radius*
0 $2 $3 $4 $5 $6 $7 $8 $9 X,Y pos of 4 corners*
0 Add a 4 corners polygon primitive as box body*
4,1,4,$2,$3,$4,$5,$6,$7,$8,$9,$2,$3,0*
0 Add four circle primitives for the rounded corners*
1,1,$1+$1,$2,$3*
1,1,$1+$1,$4,$5*
1,1,$1+$1,$6,$7*
1,1,$1+$1,$8,$9*
0 Add four rect primitives between the rounded corners*
20,1,$1+$1,$2,$3,$4,$5,0*
20,1,$1+$1,$4,$5,$6,$7,0*
20,1,$1+$1,$6,$7,$8,$9,0*
20,1,$1+$1,$8,$9,$2,$3,0*%
%AMFreePoly0*
4,1,87,-1.493263,2.329895,-1.191775,2.269926,-0.900694,2.171117,-0.625000,2.035160,-0.369411,1.864380,-0.138299,1.661701,0.064380,1.430589,0.235160,1.175000,0.371117,0.899306,0.469926,0.608225,0.529895,0.306737,0.550000,0.000000,0.529895,-0.306737,0.469926,-0.608225,0.371117,-0.899306,0.235160,-1.175000,0.064380,-1.430589,-0.138299,-1.661701,-0.369411,-1.864380,-0.625000,-2.035160,
-0.900694,-2.171117,-1.191775,-2.269926,-1.493263,-2.329895,-1.800000,-2.350000,-2.106737,-2.329895,-2.408225,-2.269926,-2.699306,-2.171117,-2.975000,-2.035160,-3.230589,-1.864380,-3.461701,-1.661701,-3.664380,-1.430589,-3.835160,-1.175000,-3.971117,-0.899306,-4.069926,-0.608225,-4.129895,-0.306737,-4.150000,0.000000,-3.054775,0.000000,-3.035712,-0.217889,-2.979103,-0.429158,-2.886667,-0.627388,
-2.761213,-0.806554,-2.606554,-0.961213,-2.427388,-1.086667,-2.229158,-1.179103,-2.017889,-1.235712,-1.800000,-1.254775,-1.582111,-1.235712,-1.370842,-1.179103,-1.172612,-1.086667,-0.993446,-0.961213,-0.838787,-0.806554,-0.713333,-0.627388,-0.620897,-0.429158,-0.564288,-0.217889,-0.545225,0.000000,-0.564288,0.217889,-0.620897,0.429158,-0.713333,0.627387,-0.838787,0.806554,-0.993446,0.961213,
-1.172612,1.086667,-1.370842,1.179103,-1.582111,1.235712,-1.800000,1.254775,-2.017889,1.235712,-2.229158,1.179103,-2.427387,1.086667,-2.606554,0.961213,-2.761213,0.806554,-2.886667,0.627387,-2.979103,0.429158,-3.035712,0.217889,-3.054775,0.000000,-4.150000,0.000000,-4.129895,0.306737,-4.069926,0.608225,-3.971117,0.899306,-3.835160,1.175000,-3.664380,1.430589,-3.461701,1.661701,
-3.230589,1.864380,-2.975000,2.035160,-2.699306,2.171117,-2.408225,2.269926,-2.106737,2.329895,-1.800000,2.350000,-1.493263,2.329895,-1.493263,2.329895,$1*%
G04 Aperture macros list end*
%TA.AperFunction,SMDPad,CuDef*%
%ADD10O,1.100000X1.100000*%
%TD*%
%TA.AperFunction,SMDPad,CuDef*%
%ADD11FreePoly0,0.000000*%
%TD*%
%TA.AperFunction,ComponentPad*%
%ADD12R,1.700000X1.700000*%
%TD*%
%TA.AperFunction,SMDPad,CuDef*%
%ADD13RoundRect,0.237500X0.287500X0.237500X-0.287500X0.237500X-0.287500X-0.237500X0.287500X-0.237500X0*%
%TD*%
%TA.AperFunction,ComponentPad*%
%ADD14O,1.700000X1.700000*%
%TD*%
%TA.AperFunction,SMDPad,CuDef*%
%ADD15C,1.000000*%
%TD*%
%TA.AperFunction,SMDPad,CuDef*%
%ADD16RoundRect,0.250000X-1.075000X0.400000X-1.075000X-0.400000X1.075000X-0.400000X1.075000X0.400000X0*%
%TD*%
%TA.AperFunction,ComponentPad*%
%ADD17RoundRect,0.250000X-0.725000X0.600000X-0.725000X-0.600000X0.725000X-0.600000X0.725000X0.600000X0*%
%TD*%
%TA.AperFunction,ComponentPad*%
%ADD18O,1.950000X1.700000*%
%TD*%
%TA.AperFunction,ViaPad*%
%ADD19C,0.800000*%
%TD*%
%TA.AperFunction,Conductor*%
%ADD20C,1.000000*%
%TD*%
G04 APERTURE END LIST*
D10*
%TO.P,H2,1,1*%
%TO.N,Board_1-+BATT*%
X162816155Y-31179500D03*
X162816155Y-32979500D03*
X164375000Y-30279500D03*
X164375000Y-33879500D03*
X165933845Y-31179500D03*
X165933845Y-32979499D03*
D11*
X166175000Y-32079500D03*
%TD*%
D12*
%TO.P,J8,1,Pin_1*%
%TO.N,Board_5-/BATT SWITCH*%
X157385000Y-49224500D03*
%TO.P,J8,2,Pin_2*%
X159925000Y-49224500D03*
%TD*%
D13*
%TO.P,D1,1,K*%
%TO.N,Board_9--BATT*%
X170330000Y-76529500D03*
%TO.P,D1,2,A*%
%TO.N,Board_9-Net-(D1-A)*%
X168580000Y-76529500D03*
%TD*%
D14*
%TO.P,J9,1,Pin_1*%
%TO.N,Board_6--BATT*%
X131350000Y-65734500D03*
%TO.P,J9,2,Pin_2*%
X133890000Y-65734500D03*
%TD*%
D13*
%TO.P,D1,1,K*%
%TO.N,Board_5--BATT*%
X170330000Y-56209500D03*
%TO.P,D1,2,A*%
%TO.N,Board_5-Net-(D1-A)*%
X168580000Y-56209500D03*
%TD*%
D12*
%TO.P,J8,1,Pin_1*%
%TO.N,Board_9-/BATT SWITCH*%
X157385000Y-69544500D03*
%TO.P,J8,2,Pin_2*%
X159925000Y-69544500D03*
%TD*%
D14*
%TO.P,J9,1,Pin_1*%
%TO.N,Board_4--BATT*%
X131350000Y-55574500D03*
%TO.P,J9,2,Pin_2*%
X133890000Y-55574500D03*
%TD*%
D15*
%TO.P,KiKit_FID_T_2,*%
%TO.N,*%
X169535000Y-22500000D03*
%TD*%
D13*
%TO.P,D1,1,K*%
%TO.N,Board_1--BATT*%
X170330000Y-35889500D03*
%TO.P,D1,2,A*%
%TO.N,Board_1-Net-(D1-A)*%
X168580000Y-35889500D03*
%TD*%
D16*
%TO.P,R1,1*%
%TO.N,Board_7-/BATT SWITCH*%
X169455000Y-61009500D03*
%TO.P,R1,2*%
%TO.N,Board_7-Net-(D1-A)*%
X169455000Y-64109500D03*
%TD*%
D10*
%TO.P,H2,1,1*%
%TO.N,Board_9-+BATT*%
X162816155Y-71819500D03*
X162816155Y-73619500D03*
X164375000Y-70919500D03*
X164375000Y-74519500D03*
X165933845Y-71819500D03*
X165933845Y-73619499D03*
D11*
X166175000Y-72719500D03*
%TD*%
D13*
%TO.P,D1,1,K*%
%TO.N,Board_0--BATT*%
X144295000Y-35889500D03*
%TO.P,D1,2,A*%
%TO.N,Board_0-Net-(D1-A)*%
X142545000Y-35889500D03*
%TD*%
D16*
%TO.P,R1,1*%
%TO.N,Board_9-/BATT SWITCH*%
X169455000Y-71169500D03*
%TO.P,R1,2*%
%TO.N,Board_9-Net-(D1-A)*%
X169455000Y-74269500D03*
%TD*%
D10*
%TO.P,H2,1,1*%
%TO.N,Board_7-+BATT*%
X162816155Y-61659500D03*
X162816155Y-63459500D03*
X164375000Y-60759500D03*
X164375000Y-64359500D03*
X165933845Y-61659500D03*
X165933845Y-63459499D03*
D11*
X166175000Y-62559500D03*
%TD*%
D16*
%TO.P,R1,1*%
%TO.N,Board_0-/BATT SWITCH*%
X143420000Y-30529500D03*
%TO.P,R1,2*%
%TO.N,Board_0-Net-(D1-A)*%
X143420000Y-33629500D03*
%TD*%
D12*
%TO.P,J8,1,Pin_1*%
%TO.N,Board_7-/BATT SWITCH*%
X157385000Y-59384500D03*
%TO.P,J8,2,Pin_2*%
X159925000Y-59384500D03*
%TD*%
D16*
%TO.P,R1,1*%
%TO.N,Board_3-/BATT SWITCH*%
X169455000Y-40689500D03*
%TO.P,R1,2*%
%TO.N,Board_3-Net-(D1-A)*%
X169455000Y-43789500D03*
%TD*%
D13*
%TO.P,D1,1,K*%
%TO.N,Board_6--BATT*%
X144295000Y-66369500D03*
%TO.P,D1,2,A*%
%TO.N,Board_6-Net-(D1-A)*%
X142545000Y-66369500D03*
%TD*%
D14*
%TO.P,J9,1,Pin_1*%
%TO.N,Board_5--BATT*%
X157385000Y-55574500D03*
%TO.P,J9,2,Pin_2*%
X159925000Y-55574500D03*
%TD*%
D16*
%TO.P,R1,1*%
%TO.N,Board_2-/BATT SWITCH*%
X143420000Y-40689500D03*
%TO.P,R1,2*%
%TO.N,Board_2-Net-(D1-A)*%
X143420000Y-43789500D03*
%TD*%
D14*
%TO.P,J9,1,Pin_1*%
%TO.N,Board_0--BATT*%
X131350000Y-35254500D03*
%TO.P,J9,2,Pin_2*%
X133890000Y-35254500D03*
%TD*%
D15*
%TO.P,KiKit_FID_T_3,*%
%TO.N,*%
X127465000Y-82299500D03*
%TD*%
D13*
%TO.P,D1,1,K*%
%TO.N,Board_3--BATT*%
X170330000Y-46049500D03*
%TO.P,D1,2,A*%
%TO.N,Board_3-Net-(D1-A)*%
X168580000Y-46049500D03*
%TD*%
D10*
%TO.P,H2,1,1*%
%TO.N,Board_5-+BATT*%
X162816155Y-51499500D03*
X162816155Y-53299500D03*
X164375000Y-50599500D03*
X164375000Y-54199500D03*
X165933845Y-51499500D03*
X165933845Y-53299499D03*
D11*
X166175000Y-52399500D03*
%TD*%
D13*
%TO.P,D1,1,K*%
%TO.N,Board_2--BATT*%
X144295000Y-46049500D03*
%TO.P,D1,2,A*%
%TO.N,Board_2-Net-(D1-A)*%
X142545000Y-46049500D03*
%TD*%
%TO.P,D1,1,K*%
%TO.N,Board_4--BATT*%
X144295000Y-56209500D03*
%TO.P,D1,2,A*%
%TO.N,Board_4-Net-(D1-A)*%
X142545000Y-56209500D03*
%TD*%
D10*
%TO.P,H2,1,1*%
%TO.N,Board_8-+BATT*%
X136781155Y-71819500D03*
X136781155Y-73619500D03*
X138340000Y-70919500D03*
X138340000Y-74519500D03*
X139898845Y-71819500D03*
X139898845Y-73619499D03*
D11*
X140140000Y-72719500D03*
%TD*%
D12*
%TO.P,J8,1,Pin_1*%
%TO.N,Board_0-/BATT SWITCH*%
X131350000Y-28904500D03*
%TO.P,J8,2,Pin_2*%
X133890000Y-28904500D03*
%TD*%
D14*
%TO.P,J9,1,Pin_1*%
%TO.N,Board_7--BATT*%
X157385000Y-65734500D03*
%TO.P,J9,2,Pin_2*%
X159925000Y-65734500D03*
%TD*%
D12*
%TO.P,J8,1,Pin_1*%
%TO.N,Board_2-/BATT SWITCH*%
X131350000Y-39064500D03*
%TO.P,J8,2,Pin_2*%
X133890000Y-39064500D03*
%TD*%
D16*
%TO.P,R1,1*%
%TO.N,Board_8-/BATT SWITCH*%
X143420000Y-71169500D03*
%TO.P,R1,2*%
%TO.N,Board_8-Net-(D1-A)*%
X143420000Y-74269500D03*
%TD*%
D10*
%TO.P,H2,1,1*%
%TO.N,Board_4-+BATT*%
X136781155Y-51499500D03*
X136781155Y-53299500D03*
X138340000Y-50599500D03*
X138340000Y-54199500D03*
X139898845Y-51499500D03*
X139898845Y-53299499D03*
D11*
X140140000Y-52399500D03*
%TD*%
D15*
%TO.P,KiKit_FID_T_4,*%
%TO.N,*%
X169535000Y-82299500D03*
%TD*%
D10*
%TO.P,H2,1,1*%
%TO.N,Board_3-+BATT*%
X162816155Y-41339500D03*
X162816155Y-43139500D03*
X164375000Y-40439500D03*
X164375000Y-44039500D03*
X165933845Y-41339500D03*
X165933845Y-43139499D03*
D11*
X166175000Y-42239500D03*
%TD*%
D10*
%TO.P,H2,1,1*%
%TO.N,Board_0-+BATT*%
X136781155Y-31179500D03*
X136781155Y-32979500D03*
X138340000Y-30279500D03*
X138340000Y-33879500D03*
X139898845Y-31179500D03*
X139898845Y-32979499D03*
D11*
X140140000Y-32079500D03*
%TD*%
D14*
%TO.P,J9,1,Pin_1*%
%TO.N,Board_8--BATT*%
X131350000Y-75894500D03*
%TO.P,J9,2,Pin_2*%
X133890000Y-75894500D03*
%TD*%
D13*
%TO.P,D1,1,K*%
%TO.N,Board_7--BATT*%
X170330000Y-66369500D03*
%TO.P,D1,2,A*%
%TO.N,Board_7-Net-(D1-A)*%
X168580000Y-66369500D03*
%TD*%
D16*
%TO.P,R1,1*%
%TO.N,Board_5-/BATT SWITCH*%
X169455000Y-50849500D03*
%TO.P,R1,2*%
%TO.N,Board_5-Net-(D1-A)*%
X169455000Y-53949500D03*
%TD*%
%TO.P,R1,1*%
%TO.N,Board_1-/BATT SWITCH*%
X169455000Y-30529500D03*
%TO.P,R1,2*%
%TO.N,Board_1-Net-(D1-A)*%
X169455000Y-33629500D03*
%TD*%
D12*
%TO.P,J8,1,Pin_1*%
%TO.N,Board_4-/BATT SWITCH*%
X131350000Y-49224500D03*
%TO.P,J8,2,Pin_2*%
X133890000Y-49224500D03*
%TD*%
D14*
%TO.P,J9,1,Pin_1*%
%TO.N,Board_1--BATT*%
X157385000Y-35254500D03*
%TO.P,J9,2,Pin_2*%
X159925000Y-35254500D03*
%TD*%
D13*
%TO.P,D1,1,K*%
%TO.N,Board_8--BATT*%
X144295000Y-76529500D03*
%TO.P,D1,2,A*%
%TO.N,Board_8-Net-(D1-A)*%
X142545000Y-76529500D03*
%TD*%
D12*
%TO.P,J8,1,Pin_1*%
%TO.N,Board_1-/BATT SWITCH*%
X157385000Y-28904500D03*
%TO.P,J8,2,Pin_2*%
X159925000Y-28904500D03*
%TD*%
%TO.P,J8,1,Pin_1*%
%TO.N,Board_3-/BATT SWITCH*%
X157385000Y-39064500D03*
%TO.P,J8,2,Pin_2*%
X159925000Y-39064500D03*
%TD*%
D14*
%TO.P,J9,1,Pin_1*%
%TO.N,Board_2--BATT*%
X131350000Y-45414500D03*
%TO.P,J9,2,Pin_2*%
X133890000Y-45414500D03*
%TD*%
D16*
%TO.P,R1,1*%
%TO.N,Board_4-/BATT SWITCH*%
X143420000Y-50849500D03*
%TO.P,R1,2*%
%TO.N,Board_4-Net-(D1-A)*%
X143420000Y-53949500D03*
%TD*%
D14*
%TO.P,J9,1,Pin_1*%
%TO.N,Board_9--BATT*%
X157385000Y-75894500D03*
%TO.P,J9,2,Pin_2*%
X159925000Y-75894500D03*
%TD*%
D10*
%TO.P,H2,1,1*%
%TO.N,Board_6-+BATT*%
X136781155Y-61659500D03*
X136781155Y-63459500D03*
X138340000Y-60759500D03*
X138340000Y-64359500D03*
X139898845Y-61659500D03*
X139898845Y-63459499D03*
D11*
X140140000Y-62559500D03*
%TD*%
D12*
%TO.P,J8,1,Pin_1*%
%TO.N,Board_6-/BATT SWITCH*%
X131350000Y-59384500D03*
%TO.P,J8,2,Pin_2*%
X133890000Y-59384500D03*
%TD*%
%TO.P,J8,1,Pin_1*%
%TO.N,Board_8-/BATT SWITCH*%
X131350000Y-69544500D03*
%TO.P,J8,2,Pin_2*%
X133890000Y-69544500D03*
%TD*%
D10*
%TO.P,H2,1,1*%
%TO.N,Board_2-+BATT*%
X136781155Y-41339500D03*
X136781155Y-43139500D03*
X138340000Y-40439500D03*
X138340000Y-44039500D03*
X139898845Y-41339500D03*
X139898845Y-43139499D03*
D11*
X140140000Y-42239500D03*
%TD*%
D16*
%TO.P,R1,1*%
%TO.N,Board_6-/BATT SWITCH*%
X143420000Y-61009500D03*
%TO.P,R1,2*%
%TO.N,Board_6-Net-(D1-A)*%
X143420000Y-64109500D03*
%TD*%
D15*
%TO.P,KiKit_FID_T_1,*%
%TO.N,*%
X127465000Y-22500000D03*
%TD*%
D14*
%TO.P,J9,1,Pin_1*%
%TO.N,Board_3--BATT*%
X157385000Y-45414500D03*
%TO.P,J9,2,Pin_2*%
X159925000Y-45414500D03*
%TD*%
D17*
%TO.P,J3,1,Pin_1*%
%TO.N,Board_1-+BATT*%
X172630000Y-29579500D03*
D18*
%TO.P,J3,2,Pin_2*%
%TO.N,Board_1-/3.7V*%
X172630000Y-32079500D03*
%TO.P,J3,3,Pin_3*%
%TO.N,Board_1--BATT*%
X172630000Y-34579500D03*
%TD*%
D17*
%TO.P,J3,1,Pin_1*%
%TO.N,Board_0-+BATT*%
X146595000Y-29579500D03*
D18*
%TO.P,J3,2,Pin_2*%
%TO.N,Board_0-/3.7V*%
X146595000Y-32079500D03*
%TO.P,J3,3,Pin_3*%
%TO.N,Board_0--BATT*%
X146595000Y-34579500D03*
%TD*%
D17*
%TO.P,J3,1,Pin_1*%
%TO.N,Board_9-+BATT*%
X172630000Y-70219500D03*
D18*
%TO.P,J3,2,Pin_2*%
%TO.N,Board_9-/3.7V*%
X172630000Y-72719500D03*
%TO.P,J3,3,Pin_3*%
%TO.N,Board_9--BATT*%
X172630000Y-75219500D03*
%TD*%
D17*
%TO.P,J3,1,Pin_1*%
%TO.N,Board_7-+BATT*%
X172630000Y-60059500D03*
D18*
%TO.P,J3,2,Pin_2*%
%TO.N,Board_7-/3.7V*%
X172630000Y-62559500D03*
%TO.P,J3,3,Pin_3*%
%TO.N,Board_7--BATT*%
X172630000Y-65059500D03*
%TD*%
D17*
%TO.P,J3,1,Pin_1*%
%TO.N,Board_4-+BATT*%
X146595000Y-49899500D03*
D18*
%TO.P,J3,2,Pin_2*%
%TO.N,Board_4-/3.7V*%
X146595000Y-52399500D03*
%TO.P,J3,3,Pin_3*%
%TO.N,Board_4--BATT*%
X146595000Y-54899500D03*
%TD*%
D17*
%TO.P,J3,1,Pin_1*%
%TO.N,Board_3-+BATT*%
X172630000Y-39739500D03*
D18*
%TO.P,J3,2,Pin_2*%
%TO.N,Board_3-/3.7V*%
X172630000Y-42239500D03*
%TO.P,J3,3,Pin_3*%
%TO.N,Board_3--BATT*%
X172630000Y-44739500D03*
%TD*%
D17*
%TO.P,J3,1,Pin_1*%
%TO.N,Board_5-+BATT*%
X172630000Y-49899500D03*
D18*
%TO.P,J3,2,Pin_2*%
%TO.N,Board_5-/3.7V*%
X172630000Y-52399500D03*
%TO.P,J3,3,Pin_3*%
%TO.N,Board_5--BATT*%
X172630000Y-54899500D03*
%TD*%
D17*
%TO.P,J3,1,Pin_1*%
%TO.N,Board_8-+BATT*%
X146595000Y-70219500D03*
D18*
%TO.P,J3,2,Pin_2*%
%TO.N,Board_8-/3.7V*%
X146595000Y-72719500D03*
%TO.P,J3,3,Pin_3*%
%TO.N,Board_8--BATT*%
X146595000Y-75219500D03*
%TD*%
D17*
%TO.P,J3,1,Pin_1*%
%TO.N,Board_6-+BATT*%
X146595000Y-60059500D03*
D18*
%TO.P,J3,2,Pin_2*%
%TO.N,Board_6-/3.7V*%
X146595000Y-62559500D03*
%TO.P,J3,3,Pin_3*%
%TO.N,Board_6--BATT*%
X146595000Y-65059500D03*
%TD*%
D17*
%TO.P,J3,1,Pin_1*%
%TO.N,Board_2-+BATT*%
X146595000Y-39739500D03*
D18*
%TO.P,J3,2,Pin_2*%
%TO.N,Board_2-/3.7V*%
X146595000Y-42239500D03*
%TO.P,J3,3,Pin_3*%
%TO.N,Board_2--BATT*%
X146595000Y-44739500D03*
%TD*%
D19*
%TO.N,Board_0-/BATT SWITCH*%
X141515000Y-30199500D03*
%TO.N,Board_1-/BATT SWITCH*%
X167550000Y-30199500D03*
%TO.N,Board_2-/BATT SWITCH*%
X141515000Y-40359500D03*
%TO.N,Board_3-/BATT SWITCH*%
X167550000Y-40359500D03*
%TO.N,Board_4-/BATT SWITCH*%
X141515000Y-50519500D03*
%TO.N,Board_5-/BATT SWITCH*%
X167550000Y-50519500D03*
%TO.N,Board_6-/BATT SWITCH*%
X141515000Y-60679500D03*
%TO.N,Board_7-/BATT SWITCH*%
X167550000Y-60679500D03*
%TO.N,Board_8-/BATT SWITCH*%
X141515000Y-70839500D03*
%TO.N,Board_9-/BATT SWITCH*%
X167550000Y-70839500D03*
%TD*%
D20*
%TO.N,Board_0--BATT*%
X146595000Y-34579500D02*
X146595000Y-34619500D01*
X145325000Y-35889500D02*
X144295000Y-35889500D01*
X146595000Y-34619500D02*
X145325000Y-35889500D01*
%TO.N,Board_0-/BATT SWITCH*%
X141845000Y-30529500D02*
X141515000Y-30199500D01*
X143420000Y-30529500D02*
X141845000Y-30529500D01*
%TO.N,Board_0-Net-(D1-A)*%
X142545000Y-35889500D02*
X142545000Y-34504500D01*
X142545000Y-34504500D02*
X143420000Y-33629500D01*
%TO.N,Board_1--BATT*%
X172630000Y-34619500D02*
X171360000Y-35889500D01*
X172630000Y-34579500D02*
X172630000Y-34619500D01*
X171360000Y-35889500D02*
X170330000Y-35889500D01*
%TO.N,Board_1-/BATT SWITCH*%
X169455000Y-30529500D02*
X167880000Y-30529500D01*
X167880000Y-30529500D02*
X167550000Y-30199500D01*
%TO.N,Board_1-Net-(D1-A)*%
X168580000Y-34504500D02*
X169455000Y-33629500D01*
X168580000Y-35889500D02*
X168580000Y-34504500D01*
%TO.N,Board_2--BATT*%
X146595000Y-44739500D02*
X146595000Y-44779500D01*
X145325000Y-46049500D02*
X144295000Y-46049500D01*
X146595000Y-44779500D02*
X145325000Y-46049500D01*
%TO.N,Board_2-/BATT SWITCH*%
X141845000Y-40689500D02*
X141515000Y-40359500D01*
X143420000Y-40689500D02*
X141845000Y-40689500D01*
%TO.N,Board_2-Net-(D1-A)*%
X142545000Y-46049500D02*
X142545000Y-44664500D01*
X142545000Y-44664500D02*
X143420000Y-43789500D01*
%TO.N,Board_3--BATT*%
X171360000Y-46049500D02*
X170330000Y-46049500D01*
X172630000Y-44779500D02*
X171360000Y-46049500D01*
X172630000Y-44739500D02*
X172630000Y-44779500D01*
%TO.N,Board_3-/BATT SWITCH*%
X167880000Y-40689500D02*
X167550000Y-40359500D01*
X169455000Y-40689500D02*
X167880000Y-40689500D01*
%TO.N,Board_3-Net-(D1-A)*%
X168580000Y-46049500D02*
X168580000Y-44664500D01*
X168580000Y-44664500D02*
X169455000Y-43789500D01*
%TO.N,Board_4--BATT*%
X146595000Y-54899500D02*
X146595000Y-54939500D01*
X145325000Y-56209500D02*
X144295000Y-56209500D01*
X146595000Y-54939500D02*
X145325000Y-56209500D01*
%TO.N,Board_4-/BATT SWITCH*%
X141845000Y-50849500D02*
X141515000Y-50519500D01*
X143420000Y-50849500D02*
X141845000Y-50849500D01*
%TO.N,Board_4-Net-(D1-A)*%
X142545000Y-54824500D02*
X143420000Y-53949500D01*
X142545000Y-56209500D02*
X142545000Y-54824500D01*
%TO.N,Board_5--BATT*%
X171360000Y-56209500D02*
X170330000Y-56209500D01*
X172630000Y-54899500D02*
X172630000Y-54939500D01*
X172630000Y-54939500D02*
X171360000Y-56209500D01*
%TO.N,Board_5-/BATT SWITCH*%
X167880000Y-50849500D02*
X167550000Y-50519500D01*
X169455000Y-50849500D02*
X167880000Y-50849500D01*
%TO.N,Board_5-Net-(D1-A)*%
X168580000Y-54824500D02*
X169455000Y-53949500D01*
X168580000Y-56209500D02*
X168580000Y-54824500D01*
%TO.N,Board_6--BATT*%
X146595000Y-65099500D02*
X145325000Y-66369500D01*
X146595000Y-65059500D02*
X146595000Y-65099500D01*
X145325000Y-66369500D02*
X144295000Y-66369500D01*
%TO.N,Board_6-/BATT SWITCH*%
X141845000Y-61009500D02*
X141515000Y-60679500D01*
X143420000Y-61009500D02*
X141845000Y-61009500D01*
%TO.N,Board_6-Net-(D1-A)*%
X142545000Y-66369500D02*
X142545000Y-64984500D01*
X142545000Y-64984500D02*
X143420000Y-64109500D01*
%TO.N,Board_7--BATT*%
X172630000Y-65099500D02*
X171360000Y-66369500D01*
X171360000Y-66369500D02*
X170330000Y-66369500D01*
X172630000Y-65059500D02*
X172630000Y-65099500D01*
%TO.N,Board_7-/BATT SWITCH*%
X169455000Y-61009500D02*
X167880000Y-61009500D01*
X167880000Y-61009500D02*
X167550000Y-60679500D01*
%TO.N,Board_7-Net-(D1-A)*%
X168580000Y-66369500D02*
X168580000Y-64984500D01*
X168580000Y-64984500D02*
X169455000Y-64109500D01*
%TO.N,Board_8--BATT*%
X146595000Y-75219500D02*
X146595000Y-75259500D01*
X146595000Y-75259500D02*
X145325000Y-76529500D01*
X145325000Y-76529500D02*
X144295000Y-76529500D01*
%TO.N,Board_8-/BATT SWITCH*%
X143420000Y-71169500D02*
X141845000Y-71169500D01*
X141845000Y-71169500D02*
X141515000Y-70839500D01*
%TO.N,Board_8-Net-(D1-A)*%
X142545000Y-76529500D02*
X142545000Y-75144500D01*
X142545000Y-75144500D02*
X143420000Y-74269500D01*
%TO.N,Board_9--BATT*%
X172630000Y-75219500D02*
X172630000Y-75259500D01*
X172630000Y-75259500D02*
X171360000Y-76529500D01*
X171360000Y-76529500D02*
X170330000Y-76529500D01*
%TO.N,Board_9-/BATT SWITCH*%
X169455000Y-71169500D02*
X167880000Y-71169500D01*
X167880000Y-71169500D02*
X167550000Y-70839500D01*
%TO.N,Board_9-Net-(D1-A)*%
X168580000Y-75144500D02*
X169455000Y-74269500D01*
X168580000Y-76529500D02*
X168580000Y-75144500D01*
%TD*%
%TA.AperFunction,Conductor*%
%TO.N,Board_1-+BATT*%
G36*
X172949418Y-26999651D02*
G01*
X172972204Y-27001444D01*
X173192001Y-27018742D01*
X173199584Y-27019943D01*
X173411546Y-27070831D01*
X173434315Y-27076298D01*
X173441627Y-27078674D01*
X173470079Y-27090459D01*
X173664648Y-27171051D01*
X173671494Y-27174539D01*
X173877324Y-27300673D01*
X173883537Y-27305187D01*
X174017324Y-27419451D01*
X174034349Y-27452864D01*
X174034500Y-27456709D01*
X174034500Y-29717289D01*
X174020148Y-29751937D01*
X174017323Y-29754549D01*
X173910000Y-29846210D01*
X173910000Y-29846211D01*
X173880609Y-29871314D01*
X173668210Y-30001473D01*
X173479835Y-30079500D01*
X171405000Y-30079500D01*
X171405000Y-30125500D01*
X171390648Y-30160148D01*
X171356000Y-30174500D01*
X171329499Y-30174500D01*
X171294851Y-30160148D01*
X171280499Y-30125500D01*
X171280499Y-30079489D01*
X171269999Y-29976705D01*
X171269999Y-29976703D01*
X171214814Y-29810166D01*
X171122712Y-29660844D01*
X170998656Y-29536788D01*
X170998655Y-29536787D01*
X170966518Y-29516965D01*
X172155000Y-29516965D01*
X172155000Y-29642035D01*
X172187370Y-29762843D01*
X172249905Y-29871157D01*
X172338343Y-29959595D01*
X172446657Y-30022130D01*
X172567465Y-30054500D01*
X172692535Y-30054500D01*
X172813343Y-30022130D01*
X172921657Y-29959595D01*
X173010095Y-29871157D01*
X173072630Y-29762843D01*
X173105000Y-29642035D01*
X173105000Y-29516965D01*
X173072630Y-29396157D01*
X173010095Y-29287843D01*
X172921657Y-29199405D01*
X172813343Y-29136870D01*
X172692535Y-29104500D01*
X172567465Y-29104500D01*
X172446657Y-29136870D01*
X172338343Y-29199405D01*
X172249905Y-29287843D01*
X172187370Y-29396157D01*
X172155000Y-29516965D01*
X170966518Y-29516965D01*
X170849334Y-29444686D01*
X170682794Y-29389500D01*
X170580011Y-29379000D01*
X168329989Y-29379000D01*
X168227203Y-29389501D01*
X168190701Y-29401596D01*
X168153297Y-29398871D01*
X168148074Y-29395829D01*
X168023914Y-29312869D01*
X168023911Y-29312867D01*
X168023910Y-29312867D01*
X167841839Y-29237450D01*
X167841837Y-29237449D01*
X167841836Y-29237449D01*
X167841833Y-29237448D01*
X167841824Y-29237446D01*
X167648545Y-29199000D01*
X167648540Y-29199000D01*
X167451460Y-29199000D01*
X167451454Y-29199000D01*
X167258175Y-29237446D01*
X167258160Y-29237450D01*
X167076089Y-29312867D01*
X166912219Y-29422360D01*
X166772860Y-29561719D01*
X166663367Y-29725589D01*
X166587950Y-29907660D01*
X166587946Y-29907675D01*
X166549500Y-30100954D01*
X166549500Y-30298045D01*
X166587946Y-30491324D01*
X166587950Y-30491339D01*
X166639692Y-30616253D01*
X166597056Y-30545725D01*
X166395979Y-30289069D01*
X166165431Y-30058521D01*
X165908775Y-29857444D01*
X165629753Y-29688769D01*
X165332433Y-29554956D01*
X165021152Y-29457957D01*
X164700449Y-29399186D01*
X164375000Y-29379500D01*
X164049551Y-29399186D01*
X163728848Y-29457957D01*
X163417567Y-29554956D01*
X163120247Y-29688769D01*
X162841225Y-29857444D01*
X162661371Y-29998350D01*
X163270906Y-28931665D01*
X171405000Y-28931665D01*
X171405000Y-29079500D01*
X172130000Y-29079500D01*
X173130000Y-29079500D01*
X173855000Y-29079500D01*
X173855000Y-28931665D01*
X173848598Y-28872127D01*
X173848598Y-28872126D01*
X173798351Y-28737408D01*
X173712188Y-28622311D01*
X173597091Y-28536148D01*
X173462373Y-28485901D01*
X173402834Y-28479500D01*
X173130000Y-28479500D01*
X173130000Y-29079500D01*
X172130000Y-29079500D01*
X172130000Y-28479500D01*
X171857166Y-28479500D01*
X171797627Y-28485901D01*
X171797626Y-28485901D01*
X171662908Y-28536148D01*
X171547811Y-28622311D01*
X171461648Y-28737408D01*
X171411401Y-28872126D01*
X171411401Y-28872127D01*
X171405000Y-28931665D01*
X163270906Y-28931665D01*
X163609766Y-28338660D01*
X163798245Y-28008820D01*
X163800188Y-28005699D01*
X163894393Y-27866290D01*
X163965173Y-27761546D01*
X163969728Y-27755789D01*
X164168153Y-27540433D01*
X164173512Y-27535428D01*
X164401934Y-27352196D01*
X164407986Y-27348047D01*
X164661259Y-27201067D01*
X164667870Y-27197868D01*
X164940278Y-27090456D01*
X164947289Y-27088284D01*
X165232711Y-27022851D01*
X165239974Y-27021751D01*
X165533811Y-26999637D01*
X165537488Y-26999500D01*
X172945574Y-26999500D01*
X172949418Y-26999651D01*
G37*
%TD.AperFunction*%
%TD*%
%TA.AperFunction,Conductor*%
%TO.N,Board_0-+BATT*%
G36*
X138665449Y-29399186D02*
G01*
X138986152Y-29457957D01*
X139297433Y-29554956D01*
X139594753Y-29688769D01*
X139873775Y-29857444D01*
X140130431Y-30058521D01*
X140360979Y-30289069D01*
X140562056Y-30545725D01*
X140604691Y-30616253D01*
X140618134Y-30648705D01*
X140628369Y-30673414D01*
X140671717Y-30738290D01*
X140712910Y-30799940D01*
X140714847Y-30803090D01*
X140727180Y-30824957D01*
X140728549Y-30827566D01*
X140773831Y-30920568D01*
X140774459Y-30921908D01*
X140814585Y-31011063D01*
X140815172Y-31012422D01*
X140860557Y-31121992D01*
X140861607Y-31124759D01*
X140900299Y-31236884D01*
X140900760Y-31238290D01*
X140925332Y-31317143D01*
X140925751Y-31318563D01*
X140957593Y-31432786D01*
X140958302Y-31435660D01*
X140983200Y-31551646D01*
X140983488Y-31553098D01*
X140998371Y-31634316D01*
X140998616Y-31635775D01*
X141016461Y-31753025D01*
X141016818Y-31755964D01*
X141027549Y-31874058D01*
X141027661Y-31875533D01*
X141032651Y-31958006D01*
X141032718Y-31959485D01*
X141036299Y-32078020D01*
X141036299Y-32080980D01*
X141032718Y-32199514D01*
X141032651Y-32200993D01*
X141027661Y-32283466D01*
X141027549Y-32284941D01*
X141016818Y-32403035D01*
X141016461Y-32405974D01*
X140998616Y-32523224D01*
X140998371Y-32524683D01*
X140983488Y-32605901D01*
X140983200Y-32607353D01*
X140958302Y-32723339D01*
X140957593Y-32726213D01*
X140925751Y-32840436D01*
X140925332Y-32841856D01*
X140900760Y-32920709D01*
X140900299Y-32922115D01*
X140861607Y-33034240D01*
X140860557Y-33037007D01*
X140815172Y-33146577D01*
X140814585Y-33147936D01*
X140780686Y-33223256D01*
X140780058Y-33224597D01*
X140728146Y-33331214D01*
X140726771Y-33333835D01*
X140668491Y-33437167D01*
X140667745Y-33438444D01*
X140625011Y-33509134D01*
X140624246Y-33510358D01*
X140559849Y-33609957D01*
X140558168Y-33612392D01*
X140507791Y-33680857D01*
X140487884Y-33707911D01*
X140487046Y-33709016D01*
X140456553Y-33747938D01*
X140446866Y-33760302D01*
X140436033Y-33774130D01*
X140435103Y-33775280D01*
X140359192Y-33866367D01*
X140357229Y-33868583D01*
X140275932Y-33954946D01*
X140274901Y-33956008D01*
X140216508Y-34014401D01*
X140215446Y-34015432D01*
X140129083Y-34096729D01*
X140126867Y-34098692D01*
X140035780Y-34174603D01*
X140034630Y-34175533D01*
X140020802Y-34186366D01*
X140008438Y-34196053D01*
X139969516Y-34226546D01*
X139968411Y-34227384D01*
X139941357Y-34247291D01*
X139872892Y-34297668D01*
X139870457Y-34299349D01*
X139809605Y-34338693D01*
X139770816Y-34363772D01*
X139769707Y-34364466D01*
X139722293Y-34393130D01*
X139699677Y-34406801D01*
X139698944Y-34407245D01*
X139697667Y-34407991D01*
X139594335Y-34466271D01*
X139591714Y-34467646D01*
X139485097Y-34519558D01*
X139483756Y-34520186D01*
X139408436Y-34554085D01*
X139407077Y-34554672D01*
X139297507Y-34600057D01*
X139294740Y-34601107D01*
X139182615Y-34639799D01*
X139181209Y-34640260D01*
X139156325Y-34648014D01*
X139125367Y-34657661D01*
X139102322Y-34664841D01*
X139100957Y-34665244D01*
X139062187Y-34676052D01*
X138986713Y-34697093D01*
X138983839Y-34697802D01*
X138919555Y-34711601D01*
X138867819Y-34722706D01*
X138866448Y-34722978D01*
X138825800Y-34730428D01*
X138785183Y-34737871D01*
X138783724Y-34738116D01*
X138666474Y-34755961D01*
X138663535Y-34756318D01*
X138545441Y-34767049D01*
X138543966Y-34767161D01*
X138477402Y-34771188D01*
X138461465Y-34772152D01*
X138460014Y-34772218D01*
X138341480Y-34775799D01*
X138338520Y-34775799D01*
X138219985Y-34772218D01*
X138218533Y-34772152D01*
X138202596Y-34771188D01*
X138136033Y-34767161D01*
X138134558Y-34767049D01*
X138016464Y-34756318D01*
X138013525Y-34755961D01*
X137896275Y-34738116D01*
X137894816Y-34737871D01*
X137854199Y-34730428D01*
X137813550Y-34722978D01*
X137812179Y-34722706D01*
X137749409Y-34709232D01*
X137696160Y-34697802D01*
X137693286Y-34697093D01*
X137632312Y-34680095D01*
X137579041Y-34665244D01*
X137577676Y-34664841D01*
X137554632Y-34657661D01*
X137498788Y-34640259D01*
X137497384Y-34639799D01*
X137385259Y-34601107D01*
X137382492Y-34600057D01*
X137272922Y-34554672D01*
X137271563Y-34554085D01*
X137196243Y-34520186D01*
X137194902Y-34519558D01*
X137088285Y-34467646D01*
X137085664Y-34466271D01*
X136982332Y-34407991D01*
X136981083Y-34407261D01*
X136957706Y-34393130D01*
X136910291Y-34364466D01*
X136909182Y-34363772D01*
X136854640Y-34328508D01*
X136809542Y-34299349D01*
X136807107Y-34297668D01*
X136754282Y-34258799D01*
X136711586Y-34227383D01*
X136710482Y-34226546D01*
X136671561Y-34196053D01*
X136645368Y-34175532D01*
X136644219Y-34174603D01*
X136553132Y-34098692D01*
X136550916Y-34096729D01*
X136464553Y-34015432D01*
X136463491Y-34014401D01*
X136405098Y-33956008D01*
X136404067Y-33954946D01*
X136322770Y-33868583D01*
X136320807Y-33866367D01*
X136244896Y-33775280D01*
X136243966Y-33774130D01*
X136223446Y-33747938D01*
X136192952Y-33709016D01*
X136192115Y-33707912D01*
X136121831Y-33612392D01*
X136120150Y-33609957D01*
X136097624Y-33575118D01*
X136055732Y-33510324D01*
X136055016Y-33509181D01*
X136012225Y-33438395D01*
X136011508Y-33437167D01*
X135953228Y-33333835D01*
X135951860Y-33331228D01*
X135899933Y-33224580D01*
X135899313Y-33223256D01*
X135865414Y-33147936D01*
X135864827Y-33146577D01*
X135819442Y-33037007D01*
X135818392Y-33034240D01*
X135814978Y-33024349D01*
X135779686Y-32922075D01*
X135779253Y-32920751D01*
X135754660Y-32841832D01*
X135754248Y-32840436D01*
X135724827Y-32734899D01*
X135722403Y-32726203D01*
X135721697Y-32723339D01*
X135696791Y-32607315D01*
X135696519Y-32605943D01*
X135681625Y-32524667D01*
X135681383Y-32523224D01*
X135663538Y-32405974D01*
X135663181Y-32403035D01*
X135652450Y-32284941D01*
X135652338Y-32283466D01*
X135647346Y-32200958D01*
X135647282Y-32199550D01*
X135643700Y-32080956D01*
X135643700Y-32078043D01*
X135646628Y-31981083D01*
X137089500Y-31981083D01*
X137089500Y-32177916D01*
X137120290Y-32372323D01*
X137120291Y-32372326D01*
X137181116Y-32559526D01*
X137270472Y-32734899D01*
X137270475Y-32734903D01*
X137270476Y-32734905D01*
X137386172Y-32894146D01*
X137386174Y-32894148D01*
X137386177Y-32894152D01*
X137525347Y-33033322D01*
X137525350Y-33033324D01*
X137525354Y-33033328D01*
X137684595Y-33149024D01*
X137684597Y-33149025D01*
X137684600Y-33149027D01*
X137830284Y-33223256D01*
X137859975Y-33238384D01*
X138047174Y-33299209D01*
X138241583Y-33330000D01*
X138241584Y-33330000D01*
X138438416Y-33330000D01*
X138438417Y-33330000D01*
X138632826Y-33299209D01*
X138820025Y-33238384D01*
X138995405Y-33149024D01*
X139154646Y-33033328D01*
X139293828Y-32894146D01*
X139409524Y-32734905D01*
X139498884Y-32559525D01*
X139559709Y-32372326D01*
X139590500Y-32177917D01*
X139590500Y-31981083D01*
X139559709Y-31786674D01*
X139498884Y-31599475D01*
X139463485Y-31530000D01*
X139409527Y-31424100D01*
X139409525Y-31424097D01*
X139409524Y-31424095D01*
X139293828Y-31264854D01*
X139293824Y-31264850D01*
X139293822Y-31264847D01*
X139154652Y-31125677D01*
X139154653Y-31125677D01*
X139123945Y-31103366D01*
X138995405Y-31009976D01*
X138995403Y-31009975D01*
X138995399Y-31009972D01*
X138820026Y-30920616D01*
X138632826Y-30859791D01*
X138632823Y-30859790D01*
X138483482Y-30836137D01*
X138438417Y-30829000D01*
X138241583Y-30829000D01*
X138204998Y-30834794D01*
X138047176Y-30859790D01*
X138047173Y-30859791D01*
X137859973Y-30920616D01*
X137684600Y-31009972D01*
X137525347Y-31125677D01*
X137386177Y-31264847D01*
X137270472Y-31424100D01*
X137181116Y-31599473D01*
X137120291Y-31786673D01*
X137120290Y-31786676D01*
X137089500Y-31981083D01*
X135646628Y-31981083D01*
X135647282Y-31959446D01*
X135647346Y-31958044D01*
X135652338Y-31875524D01*
X135652450Y-31874058D01*
X135663181Y-31755964D01*
X135663538Y-31753025D01*
X135681383Y-31635775D01*
X135681628Y-31634316D01*
X135688013Y-31599473D01*
X135696521Y-31553043D01*
X135696788Y-31551697D01*
X135721701Y-31435643D01*
X135722401Y-31432804D01*
X135754260Y-31318521D01*
X135754654Y-31317184D01*
X135779259Y-31238227D01*
X135779680Y-31236943D01*
X135818395Y-31124750D01*
X135819442Y-31121992D01*
X135864827Y-31012422D01*
X135865393Y-31011109D01*
X135899332Y-30935701D01*
X135899921Y-30934444D01*
X135951867Y-30827757D01*
X135953213Y-30825190D01*
X136011524Y-30721803D01*
X136012208Y-30720632D01*
X136055034Y-30649789D01*
X136055712Y-30648705D01*
X136120154Y-30549035D01*
X136121831Y-30546607D01*
X136122480Y-30545725D01*
X136192115Y-30451086D01*
X136192952Y-30449983D01*
X136243997Y-30384829D01*
X136244862Y-30383760D01*
X136320820Y-30292617D01*
X136322756Y-30290430D01*
X136404098Y-30204020D01*
X136405064Y-30203025D01*
X136514591Y-30093498D01*
X136515552Y-30092565D01*
X136549483Y-30060623D01*
X136551676Y-30058682D01*
X136587970Y-30028436D01*
X136587971Y-30028434D01*
X136806225Y-29857444D01*
X137085247Y-29688769D01*
X137382567Y-29554956D01*
X137693848Y-29457957D01*
X138014551Y-29399186D01*
X138340000Y-29379500D01*
X138665449Y-29399186D01*
G37*
%TD.AperFunction*%
%TD*%
%TA.AperFunction,Conductor*%
%TO.N,Board_4-+BATT*%
G36*
X138665449Y-49719186D02*
G01*
X138986152Y-49777957D01*
X139297433Y-49874956D01*
X139594753Y-50008769D01*
X139873775Y-50177444D01*
X140130431Y-50378521D01*
X140360979Y-50609069D01*
X140562056Y-50865725D01*
X140604691Y-50936253D01*
X140618134Y-50968705D01*
X140628369Y-50993414D01*
X140671717Y-51058290D01*
X140712910Y-51119940D01*
X140714847Y-51123090D01*
X140727180Y-51144957D01*
X140728549Y-51147566D01*
X140773831Y-51240568D01*
X140774459Y-51241908D01*
X140814585Y-51331063D01*
X140815172Y-51332422D01*
X140860557Y-51441992D01*
X140861607Y-51444759D01*
X140900299Y-51556884D01*
X140900760Y-51558290D01*
X140925332Y-51637143D01*
X140925751Y-51638563D01*
X140957593Y-51752786D01*
X140958302Y-51755660D01*
X140983200Y-51871646D01*
X140983488Y-51873098D01*
X140998371Y-51954316D01*
X140998616Y-51955775D01*
X141016461Y-52073025D01*
X141016818Y-52075964D01*
X141027549Y-52194058D01*
X141027661Y-52195533D01*
X141032651Y-52278006D01*
X141032718Y-52279485D01*
X141036299Y-52398020D01*
X141036299Y-52400980D01*
X141032718Y-52519514D01*
X141032651Y-52520993D01*
X141027661Y-52603466D01*
X141027549Y-52604941D01*
X141016818Y-52723035D01*
X141016461Y-52725974D01*
X140998616Y-52843224D01*
X140998371Y-52844683D01*
X140983488Y-52925901D01*
X140983200Y-52927353D01*
X140958302Y-53043339D01*
X140957593Y-53046213D01*
X140925751Y-53160436D01*
X140925332Y-53161856D01*
X140900760Y-53240709D01*
X140900299Y-53242115D01*
X140861607Y-53354240D01*
X140860557Y-53357007D01*
X140815172Y-53466577D01*
X140814585Y-53467936D01*
X140780686Y-53543256D01*
X140780058Y-53544597D01*
X140728146Y-53651214D01*
X140726771Y-53653835D01*
X140668491Y-53757167D01*
X140667745Y-53758444D01*
X140625011Y-53829134D01*
X140624246Y-53830358D01*
X140559849Y-53929957D01*
X140558168Y-53932392D01*
X140507791Y-54000857D01*
X140487884Y-54027911D01*
X140487046Y-54029016D01*
X140456553Y-54067938D01*
X140446866Y-54080302D01*
X140436033Y-54094130D01*
X140435103Y-54095280D01*
X140359192Y-54186367D01*
X140357229Y-54188583D01*
X140275932Y-54274946D01*
X140274901Y-54276008D01*
X140216508Y-54334401D01*
X140215446Y-54335432D01*
X140129083Y-54416729D01*
X140126867Y-54418692D01*
X140035780Y-54494603D01*
X140034630Y-54495533D01*
X140020802Y-54506366D01*
X140008438Y-54516053D01*
X139969516Y-54546546D01*
X139968411Y-54547384D01*
X139941357Y-54567291D01*
X139872892Y-54617668D01*
X139870457Y-54619349D01*
X139809605Y-54658693D01*
X139770816Y-54683772D01*
X139769707Y-54684466D01*
X139722293Y-54713130D01*
X139699677Y-54726801D01*
X139698944Y-54727245D01*
X139697667Y-54727991D01*
X139594335Y-54786271D01*
X139591714Y-54787646D01*
X139485097Y-54839558D01*
X139483756Y-54840186D01*
X139408436Y-54874085D01*
X139407077Y-54874672D01*
X139297507Y-54920057D01*
X139294740Y-54921107D01*
X139182615Y-54959799D01*
X139181209Y-54960260D01*
X139156325Y-54968014D01*
X139125367Y-54977661D01*
X139102322Y-54984841D01*
X139100957Y-54985244D01*
X139062187Y-54996052D01*
X138986713Y-55017093D01*
X138983839Y-55017802D01*
X138919555Y-55031601D01*
X138867819Y-55042706D01*
X138866448Y-55042978D01*
X138825800Y-55050428D01*
X138785183Y-55057871D01*
X138783724Y-55058116D01*
X138666474Y-55075961D01*
X138663535Y-55076318D01*
X138545441Y-55087049D01*
X138543966Y-55087161D01*
X138477402Y-55091188D01*
X138461465Y-55092152D01*
X138460014Y-55092218D01*
X138341480Y-55095799D01*
X138338520Y-55095799D01*
X138219985Y-55092218D01*
X138218533Y-55092152D01*
X138202596Y-55091188D01*
X138136033Y-55087161D01*
X138134558Y-55087049D01*
X138016464Y-55076318D01*
X138013525Y-55075961D01*
X137896275Y-55058116D01*
X137894816Y-55057871D01*
X137854199Y-55050428D01*
X137813550Y-55042978D01*
X137812179Y-55042706D01*
X137749409Y-55029232D01*
X137696160Y-55017802D01*
X137693286Y-55017093D01*
X137632312Y-55000095D01*
X137579041Y-54985244D01*
X137577676Y-54984841D01*
X137554632Y-54977661D01*
X137498788Y-54960259D01*
X137497384Y-54959799D01*
X137385259Y-54921107D01*
X137382492Y-54920057D01*
X137272922Y-54874672D01*
X137271563Y-54874085D01*
X137196243Y-54840186D01*
X137194902Y-54839558D01*
X137088285Y-54787646D01*
X137085664Y-54786271D01*
X136982332Y-54727991D01*
X136981083Y-54727261D01*
X136957706Y-54713130D01*
X136910291Y-54684466D01*
X136909182Y-54683772D01*
X136854640Y-54648508D01*
X136809542Y-54619349D01*
X136807107Y-54617668D01*
X136754282Y-54578799D01*
X136711586Y-54547383D01*
X136710482Y-54546546D01*
X136671561Y-54516053D01*
X136645368Y-54495532D01*
X136644219Y-54494603D01*
X136553132Y-54418692D01*
X136550916Y-54416729D01*
X136464553Y-54335432D01*
X136463491Y-54334401D01*
X136405098Y-54276008D01*
X136404067Y-54274946D01*
X136322770Y-54188583D01*
X136320807Y-54186367D01*
X136244896Y-54095280D01*
X136243966Y-54094130D01*
X136223446Y-54067938D01*
X136192952Y-54029016D01*
X136192115Y-54027912D01*
X136121831Y-53932392D01*
X136120150Y-53929957D01*
X136097624Y-53895118D01*
X136055732Y-53830324D01*
X136055016Y-53829181D01*
X136012225Y-53758395D01*
X136011508Y-53757167D01*
X135953228Y-53653835D01*
X135951860Y-53651228D01*
X135899933Y-53544580D01*
X135899313Y-53543256D01*
X135865414Y-53467936D01*
X135864827Y-53466577D01*
X135819442Y-53357007D01*
X135818392Y-53354240D01*
X135814978Y-53344349D01*
X135779686Y-53242075D01*
X135779253Y-53240751D01*
X135754660Y-53161832D01*
X135754248Y-53160436D01*
X135724827Y-53054899D01*
X135722403Y-53046203D01*
X135721697Y-53043339D01*
X135696791Y-52927315D01*
X135696519Y-52925943D01*
X135681625Y-52844667D01*
X135681383Y-52843224D01*
X135663538Y-52725974D01*
X135663181Y-52723035D01*
X135652450Y-52604941D01*
X135652338Y-52603466D01*
X135647346Y-52520958D01*
X135647282Y-52519550D01*
X135643700Y-52400956D01*
X135643700Y-52398043D01*
X135646628Y-52301083D01*
X137089500Y-52301083D01*
X137089500Y-52497916D01*
X137120290Y-52692323D01*
X137120291Y-52692326D01*
X137181116Y-52879526D01*
X137270472Y-53054899D01*
X137270475Y-53054903D01*
X137270476Y-53054905D01*
X137386172Y-53214146D01*
X137386174Y-53214148D01*
X137386177Y-53214152D01*
X137525347Y-53353322D01*
X137525350Y-53353324D01*
X137525354Y-53353328D01*
X137684595Y-53469024D01*
X137684597Y-53469025D01*
X137684600Y-53469027D01*
X137830284Y-53543256D01*
X137859975Y-53558384D01*
X138047174Y-53619209D01*
X138241583Y-53650000D01*
X138241584Y-53650000D01*
X138438416Y-53650000D01*
X138438417Y-53650000D01*
X138632826Y-53619209D01*
X138820025Y-53558384D01*
X138995405Y-53469024D01*
X139154646Y-53353328D01*
X139293828Y-53214146D01*
X139409524Y-53054905D01*
X139498884Y-52879525D01*
X139559709Y-52692326D01*
X139590500Y-52497917D01*
X139590500Y-52301083D01*
X139559709Y-52106674D01*
X139498884Y-51919475D01*
X139463485Y-51850000D01*
X139409527Y-51744100D01*
X139409525Y-51744097D01*
X139409524Y-51744095D01*
X139293828Y-51584854D01*
X139293824Y-51584850D01*
X139293822Y-51584847D01*
X139154652Y-51445677D01*
X139154653Y-51445677D01*
X139123945Y-51423366D01*
X138995405Y-51329976D01*
X138995403Y-51329975D01*
X138995399Y-51329972D01*
X138820026Y-51240616D01*
X138632826Y-51179791D01*
X138632823Y-51179790D01*
X138483482Y-51156137D01*
X138438417Y-51149000D01*
X138241583Y-51149000D01*
X138204998Y-51154794D01*
X138047176Y-51179790D01*
X138047173Y-51179791D01*
X137859973Y-51240616D01*
X137684600Y-51329972D01*
X137525347Y-51445677D01*
X137386177Y-51584847D01*
X137270472Y-51744100D01*
X137181116Y-51919473D01*
X137120291Y-52106673D01*
X137120290Y-52106676D01*
X137089500Y-52301083D01*
X135646628Y-52301083D01*
X135647282Y-52279446D01*
X135647346Y-52278044D01*
X135652338Y-52195524D01*
X135652450Y-52194058D01*
X135663181Y-52075964D01*
X135663538Y-52073025D01*
X135681383Y-51955775D01*
X135681628Y-51954316D01*
X135688013Y-51919473D01*
X135696521Y-51873043D01*
X135696788Y-51871697D01*
X135721701Y-51755643D01*
X135722401Y-51752804D01*
X135754260Y-51638521D01*
X135754654Y-51637184D01*
X135779259Y-51558227D01*
X135779680Y-51556943D01*
X135818395Y-51444750D01*
X135819442Y-51441992D01*
X135864827Y-51332422D01*
X135865393Y-51331109D01*
X135899332Y-51255701D01*
X135899921Y-51254444D01*
X135951867Y-51147757D01*
X135953213Y-51145190D01*
X136011524Y-51041803D01*
X136012208Y-51040632D01*
X136055034Y-50969789D01*
X136055712Y-50968705D01*
X136120154Y-50869035D01*
X136121831Y-50866607D01*
X136122480Y-50865725D01*
X136192115Y-50771086D01*
X136192952Y-50769983D01*
X136243997Y-50704829D01*
X136244862Y-50703760D01*
X136320820Y-50612617D01*
X136322756Y-50610430D01*
X136404098Y-50524020D01*
X136405064Y-50523025D01*
X136514591Y-50413498D01*
X136515552Y-50412565D01*
X136549483Y-50380623D01*
X136551676Y-50378682D01*
X136587970Y-50348436D01*
X136587971Y-50348434D01*
X136806225Y-50177444D01*
X137085247Y-50008769D01*
X137382567Y-49874956D01*
X137693848Y-49777957D01*
X138014551Y-49719186D01*
X138340000Y-49699500D01*
X138665449Y-49719186D01*
G37*
%TD.AperFunction*%
%TD*%
%TA.AperFunction,Conductor*%
%TO.N,Board_8-+BATT*%
G36*
X138665449Y-70039186D02*
G01*
X138986152Y-70097957D01*
X139297433Y-70194956D01*
X139594753Y-70328769D01*
X139873775Y-70497444D01*
X140130431Y-70698521D01*
X140360979Y-70929069D01*
X140562056Y-71185725D01*
X140604691Y-71256253D01*
X140618134Y-71288705D01*
X140628369Y-71313414D01*
X140671717Y-71378290D01*
X140712910Y-71439940D01*
X140714847Y-71443090D01*
X140727180Y-71464957D01*
X140728549Y-71467566D01*
X140773831Y-71560568D01*
X140774459Y-71561908D01*
X140814585Y-71651063D01*
X140815172Y-71652422D01*
X140860557Y-71761992D01*
X140861607Y-71764759D01*
X140900299Y-71876884D01*
X140900760Y-71878290D01*
X140925332Y-71957143D01*
X140925751Y-71958563D01*
X140957593Y-72072786D01*
X140958302Y-72075660D01*
X140983200Y-72191646D01*
X140983488Y-72193098D01*
X140998371Y-72274316D01*
X140998616Y-72275775D01*
X141016461Y-72393025D01*
X141016818Y-72395964D01*
X141027549Y-72514058D01*
X141027661Y-72515533D01*
X141032651Y-72598006D01*
X141032718Y-72599485D01*
X141036299Y-72718020D01*
X141036299Y-72720980D01*
X141032718Y-72839514D01*
X141032651Y-72840993D01*
X141027661Y-72923466D01*
X141027549Y-72924941D01*
X141016818Y-73043035D01*
X141016461Y-73045974D01*
X140998616Y-73163224D01*
X140998371Y-73164683D01*
X140983488Y-73245901D01*
X140983200Y-73247353D01*
X140958302Y-73363339D01*
X140957593Y-73366213D01*
X140925751Y-73480436D01*
X140925332Y-73481856D01*
X140900760Y-73560709D01*
X140900299Y-73562115D01*
X140861607Y-73674240D01*
X140860557Y-73677007D01*
X140815172Y-73786577D01*
X140814585Y-73787936D01*
X140780686Y-73863256D01*
X140780058Y-73864597D01*
X140728146Y-73971214D01*
X140726771Y-73973835D01*
X140668491Y-74077167D01*
X140667745Y-74078444D01*
X140625011Y-74149134D01*
X140624246Y-74150358D01*
X140559849Y-74249957D01*
X140558168Y-74252392D01*
X140507791Y-74320857D01*
X140487884Y-74347911D01*
X140487046Y-74349016D01*
X140456553Y-74387938D01*
X140446866Y-74400302D01*
X140436033Y-74414130D01*
X140435103Y-74415280D01*
X140359192Y-74506367D01*
X140357229Y-74508583D01*
X140275932Y-74594946D01*
X140274901Y-74596008D01*
X140216508Y-74654401D01*
X140215446Y-74655432D01*
X140129083Y-74736729D01*
X140126867Y-74738692D01*
X140035780Y-74814603D01*
X140034630Y-74815533D01*
X140020802Y-74826366D01*
X140008438Y-74836053D01*
X139969516Y-74866546D01*
X139968411Y-74867384D01*
X139941357Y-74887291D01*
X139872892Y-74937668D01*
X139870457Y-74939349D01*
X139809605Y-74978693D01*
X139770816Y-75003772D01*
X139769707Y-75004466D01*
X139722293Y-75033130D01*
X139699677Y-75046801D01*
X139698944Y-75047245D01*
X139697667Y-75047991D01*
X139594335Y-75106271D01*
X139591714Y-75107646D01*
X139485097Y-75159558D01*
X139483756Y-75160186D01*
X139408436Y-75194085D01*
X139407077Y-75194672D01*
X139297507Y-75240057D01*
X139294740Y-75241107D01*
X139182615Y-75279799D01*
X139181209Y-75280260D01*
X139156325Y-75288014D01*
X139125367Y-75297661D01*
X139102322Y-75304841D01*
X139100957Y-75305244D01*
X139062187Y-75316052D01*
X138986713Y-75337093D01*
X138983839Y-75337802D01*
X138919555Y-75351601D01*
X138867819Y-75362706D01*
X138866448Y-75362978D01*
X138825800Y-75370428D01*
X138785183Y-75377871D01*
X138783724Y-75378116D01*
X138666474Y-75395961D01*
X138663535Y-75396318D01*
X138545441Y-75407049D01*
X138543966Y-75407161D01*
X138477402Y-75411188D01*
X138461465Y-75412152D01*
X138460014Y-75412218D01*
X138341480Y-75415799D01*
X138338520Y-75415799D01*
X138219985Y-75412218D01*
X138218533Y-75412152D01*
X138202596Y-75411188D01*
X138136033Y-75407161D01*
X138134558Y-75407049D01*
X138016464Y-75396318D01*
X138013525Y-75395961D01*
X137896275Y-75378116D01*
X137894816Y-75377871D01*
X137854199Y-75370428D01*
X137813550Y-75362978D01*
X137812179Y-75362706D01*
X137749409Y-75349232D01*
X137696160Y-75337802D01*
X137693286Y-75337093D01*
X137632312Y-75320095D01*
X137579041Y-75305244D01*
X137577676Y-75304841D01*
X137554632Y-75297661D01*
X137498788Y-75280259D01*
X137497384Y-75279799D01*
X137385259Y-75241107D01*
X137382492Y-75240057D01*
X137272922Y-75194672D01*
X137271563Y-75194085D01*
X137196243Y-75160186D01*
X137194902Y-75159558D01*
X137088285Y-75107646D01*
X137085664Y-75106271D01*
X136982332Y-75047991D01*
X136981083Y-75047261D01*
X136957706Y-75033130D01*
X136910291Y-75004466D01*
X136909182Y-75003772D01*
X136854640Y-74968508D01*
X136809542Y-74939349D01*
X136807107Y-74937668D01*
X136754282Y-74898799D01*
X136711586Y-74867383D01*
X136710482Y-74866546D01*
X136671561Y-74836053D01*
X136645368Y-74815532D01*
X136644219Y-74814603D01*
X136553132Y-74738692D01*
X136550916Y-74736729D01*
X136464553Y-74655432D01*
X136463491Y-74654401D01*
X136405098Y-74596008D01*
X136404067Y-74594946D01*
X136322770Y-74508583D01*
X136320807Y-74506367D01*
X136244896Y-74415280D01*
X136243966Y-74414130D01*
X136223446Y-74387938D01*
X136192952Y-74349016D01*
X136192115Y-74347912D01*
X136121831Y-74252392D01*
X136120150Y-74249957D01*
X136097624Y-74215118D01*
X136055732Y-74150324D01*
X136055016Y-74149181D01*
X136012225Y-74078395D01*
X136011508Y-74077167D01*
X135953228Y-73973835D01*
X135951860Y-73971228D01*
X135899933Y-73864580D01*
X135899313Y-73863256D01*
X135865414Y-73787936D01*
X135864827Y-73786577D01*
X135819442Y-73677007D01*
X135818392Y-73674240D01*
X135814978Y-73664349D01*
X135779686Y-73562075D01*
X135779253Y-73560751D01*
X135754660Y-73481832D01*
X135754248Y-73480436D01*
X135724827Y-73374899D01*
X135722403Y-73366203D01*
X135721697Y-73363339D01*
X135696791Y-73247315D01*
X135696519Y-73245943D01*
X135681625Y-73164667D01*
X135681383Y-73163224D01*
X135663538Y-73045974D01*
X135663181Y-73043035D01*
X135652450Y-72924941D01*
X135652338Y-72923466D01*
X135647346Y-72840958D01*
X135647282Y-72839550D01*
X135643700Y-72720956D01*
X135643700Y-72718043D01*
X135646628Y-72621083D01*
X137089500Y-72621083D01*
X137089500Y-72817916D01*
X137120290Y-73012323D01*
X137120291Y-73012326D01*
X137181116Y-73199526D01*
X137270472Y-73374899D01*
X137270475Y-73374903D01*
X137270476Y-73374905D01*
X137386172Y-73534146D01*
X137386174Y-73534148D01*
X137386177Y-73534152D01*
X137525347Y-73673322D01*
X137525350Y-73673324D01*
X137525354Y-73673328D01*
X137684595Y-73789024D01*
X137684597Y-73789025D01*
X137684600Y-73789027D01*
X137830284Y-73863256D01*
X137859975Y-73878384D01*
X138047174Y-73939209D01*
X138241583Y-73970000D01*
X138241584Y-73970000D01*
X138438416Y-73970000D01*
X138438417Y-73970000D01*
X138632826Y-73939209D01*
X138820025Y-73878384D01*
X138995405Y-73789024D01*
X139154646Y-73673328D01*
X139293828Y-73534146D01*
X139409524Y-73374905D01*
X139498884Y-73199525D01*
X139559709Y-73012326D01*
X139590500Y-72817917D01*
X139590500Y-72621083D01*
X139559709Y-72426674D01*
X139498884Y-72239475D01*
X139463485Y-72170000D01*
X139409527Y-72064100D01*
X139409525Y-72064097D01*
X139409524Y-72064095D01*
X139293828Y-71904854D01*
X139293824Y-71904850D01*
X139293822Y-71904847D01*
X139154652Y-71765677D01*
X139154653Y-71765677D01*
X139123945Y-71743366D01*
X138995405Y-71649976D01*
X138995403Y-71649975D01*
X138995399Y-71649972D01*
X138820026Y-71560616D01*
X138632826Y-71499791D01*
X138632823Y-71499790D01*
X138483482Y-71476137D01*
X138438417Y-71469000D01*
X138241583Y-71469000D01*
X138204998Y-71474794D01*
X138047176Y-71499790D01*
X138047173Y-71499791D01*
X137859973Y-71560616D01*
X137684600Y-71649972D01*
X137525347Y-71765677D01*
X137386177Y-71904847D01*
X137270472Y-72064100D01*
X137181116Y-72239473D01*
X137120291Y-72426673D01*
X137120290Y-72426676D01*
X137089500Y-72621083D01*
X135646628Y-72621083D01*
X135647282Y-72599446D01*
X135647346Y-72598044D01*
X135652338Y-72515524D01*
X135652450Y-72514058D01*
X135663181Y-72395964D01*
X135663538Y-72393025D01*
X135681383Y-72275775D01*
X135681628Y-72274316D01*
X135688013Y-72239473D01*
X135696521Y-72193043D01*
X135696788Y-72191697D01*
X135721701Y-72075643D01*
X135722401Y-72072804D01*
X135754260Y-71958521D01*
X135754654Y-71957184D01*
X135779259Y-71878227D01*
X135779680Y-71876943D01*
X135818395Y-71764750D01*
X135819442Y-71761992D01*
X135864827Y-71652422D01*
X135865393Y-71651109D01*
X135899332Y-71575701D01*
X135899921Y-71574444D01*
X135951867Y-71467757D01*
X135953213Y-71465190D01*
X136011524Y-71361803D01*
X136012208Y-71360632D01*
X136055034Y-71289789D01*
X136055712Y-71288705D01*
X136120154Y-71189035D01*
X136121831Y-71186607D01*
X136122480Y-71185725D01*
X136192115Y-71091086D01*
X136192952Y-71089983D01*
X136243997Y-71024829D01*
X136244862Y-71023760D01*
X136320820Y-70932617D01*
X136322756Y-70930430D01*
X136404098Y-70844020D01*
X136405064Y-70843025D01*
X136514591Y-70733498D01*
X136515552Y-70732565D01*
X136549483Y-70700623D01*
X136551676Y-70698682D01*
X136587970Y-70668436D01*
X136587971Y-70668434D01*
X136806225Y-70497444D01*
X137085247Y-70328769D01*
X137382567Y-70194956D01*
X137693848Y-70097957D01*
X138014551Y-70039186D01*
X138340000Y-70019500D01*
X138665449Y-70039186D01*
G37*
%TD.AperFunction*%
%TD*%
%TA.AperFunction,Conductor*%
%TO.N,Board_9-+BATT*%
G36*
X172949418Y-67639651D02*
G01*
X172972204Y-67641444D01*
X173192001Y-67658742D01*
X173199584Y-67659943D01*
X173411546Y-67710831D01*
X173434315Y-67716298D01*
X173441627Y-67718674D01*
X173470079Y-67730459D01*
X173664648Y-67811051D01*
X173671494Y-67814539D01*
X173877324Y-67940673D01*
X173883537Y-67945187D01*
X174017324Y-68059451D01*
X174034349Y-68092864D01*
X174034500Y-68096709D01*
X174034500Y-70357289D01*
X174020148Y-70391937D01*
X174017323Y-70394549D01*
X173910000Y-70486210D01*
X173910000Y-70486211D01*
X173880609Y-70511314D01*
X173668210Y-70641473D01*
X173479835Y-70719500D01*
X171405000Y-70719500D01*
X171405000Y-70765500D01*
X171390648Y-70800148D01*
X171356000Y-70814500D01*
X171329499Y-70814500D01*
X171294851Y-70800148D01*
X171280499Y-70765500D01*
X171280499Y-70719489D01*
X171269999Y-70616705D01*
X171269999Y-70616703D01*
X171214814Y-70450166D01*
X171122712Y-70300844D01*
X170998656Y-70176788D01*
X170998655Y-70176787D01*
X170966518Y-70156965D01*
X172155000Y-70156965D01*
X172155000Y-70282035D01*
X172187370Y-70402843D01*
X172249905Y-70511157D01*
X172338343Y-70599595D01*
X172446657Y-70662130D01*
X172567465Y-70694500D01*
X172692535Y-70694500D01*
X172813343Y-70662130D01*
X172921657Y-70599595D01*
X173010095Y-70511157D01*
X173072630Y-70402843D01*
X173105000Y-70282035D01*
X173105000Y-70156965D01*
X173072630Y-70036157D01*
X173010095Y-69927843D01*
X172921657Y-69839405D01*
X172813343Y-69776870D01*
X172692535Y-69744500D01*
X172567465Y-69744500D01*
X172446657Y-69776870D01*
X172338343Y-69839405D01*
X172249905Y-69927843D01*
X172187370Y-70036157D01*
X172155000Y-70156965D01*
X170966518Y-70156965D01*
X170849334Y-70084686D01*
X170682794Y-70029500D01*
X170580011Y-70019000D01*
X168329989Y-70019000D01*
X168227203Y-70029501D01*
X168190701Y-70041596D01*
X168153297Y-70038871D01*
X168148074Y-70035829D01*
X168023914Y-69952869D01*
X168023911Y-69952867D01*
X168023910Y-69952867D01*
X167841839Y-69877450D01*
X167841837Y-69877449D01*
X167841836Y-69877449D01*
X167841833Y-69877448D01*
X167841824Y-69877446D01*
X167648545Y-69839000D01*
X167648540Y-69839000D01*
X167451460Y-69839000D01*
X167451454Y-69839000D01*
X167258175Y-69877446D01*
X167258160Y-69877450D01*
X167076089Y-69952867D01*
X166912219Y-70062360D01*
X166772860Y-70201719D01*
X166663367Y-70365589D01*
X166587950Y-70547660D01*
X166587946Y-70547675D01*
X166549500Y-70740954D01*
X166549500Y-70938045D01*
X166587946Y-71131324D01*
X166587950Y-71131339D01*
X166639692Y-71256253D01*
X166597056Y-71185725D01*
X166395979Y-70929069D01*
X166165431Y-70698521D01*
X165908775Y-70497444D01*
X165629753Y-70328769D01*
X165332433Y-70194956D01*
X165021152Y-70097957D01*
X164700449Y-70039186D01*
X164375000Y-70019500D01*
X164049551Y-70039186D01*
X163728848Y-70097957D01*
X163417567Y-70194956D01*
X163120247Y-70328769D01*
X162841225Y-70497444D01*
X162661371Y-70638350D01*
X163270906Y-69571665D01*
X171405000Y-69571665D01*
X171405000Y-69719500D01*
X172130000Y-69719500D01*
X173130000Y-69719500D01*
X173855000Y-69719500D01*
X173855000Y-69571665D01*
X173848598Y-69512127D01*
X173848598Y-69512126D01*
X173798351Y-69377408D01*
X173712188Y-69262311D01*
X173597091Y-69176148D01*
X173462373Y-69125901D01*
X173402834Y-69119500D01*
X173130000Y-69119500D01*
X173130000Y-69719500D01*
X172130000Y-69719500D01*
X172130000Y-69119500D01*
X171857166Y-69119500D01*
X171797627Y-69125901D01*
X171797626Y-69125901D01*
X171662908Y-69176148D01*
X171547811Y-69262311D01*
X171461648Y-69377408D01*
X171411401Y-69512126D01*
X171411401Y-69512127D01*
X171405000Y-69571665D01*
X163270906Y-69571665D01*
X163609766Y-68978660D01*
X163798245Y-68648820D01*
X163800188Y-68645699D01*
X163894393Y-68506290D01*
X163965173Y-68401546D01*
X163969728Y-68395789D01*
X164168153Y-68180433D01*
X164173512Y-68175428D01*
X164401934Y-67992196D01*
X164407986Y-67988047D01*
X164661259Y-67841067D01*
X164667870Y-67837868D01*
X164940278Y-67730456D01*
X164947289Y-67728284D01*
X165232711Y-67662851D01*
X165239974Y-67661751D01*
X165533811Y-67639637D01*
X165537488Y-67639500D01*
X172945574Y-67639500D01*
X172949418Y-67639651D01*
G37*
%TD.AperFunction*%
%TD*%
%TA.AperFunction,Conductor*%
%TO.N,Board_7-+BATT*%
G36*
X164700449Y-59879186D02*
G01*
X165021152Y-59937957D01*
X165332433Y-60034956D01*
X165629753Y-60168769D01*
X165908775Y-60337444D01*
X166165431Y-60538521D01*
X166395979Y-60769069D01*
X166597056Y-61025725D01*
X166639691Y-61096253D01*
X166653134Y-61128705D01*
X166663369Y-61153414D01*
X166706717Y-61218290D01*
X166747910Y-61279940D01*
X166749847Y-61283090D01*
X166762180Y-61304957D01*
X166763549Y-61307566D01*
X166808831Y-61400568D01*
X166809459Y-61401908D01*
X166849585Y-61491063D01*
X166850172Y-61492422D01*
X166895557Y-61601992D01*
X166896607Y-61604759D01*
X166935299Y-61716884D01*
X166935760Y-61718290D01*
X166960332Y-61797143D01*
X166960751Y-61798563D01*
X166992593Y-61912786D01*
X166993302Y-61915660D01*
X167018200Y-62031646D01*
X167018488Y-62033098D01*
X167033371Y-62114316D01*
X167033616Y-62115775D01*
X167051461Y-62233025D01*
X167051818Y-62235964D01*
X167062549Y-62354058D01*
X167062661Y-62355533D01*
X167067651Y-62438006D01*
X167067718Y-62439485D01*
X167071299Y-62558020D01*
X167071299Y-62560980D01*
X167067718Y-62679514D01*
X167067651Y-62680993D01*
X167062661Y-62763466D01*
X167062549Y-62764941D01*
X167051818Y-62883035D01*
X167051461Y-62885974D01*
X167033616Y-63003224D01*
X167033371Y-63004683D01*
X167018488Y-63085901D01*
X167018200Y-63087353D01*
X166993302Y-63203339D01*
X166992593Y-63206213D01*
X166960751Y-63320436D01*
X166960332Y-63321856D01*
X166935760Y-63400709D01*
X166935299Y-63402115D01*
X166896607Y-63514240D01*
X166895557Y-63517007D01*
X166850172Y-63626577D01*
X166849585Y-63627936D01*
X166815686Y-63703256D01*
X166815058Y-63704597D01*
X166763146Y-63811214D01*
X166761771Y-63813835D01*
X166703491Y-63917167D01*
X166702745Y-63918444D01*
X166660011Y-63989134D01*
X166659246Y-63990358D01*
X166594849Y-64089957D01*
X166593168Y-64092392D01*
X166542791Y-64160857D01*
X166522884Y-64187911D01*
X166522046Y-64189016D01*
X166491553Y-64227938D01*
X166481866Y-64240302D01*
X166471033Y-64254130D01*
X166470103Y-64255280D01*
X166394192Y-64346367D01*
X166392229Y-64348583D01*
X166310932Y-64434946D01*
X166309901Y-64436008D01*
X166251508Y-64494401D01*
X166250446Y-64495432D01*
X166164083Y-64576729D01*
X166161867Y-64578692D01*
X166070780Y-64654603D01*
X166069630Y-64655533D01*
X166055802Y-64666366D01*
X166043438Y-64676053D01*
X166004516Y-64706546D01*
X166003411Y-64707384D01*
X165976357Y-64727291D01*
X165907892Y-64777668D01*
X165905457Y-64779349D01*
X165844605Y-64818693D01*
X165805816Y-64843772D01*
X165804707Y-64844466D01*
X165757293Y-64873130D01*
X165734677Y-64886801D01*
X165733944Y-64887245D01*
X165732667Y-64887991D01*
X165629335Y-64946271D01*
X165626714Y-64947646D01*
X165520097Y-64999558D01*
X165518756Y-65000186D01*
X165443436Y-65034085D01*
X165442077Y-65034672D01*
X165332507Y-65080057D01*
X165329740Y-65081107D01*
X165217615Y-65119799D01*
X165216209Y-65120260D01*
X165191325Y-65128014D01*
X165160367Y-65137661D01*
X165137322Y-65144841D01*
X165135957Y-65145244D01*
X165097187Y-65156052D01*
X165021713Y-65177093D01*
X165018839Y-65177802D01*
X164954555Y-65191601D01*
X164902819Y-65202706D01*
X164901448Y-65202978D01*
X164860800Y-65210428D01*
X164820183Y-65217871D01*
X164818724Y-65218116D01*
X164701474Y-65235961D01*
X164698535Y-65236318D01*
X164580441Y-65247049D01*
X164578966Y-65247161D01*
X164512402Y-65251188D01*
X164496465Y-65252152D01*
X164495014Y-65252218D01*
X164376480Y-65255799D01*
X164373520Y-65255799D01*
X164254985Y-65252218D01*
X164253533Y-65252152D01*
X164237596Y-65251188D01*
X164171033Y-65247161D01*
X164169558Y-65247049D01*
X164051464Y-65236318D01*
X164048525Y-65235961D01*
X163931275Y-65218116D01*
X163929816Y-65217871D01*
X163889199Y-65210428D01*
X163848550Y-65202978D01*
X163847179Y-65202706D01*
X163784409Y-65189232D01*
X163731160Y-65177802D01*
X163728286Y-65177093D01*
X163667312Y-65160095D01*
X163614041Y-65145244D01*
X163612676Y-65144841D01*
X163589632Y-65137661D01*
X163533788Y-65120259D01*
X163532384Y-65119799D01*
X163420259Y-65081107D01*
X163417492Y-65080057D01*
X163307922Y-65034672D01*
X163306563Y-65034085D01*
X163231243Y-65000186D01*
X163229902Y-64999558D01*
X163123285Y-64947646D01*
X163120664Y-64946271D01*
X163017332Y-64887991D01*
X163016083Y-64887261D01*
X162992706Y-64873130D01*
X162945291Y-64844466D01*
X162944182Y-64843772D01*
X162889640Y-64808508D01*
X162844542Y-64779349D01*
X162842107Y-64777668D01*
X162789282Y-64738799D01*
X162746586Y-64707383D01*
X162745482Y-64706546D01*
X162706561Y-64676053D01*
X162680368Y-64655532D01*
X162679219Y-64654603D01*
X162588132Y-64578692D01*
X162585916Y-64576729D01*
X162499553Y-64495432D01*
X162498491Y-64494401D01*
X162440098Y-64436008D01*
X162439067Y-64434946D01*
X162357770Y-64348583D01*
X162355807Y-64346367D01*
X162279896Y-64255280D01*
X162278966Y-64254130D01*
X162258446Y-64227938D01*
X162227952Y-64189016D01*
X162227115Y-64187912D01*
X162156831Y-64092392D01*
X162155150Y-64089957D01*
X162132624Y-64055118D01*
X162090732Y-63990324D01*
X162090016Y-63989181D01*
X162047225Y-63918395D01*
X162046508Y-63917167D01*
X161988228Y-63813835D01*
X161986860Y-63811228D01*
X161934933Y-63704580D01*
X161934313Y-63703256D01*
X161900414Y-63627936D01*
X161899827Y-63626577D01*
X161854442Y-63517007D01*
X161853392Y-63514240D01*
X161849978Y-63504349D01*
X161814686Y-63402075D01*
X161814253Y-63400751D01*
X161789660Y-63321832D01*
X161789248Y-63320436D01*
X161759827Y-63214899D01*
X161757403Y-63206203D01*
X161756697Y-63203339D01*
X161731791Y-63087315D01*
X161731519Y-63085943D01*
X161716625Y-63004667D01*
X161716383Y-63003224D01*
X161698538Y-62885974D01*
X161698181Y-62883035D01*
X161687450Y-62764941D01*
X161687338Y-62763466D01*
X161682346Y-62680958D01*
X161682282Y-62679550D01*
X161678700Y-62560956D01*
X161678700Y-62558043D01*
X161681628Y-62461083D01*
X163124500Y-62461083D01*
X163124500Y-62657916D01*
X163155290Y-62852323D01*
X163155291Y-62852326D01*
X163216116Y-63039526D01*
X163305472Y-63214899D01*
X163305475Y-63214903D01*
X163305476Y-63214905D01*
X163421172Y-63374146D01*
X163421174Y-63374148D01*
X163421177Y-63374152D01*
X163560347Y-63513322D01*
X163560350Y-63513324D01*
X163560354Y-63513328D01*
X163719595Y-63629024D01*
X163719597Y-63629025D01*
X163719600Y-63629027D01*
X163865284Y-63703256D01*
X163894975Y-63718384D01*
X164082174Y-63779209D01*
X164276583Y-63810000D01*
X164276584Y-63810000D01*
X164473416Y-63810000D01*
X164473417Y-63810000D01*
X164667826Y-63779209D01*
X164855025Y-63718384D01*
X165030405Y-63629024D01*
X165189646Y-63513328D01*
X165328828Y-63374146D01*
X165444524Y-63214905D01*
X165533884Y-63039525D01*
X165594709Y-62852326D01*
X165625500Y-62657917D01*
X165625500Y-62461083D01*
X165594709Y-62266674D01*
X165533884Y-62079475D01*
X165498485Y-62010000D01*
X165444527Y-61904100D01*
X165444525Y-61904097D01*
X165444524Y-61904095D01*
X165328828Y-61744854D01*
X165328824Y-61744850D01*
X165328822Y-61744847D01*
X165189652Y-61605677D01*
X165189653Y-61605677D01*
X165158945Y-61583366D01*
X165030405Y-61489976D01*
X165030403Y-61489975D01*
X165030399Y-61489972D01*
X164855026Y-61400616D01*
X164667826Y-61339791D01*
X164667823Y-61339790D01*
X164518482Y-61316137D01*
X164473417Y-61309000D01*
X164276583Y-61309000D01*
X164239998Y-61314794D01*
X164082176Y-61339790D01*
X164082173Y-61339791D01*
X163894973Y-61400616D01*
X163719600Y-61489972D01*
X163560347Y-61605677D01*
X163421177Y-61744847D01*
X163305472Y-61904100D01*
X163216116Y-62079473D01*
X163155291Y-62266673D01*
X163155290Y-62266676D01*
X163124500Y-62461083D01*
X161681628Y-62461083D01*
X161682282Y-62439446D01*
X161682346Y-62438044D01*
X161687338Y-62355524D01*
X161687450Y-62354058D01*
X161698181Y-62235964D01*
X161698538Y-62233025D01*
X161716383Y-62115775D01*
X161716628Y-62114316D01*
X161723013Y-62079473D01*
X161731521Y-62033043D01*
X161731788Y-62031697D01*
X161756701Y-61915643D01*
X161757401Y-61912804D01*
X161789260Y-61798521D01*
X161789654Y-61797184D01*
X161814259Y-61718227D01*
X161814680Y-61716943D01*
X161853395Y-61604750D01*
X161854442Y-61601992D01*
X161899827Y-61492422D01*
X161900393Y-61491109D01*
X161934332Y-61415701D01*
X161934921Y-61414444D01*
X161986867Y-61307757D01*
X161988213Y-61305190D01*
X162046524Y-61201803D01*
X162047208Y-61200632D01*
X162090034Y-61129789D01*
X162090712Y-61128705D01*
X162155154Y-61029035D01*
X162156831Y-61026607D01*
X162157480Y-61025725D01*
X162227115Y-60931086D01*
X162227952Y-60929983D01*
X162278997Y-60864829D01*
X162279862Y-60863760D01*
X162355820Y-60772617D01*
X162357756Y-60770430D01*
X162439098Y-60684020D01*
X162440064Y-60683025D01*
X162549591Y-60573498D01*
X162550552Y-60572565D01*
X162584483Y-60540623D01*
X162586676Y-60538682D01*
X162622970Y-60508436D01*
X162622971Y-60508434D01*
X162841225Y-60337444D01*
X163120247Y-60168769D01*
X163417567Y-60034956D01*
X163728848Y-59937957D01*
X164049551Y-59879186D01*
X164375000Y-59859500D01*
X164700449Y-59879186D01*
G37*
%TD.AperFunction*%
%TD*%
%TA.AperFunction,Conductor*%
%TO.N,Board_6-+BATT*%
G36*
X146914418Y-57479651D02*
G01*
X146937204Y-57481444D01*
X147157001Y-57498742D01*
X147164584Y-57499943D01*
X147376546Y-57550831D01*
X147399315Y-57556298D01*
X147406627Y-57558674D01*
X147435079Y-57570459D01*
X147629648Y-57651051D01*
X147636494Y-57654539D01*
X147842324Y-57780673D01*
X147848540Y-57785189D01*
X148032099Y-57941963D01*
X148037536Y-57947400D01*
X148194310Y-58130959D01*
X148198829Y-58137179D01*
X148324958Y-58343002D01*
X148328449Y-58349854D01*
X148420825Y-58572872D01*
X148423201Y-58580184D01*
X148479554Y-58814908D01*
X148480757Y-58822502D01*
X148499697Y-59063155D01*
X148499697Y-59070845D01*
X148480757Y-59311497D01*
X148479554Y-59319091D01*
X148423201Y-59553815D01*
X148420825Y-59561127D01*
X148328449Y-59784145D01*
X148324958Y-59790997D01*
X148198829Y-59996820D01*
X148194310Y-60003040D01*
X148037536Y-60186599D01*
X148032099Y-60192036D01*
X147875000Y-60326210D01*
X147875000Y-60326211D01*
X147845609Y-60351314D01*
X147633210Y-60481473D01*
X147444835Y-60559500D01*
X145370000Y-60559500D01*
X145370000Y-60605500D01*
X145355648Y-60640148D01*
X145321000Y-60654500D01*
X145294499Y-60654500D01*
X145259851Y-60640148D01*
X145245499Y-60605500D01*
X145245499Y-60559489D01*
X145234999Y-60456705D01*
X145234999Y-60456703D01*
X145179814Y-60290166D01*
X145087712Y-60140844D01*
X144963656Y-60016788D01*
X144963655Y-60016787D01*
X144931518Y-59996965D01*
X146120000Y-59996965D01*
X146120000Y-60122035D01*
X146152370Y-60242843D01*
X146214905Y-60351157D01*
X146303343Y-60439595D01*
X146411657Y-60502130D01*
X146532465Y-60534500D01*
X146657535Y-60534500D01*
X146778343Y-60502130D01*
X146886657Y-60439595D01*
X146975095Y-60351157D01*
X147037630Y-60242843D01*
X147070000Y-60122035D01*
X147070000Y-59996965D01*
X147037630Y-59876157D01*
X146975095Y-59767843D01*
X146886657Y-59679405D01*
X146778343Y-59616870D01*
X146657535Y-59584500D01*
X146532465Y-59584500D01*
X146411657Y-59616870D01*
X146303343Y-59679405D01*
X146214905Y-59767843D01*
X146152370Y-59876157D01*
X146120000Y-59996965D01*
X144931518Y-59996965D01*
X144814334Y-59924686D01*
X144647794Y-59869500D01*
X144545011Y-59859000D01*
X142294989Y-59859000D01*
X142192203Y-59869501D01*
X142155701Y-59881596D01*
X142118297Y-59878871D01*
X142113074Y-59875829D01*
X141988914Y-59792869D01*
X141988911Y-59792867D01*
X141988910Y-59792867D01*
X141806839Y-59717450D01*
X141806837Y-59717449D01*
X141806836Y-59717449D01*
X141806833Y-59717448D01*
X141806824Y-59717446D01*
X141613545Y-59679000D01*
X141613540Y-59679000D01*
X141416460Y-59679000D01*
X141416454Y-59679000D01*
X141223175Y-59717446D01*
X141223160Y-59717450D01*
X141041089Y-59792867D01*
X140877219Y-59902360D01*
X140737860Y-60041719D01*
X140628367Y-60205589D01*
X140552950Y-60387660D01*
X140552946Y-60387675D01*
X140514500Y-60580954D01*
X140514500Y-60778045D01*
X140552946Y-60971324D01*
X140552950Y-60971339D01*
X140604692Y-61096253D01*
X140562056Y-61025725D01*
X140360979Y-60769069D01*
X140130431Y-60538521D01*
X139873775Y-60337444D01*
X139594753Y-60168769D01*
X139297433Y-60034956D01*
X138986152Y-59937957D01*
X138665449Y-59879186D01*
X138340000Y-59859500D01*
X138014551Y-59879186D01*
X137693848Y-59937957D01*
X137382567Y-60034956D01*
X137085247Y-60168769D01*
X136806225Y-60337444D01*
X136626371Y-60478350D01*
X137235906Y-59411665D01*
X145370000Y-59411665D01*
X145370000Y-59559500D01*
X146095000Y-59559500D01*
X147095000Y-59559500D01*
X147820000Y-59559500D01*
X147820000Y-59411665D01*
X147813598Y-59352127D01*
X147813598Y-59352126D01*
X147763351Y-59217408D01*
X147677188Y-59102311D01*
X147562091Y-59016148D01*
X147427373Y-58965901D01*
X147367834Y-58959500D01*
X147095000Y-58959500D01*
X147095000Y-59559500D01*
X146095000Y-59559500D01*
X146095000Y-58959500D01*
X145822166Y-58959500D01*
X145762627Y-58965901D01*
X145762626Y-58965901D01*
X145627908Y-59016148D01*
X145512811Y-59102311D01*
X145426648Y-59217408D01*
X145376401Y-59352126D01*
X145376401Y-59352127D01*
X145370000Y-59411665D01*
X137235906Y-59411665D01*
X137574766Y-58818660D01*
X137763245Y-58488820D01*
X137765188Y-58485699D01*
X137861615Y-58343002D01*
X137930173Y-58241546D01*
X137934728Y-58235789D01*
X138133153Y-58020433D01*
X138138512Y-58015428D01*
X138366934Y-57832196D01*
X138372986Y-57828047D01*
X138626259Y-57681067D01*
X138632870Y-57677868D01*
X138905278Y-57570456D01*
X138912289Y-57568284D01*
X139197711Y-57502851D01*
X139204974Y-57501751D01*
X139498811Y-57479637D01*
X139502488Y-57479500D01*
X146910574Y-57479500D01*
X146914418Y-57479651D01*
G37*
%TD.AperFunction*%
%TD*%
%TA.AperFunction,Conductor*%
%TO.N,Board_2-+BATT*%
G36*
X138665449Y-39559186D02*
G01*
X138986152Y-39617957D01*
X139297433Y-39714956D01*
X139594753Y-39848769D01*
X139873775Y-40017444D01*
X140130431Y-40218521D01*
X140360979Y-40449069D01*
X140562056Y-40705725D01*
X140604691Y-40776253D01*
X140618134Y-40808705D01*
X140628369Y-40833414D01*
X140671717Y-40898290D01*
X140712910Y-40959940D01*
X140714847Y-40963090D01*
X140727180Y-40984957D01*
X140728549Y-40987566D01*
X140773831Y-41080568D01*
X140774459Y-41081908D01*
X140814585Y-41171063D01*
X140815172Y-41172422D01*
X140860557Y-41281992D01*
X140861607Y-41284759D01*
X140900299Y-41396884D01*
X140900760Y-41398290D01*
X140925332Y-41477143D01*
X140925751Y-41478563D01*
X140957593Y-41592786D01*
X140958302Y-41595660D01*
X140983200Y-41711646D01*
X140983488Y-41713098D01*
X140998371Y-41794316D01*
X140998616Y-41795775D01*
X141016461Y-41913025D01*
X141016818Y-41915964D01*
X141027549Y-42034058D01*
X141027661Y-42035533D01*
X141032651Y-42118006D01*
X141032718Y-42119485D01*
X141036299Y-42238020D01*
X141036299Y-42240980D01*
X141032718Y-42359514D01*
X141032651Y-42360993D01*
X141027661Y-42443466D01*
X141027549Y-42444941D01*
X141016818Y-42563035D01*
X141016461Y-42565974D01*
X140998616Y-42683224D01*
X140998371Y-42684683D01*
X140983488Y-42765901D01*
X140983200Y-42767353D01*
X140958302Y-42883339D01*
X140957593Y-42886213D01*
X140925751Y-43000436D01*
X140925332Y-43001856D01*
X140900760Y-43080709D01*
X140900299Y-43082115D01*
X140861607Y-43194240D01*
X140860557Y-43197007D01*
X140815172Y-43306577D01*
X140814585Y-43307936D01*
X140780686Y-43383256D01*
X140780058Y-43384597D01*
X140728146Y-43491214D01*
X140726771Y-43493835D01*
X140668491Y-43597167D01*
X140667745Y-43598444D01*
X140625011Y-43669134D01*
X140624246Y-43670358D01*
X140559849Y-43769957D01*
X140558168Y-43772392D01*
X140507791Y-43840857D01*
X140487884Y-43867911D01*
X140487046Y-43869016D01*
X140456553Y-43907938D01*
X140446866Y-43920302D01*
X140436033Y-43934130D01*
X140435103Y-43935280D01*
X140359192Y-44026367D01*
X140357229Y-44028583D01*
X140275932Y-44114946D01*
X140274901Y-44116008D01*
X140216508Y-44174401D01*
X140215446Y-44175432D01*
X140129083Y-44256729D01*
X140126867Y-44258692D01*
X140035780Y-44334603D01*
X140034630Y-44335533D01*
X140020802Y-44346366D01*
X140008438Y-44356053D01*
X139969516Y-44386546D01*
X139968411Y-44387384D01*
X139941357Y-44407291D01*
X139872892Y-44457668D01*
X139870457Y-44459349D01*
X139809605Y-44498693D01*
X139770816Y-44523772D01*
X139769707Y-44524466D01*
X139722293Y-44553130D01*
X139699677Y-44566801D01*
X139698944Y-44567245D01*
X139697667Y-44567991D01*
X139594335Y-44626271D01*
X139591714Y-44627646D01*
X139485097Y-44679558D01*
X139483756Y-44680186D01*
X139408436Y-44714085D01*
X139407077Y-44714672D01*
X139297507Y-44760057D01*
X139294740Y-44761107D01*
X139182615Y-44799799D01*
X139181209Y-44800260D01*
X139156325Y-44808014D01*
X139125367Y-44817661D01*
X139102322Y-44824841D01*
X139100957Y-44825244D01*
X139062187Y-44836052D01*
X138986713Y-44857093D01*
X138983839Y-44857802D01*
X138919555Y-44871601D01*
X138867819Y-44882706D01*
X138866448Y-44882978D01*
X138825800Y-44890428D01*
X138785183Y-44897871D01*
X138783724Y-44898116D01*
X138666474Y-44915961D01*
X138663535Y-44916318D01*
X138545441Y-44927049D01*
X138543966Y-44927161D01*
X138477402Y-44931188D01*
X138461465Y-44932152D01*
X138460014Y-44932218D01*
X138341480Y-44935799D01*
X138338520Y-44935799D01*
X138219985Y-44932218D01*
X138218533Y-44932152D01*
X138202596Y-44931188D01*
X138136033Y-44927161D01*
X138134558Y-44927049D01*
X138016464Y-44916318D01*
X138013525Y-44915961D01*
X137896275Y-44898116D01*
X137894816Y-44897871D01*
X137854199Y-44890428D01*
X137813550Y-44882978D01*
X137812179Y-44882706D01*
X137749409Y-44869232D01*
X137696160Y-44857802D01*
X137693286Y-44857093D01*
X137632312Y-44840095D01*
X137579041Y-44825244D01*
X137577676Y-44824841D01*
X137554632Y-44817661D01*
X137498788Y-44800259D01*
X137497384Y-44799799D01*
X137385259Y-44761107D01*
X137382492Y-44760057D01*
X137272922Y-44714672D01*
X137271563Y-44714085D01*
X137196243Y-44680186D01*
X137194902Y-44679558D01*
X137088285Y-44627646D01*
X137085664Y-44626271D01*
X136982332Y-44567991D01*
X136981083Y-44567261D01*
X136957706Y-44553130D01*
X136910291Y-44524466D01*
X136909182Y-44523772D01*
X136854640Y-44488508D01*
X136809542Y-44459349D01*
X136807107Y-44457668D01*
X136754282Y-44418799D01*
X136711586Y-44387383D01*
X136710482Y-44386546D01*
X136671561Y-44356053D01*
X136645368Y-44335532D01*
X136644219Y-44334603D01*
X136553132Y-44258692D01*
X136550916Y-44256729D01*
X136464553Y-44175432D01*
X136463491Y-44174401D01*
X136405098Y-44116008D01*
X136404067Y-44114946D01*
X136322770Y-44028583D01*
X136320807Y-44026367D01*
X136244896Y-43935280D01*
X136243966Y-43934130D01*
X136223446Y-43907938D01*
X136192952Y-43869016D01*
X136192115Y-43867912D01*
X136121831Y-43772392D01*
X136120150Y-43769957D01*
X136097624Y-43735118D01*
X136055732Y-43670324D01*
X136055016Y-43669181D01*
X136012225Y-43598395D01*
X136011508Y-43597167D01*
X135953228Y-43493835D01*
X135951860Y-43491228D01*
X135899933Y-43384580D01*
X135899313Y-43383256D01*
X135865414Y-43307936D01*
X135864827Y-43306577D01*
X135819442Y-43197007D01*
X135818392Y-43194240D01*
X135814978Y-43184349D01*
X135779686Y-43082075D01*
X135779253Y-43080751D01*
X135754660Y-43001832D01*
X135754248Y-43000436D01*
X135724827Y-42894899D01*
X135722403Y-42886203D01*
X135721697Y-42883339D01*
X135696791Y-42767315D01*
X135696519Y-42765943D01*
X135681625Y-42684667D01*
X135681383Y-42683224D01*
X135663538Y-42565974D01*
X135663181Y-42563035D01*
X135652450Y-42444941D01*
X135652338Y-42443466D01*
X135647346Y-42360958D01*
X135647282Y-42359550D01*
X135643700Y-42240956D01*
X135643700Y-42238043D01*
X135646628Y-42141083D01*
X137089500Y-42141083D01*
X137089500Y-42337916D01*
X137120290Y-42532323D01*
X137120291Y-42532326D01*
X137181116Y-42719526D01*
X137270472Y-42894899D01*
X137270475Y-42894903D01*
X137270476Y-42894905D01*
X137386172Y-43054146D01*
X137386174Y-43054148D01*
X137386177Y-43054152D01*
X137525347Y-43193322D01*
X137525350Y-43193324D01*
X137525354Y-43193328D01*
X137684595Y-43309024D01*
X137684597Y-43309025D01*
X137684600Y-43309027D01*
X137830284Y-43383256D01*
X137859975Y-43398384D01*
X138047174Y-43459209D01*
X138241583Y-43490000D01*
X138241584Y-43490000D01*
X138438416Y-43490000D01*
X138438417Y-43490000D01*
X138632826Y-43459209D01*
X138820025Y-43398384D01*
X138995405Y-43309024D01*
X139154646Y-43193328D01*
X139293828Y-43054146D01*
X139409524Y-42894905D01*
X139498884Y-42719525D01*
X139559709Y-42532326D01*
X139590500Y-42337917D01*
X139590500Y-42141083D01*
X139559709Y-41946674D01*
X139498884Y-41759475D01*
X139463485Y-41690000D01*
X139409527Y-41584100D01*
X139409525Y-41584097D01*
X139409524Y-41584095D01*
X139293828Y-41424854D01*
X139293824Y-41424850D01*
X139293822Y-41424847D01*
X139154652Y-41285677D01*
X139154653Y-41285677D01*
X139123945Y-41263366D01*
X138995405Y-41169976D01*
X138995403Y-41169975D01*
X138995399Y-41169972D01*
X138820026Y-41080616D01*
X138632826Y-41019791D01*
X138632823Y-41019790D01*
X138483482Y-40996137D01*
X138438417Y-40989000D01*
X138241583Y-40989000D01*
X138204998Y-40994794D01*
X138047176Y-41019790D01*
X138047173Y-41019791D01*
X137859973Y-41080616D01*
X137684600Y-41169972D01*
X137525347Y-41285677D01*
X137386177Y-41424847D01*
X137270472Y-41584100D01*
X137181116Y-41759473D01*
X137120291Y-41946673D01*
X137120290Y-41946676D01*
X137089500Y-42141083D01*
X135646628Y-42141083D01*
X135647282Y-42119446D01*
X135647346Y-42118044D01*
X135652338Y-42035524D01*
X135652450Y-42034058D01*
X135663181Y-41915964D01*
X135663538Y-41913025D01*
X135681383Y-41795775D01*
X135681628Y-41794316D01*
X135688013Y-41759473D01*
X135696521Y-41713043D01*
X135696788Y-41711697D01*
X135721701Y-41595643D01*
X135722401Y-41592804D01*
X135754260Y-41478521D01*
X135754654Y-41477184D01*
X135779259Y-41398227D01*
X135779680Y-41396943D01*
X135818395Y-41284750D01*
X135819442Y-41281992D01*
X135864827Y-41172422D01*
X135865393Y-41171109D01*
X135899332Y-41095701D01*
X135899921Y-41094444D01*
X135951867Y-40987757D01*
X135953213Y-40985190D01*
X136011524Y-40881803D01*
X136012208Y-40880632D01*
X136055034Y-40809789D01*
X136055712Y-40808705D01*
X136120154Y-40709035D01*
X136121831Y-40706607D01*
X136122480Y-40705725D01*
X136192115Y-40611086D01*
X136192952Y-40609983D01*
X136243997Y-40544829D01*
X136244862Y-40543760D01*
X136320820Y-40452617D01*
X136322756Y-40450430D01*
X136404098Y-40364020D01*
X136405064Y-40363025D01*
X136514591Y-40253498D01*
X136515552Y-40252565D01*
X136549483Y-40220623D01*
X136551676Y-40218682D01*
X136587970Y-40188436D01*
X136587971Y-40188434D01*
X136806225Y-40017444D01*
X137085247Y-39848769D01*
X137382567Y-39714956D01*
X137693848Y-39617957D01*
X138014551Y-39559186D01*
X138340000Y-39539500D01*
X138665449Y-39559186D01*
G37*
%TD.AperFunction*%
%TD*%
%TA.AperFunction,Conductor*%
%TO.N,Board_3-+BATT*%
G36*
X172949418Y-37159651D02*
G01*
X172972204Y-37161444D01*
X173192001Y-37178742D01*
X173199584Y-37179943D01*
X173411546Y-37230831D01*
X173434315Y-37236298D01*
X173441627Y-37238674D01*
X173470079Y-37250459D01*
X173664648Y-37331051D01*
X173671494Y-37334539D01*
X173877324Y-37460673D01*
X173883537Y-37465187D01*
X174017324Y-37579451D01*
X174034349Y-37612864D01*
X174034500Y-37616709D01*
X174034500Y-39877289D01*
X174020148Y-39911937D01*
X174017323Y-39914549D01*
X173910000Y-40006210D01*
X173910000Y-40006211D01*
X173880609Y-40031314D01*
X173668210Y-40161473D01*
X173479835Y-40239500D01*
X171405000Y-40239500D01*
X171405000Y-40285500D01*
X171390648Y-40320148D01*
X171356000Y-40334500D01*
X171329499Y-40334500D01*
X171294851Y-40320148D01*
X171280499Y-40285500D01*
X171280499Y-40239489D01*
X171269999Y-40136705D01*
X171269999Y-40136703D01*
X171214814Y-39970166D01*
X171122712Y-39820844D01*
X170998656Y-39696788D01*
X170998655Y-39696787D01*
X170966518Y-39676965D01*
X172155000Y-39676965D01*
X172155000Y-39802035D01*
X172187370Y-39922843D01*
X172249905Y-40031157D01*
X172338343Y-40119595D01*
X172446657Y-40182130D01*
X172567465Y-40214500D01*
X172692535Y-40214500D01*
X172813343Y-40182130D01*
X172921657Y-40119595D01*
X173010095Y-40031157D01*
X173072630Y-39922843D01*
X173105000Y-39802035D01*
X173105000Y-39676965D01*
X173072630Y-39556157D01*
X173010095Y-39447843D01*
X172921657Y-39359405D01*
X172813343Y-39296870D01*
X172692535Y-39264500D01*
X172567465Y-39264500D01*
X172446657Y-39296870D01*
X172338343Y-39359405D01*
X172249905Y-39447843D01*
X172187370Y-39556157D01*
X172155000Y-39676965D01*
X170966518Y-39676965D01*
X170849334Y-39604686D01*
X170682794Y-39549500D01*
X170580011Y-39539000D01*
X168329989Y-39539000D01*
X168227203Y-39549501D01*
X168190701Y-39561596D01*
X168153297Y-39558871D01*
X168148074Y-39555829D01*
X168023914Y-39472869D01*
X168023911Y-39472867D01*
X168023910Y-39472867D01*
X167841839Y-39397450D01*
X167841837Y-39397449D01*
X167841836Y-39397449D01*
X167841833Y-39397448D01*
X167841824Y-39397446D01*
X167648545Y-39359000D01*
X167648540Y-39359000D01*
X167451460Y-39359000D01*
X167451454Y-39359000D01*
X167258175Y-39397446D01*
X167258160Y-39397450D01*
X167076089Y-39472867D01*
X166912219Y-39582360D01*
X166772860Y-39721719D01*
X166663367Y-39885589D01*
X166587950Y-40067660D01*
X166587946Y-40067675D01*
X166549500Y-40260954D01*
X166549500Y-40458045D01*
X166587946Y-40651324D01*
X166587950Y-40651339D01*
X166639692Y-40776253D01*
X166597056Y-40705725D01*
X166395979Y-40449069D01*
X166165431Y-40218521D01*
X165908775Y-40017444D01*
X165629753Y-39848769D01*
X165332433Y-39714956D01*
X165021152Y-39617957D01*
X164700449Y-39559186D01*
X164375000Y-39539500D01*
X164049551Y-39559186D01*
X163728848Y-39617957D01*
X163417567Y-39714956D01*
X163120247Y-39848769D01*
X162841225Y-40017444D01*
X162661371Y-40158350D01*
X163270906Y-39091665D01*
X171405000Y-39091665D01*
X171405000Y-39239500D01*
X172130000Y-39239500D01*
X173130000Y-39239500D01*
X173855000Y-39239500D01*
X173855000Y-39091665D01*
X173848598Y-39032127D01*
X173848598Y-39032126D01*
X173798351Y-38897408D01*
X173712188Y-38782311D01*
X173597091Y-38696148D01*
X173462373Y-38645901D01*
X173402834Y-38639500D01*
X173130000Y-38639500D01*
X173130000Y-39239500D01*
X172130000Y-39239500D01*
X172130000Y-38639500D01*
X171857166Y-38639500D01*
X171797627Y-38645901D01*
X171797626Y-38645901D01*
X171662908Y-38696148D01*
X171547811Y-38782311D01*
X171461648Y-38897408D01*
X171411401Y-39032126D01*
X171411401Y-39032127D01*
X171405000Y-39091665D01*
X163270906Y-39091665D01*
X163609766Y-38498660D01*
X163798245Y-38168820D01*
X163800188Y-38165699D01*
X163894393Y-38026290D01*
X163965173Y-37921546D01*
X163969728Y-37915789D01*
X164168153Y-37700433D01*
X164173512Y-37695428D01*
X164401934Y-37512196D01*
X164407986Y-37508047D01*
X164661259Y-37361067D01*
X164667870Y-37357868D01*
X164940278Y-37250456D01*
X164947289Y-37248284D01*
X165232711Y-37182851D01*
X165239974Y-37181751D01*
X165533811Y-37159637D01*
X165537488Y-37159500D01*
X172945574Y-37159500D01*
X172949418Y-37159651D01*
G37*
%TD.AperFunction*%
%TD*%
%TA.AperFunction,Conductor*%
%TO.N,Board_8-+BATT*%
G36*
X146914418Y-67639651D02*
G01*
X146937204Y-67641444D01*
X147157001Y-67658742D01*
X147164584Y-67659943D01*
X147376546Y-67710831D01*
X147399315Y-67716298D01*
X147406627Y-67718674D01*
X147435079Y-67730459D01*
X147629648Y-67811051D01*
X147636494Y-67814539D01*
X147842324Y-67940673D01*
X147848540Y-67945189D01*
X148032099Y-68101963D01*
X148037536Y-68107400D01*
X148194310Y-68290959D01*
X148198829Y-68297179D01*
X148324958Y-68503002D01*
X148328449Y-68509854D01*
X148420825Y-68732872D01*
X148423201Y-68740184D01*
X148479554Y-68974908D01*
X148480757Y-68982502D01*
X148499697Y-69223155D01*
X148499697Y-69230845D01*
X148480757Y-69471497D01*
X148479554Y-69479091D01*
X148423201Y-69713815D01*
X148420825Y-69721127D01*
X148328449Y-69944145D01*
X148324958Y-69950997D01*
X148198829Y-70156820D01*
X148194310Y-70163040D01*
X148037536Y-70346599D01*
X148032099Y-70352036D01*
X147875000Y-70486210D01*
X147875000Y-70486211D01*
X147845609Y-70511314D01*
X147633210Y-70641473D01*
X147444835Y-70719500D01*
X145370000Y-70719500D01*
X145370000Y-70765500D01*
X145355648Y-70800148D01*
X145321000Y-70814500D01*
X145294499Y-70814500D01*
X145259851Y-70800148D01*
X145245499Y-70765500D01*
X145245499Y-70719489D01*
X145234999Y-70616705D01*
X145234999Y-70616703D01*
X145179814Y-70450166D01*
X145087712Y-70300844D01*
X144963656Y-70176788D01*
X144963655Y-70176787D01*
X144931518Y-70156965D01*
X146120000Y-70156965D01*
X146120000Y-70282035D01*
X146152370Y-70402843D01*
X146214905Y-70511157D01*
X146303343Y-70599595D01*
X146411657Y-70662130D01*
X146532465Y-70694500D01*
X146657535Y-70694500D01*
X146778343Y-70662130D01*
X146886657Y-70599595D01*
X146975095Y-70511157D01*
X147037630Y-70402843D01*
X147070000Y-70282035D01*
X147070000Y-70156965D01*
X147037630Y-70036157D01*
X146975095Y-69927843D01*
X146886657Y-69839405D01*
X146778343Y-69776870D01*
X146657535Y-69744500D01*
X146532465Y-69744500D01*
X146411657Y-69776870D01*
X146303343Y-69839405D01*
X146214905Y-69927843D01*
X146152370Y-70036157D01*
X146120000Y-70156965D01*
X144931518Y-70156965D01*
X144814334Y-70084686D01*
X144647794Y-70029500D01*
X144545011Y-70019000D01*
X142294989Y-70019000D01*
X142192203Y-70029501D01*
X142155701Y-70041596D01*
X142118297Y-70038871D01*
X142113074Y-70035829D01*
X141988914Y-69952869D01*
X141988911Y-69952867D01*
X141988910Y-69952867D01*
X141806839Y-69877450D01*
X141806837Y-69877449D01*
X141806836Y-69877449D01*
X141806833Y-69877448D01*
X141806824Y-69877446D01*
X141613545Y-69839000D01*
X141613540Y-69839000D01*
X141416460Y-69839000D01*
X141416454Y-69839000D01*
X141223175Y-69877446D01*
X141223160Y-69877450D01*
X141041089Y-69952867D01*
X140877219Y-70062360D01*
X140737860Y-70201719D01*
X140628367Y-70365589D01*
X140552950Y-70547660D01*
X140552946Y-70547675D01*
X140514500Y-70740954D01*
X140514500Y-70938045D01*
X140552946Y-71131324D01*
X140552950Y-71131339D01*
X140604692Y-71256253D01*
X140562056Y-71185725D01*
X140360979Y-70929069D01*
X140130431Y-70698521D01*
X139873775Y-70497444D01*
X139594753Y-70328769D01*
X139297433Y-70194956D01*
X138986152Y-70097957D01*
X138665449Y-70039186D01*
X138340000Y-70019500D01*
X138014551Y-70039186D01*
X137693848Y-70097957D01*
X137382567Y-70194956D01*
X137085247Y-70328769D01*
X136806225Y-70497444D01*
X136626371Y-70638350D01*
X137235906Y-69571665D01*
X145370000Y-69571665D01*
X145370000Y-69719500D01*
X146095000Y-69719500D01*
X147095000Y-69719500D01*
X147820000Y-69719500D01*
X147820000Y-69571665D01*
X147813598Y-69512127D01*
X147813598Y-69512126D01*
X147763351Y-69377408D01*
X147677188Y-69262311D01*
X147562091Y-69176148D01*
X147427373Y-69125901D01*
X147367834Y-69119500D01*
X147095000Y-69119500D01*
X147095000Y-69719500D01*
X146095000Y-69719500D01*
X146095000Y-69119500D01*
X145822166Y-69119500D01*
X145762627Y-69125901D01*
X145762626Y-69125901D01*
X145627908Y-69176148D01*
X145512811Y-69262311D01*
X145426648Y-69377408D01*
X145376401Y-69512126D01*
X145376401Y-69512127D01*
X145370000Y-69571665D01*
X137235906Y-69571665D01*
X137574766Y-68978660D01*
X137763245Y-68648820D01*
X137765188Y-68645699D01*
X137861615Y-68503002D01*
X137930173Y-68401546D01*
X137934728Y-68395789D01*
X138133153Y-68180433D01*
X138138512Y-68175428D01*
X138366934Y-67992196D01*
X138372986Y-67988047D01*
X138626259Y-67841067D01*
X138632870Y-67837868D01*
X138905278Y-67730456D01*
X138912289Y-67728284D01*
X139197711Y-67662851D01*
X139204974Y-67661751D01*
X139498811Y-67639637D01*
X139502488Y-67639500D01*
X146910574Y-67639500D01*
X146914418Y-67639651D01*
G37*
%TD.AperFunction*%
%TD*%
%TA.AperFunction,Conductor*%
%TO.N,Board_4-+BATT*%
G36*
X146914418Y-47319651D02*
G01*
X146937204Y-47321444D01*
X147157001Y-47338742D01*
X147164584Y-47339943D01*
X147376546Y-47390831D01*
X147399315Y-47396298D01*
X147406627Y-47398674D01*
X147435079Y-47410459D01*
X147629648Y-47491051D01*
X147636494Y-47494539D01*
X147842324Y-47620673D01*
X147848540Y-47625189D01*
X148032099Y-47781963D01*
X148037536Y-47787400D01*
X148194310Y-47970959D01*
X148198829Y-47977179D01*
X148324958Y-48183002D01*
X148328449Y-48189854D01*
X148420825Y-48412872D01*
X148423201Y-48420184D01*
X148479554Y-48654908D01*
X148480757Y-48662502D01*
X148499697Y-48903155D01*
X148499697Y-48910845D01*
X148480757Y-49151497D01*
X148479554Y-49159091D01*
X148423201Y-49393815D01*
X148420825Y-49401127D01*
X148328449Y-49624145D01*
X148324958Y-49630997D01*
X148198829Y-49836820D01*
X148194310Y-49843040D01*
X148037536Y-50026599D01*
X148032099Y-50032036D01*
X147875000Y-50166210D01*
X147875000Y-50166211D01*
X147845609Y-50191314D01*
X147633210Y-50321473D01*
X147444835Y-50399500D01*
X145370000Y-50399500D01*
X145370000Y-50445500D01*
X145355648Y-50480148D01*
X145321000Y-50494500D01*
X145294499Y-50494500D01*
X145259851Y-50480148D01*
X145245499Y-50445500D01*
X145245499Y-50399489D01*
X145234999Y-50296705D01*
X145234999Y-50296703D01*
X145179814Y-50130166D01*
X145087712Y-49980844D01*
X144963656Y-49856788D01*
X144963655Y-49856787D01*
X144931518Y-49836965D01*
X146120000Y-49836965D01*
X146120000Y-49962035D01*
X146152370Y-50082843D01*
X146214905Y-50191157D01*
X146303343Y-50279595D01*
X146411657Y-50342130D01*
X146532465Y-50374500D01*
X146657535Y-50374500D01*
X146778343Y-50342130D01*
X146886657Y-50279595D01*
X146975095Y-50191157D01*
X147037630Y-50082843D01*
X147070000Y-49962035D01*
X147070000Y-49836965D01*
X147037630Y-49716157D01*
X146975095Y-49607843D01*
X146886657Y-49519405D01*
X146778343Y-49456870D01*
X146657535Y-49424500D01*
X146532465Y-49424500D01*
X146411657Y-49456870D01*
X146303343Y-49519405D01*
X146214905Y-49607843D01*
X146152370Y-49716157D01*
X146120000Y-49836965D01*
X144931518Y-49836965D01*
X144814334Y-49764686D01*
X144647794Y-49709500D01*
X144545011Y-49699000D01*
X142294989Y-49699000D01*
X142192203Y-49709501D01*
X142155701Y-49721596D01*
X142118297Y-49718871D01*
X142113074Y-49715829D01*
X141988914Y-49632869D01*
X141988911Y-49632867D01*
X141988910Y-49632867D01*
X141806839Y-49557450D01*
X141806837Y-49557449D01*
X141806836Y-49557449D01*
X141806833Y-49557448D01*
X141806824Y-49557446D01*
X141613545Y-49519000D01*
X141613540Y-49519000D01*
X141416460Y-49519000D01*
X141416454Y-49519000D01*
X141223175Y-49557446D01*
X141223160Y-49557450D01*
X141041089Y-49632867D01*
X140877219Y-49742360D01*
X140737860Y-49881719D01*
X140628367Y-50045589D01*
X140552950Y-50227660D01*
X140552946Y-50227675D01*
X140514500Y-50420954D01*
X140514500Y-50618045D01*
X140552946Y-50811324D01*
X140552950Y-50811339D01*
X140604692Y-50936253D01*
X140562056Y-50865725D01*
X140360979Y-50609069D01*
X140130431Y-50378521D01*
X139873775Y-50177444D01*
X139594753Y-50008769D01*
X139297433Y-49874956D01*
X138986152Y-49777957D01*
X138665449Y-49719186D01*
X138340000Y-49699500D01*
X138014551Y-49719186D01*
X137693848Y-49777957D01*
X137382567Y-49874956D01*
X137085247Y-50008769D01*
X136806225Y-50177444D01*
X136626371Y-50318350D01*
X137235906Y-49251665D01*
X145370000Y-49251665D01*
X145370000Y-49399500D01*
X146095000Y-49399500D01*
X147095000Y-49399500D01*
X147820000Y-49399500D01*
X147820000Y-49251665D01*
X147813598Y-49192127D01*
X147813598Y-49192126D01*
X147763351Y-49057408D01*
X147677188Y-48942311D01*
X147562091Y-48856148D01*
X147427373Y-48805901D01*
X147367834Y-48799500D01*
X147095000Y-48799500D01*
X147095000Y-49399500D01*
X146095000Y-49399500D01*
X146095000Y-48799500D01*
X145822166Y-48799500D01*
X145762627Y-48805901D01*
X145762626Y-48805901D01*
X145627908Y-48856148D01*
X145512811Y-48942311D01*
X145426648Y-49057408D01*
X145376401Y-49192126D01*
X145376401Y-49192127D01*
X145370000Y-49251665D01*
X137235906Y-49251665D01*
X137574766Y-48658660D01*
X137763245Y-48328820D01*
X137765188Y-48325699D01*
X137861615Y-48183002D01*
X137930173Y-48081546D01*
X137934728Y-48075789D01*
X138133153Y-47860433D01*
X138138512Y-47855428D01*
X138366934Y-47672196D01*
X138372986Y-47668047D01*
X138626259Y-47521067D01*
X138632870Y-47517868D01*
X138905278Y-47410456D01*
X138912289Y-47408284D01*
X139197711Y-47342851D01*
X139204974Y-47341751D01*
X139498811Y-47319637D01*
X139502488Y-47319500D01*
X146910574Y-47319500D01*
X146914418Y-47319651D01*
G37*
%TD.AperFunction*%
%TD*%
%TA.AperFunction,Conductor*%
%TO.N,Board_0-+BATT*%
G36*
X146914418Y-26999651D02*
G01*
X146937204Y-27001444D01*
X147157001Y-27018742D01*
X147164584Y-27019943D01*
X147376546Y-27070831D01*
X147399315Y-27076298D01*
X147406627Y-27078674D01*
X147435079Y-27090459D01*
X147629648Y-27171051D01*
X147636494Y-27174539D01*
X147842324Y-27300673D01*
X147848540Y-27305189D01*
X148032099Y-27461963D01*
X148037536Y-27467400D01*
X148194310Y-27650959D01*
X148198829Y-27657179D01*
X148324958Y-27863002D01*
X148328449Y-27869854D01*
X148420825Y-28092872D01*
X148423201Y-28100184D01*
X148479554Y-28334908D01*
X148480757Y-28342502D01*
X148499697Y-28583155D01*
X148499697Y-28590845D01*
X148480757Y-28831497D01*
X148479554Y-28839091D01*
X148423201Y-29073815D01*
X148420825Y-29081127D01*
X148328449Y-29304145D01*
X148324958Y-29310997D01*
X148198829Y-29516820D01*
X148194310Y-29523040D01*
X148037536Y-29706599D01*
X148032099Y-29712036D01*
X147875000Y-29846210D01*
X147875000Y-29846211D01*
X147845609Y-29871314D01*
X147633210Y-30001473D01*
X147444835Y-30079500D01*
X145370000Y-30079500D01*
X145370000Y-30125500D01*
X145355648Y-30160148D01*
X145321000Y-30174500D01*
X145294499Y-30174500D01*
X145259851Y-30160148D01*
X145245499Y-30125500D01*
X145245499Y-30079489D01*
X145234999Y-29976705D01*
X145234999Y-29976703D01*
X145179814Y-29810166D01*
X145087712Y-29660844D01*
X144963656Y-29536788D01*
X144963655Y-29536787D01*
X144931518Y-29516965D01*
X146120000Y-29516965D01*
X146120000Y-29642035D01*
X146152370Y-29762843D01*
X146214905Y-29871157D01*
X146303343Y-29959595D01*
X146411657Y-30022130D01*
X146532465Y-30054500D01*
X146657535Y-30054500D01*
X146778343Y-30022130D01*
X146886657Y-29959595D01*
X146975095Y-29871157D01*
X147037630Y-29762843D01*
X147070000Y-29642035D01*
X147070000Y-29516965D01*
X147037630Y-29396157D01*
X146975095Y-29287843D01*
X146886657Y-29199405D01*
X146778343Y-29136870D01*
X146657535Y-29104500D01*
X146532465Y-29104500D01*
X146411657Y-29136870D01*
X146303343Y-29199405D01*
X146214905Y-29287843D01*
X146152370Y-29396157D01*
X146120000Y-29516965D01*
X144931518Y-29516965D01*
X144814334Y-29444686D01*
X144647794Y-29389500D01*
X144545011Y-29379000D01*
X142294989Y-29379000D01*
X142192203Y-29389501D01*
X142155701Y-29401596D01*
X142118297Y-29398871D01*
X142113074Y-29395829D01*
X141988914Y-29312869D01*
X141988911Y-29312867D01*
X141988910Y-29312867D01*
X141806839Y-29237450D01*
X141806837Y-29237449D01*
X141806836Y-29237449D01*
X141806833Y-29237448D01*
X141806824Y-29237446D01*
X141613545Y-29199000D01*
X141613540Y-29199000D01*
X141416460Y-29199000D01*
X141416454Y-29199000D01*
X141223175Y-29237446D01*
X141223160Y-29237450D01*
X141041089Y-29312867D01*
X140877219Y-29422360D01*
X140737860Y-29561719D01*
X140628367Y-29725589D01*
X140552950Y-29907660D01*
X140552946Y-29907675D01*
X140514500Y-30100954D01*
X140514500Y-30298045D01*
X140552946Y-30491324D01*
X140552950Y-30491339D01*
X140604692Y-30616253D01*
X140562056Y-30545725D01*
X140360979Y-30289069D01*
X140130431Y-30058521D01*
X139873775Y-29857444D01*
X139594753Y-29688769D01*
X139297433Y-29554956D01*
X138986152Y-29457957D01*
X138665449Y-29399186D01*
X138340000Y-29379500D01*
X138014551Y-29399186D01*
X137693848Y-29457957D01*
X137382567Y-29554956D01*
X137085247Y-29688769D01*
X136806225Y-29857444D01*
X136626371Y-29998350D01*
X137235906Y-28931665D01*
X145370000Y-28931665D01*
X145370000Y-29079500D01*
X146095000Y-29079500D01*
X147095000Y-29079500D01*
X147820000Y-29079500D01*
X147820000Y-28931665D01*
X147813598Y-28872127D01*
X147813598Y-28872126D01*
X147763351Y-28737408D01*
X147677188Y-28622311D01*
X147562091Y-28536148D01*
X147427373Y-28485901D01*
X147367834Y-28479500D01*
X147095000Y-28479500D01*
X147095000Y-29079500D01*
X146095000Y-29079500D01*
X146095000Y-28479500D01*
X145822166Y-28479500D01*
X145762627Y-28485901D01*
X145762626Y-28485901D01*
X145627908Y-28536148D01*
X145512811Y-28622311D01*
X145426648Y-28737408D01*
X145376401Y-28872126D01*
X145376401Y-28872127D01*
X145370000Y-28931665D01*
X137235906Y-28931665D01*
X137574766Y-28338660D01*
X137763245Y-28008820D01*
X137765188Y-28005699D01*
X137861615Y-27863002D01*
X137930173Y-27761546D01*
X137934728Y-27755789D01*
X138133153Y-27540433D01*
X138138512Y-27535428D01*
X138366934Y-27352196D01*
X138372986Y-27348047D01*
X138626259Y-27201067D01*
X138632870Y-27197868D01*
X138905278Y-27090456D01*
X138912289Y-27088284D01*
X139197711Y-27022851D01*
X139204974Y-27021751D01*
X139498811Y-26999637D01*
X139502488Y-26999500D01*
X146910574Y-26999500D01*
X146914418Y-26999651D01*
G37*
%TD.AperFunction*%
%TD*%
%TA.AperFunction,Conductor*%
%TO.N,Board_5-+BATT*%
G36*
X164700449Y-49719186D02*
G01*
X165021152Y-49777957D01*
X165332433Y-49874956D01*
X165629753Y-50008769D01*
X165908775Y-50177444D01*
X166165431Y-50378521D01*
X166395979Y-50609069D01*
X166597056Y-50865725D01*
X166639691Y-50936253D01*
X166653134Y-50968705D01*
X166663369Y-50993414D01*
X166706717Y-51058290D01*
X166747910Y-51119940D01*
X166749847Y-51123090D01*
X166762180Y-51144957D01*
X166763549Y-51147566D01*
X166808831Y-51240568D01*
X166809459Y-51241908D01*
X166849585Y-51331063D01*
X166850172Y-51332422D01*
X166895557Y-51441992D01*
X166896607Y-51444759D01*
X166935299Y-51556884D01*
X166935760Y-51558290D01*
X166960332Y-51637143D01*
X166960751Y-51638563D01*
X166992593Y-51752786D01*
X166993302Y-51755660D01*
X167018200Y-51871646D01*
X167018488Y-51873098D01*
X167033371Y-51954316D01*
X167033616Y-51955775D01*
X167051461Y-52073025D01*
X167051818Y-52075964D01*
X167062549Y-52194058D01*
X167062661Y-52195533D01*
X167067651Y-52278006D01*
X167067718Y-52279485D01*
X167071299Y-52398020D01*
X167071299Y-52400980D01*
X167067718Y-52519514D01*
X167067651Y-52520993D01*
X167062661Y-52603466D01*
X167062549Y-52604941D01*
X167051818Y-52723035D01*
X167051461Y-52725974D01*
X167033616Y-52843224D01*
X167033371Y-52844683D01*
X167018488Y-52925901D01*
X167018200Y-52927353D01*
X166993302Y-53043339D01*
X166992593Y-53046213D01*
X166960751Y-53160436D01*
X166960332Y-53161856D01*
X166935760Y-53240709D01*
X166935299Y-53242115D01*
X166896607Y-53354240D01*
X166895557Y-53357007D01*
X166850172Y-53466577D01*
X166849585Y-53467936D01*
X166815686Y-53543256D01*
X166815058Y-53544597D01*
X166763146Y-53651214D01*
X166761771Y-53653835D01*
X166703491Y-53757167D01*
X166702745Y-53758444D01*
X166660011Y-53829134D01*
X166659246Y-53830358D01*
X166594849Y-53929957D01*
X166593168Y-53932392D01*
X166542791Y-54000857D01*
X166522884Y-54027911D01*
X166522046Y-54029016D01*
X166491553Y-54067938D01*
X166481866Y-54080302D01*
X166471033Y-54094130D01*
X166470103Y-54095280D01*
X166394192Y-54186367D01*
X166392229Y-54188583D01*
X166310932Y-54274946D01*
X166309901Y-54276008D01*
X166251508Y-54334401D01*
X166250446Y-54335432D01*
X166164083Y-54416729D01*
X166161867Y-54418692D01*
X166070780Y-54494603D01*
X166069630Y-54495533D01*
X166055802Y-54506366D01*
X166043438Y-54516053D01*
X166004516Y-54546546D01*
X166003411Y-54547384D01*
X165976357Y-54567291D01*
X165907892Y-54617668D01*
X165905457Y-54619349D01*
X165844605Y-54658693D01*
X165805816Y-54683772D01*
X165804707Y-54684466D01*
X165757293Y-54713130D01*
X165734677Y-54726801D01*
X165733944Y-54727245D01*
X165732667Y-54727991D01*
X165629335Y-54786271D01*
X165626714Y-54787646D01*
X165520097Y-54839558D01*
X165518756Y-54840186D01*
X165443436Y-54874085D01*
X165442077Y-54874672D01*
X165332507Y-54920057D01*
X165329740Y-54921107D01*
X165217615Y-54959799D01*
X165216209Y-54960260D01*
X165191325Y-54968014D01*
X165160367Y-54977661D01*
X165137322Y-54984841D01*
X165135957Y-54985244D01*
X165097187Y-54996052D01*
X165021713Y-55017093D01*
X165018839Y-55017802D01*
X164954555Y-55031601D01*
X164902819Y-55042706D01*
X164901448Y-55042978D01*
X164860800Y-55050428D01*
X164820183Y-55057871D01*
X164818724Y-55058116D01*
X164701474Y-55075961D01*
X164698535Y-55076318D01*
X164580441Y-55087049D01*
X164578966Y-55087161D01*
X164512402Y-55091188D01*
X164496465Y-55092152D01*
X164495014Y-55092218D01*
X164376480Y-55095799D01*
X164373520Y-55095799D01*
X164254985Y-55092218D01*
X164253533Y-55092152D01*
X164237596Y-55091188D01*
X164171033Y-55087161D01*
X164169558Y-55087049D01*
X164051464Y-55076318D01*
X164048525Y-55075961D01*
X163931275Y-55058116D01*
X163929816Y-55057871D01*
X163889199Y-55050428D01*
X163848550Y-55042978D01*
X163847179Y-55042706D01*
X163784409Y-55029232D01*
X163731160Y-55017802D01*
X163728286Y-55017093D01*
X163667312Y-55000095D01*
X163614041Y-54985244D01*
X163612676Y-54984841D01*
X163589632Y-54977661D01*
X163533788Y-54960259D01*
X163532384Y-54959799D01*
X163420259Y-54921107D01*
X163417492Y-54920057D01*
X163307922Y-54874672D01*
X163306563Y-54874085D01*
X163231243Y-54840186D01*
X163229902Y-54839558D01*
X163123285Y-54787646D01*
X163120664Y-54786271D01*
X163017332Y-54727991D01*
X163016083Y-54727261D01*
X162992706Y-54713130D01*
X162945291Y-54684466D01*
X162944182Y-54683772D01*
X162889640Y-54648508D01*
X162844542Y-54619349D01*
X162842107Y-54617668D01*
X162789282Y-54578799D01*
X162746586Y-54547383D01*
X162745482Y-54546546D01*
X162706561Y-54516053D01*
X162680368Y-54495532D01*
X162679219Y-54494603D01*
X162588132Y-54418692D01*
X162585916Y-54416729D01*
X162499553Y-54335432D01*
X162498491Y-54334401D01*
X162440098Y-54276008D01*
X162439067Y-54274946D01*
X162357770Y-54188583D01*
X162355807Y-54186367D01*
X162279896Y-54095280D01*
X162278966Y-54094130D01*
X162258446Y-54067938D01*
X162227952Y-54029016D01*
X162227115Y-54027912D01*
X162156831Y-53932392D01*
X162155150Y-53929957D01*
X162132624Y-53895118D01*
X162090732Y-53830324D01*
X162090016Y-53829181D01*
X162047225Y-53758395D01*
X162046508Y-53757167D01*
X161988228Y-53653835D01*
X161986860Y-53651228D01*
X161934933Y-53544580D01*
X161934313Y-53543256D01*
X161900414Y-53467936D01*
X161899827Y-53466577D01*
X161854442Y-53357007D01*
X161853392Y-53354240D01*
X161849978Y-53344349D01*
X161814686Y-53242075D01*
X161814253Y-53240751D01*
X161789660Y-53161832D01*
X161789248Y-53160436D01*
X161759827Y-53054899D01*
X161757403Y-53046203D01*
X161756697Y-53043339D01*
X161731791Y-52927315D01*
X161731519Y-52925943D01*
X161716625Y-52844667D01*
X161716383Y-52843224D01*
X161698538Y-52725974D01*
X161698181Y-52723035D01*
X161687450Y-52604941D01*
X161687338Y-52603466D01*
X161682346Y-52520958D01*
X161682282Y-52519550D01*
X161678700Y-52400956D01*
X161678700Y-52398043D01*
X161681628Y-52301083D01*
X163124500Y-52301083D01*
X163124500Y-52497916D01*
X163155290Y-52692323D01*
X163155291Y-52692326D01*
X163216116Y-52879526D01*
X163305472Y-53054899D01*
X163305475Y-53054903D01*
X163305476Y-53054905D01*
X163421172Y-53214146D01*
X163421174Y-53214148D01*
X163421177Y-53214152D01*
X163560347Y-53353322D01*
X163560350Y-53353324D01*
X163560354Y-53353328D01*
X163719595Y-53469024D01*
X163719597Y-53469025D01*
X163719600Y-53469027D01*
X163865284Y-53543256D01*
X163894975Y-53558384D01*
X164082174Y-53619209D01*
X164276583Y-53650000D01*
X164276584Y-53650000D01*
X164473416Y-53650000D01*
X164473417Y-53650000D01*
X164667826Y-53619209D01*
X164855025Y-53558384D01*
X165030405Y-53469024D01*
X165189646Y-53353328D01*
X165328828Y-53214146D01*
X165444524Y-53054905D01*
X165533884Y-52879525D01*
X165594709Y-52692326D01*
X165625500Y-52497917D01*
X165625500Y-52301083D01*
X165594709Y-52106674D01*
X165533884Y-51919475D01*
X165498485Y-51850000D01*
X165444527Y-51744100D01*
X165444525Y-51744097D01*
X165444524Y-51744095D01*
X165328828Y-51584854D01*
X165328824Y-51584850D01*
X165328822Y-51584847D01*
X165189652Y-51445677D01*
X165189653Y-51445677D01*
X165158945Y-51423366D01*
X165030405Y-51329976D01*
X165030403Y-51329975D01*
X165030399Y-51329972D01*
X164855026Y-51240616D01*
X164667826Y-51179791D01*
X164667823Y-51179790D01*
X164518482Y-51156137D01*
X164473417Y-51149000D01*
X164276583Y-51149000D01*
X164239998Y-51154794D01*
X164082176Y-51179790D01*
X164082173Y-51179791D01*
X163894973Y-51240616D01*
X163719600Y-51329972D01*
X163560347Y-51445677D01*
X163421177Y-51584847D01*
X163305472Y-51744100D01*
X163216116Y-51919473D01*
X163155291Y-52106673D01*
X163155290Y-52106676D01*
X163124500Y-52301083D01*
X161681628Y-52301083D01*
X161682282Y-52279446D01*
X161682346Y-52278044D01*
X161687338Y-52195524D01*
X161687450Y-52194058D01*
X161698181Y-52075964D01*
X161698538Y-52073025D01*
X161716383Y-51955775D01*
X161716628Y-51954316D01*
X161723013Y-51919473D01*
X161731521Y-51873043D01*
X161731788Y-51871697D01*
X161756701Y-51755643D01*
X161757401Y-51752804D01*
X161789260Y-51638521D01*
X161789654Y-51637184D01*
X161814259Y-51558227D01*
X161814680Y-51556943D01*
X161853395Y-51444750D01*
X161854442Y-51441992D01*
X161899827Y-51332422D01*
X161900393Y-51331109D01*
X161934332Y-51255701D01*
X161934921Y-51254444D01*
X161986867Y-51147757D01*
X161988213Y-51145190D01*
X162046524Y-51041803D01*
X162047208Y-51040632D01*
X162090034Y-50969789D01*
X162090712Y-50968705D01*
X162155154Y-50869035D01*
X162156831Y-50866607D01*
X162157480Y-50865725D01*
X162227115Y-50771086D01*
X162227952Y-50769983D01*
X162278997Y-50704829D01*
X162279862Y-50703760D01*
X162355820Y-50612617D01*
X162357756Y-50610430D01*
X162439098Y-50524020D01*
X162440064Y-50523025D01*
X162549591Y-50413498D01*
X162550552Y-50412565D01*
X162584483Y-50380623D01*
X162586676Y-50378682D01*
X162622970Y-50348436D01*
X162622971Y-50348434D01*
X162841225Y-50177444D01*
X163120247Y-50008769D01*
X163417567Y-49874956D01*
X163728848Y-49777957D01*
X164049551Y-49719186D01*
X164375000Y-49699500D01*
X164700449Y-49719186D01*
G37*
%TD.AperFunction*%
%TD*%
%TA.AperFunction,Conductor*%
%TO.N,Board_1-+BATT*%
G36*
X164700449Y-29399186D02*
G01*
X165021152Y-29457957D01*
X165332433Y-29554956D01*
X165629753Y-29688769D01*
X165908775Y-29857444D01*
X166165431Y-30058521D01*
X166395979Y-30289069D01*
X166597056Y-30545725D01*
X166639691Y-30616253D01*
X166653134Y-30648705D01*
X166663369Y-30673414D01*
X166706717Y-30738290D01*
X166747910Y-30799940D01*
X166749847Y-30803090D01*
X166762180Y-30824957D01*
X166763549Y-30827566D01*
X166808831Y-30920568D01*
X166809459Y-30921908D01*
X166849585Y-31011063D01*
X166850172Y-31012422D01*
X166895557Y-31121992D01*
X166896607Y-31124759D01*
X166935299Y-31236884D01*
X166935760Y-31238290D01*
X166960332Y-31317143D01*
X166960751Y-31318563D01*
X166992593Y-31432786D01*
X166993302Y-31435660D01*
X167018200Y-31551646D01*
X167018488Y-31553098D01*
X167033371Y-31634316D01*
X167033616Y-31635775D01*
X167051461Y-31753025D01*
X167051818Y-31755964D01*
X167062549Y-31874058D01*
X167062661Y-31875533D01*
X167067651Y-31958006D01*
X167067718Y-31959485D01*
X167071299Y-32078020D01*
X167071299Y-32080980D01*
X167067718Y-32199514D01*
X167067651Y-32200993D01*
X167062661Y-32283466D01*
X167062549Y-32284941D01*
X167051818Y-32403035D01*
X167051461Y-32405974D01*
X167033616Y-32523224D01*
X167033371Y-32524683D01*
X167018488Y-32605901D01*
X167018200Y-32607353D01*
X166993302Y-32723339D01*
X166992593Y-32726213D01*
X166960751Y-32840436D01*
X166960332Y-32841856D01*
X166935760Y-32920709D01*
X166935299Y-32922115D01*
X166896607Y-33034240D01*
X166895557Y-33037007D01*
X166850172Y-33146577D01*
X166849585Y-33147936D01*
X166815686Y-33223256D01*
X166815058Y-33224597D01*
X166763146Y-33331214D01*
X166761771Y-33333835D01*
X166703491Y-33437167D01*
X166702745Y-33438444D01*
X166660011Y-33509134D01*
X166659246Y-33510358D01*
X166594849Y-33609957D01*
X166593168Y-33612392D01*
X166542791Y-33680857D01*
X166522884Y-33707911D01*
X166522046Y-33709016D01*
X166491553Y-33747938D01*
X166481866Y-33760302D01*
X166471033Y-33774130D01*
X166470103Y-33775280D01*
X166394192Y-33866367D01*
X166392229Y-33868583D01*
X166310932Y-33954946D01*
X166309901Y-33956008D01*
X166251508Y-34014401D01*
X166250446Y-34015432D01*
X166164083Y-34096729D01*
X166161867Y-34098692D01*
X166070780Y-34174603D01*
X166069630Y-34175533D01*
X166055802Y-34186366D01*
X166043438Y-34196053D01*
X166004516Y-34226546D01*
X166003411Y-34227384D01*
X165976357Y-34247291D01*
X165907892Y-34297668D01*
X165905457Y-34299349D01*
X165844605Y-34338693D01*
X165805816Y-34363772D01*
X165804707Y-34364466D01*
X165757293Y-34393130D01*
X165734677Y-34406801D01*
X165733944Y-34407245D01*
X165732667Y-34407991D01*
X165629335Y-34466271D01*
X165626714Y-34467646D01*
X165520097Y-34519558D01*
X165518756Y-34520186D01*
X165443436Y-34554085D01*
X165442077Y-34554672D01*
X165332507Y-34600057D01*
X165329740Y-34601107D01*
X165217615Y-34639799D01*
X165216209Y-34640260D01*
X165191325Y-34648014D01*
X165160367Y-34657661D01*
X165137322Y-34664841D01*
X165135957Y-34665244D01*
X165097187Y-34676052D01*
X165021713Y-34697093D01*
X165018839Y-34697802D01*
X164954555Y-34711601D01*
X164902819Y-34722706D01*
X164901448Y-34722978D01*
X164860800Y-34730428D01*
X164820183Y-34737871D01*
X164818724Y-34738116D01*
X164701474Y-34755961D01*
X164698535Y-34756318D01*
X164580441Y-34767049D01*
X164578966Y-34767161D01*
X164512402Y-34771188D01*
X164496465Y-34772152D01*
X164495014Y-34772218D01*
X164376480Y-34775799D01*
X164373520Y-34775799D01*
X164254985Y-34772218D01*
X164253533Y-34772152D01*
X164237596Y-34771188D01*
X164171033Y-34767161D01*
X164169558Y-34767049D01*
X164051464Y-34756318D01*
X164048525Y-34755961D01*
X163931275Y-34738116D01*
X163929816Y-34737871D01*
X163889199Y-34730428D01*
X163848550Y-34722978D01*
X163847179Y-34722706D01*
X163784409Y-34709232D01*
X163731160Y-34697802D01*
X163728286Y-34697093D01*
X163667312Y-34680095D01*
X163614041Y-34665244D01*
X163612676Y-34664841D01*
X163589632Y-34657661D01*
X163533788Y-34640259D01*
X163532384Y-34639799D01*
X163420259Y-34601107D01*
X163417492Y-34600057D01*
X163307922Y-34554672D01*
X163306563Y-34554085D01*
X163231243Y-34520186D01*
X163229902Y-34519558D01*
X163123285Y-34467646D01*
X163120664Y-34466271D01*
X163017332Y-34407991D01*
X163016083Y-34407261D01*
X162992706Y-34393130D01*
X162945291Y-34364466D01*
X162944182Y-34363772D01*
X162889640Y-34328508D01*
X162844542Y-34299349D01*
X162842107Y-34297668D01*
X162789282Y-34258799D01*
X162746586Y-34227383D01*
X162745482Y-34226546D01*
X162706561Y-34196053D01*
X162680368Y-34175532D01*
X162679219Y-34174603D01*
X162588132Y-34098692D01*
X162585916Y-34096729D01*
X162499553Y-34015432D01*
X162498491Y-34014401D01*
X162440098Y-33956008D01*
X162439067Y-33954946D01*
X162357770Y-33868583D01*
X162355807Y-33866367D01*
X162279896Y-33775280D01*
X162278966Y-33774130D01*
X162258446Y-33747938D01*
X162227952Y-33709016D01*
X162227115Y-33707912D01*
X162156831Y-33612392D01*
X162155150Y-33609957D01*
X162132624Y-33575118D01*
X162090732Y-33510324D01*
X162090016Y-33509181D01*
X162047225Y-33438395D01*
X162046508Y-33437167D01*
X161988228Y-33333835D01*
X161986860Y-33331228D01*
X161934933Y-33224580D01*
X161934313Y-33223256D01*
X161900414Y-33147936D01*
X161899827Y-33146577D01*
X161854442Y-33037007D01*
X161853392Y-33034240D01*
X161849978Y-33024349D01*
X161814686Y-32922075D01*
X161814253Y-32920751D01*
X161789660Y-32841832D01*
X161789248Y-32840436D01*
X161759827Y-32734899D01*
X161757403Y-32726203D01*
X161756697Y-32723339D01*
X161731791Y-32607315D01*
X161731519Y-32605943D01*
X161716625Y-32524667D01*
X161716383Y-32523224D01*
X161698538Y-32405974D01*
X161698181Y-32403035D01*
X161687450Y-32284941D01*
X161687338Y-32283466D01*
X161682346Y-32200958D01*
X161682282Y-32199550D01*
X161678700Y-32080956D01*
X161678700Y-32078043D01*
X161681628Y-31981083D01*
X163124500Y-31981083D01*
X163124500Y-32177916D01*
X163155290Y-32372323D01*
X163155291Y-32372326D01*
X163216116Y-32559526D01*
X163305472Y-32734899D01*
X163305475Y-32734903D01*
X163305476Y-32734905D01*
X163421172Y-32894146D01*
X163421174Y-32894148D01*
X163421177Y-32894152D01*
X163560347Y-33033322D01*
X163560350Y-33033324D01*
X163560354Y-33033328D01*
X163719595Y-33149024D01*
X163719597Y-33149025D01*
X163719600Y-33149027D01*
X163865284Y-33223256D01*
X163894975Y-33238384D01*
X164082174Y-33299209D01*
X164276583Y-33330000D01*
X164276584Y-33330000D01*
X164473416Y-33330000D01*
X164473417Y-33330000D01*
X164667826Y-33299209D01*
X164855025Y-33238384D01*
X165030405Y-33149024D01*
X165189646Y-33033328D01*
X165328828Y-32894146D01*
X165444524Y-32734905D01*
X165533884Y-32559525D01*
X165594709Y-32372326D01*
X165625500Y-32177917D01*
X165625500Y-31981083D01*
X165594709Y-31786674D01*
X165533884Y-31599475D01*
X165498485Y-31530000D01*
X165444527Y-31424100D01*
X165444525Y-31424097D01*
X165444524Y-31424095D01*
X165328828Y-31264854D01*
X165328824Y-31264850D01*
X165328822Y-31264847D01*
X165189652Y-31125677D01*
X165189653Y-31125677D01*
X165158945Y-31103366D01*
X165030405Y-31009976D01*
X165030403Y-31009975D01*
X165030399Y-31009972D01*
X164855026Y-30920616D01*
X164667826Y-30859791D01*
X164667823Y-30859790D01*
X164518482Y-30836137D01*
X164473417Y-30829000D01*
X164276583Y-30829000D01*
X164239998Y-30834794D01*
X164082176Y-30859790D01*
X164082173Y-30859791D01*
X163894973Y-30920616D01*
X163719600Y-31009972D01*
X163560347Y-31125677D01*
X163421177Y-31264847D01*
X163305472Y-31424100D01*
X163216116Y-31599473D01*
X163155291Y-31786673D01*
X163155290Y-31786676D01*
X163124500Y-31981083D01*
X161681628Y-31981083D01*
X161682282Y-31959446D01*
X161682346Y-31958044D01*
X161687338Y-31875524D01*
X161687450Y-31874058D01*
X161698181Y-31755964D01*
X161698538Y-31753025D01*
X161716383Y-31635775D01*
X161716628Y-31634316D01*
X161723013Y-31599473D01*
X161731521Y-31553043D01*
X161731788Y-31551697D01*
X161756701Y-31435643D01*
X161757401Y-31432804D01*
X161789260Y-31318521D01*
X161789654Y-31317184D01*
X161814259Y-31238227D01*
X161814680Y-31236943D01*
X161853395Y-31124750D01*
X161854442Y-31121992D01*
X161899827Y-31012422D01*
X161900393Y-31011109D01*
X161934332Y-30935701D01*
X161934921Y-30934444D01*
X161986867Y-30827757D01*
X161988213Y-30825190D01*
X162046524Y-30721803D01*
X162047208Y-30720632D01*
X162090034Y-30649789D01*
X162090712Y-30648705D01*
X162155154Y-30549035D01*
X162156831Y-30546607D01*
X162157480Y-30545725D01*
X162227115Y-30451086D01*
X162227952Y-30449983D01*
X162278997Y-30384829D01*
X162279862Y-30383760D01*
X162355820Y-30292617D01*
X162357756Y-30290430D01*
X162439098Y-30204020D01*
X162440064Y-30203025D01*
X162549591Y-30093498D01*
X162550552Y-30092565D01*
X162584483Y-30060623D01*
X162586676Y-30058682D01*
X162622970Y-30028436D01*
X162622971Y-30028434D01*
X162841225Y-29857444D01*
X163120247Y-29688769D01*
X163417567Y-29554956D01*
X163728848Y-29457957D01*
X164049551Y-29399186D01*
X164375000Y-29379500D01*
X164700449Y-29399186D01*
G37*
%TD.AperFunction*%
%TD*%
%TA.AperFunction,Conductor*%
%TO.N,Board_5-+BATT*%
G36*
X172949418Y-47319651D02*
G01*
X172972204Y-47321444D01*
X173192001Y-47338742D01*
X173199584Y-47339943D01*
X173411546Y-47390831D01*
X173434315Y-47396298D01*
X173441627Y-47398674D01*
X173470079Y-47410459D01*
X173664648Y-47491051D01*
X173671494Y-47494539D01*
X173877324Y-47620673D01*
X173883537Y-47625187D01*
X174017324Y-47739451D01*
X174034349Y-47772864D01*
X174034500Y-47776709D01*
X174034500Y-50037289D01*
X174020148Y-50071937D01*
X174017323Y-50074549D01*
X173910000Y-50166210D01*
X173910000Y-50166211D01*
X173880609Y-50191314D01*
X173668210Y-50321473D01*
X173479835Y-50399500D01*
X171405000Y-50399500D01*
X171405000Y-50445500D01*
X171390648Y-50480148D01*
X171356000Y-50494500D01*
X171329499Y-50494500D01*
X171294851Y-50480148D01*
X171280499Y-50445500D01*
X171280499Y-50399489D01*
X171269999Y-50296705D01*
X171269999Y-50296703D01*
X171214814Y-50130166D01*
X171122712Y-49980844D01*
X170998656Y-49856788D01*
X170998655Y-49856787D01*
X170966518Y-49836965D01*
X172155000Y-49836965D01*
X172155000Y-49962035D01*
X172187370Y-50082843D01*
X172249905Y-50191157D01*
X172338343Y-50279595D01*
X172446657Y-50342130D01*
X172567465Y-50374500D01*
X172692535Y-50374500D01*
X172813343Y-50342130D01*
X172921657Y-50279595D01*
X173010095Y-50191157D01*
X173072630Y-50082843D01*
X173105000Y-49962035D01*
X173105000Y-49836965D01*
X173072630Y-49716157D01*
X173010095Y-49607843D01*
X172921657Y-49519405D01*
X172813343Y-49456870D01*
X172692535Y-49424500D01*
X172567465Y-49424500D01*
X172446657Y-49456870D01*
X172338343Y-49519405D01*
X172249905Y-49607843D01*
X172187370Y-49716157D01*
X172155000Y-49836965D01*
X170966518Y-49836965D01*
X170849334Y-49764686D01*
X170682794Y-49709500D01*
X170580011Y-49699000D01*
X168329989Y-49699000D01*
X168227203Y-49709501D01*
X168190701Y-49721596D01*
X168153297Y-49718871D01*
X168148074Y-49715829D01*
X168023914Y-49632869D01*
X168023911Y-49632867D01*
X168023910Y-49632867D01*
X167841839Y-49557450D01*
X167841837Y-49557449D01*
X167841836Y-49557449D01*
X167841833Y-49557448D01*
X167841824Y-49557446D01*
X167648545Y-49519000D01*
X167648540Y-49519000D01*
X167451460Y-49519000D01*
X167451454Y-49519000D01*
X167258175Y-49557446D01*
X167258160Y-49557450D01*
X167076089Y-49632867D01*
X166912219Y-49742360D01*
X166772860Y-49881719D01*
X166663367Y-50045589D01*
X166587950Y-50227660D01*
X166587946Y-50227675D01*
X166549500Y-50420954D01*
X166549500Y-50618045D01*
X166587946Y-50811324D01*
X166587950Y-50811339D01*
X166639692Y-50936253D01*
X166597056Y-50865725D01*
X166395979Y-50609069D01*
X166165431Y-50378521D01*
X165908775Y-50177444D01*
X165629753Y-50008769D01*
X165332433Y-49874956D01*
X165021152Y-49777957D01*
X164700449Y-49719186D01*
X164375000Y-49699500D01*
X164049551Y-49719186D01*
X163728848Y-49777957D01*
X163417567Y-49874956D01*
X163120247Y-50008769D01*
X162841225Y-50177444D01*
X162661371Y-50318350D01*
X163270906Y-49251665D01*
X171405000Y-49251665D01*
X171405000Y-49399500D01*
X172130000Y-49399500D01*
X173130000Y-49399500D01*
X173855000Y-49399500D01*
X173855000Y-49251665D01*
X173848598Y-49192127D01*
X173848598Y-49192126D01*
X173798351Y-49057408D01*
X173712188Y-48942311D01*
X173597091Y-48856148D01*
X173462373Y-48805901D01*
X173402834Y-48799500D01*
X173130000Y-48799500D01*
X173130000Y-49399500D01*
X172130000Y-49399500D01*
X172130000Y-48799500D01*
X171857166Y-48799500D01*
X171797627Y-48805901D01*
X171797626Y-48805901D01*
X171662908Y-48856148D01*
X171547811Y-48942311D01*
X171461648Y-49057408D01*
X171411401Y-49192126D01*
X171411401Y-49192127D01*
X171405000Y-49251665D01*
X163270906Y-49251665D01*
X163609766Y-48658660D01*
X163798245Y-48328820D01*
X163800188Y-48325699D01*
X163894393Y-48186290D01*
X163965173Y-48081546D01*
X163969728Y-48075789D01*
X164168153Y-47860433D01*
X164173512Y-47855428D01*
X164401934Y-47672196D01*
X164407986Y-47668047D01*
X164661259Y-47521067D01*
X164667870Y-47517868D01*
X164940278Y-47410456D01*
X164947289Y-47408284D01*
X165232711Y-47342851D01*
X165239974Y-47341751D01*
X165533811Y-47319637D01*
X165537488Y-47319500D01*
X172945574Y-47319500D01*
X172949418Y-47319651D01*
G37*
%TD.AperFunction*%
%TD*%
%TA.AperFunction,Conductor*%
%TO.N,Board_6-+BATT*%
G36*
X138665449Y-59879186D02*
G01*
X138986152Y-59937957D01*
X139297433Y-60034956D01*
X139594753Y-60168769D01*
X139873775Y-60337444D01*
X140130431Y-60538521D01*
X140360979Y-60769069D01*
X140562056Y-61025725D01*
X140604691Y-61096253D01*
X140618134Y-61128705D01*
X140628369Y-61153414D01*
X140671717Y-61218290D01*
X140712910Y-61279940D01*
X140714847Y-61283090D01*
X140727180Y-61304957D01*
X140728549Y-61307566D01*
X140773831Y-61400568D01*
X140774459Y-61401908D01*
X140814585Y-61491063D01*
X140815172Y-61492422D01*
X140860557Y-61601992D01*
X140861607Y-61604759D01*
X140900299Y-61716884D01*
X140900760Y-61718290D01*
X140925332Y-61797143D01*
X140925751Y-61798563D01*
X140957593Y-61912786D01*
X140958302Y-61915660D01*
X140983200Y-62031646D01*
X140983488Y-62033098D01*
X140998371Y-62114316D01*
X140998616Y-62115775D01*
X141016461Y-62233025D01*
X141016818Y-62235964D01*
X141027549Y-62354058D01*
X141027661Y-62355533D01*
X141032651Y-62438006D01*
X141032718Y-62439485D01*
X141036299Y-62558020D01*
X141036299Y-62560980D01*
X141032718Y-62679514D01*
X141032651Y-62680993D01*
X141027661Y-62763466D01*
X141027549Y-62764941D01*
X141016818Y-62883035D01*
X141016461Y-62885974D01*
X140998616Y-63003224D01*
X140998371Y-63004683D01*
X140983488Y-63085901D01*
X140983200Y-63087353D01*
X140958302Y-63203339D01*
X140957593Y-63206213D01*
X140925751Y-63320436D01*
X140925332Y-63321856D01*
X140900760Y-63400709D01*
X140900299Y-63402115D01*
X140861607Y-63514240D01*
X140860557Y-63517007D01*
X140815172Y-63626577D01*
X140814585Y-63627936D01*
X140780686Y-63703256D01*
X140780058Y-63704597D01*
X140728146Y-63811214D01*
X140726771Y-63813835D01*
X140668491Y-63917167D01*
X140667745Y-63918444D01*
X140625011Y-63989134D01*
X140624246Y-63990358D01*
X140559849Y-64089957D01*
X140558168Y-64092392D01*
X140507791Y-64160857D01*
X140487884Y-64187911D01*
X140487046Y-64189016D01*
X140456553Y-64227938D01*
X140446866Y-64240302D01*
X140436033Y-64254130D01*
X140435103Y-64255280D01*
X140359192Y-64346367D01*
X140357229Y-64348583D01*
X140275932Y-64434946D01*
X140274901Y-64436008D01*
X140216508Y-64494401D01*
X140215446Y-64495432D01*
X140129083Y-64576729D01*
X140126867Y-64578692D01*
X140035780Y-64654603D01*
X140034630Y-64655533D01*
X140020802Y-64666366D01*
X140008438Y-64676053D01*
X139969516Y-64706546D01*
X139968411Y-64707384D01*
X139941357Y-64727291D01*
X139872892Y-64777668D01*
X139870457Y-64779349D01*
X139809605Y-64818693D01*
X139770816Y-64843772D01*
X139769707Y-64844466D01*
X139722293Y-64873130D01*
X139699677Y-64886801D01*
X139698944Y-64887245D01*
X139697667Y-64887991D01*
X139594335Y-64946271D01*
X139591714Y-64947646D01*
X139485097Y-64999558D01*
X139483756Y-65000186D01*
X139408436Y-65034085D01*
X139407077Y-65034672D01*
X139297507Y-65080057D01*
X139294740Y-65081107D01*
X139182615Y-65119799D01*
X139181209Y-65120260D01*
X139156325Y-65128014D01*
X139125367Y-65137661D01*
X139102322Y-65144841D01*
X139100957Y-65145244D01*
X139062187Y-65156052D01*
X138986713Y-65177093D01*
X138983839Y-65177802D01*
X138919555Y-65191601D01*
X138867819Y-65202706D01*
X138866448Y-65202978D01*
X138825800Y-65210428D01*
X138785183Y-65217871D01*
X138783724Y-65218116D01*
X138666474Y-65235961D01*
X138663535Y-65236318D01*
X138545441Y-65247049D01*
X138543966Y-65247161D01*
X138477402Y-65251188D01*
X138461465Y-65252152D01*
X138460014Y-65252218D01*
X138341480Y-65255799D01*
X138338520Y-65255799D01*
X138219985Y-65252218D01*
X138218533Y-65252152D01*
X138202596Y-65251188D01*
X138136033Y-65247161D01*
X138134558Y-65247049D01*
X138016464Y-65236318D01*
X138013525Y-65235961D01*
X137896275Y-65218116D01*
X137894816Y-65217871D01*
X137854199Y-65210428D01*
X137813550Y-65202978D01*
X137812179Y-65202706D01*
X137749409Y-65189232D01*
X137696160Y-65177802D01*
X137693286Y-65177093D01*
X137632312Y-65160095D01*
X137579041Y-65145244D01*
X137577676Y-65144841D01*
X137554632Y-65137661D01*
X137498788Y-65120259D01*
X137497384Y-65119799D01*
X137385259Y-65081107D01*
X137382492Y-65080057D01*
X137272922Y-65034672D01*
X137271563Y-65034085D01*
X137196243Y-65000186D01*
X137194902Y-64999558D01*
X137088285Y-64947646D01*
X137085664Y-64946271D01*
X136982332Y-64887991D01*
X136981083Y-64887261D01*
X136957706Y-64873130D01*
X136910291Y-64844466D01*
X136909182Y-64843772D01*
X136854640Y-64808508D01*
X136809542Y-64779349D01*
X136807107Y-64777668D01*
X136754282Y-64738799D01*
X136711586Y-64707383D01*
X136710482Y-64706546D01*
X136671561Y-64676053D01*
X136645368Y-64655532D01*
X136644219Y-64654603D01*
X136553132Y-64578692D01*
X136550916Y-64576729D01*
X136464553Y-64495432D01*
X136463491Y-64494401D01*
X136405098Y-64436008D01*
X136404067Y-64434946D01*
X136322770Y-64348583D01*
X136320807Y-64346367D01*
X136244896Y-64255280D01*
X136243966Y-64254130D01*
X136223446Y-64227938D01*
X136192952Y-64189016D01*
X136192115Y-64187912D01*
X136121831Y-64092392D01*
X136120150Y-64089957D01*
X136097624Y-64055118D01*
X136055732Y-63990324D01*
X136055016Y-63989181D01*
X136012225Y-63918395D01*
X136011508Y-63917167D01*
X135953228Y-63813835D01*
X135951860Y-63811228D01*
X135899933Y-63704580D01*
X135899313Y-63703256D01*
X135865414Y-63627936D01*
X135864827Y-63626577D01*
X135819442Y-63517007D01*
X135818392Y-63514240D01*
X135814978Y-63504349D01*
X135779686Y-63402075D01*
X135779253Y-63400751D01*
X135754660Y-63321832D01*
X135754248Y-63320436D01*
X135724827Y-63214899D01*
X135722403Y-63206203D01*
X135721697Y-63203339D01*
X135696791Y-63087315D01*
X135696519Y-63085943D01*
X135681625Y-63004667D01*
X135681383Y-63003224D01*
X135663538Y-62885974D01*
X135663181Y-62883035D01*
X135652450Y-62764941D01*
X135652338Y-62763466D01*
X135647346Y-62680958D01*
X135647282Y-62679550D01*
X135643700Y-62560956D01*
X135643700Y-62558043D01*
X135646628Y-62461083D01*
X137089500Y-62461083D01*
X137089500Y-62657916D01*
X137120290Y-62852323D01*
X137120291Y-62852326D01*
X137181116Y-63039526D01*
X137270472Y-63214899D01*
X137270475Y-63214903D01*
X137270476Y-63214905D01*
X137386172Y-63374146D01*
X137386174Y-63374148D01*
X137386177Y-63374152D01*
X137525347Y-63513322D01*
X137525350Y-63513324D01*
X137525354Y-63513328D01*
X137684595Y-63629024D01*
X137684597Y-63629025D01*
X137684600Y-63629027D01*
X137830284Y-63703256D01*
X137859975Y-63718384D01*
X138047174Y-63779209D01*
X138241583Y-63810000D01*
X138241584Y-63810000D01*
X138438416Y-63810000D01*
X138438417Y-63810000D01*
X138632826Y-63779209D01*
X138820025Y-63718384D01*
X138995405Y-63629024D01*
X139154646Y-63513328D01*
X139293828Y-63374146D01*
X139409524Y-63214905D01*
X139498884Y-63039525D01*
X139559709Y-62852326D01*
X139590500Y-62657917D01*
X139590500Y-62461083D01*
X139559709Y-62266674D01*
X139498884Y-62079475D01*
X139463485Y-62010000D01*
X139409527Y-61904100D01*
X139409525Y-61904097D01*
X139409524Y-61904095D01*
X139293828Y-61744854D01*
X139293824Y-61744850D01*
X139293822Y-61744847D01*
X139154652Y-61605677D01*
X139154653Y-61605677D01*
X139123945Y-61583366D01*
X138995405Y-61489976D01*
X138995403Y-61489975D01*
X138995399Y-61489972D01*
X138820026Y-61400616D01*
X138632826Y-61339791D01*
X138632823Y-61339790D01*
X138483482Y-61316137D01*
X138438417Y-61309000D01*
X138241583Y-61309000D01*
X138204998Y-61314794D01*
X138047176Y-61339790D01*
X138047173Y-61339791D01*
X137859973Y-61400616D01*
X137684600Y-61489972D01*
X137525347Y-61605677D01*
X137386177Y-61744847D01*
X137270472Y-61904100D01*
X137181116Y-62079473D01*
X137120291Y-62266673D01*
X137120290Y-62266676D01*
X137089500Y-62461083D01*
X135646628Y-62461083D01*
X135647282Y-62439446D01*
X135647346Y-62438044D01*
X135652338Y-62355524D01*
X135652450Y-62354058D01*
X135663181Y-62235964D01*
X135663538Y-62233025D01*
X135681383Y-62115775D01*
X135681628Y-62114316D01*
X135688013Y-62079473D01*
X135696521Y-62033043D01*
X135696788Y-62031697D01*
X135721701Y-61915643D01*
X135722401Y-61912804D01*
X135754260Y-61798521D01*
X135754654Y-61797184D01*
X135779259Y-61718227D01*
X135779680Y-61716943D01*
X135818395Y-61604750D01*
X135819442Y-61601992D01*
X135864827Y-61492422D01*
X135865393Y-61491109D01*
X135899332Y-61415701D01*
X135899921Y-61414444D01*
X135951867Y-61307757D01*
X135953213Y-61305190D01*
X136011524Y-61201803D01*
X136012208Y-61200632D01*
X136055034Y-61129789D01*
X136055712Y-61128705D01*
X136120154Y-61029035D01*
X136121831Y-61026607D01*
X136122480Y-61025725D01*
X136192115Y-60931086D01*
X136192952Y-60929983D01*
X136243997Y-60864829D01*
X136244862Y-60863760D01*
X136320820Y-60772617D01*
X136322756Y-60770430D01*
X136404098Y-60684020D01*
X136405064Y-60683025D01*
X136514591Y-60573498D01*
X136515552Y-60572565D01*
X136549483Y-60540623D01*
X136551676Y-60538682D01*
X136587970Y-60508436D01*
X136587971Y-60508434D01*
X136806225Y-60337444D01*
X137085247Y-60168769D01*
X137382567Y-60034956D01*
X137693848Y-59937957D01*
X138014551Y-59879186D01*
X138340000Y-59859500D01*
X138665449Y-59879186D01*
G37*
%TD.AperFunction*%
%TD*%
%TA.AperFunction,Conductor*%
%TO.N,Board_2-+BATT*%
G36*
X146914418Y-37159651D02*
G01*
X146937204Y-37161444D01*
X147157001Y-37178742D01*
X147164584Y-37179943D01*
X147376546Y-37230831D01*
X147399315Y-37236298D01*
X147406627Y-37238674D01*
X147435079Y-37250459D01*
X147629648Y-37331051D01*
X147636494Y-37334539D01*
X147842324Y-37460673D01*
X147848540Y-37465189D01*
X148032099Y-37621963D01*
X148037536Y-37627400D01*
X148194310Y-37810959D01*
X148198829Y-37817179D01*
X148324958Y-38023002D01*
X148328449Y-38029854D01*
X148420825Y-38252872D01*
X148423201Y-38260184D01*
X148479554Y-38494908D01*
X148480757Y-38502502D01*
X148499697Y-38743155D01*
X148499697Y-38750845D01*
X148480757Y-38991497D01*
X148479554Y-38999091D01*
X148423201Y-39233815D01*
X148420825Y-39241127D01*
X148328449Y-39464145D01*
X148324958Y-39470997D01*
X148198829Y-39676820D01*
X148194310Y-39683040D01*
X148037536Y-39866599D01*
X148032099Y-39872036D01*
X147875000Y-40006210D01*
X147875000Y-40006211D01*
X147845609Y-40031314D01*
X147633210Y-40161473D01*
X147444835Y-40239500D01*
X145370000Y-40239500D01*
X145370000Y-40285500D01*
X145355648Y-40320148D01*
X145321000Y-40334500D01*
X145294499Y-40334500D01*
X145259851Y-40320148D01*
X145245499Y-40285500D01*
X145245499Y-40239489D01*
X145234999Y-40136705D01*
X145234999Y-40136703D01*
X145179814Y-39970166D01*
X145087712Y-39820844D01*
X144963656Y-39696788D01*
X144963655Y-39696787D01*
X144931518Y-39676965D01*
X146120000Y-39676965D01*
X146120000Y-39802035D01*
X146152370Y-39922843D01*
X146214905Y-40031157D01*
X146303343Y-40119595D01*
X146411657Y-40182130D01*
X146532465Y-40214500D01*
X146657535Y-40214500D01*
X146778343Y-40182130D01*
X146886657Y-40119595D01*
X146975095Y-40031157D01*
X147037630Y-39922843D01*
X147070000Y-39802035D01*
X147070000Y-39676965D01*
X147037630Y-39556157D01*
X146975095Y-39447843D01*
X146886657Y-39359405D01*
X146778343Y-39296870D01*
X146657535Y-39264500D01*
X146532465Y-39264500D01*
X146411657Y-39296870D01*
X146303343Y-39359405D01*
X146214905Y-39447843D01*
X146152370Y-39556157D01*
X146120000Y-39676965D01*
X144931518Y-39676965D01*
X144814334Y-39604686D01*
X144647794Y-39549500D01*
X144545011Y-39539000D01*
X142294989Y-39539000D01*
X142192203Y-39549501D01*
X142155701Y-39561596D01*
X142118297Y-39558871D01*
X142113074Y-39555829D01*
X141988914Y-39472869D01*
X141988911Y-39472867D01*
X141988910Y-39472867D01*
X141806839Y-39397450D01*
X141806837Y-39397449D01*
X141806836Y-39397449D01*
X141806833Y-39397448D01*
X141806824Y-39397446D01*
X141613545Y-39359000D01*
X141613540Y-39359000D01*
X141416460Y-39359000D01*
X141416454Y-39359000D01*
X141223175Y-39397446D01*
X141223160Y-39397450D01*
X141041089Y-39472867D01*
X140877219Y-39582360D01*
X140737860Y-39721719D01*
X140628367Y-39885589D01*
X140552950Y-40067660D01*
X140552946Y-40067675D01*
X140514500Y-40260954D01*
X140514500Y-40458045D01*
X140552946Y-40651324D01*
X140552950Y-40651339D01*
X140604692Y-40776253D01*
X140562056Y-40705725D01*
X140360979Y-40449069D01*
X140130431Y-40218521D01*
X139873775Y-40017444D01*
X139594753Y-39848769D01*
X139297433Y-39714956D01*
X138986152Y-39617957D01*
X138665449Y-39559186D01*
X138340000Y-39539500D01*
X138014551Y-39559186D01*
X137693848Y-39617957D01*
X137382567Y-39714956D01*
X137085247Y-39848769D01*
X136806225Y-40017444D01*
X136626371Y-40158350D01*
X137235906Y-39091665D01*
X145370000Y-39091665D01*
X145370000Y-39239500D01*
X146095000Y-39239500D01*
X147095000Y-39239500D01*
X147820000Y-39239500D01*
X147820000Y-39091665D01*
X147813598Y-39032127D01*
X147813598Y-39032126D01*
X147763351Y-38897408D01*
X147677188Y-38782311D01*
X147562091Y-38696148D01*
X147427373Y-38645901D01*
X147367834Y-38639500D01*
X147095000Y-38639500D01*
X147095000Y-39239500D01*
X146095000Y-39239500D01*
X146095000Y-38639500D01*
X145822166Y-38639500D01*
X145762627Y-38645901D01*
X145762626Y-38645901D01*
X145627908Y-38696148D01*
X145512811Y-38782311D01*
X145426648Y-38897408D01*
X145376401Y-39032126D01*
X145376401Y-39032127D01*
X145370000Y-39091665D01*
X137235906Y-39091665D01*
X137574766Y-38498660D01*
X137763245Y-38168820D01*
X137765188Y-38165699D01*
X137861615Y-38023002D01*
X137930173Y-37921546D01*
X137934728Y-37915789D01*
X138133153Y-37700433D01*
X138138512Y-37695428D01*
X138366934Y-37512196D01*
X138372986Y-37508047D01*
X138626259Y-37361067D01*
X138632870Y-37357868D01*
X138905278Y-37250456D01*
X138912289Y-37248284D01*
X139197711Y-37182851D01*
X139204974Y-37181751D01*
X139498811Y-37159637D01*
X139502488Y-37159500D01*
X146910574Y-37159500D01*
X146914418Y-37159651D01*
G37*
%TD.AperFunction*%
%TD*%
%TA.AperFunction,Conductor*%
%TO.N,Board_3-+BATT*%
G36*
X164700449Y-39559186D02*
G01*
X165021152Y-39617957D01*
X165332433Y-39714956D01*
X165629753Y-39848769D01*
X165908775Y-40017444D01*
X166165431Y-40218521D01*
X166395979Y-40449069D01*
X166597056Y-40705725D01*
X166639691Y-40776253D01*
X166653134Y-40808705D01*
X166663369Y-40833414D01*
X166706717Y-40898290D01*
X166747910Y-40959940D01*
X166749847Y-40963090D01*
X166762180Y-40984957D01*
X166763549Y-40987566D01*
X166808831Y-41080568D01*
X166809459Y-41081908D01*
X166849585Y-41171063D01*
X166850172Y-41172422D01*
X166895557Y-41281992D01*
X166896607Y-41284759D01*
X166935299Y-41396884D01*
X166935760Y-41398290D01*
X166960332Y-41477143D01*
X166960751Y-41478563D01*
X166992593Y-41592786D01*
X166993302Y-41595660D01*
X167018200Y-41711646D01*
X167018488Y-41713098D01*
X167033371Y-41794316D01*
X167033616Y-41795775D01*
X167051461Y-41913025D01*
X167051818Y-41915964D01*
X167062549Y-42034058D01*
X167062661Y-42035533D01*
X167067651Y-42118006D01*
X167067718Y-42119485D01*
X167071299Y-42238020D01*
X167071299Y-42240980D01*
X167067718Y-42359514D01*
X167067651Y-42360993D01*
X167062661Y-42443466D01*
X167062549Y-42444941D01*
X167051818Y-42563035D01*
X167051461Y-42565974D01*
X167033616Y-42683224D01*
X167033371Y-42684683D01*
X167018488Y-42765901D01*
X167018200Y-42767353D01*
X166993302Y-42883339D01*
X166992593Y-42886213D01*
X166960751Y-43000436D01*
X166960332Y-43001856D01*
X166935760Y-43080709D01*
X166935299Y-43082115D01*
X166896607Y-43194240D01*
X166895557Y-43197007D01*
X166850172Y-43306577D01*
X166849585Y-43307936D01*
X166815686Y-43383256D01*
X166815058Y-43384597D01*
X166763146Y-43491214D01*
X166761771Y-43493835D01*
X166703491Y-43597167D01*
X166702745Y-43598444D01*
X166660011Y-43669134D01*
X166659246Y-43670358D01*
X166594849Y-43769957D01*
X166593168Y-43772392D01*
X166542791Y-43840857D01*
X166522884Y-43867911D01*
X166522046Y-43869016D01*
X166491553Y-43907938D01*
X166481866Y-43920302D01*
X166471033Y-43934130D01*
X166470103Y-43935280D01*
X166394192Y-44026367D01*
X166392229Y-44028583D01*
X166310932Y-44114946D01*
X166309901Y-44116008D01*
X166251508Y-44174401D01*
X166250446Y-44175432D01*
X166164083Y-44256729D01*
X166161867Y-44258692D01*
X166070780Y-44334603D01*
X166069630Y-44335533D01*
X166055802Y-44346366D01*
X166043438Y-44356053D01*
X166004516Y-44386546D01*
X166003411Y-44387384D01*
X165976357Y-44407291D01*
X165907892Y-44457668D01*
X165905457Y-44459349D01*
X165844605Y-44498693D01*
X165805816Y-44523772D01*
X165804707Y-44524466D01*
X165757293Y-44553130D01*
X165734677Y-44566801D01*
X165733944Y-44567245D01*
X165732667Y-44567991D01*
X165629335Y-44626271D01*
X165626714Y-44627646D01*
X165520097Y-44679558D01*
X165518756Y-44680186D01*
X165443436Y-44714085D01*
X165442077Y-44714672D01*
X165332507Y-44760057D01*
X165329740Y-44761107D01*
X165217615Y-44799799D01*
X165216209Y-44800260D01*
X165191325Y-44808014D01*
X165160367Y-44817661D01*
X165137322Y-44824841D01*
X165135957Y-44825244D01*
X165097187Y-44836052D01*
X165021713Y-44857093D01*
X165018839Y-44857802D01*
X164954555Y-44871601D01*
X164902819Y-44882706D01*
X164901448Y-44882978D01*
X164860800Y-44890428D01*
X164820183Y-44897871D01*
X164818724Y-44898116D01*
X164701474Y-44915961D01*
X164698535Y-44916318D01*
X164580441Y-44927049D01*
X164578966Y-44927161D01*
X164512402Y-44931188D01*
X164496465Y-44932152D01*
X164495014Y-44932218D01*
X164376480Y-44935799D01*
X164373520Y-44935799D01*
X164254985Y-44932218D01*
X164253533Y-44932152D01*
X164237596Y-44931188D01*
X164171033Y-44927161D01*
X164169558Y-44927049D01*
X164051464Y-44916318D01*
X164048525Y-44915961D01*
X163931275Y-44898116D01*
X163929816Y-44897871D01*
X163889199Y-44890428D01*
X163848550Y-44882978D01*
X163847179Y-44882706D01*
X163784409Y-44869232D01*
X163731160Y-44857802D01*
X163728286Y-44857093D01*
X163667312Y-44840095D01*
X163614041Y-44825244D01*
X163612676Y-44824841D01*
X163589632Y-44817661D01*
X163533788Y-44800259D01*
X163532384Y-44799799D01*
X163420259Y-44761107D01*
X163417492Y-44760057D01*
X163307922Y-44714672D01*
X163306563Y-44714085D01*
X163231243Y-44680186D01*
X163229902Y-44679558D01*
X163123285Y-44627646D01*
X163120664Y-44626271D01*
X163017332Y-44567991D01*
X163016083Y-44567261D01*
X162992706Y-44553130D01*
X162945291Y-44524466D01*
X162944182Y-44523772D01*
X162889640Y-44488508D01*
X162844542Y-44459349D01*
X162842107Y-44457668D01*
X162789282Y-44418799D01*
X162746586Y-44387383D01*
X162745482Y-44386546D01*
X162706561Y-44356053D01*
X162680368Y-44335532D01*
X162679219Y-44334603D01*
X162588132Y-44258692D01*
X162585916Y-44256729D01*
X162499553Y-44175432D01*
X162498491Y-44174401D01*
X162440098Y-44116008D01*
X162439067Y-44114946D01*
X162357770Y-44028583D01*
X162355807Y-44026367D01*
X162279896Y-43935280D01*
X162278966Y-43934130D01*
X162258446Y-43907938D01*
X162227952Y-43869016D01*
X162227115Y-43867912D01*
X162156831Y-43772392D01*
X162155150Y-43769957D01*
X162132624Y-43735118D01*
X162090732Y-43670324D01*
X162090016Y-43669181D01*
X162047225Y-43598395D01*
X162046508Y-43597167D01*
X161988228Y-43493835D01*
X161986860Y-43491228D01*
X161934933Y-43384580D01*
X161934313Y-43383256D01*
X161900414Y-43307936D01*
X161899827Y-43306577D01*
X161854442Y-43197007D01*
X161853392Y-43194240D01*
X161849978Y-43184349D01*
X161814686Y-43082075D01*
X161814253Y-43080751D01*
X161789660Y-43001832D01*
X161789248Y-43000436D01*
X161759827Y-42894899D01*
X161757403Y-42886203D01*
X161756697Y-42883339D01*
X161731791Y-42767315D01*
X161731519Y-42765943D01*
X161716625Y-42684667D01*
X161716383Y-42683224D01*
X161698538Y-42565974D01*
X161698181Y-42563035D01*
X161687450Y-42444941D01*
X161687338Y-42443466D01*
X161682346Y-42360958D01*
X161682282Y-42359550D01*
X161678700Y-42240956D01*
X161678700Y-42238043D01*
X161681628Y-42141083D01*
X163124500Y-42141083D01*
X163124500Y-42337916D01*
X163155290Y-42532323D01*
X163155291Y-42532326D01*
X163216116Y-42719526D01*
X163305472Y-42894899D01*
X163305475Y-42894903D01*
X163305476Y-42894905D01*
X163421172Y-43054146D01*
X163421174Y-43054148D01*
X163421177Y-43054152D01*
X163560347Y-43193322D01*
X163560350Y-43193324D01*
X163560354Y-43193328D01*
X163719595Y-43309024D01*
X163719597Y-43309025D01*
X163719600Y-43309027D01*
X163865284Y-43383256D01*
X163894975Y-43398384D01*
X164082174Y-43459209D01*
X164276583Y-43490000D01*
X164276584Y-43490000D01*
X164473416Y-43490000D01*
X164473417Y-43490000D01*
X164667826Y-43459209D01*
X164855025Y-43398384D01*
X165030405Y-43309024D01*
X165189646Y-43193328D01*
X165328828Y-43054146D01*
X165444524Y-42894905D01*
X165533884Y-42719525D01*
X165594709Y-42532326D01*
X165625500Y-42337917D01*
X165625500Y-42141083D01*
X165594709Y-41946674D01*
X165533884Y-41759475D01*
X165498485Y-41690000D01*
X165444527Y-41584100D01*
X165444525Y-41584097D01*
X165444524Y-41584095D01*
X165328828Y-41424854D01*
X165328824Y-41424850D01*
X165328822Y-41424847D01*
X165189652Y-41285677D01*
X165189653Y-41285677D01*
X165158945Y-41263366D01*
X165030405Y-41169976D01*
X165030403Y-41169975D01*
X165030399Y-41169972D01*
X164855026Y-41080616D01*
X164667826Y-41019791D01*
X164667823Y-41019790D01*
X164518482Y-40996137D01*
X164473417Y-40989000D01*
X164276583Y-40989000D01*
X164239998Y-40994794D01*
X164082176Y-41019790D01*
X164082173Y-41019791D01*
X163894973Y-41080616D01*
X163719600Y-41169972D01*
X163560347Y-41285677D01*
X163421177Y-41424847D01*
X163305472Y-41584100D01*
X163216116Y-41759473D01*
X163155291Y-41946673D01*
X163155290Y-41946676D01*
X163124500Y-42141083D01*
X161681628Y-42141083D01*
X161682282Y-42119446D01*
X161682346Y-42118044D01*
X161687338Y-42035524D01*
X161687450Y-42034058D01*
X161698181Y-41915964D01*
X161698538Y-41913025D01*
X161716383Y-41795775D01*
X161716628Y-41794316D01*
X161723013Y-41759473D01*
X161731521Y-41713043D01*
X161731788Y-41711697D01*
X161756701Y-41595643D01*
X161757401Y-41592804D01*
X161789260Y-41478521D01*
X161789654Y-41477184D01*
X161814259Y-41398227D01*
X161814680Y-41396943D01*
X161853395Y-41284750D01*
X161854442Y-41281992D01*
X161899827Y-41172422D01*
X161900393Y-41171109D01*
X161934332Y-41095701D01*
X161934921Y-41094444D01*
X161986867Y-40987757D01*
X161988213Y-40985190D01*
X162046524Y-40881803D01*
X162047208Y-40880632D01*
X162090034Y-40809789D01*
X162090712Y-40808705D01*
X162155154Y-40709035D01*
X162156831Y-40706607D01*
X162157480Y-40705725D01*
X162227115Y-40611086D01*
X162227952Y-40609983D01*
X162278997Y-40544829D01*
X162279862Y-40543760D01*
X162355820Y-40452617D01*
X162357756Y-40450430D01*
X162439098Y-40364020D01*
X162440064Y-40363025D01*
X162549591Y-40253498D01*
X162550552Y-40252565D01*
X162584483Y-40220623D01*
X162586676Y-40218682D01*
X162622970Y-40188436D01*
X162622971Y-40188434D01*
X162841225Y-40017444D01*
X163120247Y-39848769D01*
X163417567Y-39714956D01*
X163728848Y-39617957D01*
X164049551Y-39559186D01*
X164375000Y-39539500D01*
X164700449Y-39559186D01*
G37*
%TD.AperFunction*%
%TD*%
%TA.AperFunction,Conductor*%
%TO.N,Board_9-+BATT*%
G36*
X164700449Y-70039186D02*
G01*
X165021152Y-70097957D01*
X165332433Y-70194956D01*
X165629753Y-70328769D01*
X165908775Y-70497444D01*
X166165431Y-70698521D01*
X166395979Y-70929069D01*
X166597056Y-71185725D01*
X166639691Y-71256253D01*
X166653134Y-71288705D01*
X166663369Y-71313414D01*
X166706717Y-71378290D01*
X166747910Y-71439940D01*
X166749847Y-71443090D01*
X166762180Y-71464957D01*
X166763549Y-71467566D01*
X166808831Y-71560568D01*
X166809459Y-71561908D01*
X166849585Y-71651063D01*
X166850172Y-71652422D01*
X166895557Y-71761992D01*
X166896607Y-71764759D01*
X166935299Y-71876884D01*
X166935760Y-71878290D01*
X166960332Y-71957143D01*
X166960751Y-71958563D01*
X166992593Y-72072786D01*
X166993302Y-72075660D01*
X167018200Y-72191646D01*
X167018488Y-72193098D01*
X167033371Y-72274316D01*
X167033616Y-72275775D01*
X167051461Y-72393025D01*
X167051818Y-72395964D01*
X167062549Y-72514058D01*
X167062661Y-72515533D01*
X167067651Y-72598006D01*
X167067718Y-72599485D01*
X167071299Y-72718020D01*
X167071299Y-72720980D01*
X167067718Y-72839514D01*
X167067651Y-72840993D01*
X167062661Y-72923466D01*
X167062549Y-72924941D01*
X167051818Y-73043035D01*
X167051461Y-73045974D01*
X167033616Y-73163224D01*
X167033371Y-73164683D01*
X167018488Y-73245901D01*
X167018200Y-73247353D01*
X166993302Y-73363339D01*
X166992593Y-73366213D01*
X166960751Y-73480436D01*
X166960332Y-73481856D01*
X166935760Y-73560709D01*
X166935299Y-73562115D01*
X166896607Y-73674240D01*
X166895557Y-73677007D01*
X166850172Y-73786577D01*
X166849585Y-73787936D01*
X166815686Y-73863256D01*
X166815058Y-73864597D01*
X166763146Y-73971214D01*
X166761771Y-73973835D01*
X166703491Y-74077167D01*
X166702745Y-74078444D01*
X166660011Y-74149134D01*
X166659246Y-74150358D01*
X166594849Y-74249957D01*
X166593168Y-74252392D01*
X166542791Y-74320857D01*
X166522884Y-74347911D01*
X166522046Y-74349016D01*
X166491553Y-74387938D01*
X166481866Y-74400302D01*
X166471033Y-74414130D01*
X166470103Y-74415280D01*
X166394192Y-74506367D01*
X166392229Y-74508583D01*
X166310932Y-74594946D01*
X166309901Y-74596008D01*
X166251508Y-74654401D01*
X166250446Y-74655432D01*
X166164083Y-74736729D01*
X166161867Y-74738692D01*
X166070780Y-74814603D01*
X166069630Y-74815533D01*
X166055802Y-74826366D01*
X166043438Y-74836053D01*
X166004516Y-74866546D01*
X166003411Y-74867384D01*
X165976357Y-74887291D01*
X165907892Y-74937668D01*
X165905457Y-74939349D01*
X165844605Y-74978693D01*
X165805816Y-75003772D01*
X165804707Y-75004466D01*
X165757293Y-75033130D01*
X165734677Y-75046801D01*
X165733944Y-75047245D01*
X165732667Y-75047991D01*
X165629335Y-75106271D01*
X165626714Y-75107646D01*
X165520097Y-75159558D01*
X165518756Y-75160186D01*
X165443436Y-75194085D01*
X165442077Y-75194672D01*
X165332507Y-75240057D01*
X165329740Y-75241107D01*
X165217615Y-75279799D01*
X165216209Y-75280260D01*
X165191325Y-75288014D01*
X165160367Y-75297661D01*
X165137322Y-75304841D01*
X165135957Y-75305244D01*
X165097187Y-75316052D01*
X165021713Y-75337093D01*
X165018839Y-75337802D01*
X164954555Y-75351601D01*
X164902819Y-75362706D01*
X164901448Y-75362978D01*
X164860800Y-75370428D01*
X164820183Y-75377871D01*
X164818724Y-75378116D01*
X164701474Y-75395961D01*
X164698535Y-75396318D01*
X164580441Y-75407049D01*
X164578966Y-75407161D01*
X164512402Y-75411188D01*
X164496465Y-75412152D01*
X164495014Y-75412218D01*
X164376480Y-75415799D01*
X164373520Y-75415799D01*
X164254985Y-75412218D01*
X164253533Y-75412152D01*
X164237596Y-75411188D01*
X164171033Y-75407161D01*
X164169558Y-75407049D01*
X164051464Y-75396318D01*
X164048525Y-75395961D01*
X163931275Y-75378116D01*
X163929816Y-75377871D01*
X163889199Y-75370428D01*
X163848550Y-75362978D01*
X163847179Y-75362706D01*
X163784409Y-75349232D01*
X163731160Y-75337802D01*
X163728286Y-75337093D01*
X163667312Y-75320095D01*
X163614041Y-75305244D01*
X163612676Y-75304841D01*
X163589632Y-75297661D01*
X163533788Y-75280259D01*
X163532384Y-75279799D01*
X163420259Y-75241107D01*
X163417492Y-75240057D01*
X163307922Y-75194672D01*
X163306563Y-75194085D01*
X163231243Y-75160186D01*
X163229902Y-75159558D01*
X163123285Y-75107646D01*
X163120664Y-75106271D01*
X163017332Y-75047991D01*
X163016083Y-75047261D01*
X162992706Y-75033130D01*
X162945291Y-75004466D01*
X162944182Y-75003772D01*
X162889640Y-74968508D01*
X162844542Y-74939349D01*
X162842107Y-74937668D01*
X162789282Y-74898799D01*
X162746586Y-74867383D01*
X162745482Y-74866546D01*
X162706561Y-74836053D01*
X162680368Y-74815532D01*
X162679219Y-74814603D01*
X162588132Y-74738692D01*
X162585916Y-74736729D01*
X162499553Y-74655432D01*
X162498491Y-74654401D01*
X162440098Y-74596008D01*
X162439067Y-74594946D01*
X162357770Y-74508583D01*
X162355807Y-74506367D01*
X162279896Y-74415280D01*
X162278966Y-74414130D01*
X162258446Y-74387938D01*
X162227952Y-74349016D01*
X162227115Y-74347912D01*
X162156831Y-74252392D01*
X162155150Y-74249957D01*
X162132624Y-74215118D01*
X162090732Y-74150324D01*
X162090016Y-74149181D01*
X162047225Y-74078395D01*
X162046508Y-74077167D01*
X161988228Y-73973835D01*
X161986860Y-73971228D01*
X161934933Y-73864580D01*
X161934313Y-73863256D01*
X161900414Y-73787936D01*
X161899827Y-73786577D01*
X161854442Y-73677007D01*
X161853392Y-73674240D01*
X161849978Y-73664349D01*
X161814686Y-73562075D01*
X161814253Y-73560751D01*
X161789660Y-73481832D01*
X161789248Y-73480436D01*
X161759827Y-73374899D01*
X161757403Y-73366203D01*
X161756697Y-73363339D01*
X161731791Y-73247315D01*
X161731519Y-73245943D01*
X161716625Y-73164667D01*
X161716383Y-73163224D01*
X161698538Y-73045974D01*
X161698181Y-73043035D01*
X161687450Y-72924941D01*
X161687338Y-72923466D01*
X161682346Y-72840958D01*
X161682282Y-72839550D01*
X161678700Y-72720956D01*
X161678700Y-72718043D01*
X161681628Y-72621083D01*
X163124500Y-72621083D01*
X163124500Y-72817916D01*
X163155290Y-73012323D01*
X163155291Y-73012326D01*
X163216116Y-73199526D01*
X163305472Y-73374899D01*
X163305475Y-73374903D01*
X163305476Y-73374905D01*
X163421172Y-73534146D01*
X163421174Y-73534148D01*
X163421177Y-73534152D01*
X163560347Y-73673322D01*
X163560350Y-73673324D01*
X163560354Y-73673328D01*
X163719595Y-73789024D01*
X163719597Y-73789025D01*
X163719600Y-73789027D01*
X163865284Y-73863256D01*
X163894975Y-73878384D01*
X164082174Y-73939209D01*
X164276583Y-73970000D01*
X164276584Y-73970000D01*
X164473416Y-73970000D01*
X164473417Y-73970000D01*
X164667826Y-73939209D01*
X164855025Y-73878384D01*
X165030405Y-73789024D01*
X165189646Y-73673328D01*
X165328828Y-73534146D01*
X165444524Y-73374905D01*
X165533884Y-73199525D01*
X165594709Y-73012326D01*
X165625500Y-72817917D01*
X165625500Y-72621083D01*
X165594709Y-72426674D01*
X165533884Y-72239475D01*
X165498485Y-72170000D01*
X165444527Y-72064100D01*
X165444525Y-72064097D01*
X165444524Y-72064095D01*
X165328828Y-71904854D01*
X165328824Y-71904850D01*
X165328822Y-71904847D01*
X165189652Y-71765677D01*
X165189653Y-71765677D01*
X165158945Y-71743366D01*
X165030405Y-71649976D01*
X165030403Y-71649975D01*
X165030399Y-71649972D01*
X164855026Y-71560616D01*
X164667826Y-71499791D01*
X164667823Y-71499790D01*
X164518482Y-71476137D01*
X164473417Y-71469000D01*
X164276583Y-71469000D01*
X164239998Y-71474794D01*
X164082176Y-71499790D01*
X164082173Y-71499791D01*
X163894973Y-71560616D01*
X163719600Y-71649972D01*
X163560347Y-71765677D01*
X163421177Y-71904847D01*
X163305472Y-72064100D01*
X163216116Y-72239473D01*
X163155291Y-72426673D01*
X163155290Y-72426676D01*
X163124500Y-72621083D01*
X161681628Y-72621083D01*
X161682282Y-72599446D01*
X161682346Y-72598044D01*
X161687338Y-72515524D01*
X161687450Y-72514058D01*
X161698181Y-72395964D01*
X161698538Y-72393025D01*
X161716383Y-72275775D01*
X161716628Y-72274316D01*
X161723013Y-72239473D01*
X161731521Y-72193043D01*
X161731788Y-72191697D01*
X161756701Y-72075643D01*
X161757401Y-72072804D01*
X161789260Y-71958521D01*
X161789654Y-71957184D01*
X161814259Y-71878227D01*
X161814680Y-71876943D01*
X161853395Y-71764750D01*
X161854442Y-71761992D01*
X161899827Y-71652422D01*
X161900393Y-71651109D01*
X161934332Y-71575701D01*
X161934921Y-71574444D01*
X161986867Y-71467757D01*
X161988213Y-71465190D01*
X162046524Y-71361803D01*
X162047208Y-71360632D01*
X162090034Y-71289789D01*
X162090712Y-71288705D01*
X162155154Y-71189035D01*
X162156831Y-71186607D01*
X162157480Y-71185725D01*
X162227115Y-71091086D01*
X162227952Y-71089983D01*
X162278997Y-71024829D01*
X162279862Y-71023760D01*
X162355820Y-70932617D01*
X162357756Y-70930430D01*
X162439098Y-70844020D01*
X162440064Y-70843025D01*
X162549591Y-70733498D01*
X162550552Y-70732565D01*
X162584483Y-70700623D01*
X162586676Y-70698682D01*
X162622970Y-70668436D01*
X162622971Y-70668434D01*
X162841225Y-70497444D01*
X163120247Y-70328769D01*
X163417567Y-70194956D01*
X163728848Y-70097957D01*
X164049551Y-70039186D01*
X164375000Y-70019500D01*
X164700449Y-70039186D01*
G37*
%TD.AperFunction*%
%TD*%
%TA.AperFunction,Conductor*%
%TO.N,Board_7-+BATT*%
G36*
X172949418Y-57479651D02*
G01*
X172972204Y-57481444D01*
X173192001Y-57498742D01*
X173199584Y-57499943D01*
X173411546Y-57550831D01*
X173434315Y-57556298D01*
X173441627Y-57558674D01*
X173470079Y-57570459D01*
X173664648Y-57651051D01*
X173671494Y-57654539D01*
X173877324Y-57780673D01*
X173883537Y-57785187D01*
X174017324Y-57899451D01*
X174034349Y-57932864D01*
X174034500Y-57936709D01*
X174034500Y-60197289D01*
X174020148Y-60231937D01*
X174017323Y-60234549D01*
X173910000Y-60326210D01*
X173910000Y-60326211D01*
X173880609Y-60351314D01*
X173668210Y-60481473D01*
X173479835Y-60559500D01*
X171405000Y-60559500D01*
X171405000Y-60605500D01*
X171390648Y-60640148D01*
X171356000Y-60654500D01*
X171329499Y-60654500D01*
X171294851Y-60640148D01*
X171280499Y-60605500D01*
X171280499Y-60559489D01*
X171269999Y-60456705D01*
X171269999Y-60456703D01*
X171214814Y-60290166D01*
X171122712Y-60140844D01*
X170998656Y-60016788D01*
X170998655Y-60016787D01*
X170966518Y-59996965D01*
X172155000Y-59996965D01*
X172155000Y-60122035D01*
X172187370Y-60242843D01*
X172249905Y-60351157D01*
X172338343Y-60439595D01*
X172446657Y-60502130D01*
X172567465Y-60534500D01*
X172692535Y-60534500D01*
X172813343Y-60502130D01*
X172921657Y-60439595D01*
X173010095Y-60351157D01*
X173072630Y-60242843D01*
X173105000Y-60122035D01*
X173105000Y-59996965D01*
X173072630Y-59876157D01*
X173010095Y-59767843D01*
X172921657Y-59679405D01*
X172813343Y-59616870D01*
X172692535Y-59584500D01*
X172567465Y-59584500D01*
X172446657Y-59616870D01*
X172338343Y-59679405D01*
X172249905Y-59767843D01*
X172187370Y-59876157D01*
X172155000Y-59996965D01*
X170966518Y-59996965D01*
X170849334Y-59924686D01*
X170682794Y-59869500D01*
X170580011Y-59859000D01*
X168329989Y-59859000D01*
X168227203Y-59869501D01*
X168190701Y-59881596D01*
X168153297Y-59878871D01*
X168148074Y-59875829D01*
X168023914Y-59792869D01*
X168023911Y-59792867D01*
X168023910Y-59792867D01*
X167841839Y-59717450D01*
X167841837Y-59717449D01*
X167841836Y-59717449D01*
X167841833Y-59717448D01*
X167841824Y-59717446D01*
X167648545Y-59679000D01*
X167648540Y-59679000D01*
X167451460Y-59679000D01*
X167451454Y-59679000D01*
X167258175Y-59717446D01*
X167258160Y-59717450D01*
X167076089Y-59792867D01*
X166912219Y-59902360D01*
X166772860Y-60041719D01*
X166663367Y-60205589D01*
X166587950Y-60387660D01*
X166587946Y-60387675D01*
X166549500Y-60580954D01*
X166549500Y-60778045D01*
X166587946Y-60971324D01*
X166587950Y-60971339D01*
X166639692Y-61096253D01*
X166597056Y-61025725D01*
X166395979Y-60769069D01*
X166165431Y-60538521D01*
X165908775Y-60337444D01*
X165629753Y-60168769D01*
X165332433Y-60034956D01*
X165021152Y-59937957D01*
X164700449Y-59879186D01*
X164375000Y-59859500D01*
X164049551Y-59879186D01*
X163728848Y-59937957D01*
X163417567Y-60034956D01*
X163120247Y-60168769D01*
X162841225Y-60337444D01*
X162661371Y-60478350D01*
X163270906Y-59411665D01*
X171405000Y-59411665D01*
X171405000Y-59559500D01*
X172130000Y-59559500D01*
X173130000Y-59559500D01*
X173855000Y-59559500D01*
X173855000Y-59411665D01*
X173848598Y-59352127D01*
X173848598Y-59352126D01*
X173798351Y-59217408D01*
X173712188Y-59102311D01*
X173597091Y-59016148D01*
X173462373Y-58965901D01*
X173402834Y-58959500D01*
X173130000Y-58959500D01*
X173130000Y-59559500D01*
X172130000Y-59559500D01*
X172130000Y-58959500D01*
X171857166Y-58959500D01*
X171797627Y-58965901D01*
X171797626Y-58965901D01*
X171662908Y-59016148D01*
X171547811Y-59102311D01*
X171461648Y-59217408D01*
X171411401Y-59352126D01*
X171411401Y-59352127D01*
X171405000Y-59411665D01*
X163270906Y-59411665D01*
X163609766Y-58818660D01*
X163798245Y-58488820D01*
X163800188Y-58485699D01*
X163894393Y-58346290D01*
X163965173Y-58241546D01*
X163969728Y-58235789D01*
X164168153Y-58020433D01*
X164173512Y-58015428D01*
X164401934Y-57832196D01*
X164407986Y-57828047D01*
X164661259Y-57681067D01*
X164667870Y-57677868D01*
X164940278Y-57570456D01*
X164947289Y-57568284D01*
X165232711Y-57502851D01*
X165239974Y-57501751D01*
X165533811Y-57479637D01*
X165537488Y-57479500D01*
X172945574Y-57479500D01*
X172949418Y-57479651D01*
G37*
%TD.AperFunction*%
%TD*%
M02*
