%TF.GenerationSoftware,KiCad,Pcbnew,8.0.8*%
%TF.CreationDate,2025-02-21T18:04:56+11:00*%
%TF.ProjectId,panel,70616e65-6c2e-46b6-9963-61645f706362,rev?*%
%TF.SameCoordinates,Original*%
%TF.FileFunction,Soldermask,Bot*%
%TF.FilePolarity,Negative*%
%FSLAX46Y46*%
G04 Gerber Fmt 4.6, Leading zero omitted, Abs format (unit mm)*
G04 Created by KiCad (PCBNEW 8.0.8) date 2025-02-21 18:04:56*
%MOMM*%
%LPD*%
G01*
G04 APERTURE LIST*
G04 Aperture macros list*
%AMRoundRect*
0 Rectangle with rounded corners*
0 $1 Rounding radius*
0 $2 $3 $4 $5 $6 $7 $8 $9 X,Y pos of 4 corners*
0 Add a 4 corners polygon primitive as box body*
4,1,4,$2,$3,$4,$5,$6,$7,$8,$9,$2,$3,0*
0 Add four circle primitives for the rounded corners*
1,1,$1+$1,$2,$3*
1,1,$1+$1,$4,$5*
1,1,$1+$1,$6,$7*
1,1,$1+$1,$8,$9*
0 Add four rect primitives between the rounded corners*
20,1,$1+$1,$2,$3,$4,$5,0*
20,1,$1+$1,$4,$5,$6,$7,0*
20,1,$1+$1,$6,$7,$8,$9,0*
20,1,$1+$1,$8,$9,$2,$3,0*%
%AMFreePoly0*
4,1,85,-1.240370,1.979643,-0.961535,1.918986,-0.694170,1.819264,-0.443718,1.682507,-0.215279,1.511499,-0.013501,1.309721,0.157507,1.081282,0.294264,0.830830,0.393986,0.563465,0.454643,0.284630,0.475000,0.000000,0.454643,-0.284630,0.393986,-0.563465,0.294264,-0.830830,0.157507,-1.081282,-0.013501,-1.309721,-0.215279,-1.511499,-0.443718,-1.682507,-0.694170,-1.819264,-0.961535,-1.918986,
-1.240370,-1.979643,-1.525000,-2.000000,-1.809630,-1.979643,-2.088465,-1.918986,-2.355830,-1.819264,-2.606282,-1.682507,-2.834721,-1.511499,-3.036499,-1.309721,-3.207507,-1.081282,-3.344264,-0.830830,-3.443986,-0.563465,-3.504643,-0.284630,-3.525000,0.000000,-2.779775,0.000000,-2.760712,-0.217889,-2.704103,-0.429158,-2.611667,-0.627388,-2.486213,-0.806554,-2.331554,-0.961213,-2.152388,-1.086667,
-1.954158,-1.179103,-1.742889,-1.235712,-1.525000,-1.254775,-1.307111,-1.235712,-1.095842,-1.179103,-0.897612,-1.086667,-0.718446,-0.961213,-0.563787,-0.806554,-0.438333,-0.627388,-0.345897,-0.429158,-0.289288,-0.217889,-0.271683,-0.016674,-0.275000,0.000000,-0.271683,0.016674,-0.289288,0.217889,-0.345897,0.429158,-0.438333,0.627387,-0.563787,0.806554,-0.718446,0.961213,-0.897612,1.086667,
-1.095842,1.179103,-1.307111,1.235712,-1.525000,1.254775,-1.742889,1.235712,-1.954158,1.179103,-2.152387,1.086667,-2.331554,0.961213,-2.486213,0.806554,-2.611667,0.627387,-2.704103,0.429158,-2.760712,0.217889,-2.779775,0.000000,-3.525000,0.000000,-3.504643,0.284630,-3.443986,0.563465,-3.344264,0.830830,-3.207507,1.081282,-3.036499,1.309721,-2.834721,1.511499,-2.606282,1.682507,
-2.355830,1.819264,-2.088465,1.918986,-1.809630,1.979643,-1.525000,2.000000,-1.240370,1.979643,-1.240370,1.979643,$1*%
G04 Aperture macros list end*
%ADD10C,3.200000*%
%ADD11O,1.700000X1.700000*%
%ADD12R,1.700000X1.700000*%
%ADD13C,2.000000*%
%ADD14RoundRect,0.250000X-0.725000X0.600000X-0.725000X-0.600000X0.725000X-0.600000X0.725000X0.600000X0*%
%ADD15O,1.950000X1.700000*%
%ADD16C,2.100000*%
%ADD17FreePoly0,180.000000*%
%ADD18C,1.700000*%
G04 APERTURE END LIST*
D10*
%TO.C,H1*%
X100240000Y-32079500D03*
%TD*%
D11*
%TO.C,J9*%
X131350000Y-86054500D03*
X133890000Y-86054500D03*
%TD*%
D10*
%TO.C,H1*%
X152310000Y-32079500D03*
%TD*%
D12*
%TO.C,J8*%
X131350000Y-39064500D03*
X133890000Y-39064500D03*
%TD*%
D11*
%TO.C,J9*%
X157385000Y-45414500D03*
X159925000Y-45414500D03*
%TD*%
D10*
%TO.C,H1*%
X152310000Y-72719500D03*
%TD*%
%TO.C,H1*%
X178345000Y-42239500D03*
%TD*%
D11*
%TO.C,J9*%
X105315000Y-55574500D03*
X107855000Y-55574500D03*
%TD*%
D13*
%TO.C,KiKit_TO_1*%
X98930000Y-22500000D03*
%TD*%
D10*
%TO.C,H1*%
X126275000Y-82879500D03*
%TD*%
D12*
%TO.C,J8*%
X157385000Y-69544500D03*
X159925000Y-69544500D03*
%TD*%
D11*
%TO.C,J9*%
X131350000Y-75894500D03*
X133890000Y-75894500D03*
%TD*%
%TO.C,J9*%
X131350000Y-55574500D03*
X133890000Y-55574500D03*
%TD*%
%TO.C,J9*%
X131350000Y-96214500D03*
X133890000Y-96214500D03*
%TD*%
D12*
%TO.C,J8*%
X105315000Y-39064500D03*
X107855000Y-39064500D03*
%TD*%
%TO.C,J8*%
X183420000Y-100024500D03*
X185960000Y-100024500D03*
%TD*%
D10*
%TO.C,H1*%
X100240000Y-42239500D03*
%TD*%
D12*
%TO.C,J8*%
X183420000Y-39064500D03*
X185960000Y-39064500D03*
%TD*%
%TO.C,J8*%
X183420000Y-69544500D03*
X185960000Y-69544500D03*
%TD*%
%TO.C,J8*%
X183420000Y-59384500D03*
X185960000Y-59384500D03*
%TD*%
D11*
%TO.C,J9*%
X157385000Y-106374500D03*
X159925000Y-106374500D03*
%TD*%
D10*
%TO.C,H1*%
X152310000Y-82879500D03*
%TD*%
D12*
%TO.C,J8*%
X157385000Y-28904500D03*
X159925000Y-28904500D03*
%TD*%
%TO.C,J8*%
X183420000Y-28904500D03*
X185960000Y-28904500D03*
%TD*%
%TO.C,J8*%
X105315000Y-28904500D03*
X107855000Y-28904500D03*
%TD*%
%TO.C,J8*%
X157385000Y-89864500D03*
X159925000Y-89864500D03*
%TD*%
%TO.C,J8*%
X105315000Y-79704500D03*
X107855000Y-79704500D03*
%TD*%
D10*
%TO.C,H1*%
X152310000Y-93039500D03*
%TD*%
D11*
%TO.C,J9*%
X157385000Y-65734500D03*
X159925000Y-65734500D03*
%TD*%
D10*
%TO.C,H1*%
X178345000Y-82879500D03*
%TD*%
D11*
%TO.C,J9*%
X183420000Y-75894500D03*
X185960000Y-75894500D03*
%TD*%
%TO.C,J9*%
X183420000Y-86054500D03*
X185960000Y-86054500D03*
%TD*%
D10*
%TO.C,H1*%
X152310000Y-62559500D03*
%TD*%
%TO.C,H1*%
X100240000Y-72719500D03*
%TD*%
D11*
%TO.C,J9*%
X183420000Y-45414500D03*
X185960000Y-45414500D03*
%TD*%
%TO.C,J9*%
X157385000Y-55574500D03*
X159925000Y-55574500D03*
%TD*%
D12*
%TO.C,J8*%
X131350000Y-28904500D03*
X133890000Y-28904500D03*
%TD*%
D11*
%TO.C,J9*%
X157385000Y-96214500D03*
X159925000Y-96214500D03*
%TD*%
D10*
%TO.C,H1*%
X100240000Y-62559500D03*
%TD*%
D11*
%TO.C,J9*%
X131350000Y-65734500D03*
X133890000Y-65734500D03*
%TD*%
D10*
%TO.C,H1*%
X100240000Y-103199500D03*
%TD*%
D11*
%TO.C,J9*%
X183420000Y-55574500D03*
X185960000Y-55574500D03*
%TD*%
D10*
%TO.C,H1*%
X152310000Y-52399500D03*
%TD*%
D13*
%TO.C,KiKit_TO_3*%
X98930000Y-112779500D03*
%TD*%
D11*
%TO.C,J9*%
X183420000Y-65734500D03*
X185960000Y-65734500D03*
%TD*%
D12*
%TO.C,J8*%
X131350000Y-79704500D03*
X133890000Y-79704500D03*
%TD*%
%TO.C,J8*%
X157385000Y-59384500D03*
X159925000Y-59384500D03*
%TD*%
D10*
%TO.C,H1*%
X178345000Y-103199500D03*
%TD*%
%TO.C,H1*%
X126275000Y-32079500D03*
%TD*%
D12*
%TO.C,J8*%
X131350000Y-100024500D03*
X133890000Y-100024500D03*
%TD*%
D10*
%TO.C,H1*%
X126275000Y-103199500D03*
%TD*%
D12*
%TO.C,J8*%
X131350000Y-89864500D03*
X133890000Y-89864500D03*
%TD*%
D11*
%TO.C,J9*%
X183420000Y-106374500D03*
X185960000Y-106374500D03*
%TD*%
%TO.C,J9*%
X157385000Y-35254500D03*
X159925000Y-35254500D03*
%TD*%
%TO.C,J9*%
X131350000Y-45414500D03*
X133890000Y-45414500D03*
%TD*%
%TO.C,J9*%
X157385000Y-86054500D03*
X159925000Y-86054500D03*
%TD*%
%TO.C,J9*%
X157385000Y-75894500D03*
X159925000Y-75894500D03*
%TD*%
D12*
%TO.C,J8*%
X131350000Y-69544500D03*
X133890000Y-69544500D03*
%TD*%
D11*
%TO.C,J9*%
X105315000Y-96214500D03*
X107855000Y-96214500D03*
%TD*%
D12*
%TO.C,J8*%
X131350000Y-49224500D03*
X133890000Y-49224500D03*
%TD*%
D10*
%TO.C,H1*%
X126275000Y-93039500D03*
%TD*%
D11*
%TO.C,J9*%
X105315000Y-65734500D03*
X107855000Y-65734500D03*
%TD*%
D12*
%TO.C,J8*%
X183420000Y-89864500D03*
X185960000Y-89864500D03*
%TD*%
D10*
%TO.C,H1*%
X178345000Y-72719500D03*
%TD*%
D12*
%TO.C,J8*%
X183420000Y-79704500D03*
X185960000Y-79704500D03*
%TD*%
%TO.C,J8*%
X105315000Y-89864500D03*
X107855000Y-89864500D03*
%TD*%
%TO.C,J8*%
X105315000Y-59384500D03*
X107855000Y-59384500D03*
%TD*%
D11*
%TO.C,J9*%
X131350000Y-106374500D03*
X133890000Y-106374500D03*
%TD*%
D12*
%TO.C,J8*%
X131350000Y-59384500D03*
X133890000Y-59384500D03*
%TD*%
D10*
%TO.C,H1*%
X178345000Y-52399500D03*
%TD*%
D11*
%TO.C,J9*%
X131350000Y-35254500D03*
X133890000Y-35254500D03*
%TD*%
%TO.C,J9*%
X105315000Y-106374500D03*
X107855000Y-106374500D03*
%TD*%
D10*
%TO.C,H1*%
X100240000Y-52399500D03*
%TD*%
D12*
%TO.C,J8*%
X105315000Y-100024500D03*
X107855000Y-100024500D03*
%TD*%
%TO.C,J8*%
X157385000Y-39064500D03*
X159925000Y-39064500D03*
%TD*%
%TO.C,J8*%
X183420000Y-49224500D03*
X185960000Y-49224500D03*
%TD*%
D10*
%TO.C,H1*%
X126275000Y-52399500D03*
%TD*%
D11*
%TO.C,J9*%
X105315000Y-45414500D03*
X107855000Y-45414500D03*
%TD*%
%TO.C,J9*%
X105315000Y-35254500D03*
X107855000Y-35254500D03*
%TD*%
D12*
%TO.C,J8*%
X157385000Y-100024500D03*
X159925000Y-100024500D03*
%TD*%
%TO.C,J8*%
X105315000Y-69544500D03*
X107855000Y-69544500D03*
%TD*%
D10*
%TO.C,H1*%
X178345000Y-93039500D03*
%TD*%
%TO.C,H1*%
X100240000Y-82879500D03*
%TD*%
%TO.C,H1*%
X126275000Y-72719500D03*
%TD*%
D13*
%TO.C,KiKit_TO_4*%
X198070000Y-112779500D03*
%TD*%
D12*
%TO.C,J8*%
X157385000Y-49224500D03*
X159925000Y-49224500D03*
%TD*%
D10*
%TO.C,H1*%
X100240000Y-93039500D03*
%TD*%
%TO.C,H1*%
X126275000Y-42239500D03*
%TD*%
%TO.C,H1*%
X152310000Y-42239500D03*
%TD*%
%TO.C,H1*%
X178345000Y-32079500D03*
%TD*%
D11*
%TO.C,J9*%
X183420000Y-35254500D03*
X185960000Y-35254500D03*
%TD*%
D10*
%TO.C,H1*%
X178345000Y-62559500D03*
%TD*%
D12*
%TO.C,J8*%
X157385000Y-79704500D03*
X159925000Y-79704500D03*
%TD*%
D11*
%TO.C,J9*%
X105315000Y-75894500D03*
X107855000Y-75894500D03*
%TD*%
D10*
%TO.C,H1*%
X126275000Y-62559500D03*
%TD*%
D13*
%TO.C,KiKit_TO_2*%
X198070000Y-22500000D03*
%TD*%
D11*
%TO.C,J9*%
X183420000Y-96214500D03*
X185960000Y-96214500D03*
%TD*%
D10*
%TO.C,H1*%
X152310000Y-103199500D03*
%TD*%
D12*
%TO.C,J8*%
X105315000Y-49224500D03*
X107855000Y-49224500D03*
%TD*%
D11*
%TO.C,J9*%
X105315000Y-86054500D03*
X107855000Y-86054500D03*
%TD*%
D14*
%TO.C,J3*%
X172630000Y-39739500D03*
D15*
X172630000Y-42239500D03*
X172630000Y-44739500D03*
%TD*%
D14*
%TO.C,J3*%
X172630000Y-80379500D03*
D15*
X172630000Y-82879500D03*
X172630000Y-85379500D03*
%TD*%
D14*
%TO.C,J3*%
X146595000Y-80379500D03*
D15*
X146595000Y-82879500D03*
X146595000Y-85379500D03*
%TD*%
D16*
%TO.C,H4*%
X190410000Y-103199500D03*
D17*
X188885000Y-103199500D03*
%TD*%
D16*
%TO.C,H4*%
X112305000Y-82879500D03*
D17*
X110780000Y-82879500D03*
%TD*%
D14*
%TO.C,J3*%
X120560000Y-70219500D03*
D15*
X120560000Y-72719500D03*
X120560000Y-75219500D03*
%TD*%
D16*
%TO.C,H4*%
X112305000Y-93039500D03*
D17*
X110780000Y-93039500D03*
%TD*%
D14*
%TO.C,J3*%
X198665000Y-60059500D03*
D15*
X198665000Y-62559500D03*
X198665000Y-65059500D03*
%TD*%
D14*
%TO.C,J3*%
X198665000Y-49899500D03*
D15*
X198665000Y-52399500D03*
X198665000Y-54899500D03*
%TD*%
D16*
%TO.C,H4*%
X190410000Y-52399500D03*
D17*
X188885000Y-52399500D03*
%TD*%
D16*
%TO.C,H4*%
X112305000Y-32079500D03*
D17*
X110780000Y-32079500D03*
%TD*%
D16*
%TO.C,H4*%
X112305000Y-42239500D03*
D17*
X110780000Y-42239500D03*
%TD*%
D16*
%TO.C,H4*%
X164375000Y-42239500D03*
D17*
X162850000Y-42239500D03*
%TD*%
D16*
%TO.C,H4*%
X164375000Y-52399500D03*
D17*
X162850000Y-52399500D03*
%TD*%
D16*
%TO.C,H4*%
X164375000Y-82879500D03*
D17*
X162850000Y-82879500D03*
%TD*%
D14*
%TO.C,J3*%
X146595000Y-100699500D03*
D15*
X146595000Y-103199500D03*
X146595000Y-105699500D03*
%TD*%
D16*
%TO.C,H4*%
X190410000Y-82879500D03*
D17*
X188885000Y-82879500D03*
%TD*%
D16*
%TO.C,H4*%
X138340000Y-93039500D03*
D17*
X136815000Y-93039500D03*
%TD*%
D16*
%TO.C,H4*%
X138340000Y-42239500D03*
D17*
X136815000Y-42239500D03*
%TD*%
D14*
%TO.C,J3*%
X146595000Y-90539500D03*
D15*
X146595000Y-93039500D03*
X146595000Y-95539500D03*
%TD*%
D14*
%TO.C,J3*%
X120560000Y-90539500D03*
D15*
X120560000Y-93039500D03*
X120560000Y-95539500D03*
%TD*%
D14*
%TO.C,J3*%
X146595000Y-49899500D03*
D15*
X146595000Y-52399500D03*
X146595000Y-54899500D03*
%TD*%
D14*
%TO.C,J3*%
X172630000Y-90539500D03*
D15*
X172630000Y-93039500D03*
X172630000Y-95539500D03*
%TD*%
D16*
%TO.C,H4*%
X190410000Y-62559500D03*
D17*
X188885000Y-62559500D03*
%TD*%
D16*
%TO.C,H4*%
X112305000Y-62559500D03*
D17*
X110780000Y-62559500D03*
%TD*%
D16*
%TO.C,H4*%
X112305000Y-103199500D03*
D17*
X110780000Y-103199500D03*
%TD*%
D14*
%TO.C,J3*%
X172630000Y-60059500D03*
D15*
X172630000Y-62559500D03*
X172630000Y-65059500D03*
%TD*%
D16*
%TO.C,H4*%
X138340000Y-32079500D03*
D17*
X136815000Y-32079500D03*
%TD*%
D14*
%TO.C,J3*%
X172630000Y-100699500D03*
D15*
X172630000Y-103199500D03*
X172630000Y-105699500D03*
%TD*%
D14*
%TO.C,J3*%
X198665000Y-70219500D03*
D15*
X198665000Y-72719500D03*
X198665000Y-75219500D03*
%TD*%
D16*
%TO.C,H4*%
X164375000Y-62559500D03*
D17*
X162850000Y-62559500D03*
%TD*%
D14*
%TO.C,J3*%
X146595000Y-70219500D03*
D15*
X146595000Y-72719500D03*
X146595000Y-75219500D03*
%TD*%
D14*
%TO.C,J3*%
X146595000Y-29579500D03*
D15*
X146595000Y-32079500D03*
X146595000Y-34579500D03*
%TD*%
D18*
%TO.C,KiKit_FID_B_1*%
X101430000Y-22500000D03*
%TD*%
D14*
%TO.C,J3*%
X172630000Y-29579500D03*
D15*
X172630000Y-32079500D03*
X172630000Y-34579500D03*
%TD*%
D16*
%TO.C,H4*%
X138340000Y-82879500D03*
D17*
X136815000Y-82879500D03*
%TD*%
D14*
%TO.C,J3*%
X198665000Y-90539500D03*
D15*
X198665000Y-93039500D03*
X198665000Y-95539500D03*
%TD*%
D16*
%TO.C,H4*%
X138340000Y-72719500D03*
D17*
X136815000Y-72719500D03*
%TD*%
D14*
%TO.C,J3*%
X198665000Y-39739500D03*
D15*
X198665000Y-42239500D03*
X198665000Y-44739500D03*
%TD*%
D14*
%TO.C,J3*%
X120560000Y-80379500D03*
D15*
X120560000Y-82879500D03*
X120560000Y-85379500D03*
%TD*%
D16*
%TO.C,H4*%
X190410000Y-72719500D03*
D17*
X188885000Y-72719500D03*
%TD*%
D16*
%TO.C,H4*%
X164375000Y-103199500D03*
D17*
X162850000Y-103199500D03*
%TD*%
D16*
%TO.C,H4*%
X190410000Y-32079500D03*
D17*
X188885000Y-32079500D03*
%TD*%
D14*
%TO.C,J3*%
X120560000Y-49899500D03*
D15*
X120560000Y-52399500D03*
X120560000Y-54899500D03*
%TD*%
D14*
%TO.C,J3*%
X120560000Y-29579500D03*
D15*
X120560000Y-32079500D03*
X120560000Y-34579500D03*
%TD*%
D14*
%TO.C,J3*%
X120560000Y-100699500D03*
D15*
X120560000Y-103199500D03*
X120560000Y-105699500D03*
%TD*%
D14*
%TO.C,J3*%
X172630000Y-49899500D03*
D15*
X172630000Y-52399500D03*
X172630000Y-54899500D03*
%TD*%
D14*
%TO.C,J3*%
X198665000Y-29579500D03*
D15*
X198665000Y-32079500D03*
X198665000Y-34579500D03*
%TD*%
D14*
%TO.C,J3*%
X198665000Y-80379500D03*
D15*
X198665000Y-82879500D03*
X198665000Y-85379500D03*
%TD*%
D16*
%TO.C,H4*%
X164375000Y-72719500D03*
D17*
X162850000Y-72719500D03*
%TD*%
D14*
%TO.C,J3*%
X120560000Y-60059500D03*
D15*
X120560000Y-62559500D03*
X120560000Y-65059500D03*
%TD*%
D18*
%TO.C,KiKit_FID_B_2*%
X195570000Y-22500000D03*
%TD*%
D16*
%TO.C,H4*%
X112305000Y-72719500D03*
D17*
X110780000Y-72719500D03*
%TD*%
D16*
%TO.C,H4*%
X138340000Y-62559500D03*
D17*
X136815000Y-62559500D03*
%TD*%
D18*
%TO.C,KiKit_FID_B_3*%
X101430000Y-112779500D03*
%TD*%
D14*
%TO.C,J3*%
X198665000Y-100699500D03*
D15*
X198665000Y-103199500D03*
X198665000Y-105699500D03*
%TD*%
D16*
%TO.C,H4*%
X190410000Y-93039500D03*
D17*
X188885000Y-93039500D03*
%TD*%
D14*
%TO.C,J3*%
X146595000Y-60059500D03*
D15*
X146595000Y-62559500D03*
X146595000Y-65059500D03*
%TD*%
D16*
%TO.C,H4*%
X112305000Y-52399500D03*
D17*
X110780000Y-52399500D03*
%TD*%
D16*
%TO.C,H4*%
X190410000Y-42239500D03*
D17*
X188885000Y-42239500D03*
%TD*%
D16*
%TO.C,H4*%
X138340000Y-103199500D03*
D17*
X136815000Y-103199500D03*
%TD*%
D14*
%TO.C,J3*%
X146595000Y-39739500D03*
D15*
X146595000Y-42239500D03*
X146595000Y-44739500D03*
%TD*%
D16*
%TO.C,H4*%
X164375000Y-32079500D03*
D17*
X162850000Y-32079500D03*
%TD*%
D18*
%TO.C,KiKit_FID_B_4*%
X195570000Y-112779500D03*
%TD*%
D16*
%TO.C,H4*%
X164375000Y-93039500D03*
D17*
X162850000Y-93039500D03*
%TD*%
D16*
%TO.C,H4*%
X138340000Y-52399500D03*
D17*
X136815000Y-52399500D03*
%TD*%
D14*
%TO.C,J3*%
X120560000Y-39739500D03*
D15*
X120560000Y-42239500D03*
X120560000Y-44739500D03*
%TD*%
D14*
%TO.C,J3*%
X172630000Y-70219500D03*
D15*
X172630000Y-72719500D03*
X172630000Y-75219500D03*
%TD*%
M02*
