%TF.GenerationSoftware,KiCad,Pcbnew,8.0.8*%
%TF.CreationDate,2025-02-21T18:04:56+11:00*%
%TF.ProjectId,panel,70616e65-6c2e-46b6-9963-61645f706362,rev?*%
%TF.SameCoordinates,Original*%
%TF.FileFunction,Other,Comment*%
%FSLAX46Y46*%
G04 Gerber Fmt 4.6, Leading zero omitted, Abs format (unit mm)*
G04 Created by KiCad (PCBNEW 8.0.8) date 2025-02-21 18:04:56*
%MOMM*%
%LPD*%
G01*
G04 APERTURE LIST*
%ADD10C,0.300000*%
%ADD11C,0.150000*%
G04 APERTURE END LIST*
D10*
X93430000Y-67639500D02*
X203570000Y-67639500D01*
X93430000Y-87959500D02*
X203570000Y-87959500D01*
X174537500Y-17000000D02*
X174537500Y-118279500D01*
X93430000Y-37159500D02*
X203570000Y-37159500D01*
X93430000Y-47319500D02*
X203570000Y-47319500D01*
X93430000Y-57479500D02*
X203570000Y-57479500D01*
X93430000Y-26999500D02*
X203570000Y-26999500D01*
X122467500Y-17000000D02*
X122467500Y-118279500D01*
X93430000Y-98119500D02*
X203570000Y-98119500D01*
X148497500Y-17000000D02*
X148497500Y-118279500D01*
X93430000Y-108279500D02*
X203570000Y-108279500D01*
X93430000Y-77799500D02*
X203570000Y-77799500D01*
X206957844Y-86869138D02*
X207624510Y-88869138D01*
X207624510Y-88869138D02*
X208291177Y-86869138D01*
X208957844Y-88107233D02*
X210481654Y-88107233D01*
X212576891Y-88678661D02*
X212481653Y-88773900D01*
X212481653Y-88773900D02*
X212195939Y-88869138D01*
X212195939Y-88869138D02*
X212005463Y-88869138D01*
X212005463Y-88869138D02*
X211719748Y-88773900D01*
X211719748Y-88773900D02*
X211529272Y-88583423D01*
X211529272Y-88583423D02*
X211434034Y-88392947D01*
X211434034Y-88392947D02*
X211338796Y-88011995D01*
X211338796Y-88011995D02*
X211338796Y-87726280D01*
X211338796Y-87726280D02*
X211434034Y-87345328D01*
X211434034Y-87345328D02*
X211529272Y-87154852D01*
X211529272Y-87154852D02*
X211719748Y-86964376D01*
X211719748Y-86964376D02*
X212005463Y-86869138D01*
X212005463Y-86869138D02*
X212195939Y-86869138D01*
X212195939Y-86869138D02*
X212481653Y-86964376D01*
X212481653Y-86964376D02*
X212576891Y-87059614D01*
X213434034Y-86869138D02*
X213434034Y-88488185D01*
X213434034Y-88488185D02*
X213529272Y-88678661D01*
X213529272Y-88678661D02*
X213624510Y-88773900D01*
X213624510Y-88773900D02*
X213814986Y-88869138D01*
X213814986Y-88869138D02*
X214195939Y-88869138D01*
X214195939Y-88869138D02*
X214386415Y-88773900D01*
X214386415Y-88773900D02*
X214481653Y-88678661D01*
X214481653Y-88678661D02*
X214576891Y-88488185D01*
X214576891Y-88488185D02*
X214576891Y-86869138D01*
X215243558Y-86869138D02*
X216386415Y-86869138D01*
X215814986Y-88869138D02*
X215814986Y-86869138D01*
X206957844Y-25909138D02*
X207624510Y-27909138D01*
X207624510Y-27909138D02*
X208291177Y-25909138D01*
X208957844Y-27147233D02*
X210481654Y-27147233D01*
X212576891Y-27718661D02*
X212481653Y-27813900D01*
X212481653Y-27813900D02*
X212195939Y-27909138D01*
X212195939Y-27909138D02*
X212005463Y-27909138D01*
X212005463Y-27909138D02*
X211719748Y-27813900D01*
X211719748Y-27813900D02*
X211529272Y-27623423D01*
X211529272Y-27623423D02*
X211434034Y-27432947D01*
X211434034Y-27432947D02*
X211338796Y-27051995D01*
X211338796Y-27051995D02*
X211338796Y-26766280D01*
X211338796Y-26766280D02*
X211434034Y-26385328D01*
X211434034Y-26385328D02*
X211529272Y-26194852D01*
X211529272Y-26194852D02*
X211719748Y-26004376D01*
X211719748Y-26004376D02*
X212005463Y-25909138D01*
X212005463Y-25909138D02*
X212195939Y-25909138D01*
X212195939Y-25909138D02*
X212481653Y-26004376D01*
X212481653Y-26004376D02*
X212576891Y-26099614D01*
X213434034Y-25909138D02*
X213434034Y-27528185D01*
X213434034Y-27528185D02*
X213529272Y-27718661D01*
X213529272Y-27718661D02*
X213624510Y-27813900D01*
X213624510Y-27813900D02*
X213814986Y-27909138D01*
X213814986Y-27909138D02*
X214195939Y-27909138D01*
X214195939Y-27909138D02*
X214386415Y-27813900D01*
X214386415Y-27813900D02*
X214481653Y-27718661D01*
X214481653Y-27718661D02*
X214576891Y-27528185D01*
X214576891Y-27528185D02*
X214576891Y-25909138D01*
X215243558Y-25909138D02*
X216386415Y-25909138D01*
X215814986Y-27909138D02*
X215814986Y-25909138D01*
X206957844Y-46229138D02*
X207624510Y-48229138D01*
X207624510Y-48229138D02*
X208291177Y-46229138D01*
X208957844Y-47467233D02*
X210481654Y-47467233D01*
X212576891Y-48038661D02*
X212481653Y-48133900D01*
X212481653Y-48133900D02*
X212195939Y-48229138D01*
X212195939Y-48229138D02*
X212005463Y-48229138D01*
X212005463Y-48229138D02*
X211719748Y-48133900D01*
X211719748Y-48133900D02*
X211529272Y-47943423D01*
X211529272Y-47943423D02*
X211434034Y-47752947D01*
X211434034Y-47752947D02*
X211338796Y-47371995D01*
X211338796Y-47371995D02*
X211338796Y-47086280D01*
X211338796Y-47086280D02*
X211434034Y-46705328D01*
X211434034Y-46705328D02*
X211529272Y-46514852D01*
X211529272Y-46514852D02*
X211719748Y-46324376D01*
X211719748Y-46324376D02*
X212005463Y-46229138D01*
X212005463Y-46229138D02*
X212195939Y-46229138D01*
X212195939Y-46229138D02*
X212481653Y-46324376D01*
X212481653Y-46324376D02*
X212576891Y-46419614D01*
X213434034Y-46229138D02*
X213434034Y-47848185D01*
X213434034Y-47848185D02*
X213529272Y-48038661D01*
X213529272Y-48038661D02*
X213624510Y-48133900D01*
X213624510Y-48133900D02*
X213814986Y-48229138D01*
X213814986Y-48229138D02*
X214195939Y-48229138D01*
X214195939Y-48229138D02*
X214386415Y-48133900D01*
X214386415Y-48133900D02*
X214481653Y-48038661D01*
X214481653Y-48038661D02*
X214576891Y-47848185D01*
X214576891Y-47848185D02*
X214576891Y-46229138D01*
X215243558Y-46229138D02*
X216386415Y-46229138D01*
X215814986Y-48229138D02*
X215814986Y-46229138D01*
X147407138Y-13612155D02*
X149407138Y-12945489D01*
X149407138Y-12945489D02*
X147407138Y-12278822D01*
X148645233Y-11612155D02*
X148645233Y-10088346D01*
X149216661Y-7993108D02*
X149311900Y-8088346D01*
X149311900Y-8088346D02*
X149407138Y-8374060D01*
X149407138Y-8374060D02*
X149407138Y-8564536D01*
X149407138Y-8564536D02*
X149311900Y-8850251D01*
X149311900Y-8850251D02*
X149121423Y-9040727D01*
X149121423Y-9040727D02*
X148930947Y-9135965D01*
X148930947Y-9135965D02*
X148549995Y-9231203D01*
X148549995Y-9231203D02*
X148264280Y-9231203D01*
X148264280Y-9231203D02*
X147883328Y-9135965D01*
X147883328Y-9135965D02*
X147692852Y-9040727D01*
X147692852Y-9040727D02*
X147502376Y-8850251D01*
X147502376Y-8850251D02*
X147407138Y-8564536D01*
X147407138Y-8564536D02*
X147407138Y-8374060D01*
X147407138Y-8374060D02*
X147502376Y-8088346D01*
X147502376Y-8088346D02*
X147597614Y-7993108D01*
X147407138Y-7135965D02*
X149026185Y-7135965D01*
X149026185Y-7135965D02*
X149216661Y-7040727D01*
X149216661Y-7040727D02*
X149311900Y-6945489D01*
X149311900Y-6945489D02*
X149407138Y-6755013D01*
X149407138Y-6755013D02*
X149407138Y-6374060D01*
X149407138Y-6374060D02*
X149311900Y-6183584D01*
X149311900Y-6183584D02*
X149216661Y-6088346D01*
X149216661Y-6088346D02*
X149026185Y-5993108D01*
X149026185Y-5993108D02*
X147407138Y-5993108D01*
X147407138Y-5326441D02*
X147407138Y-4183584D01*
X149407138Y-4755013D02*
X147407138Y-4755013D01*
X206957844Y-66549138D02*
X207624510Y-68549138D01*
X207624510Y-68549138D02*
X208291177Y-66549138D01*
X208957844Y-67787233D02*
X210481654Y-67787233D01*
X212576891Y-68358661D02*
X212481653Y-68453900D01*
X212481653Y-68453900D02*
X212195939Y-68549138D01*
X212195939Y-68549138D02*
X212005463Y-68549138D01*
X212005463Y-68549138D02*
X211719748Y-68453900D01*
X211719748Y-68453900D02*
X211529272Y-68263423D01*
X211529272Y-68263423D02*
X211434034Y-68072947D01*
X211434034Y-68072947D02*
X211338796Y-67691995D01*
X211338796Y-67691995D02*
X211338796Y-67406280D01*
X211338796Y-67406280D02*
X211434034Y-67025328D01*
X211434034Y-67025328D02*
X211529272Y-66834852D01*
X211529272Y-66834852D02*
X211719748Y-66644376D01*
X211719748Y-66644376D02*
X212005463Y-66549138D01*
X212005463Y-66549138D02*
X212195939Y-66549138D01*
X212195939Y-66549138D02*
X212481653Y-66644376D01*
X212481653Y-66644376D02*
X212576891Y-66739614D01*
X213434034Y-66549138D02*
X213434034Y-68168185D01*
X213434034Y-68168185D02*
X213529272Y-68358661D01*
X213529272Y-68358661D02*
X213624510Y-68453900D01*
X213624510Y-68453900D02*
X213814986Y-68549138D01*
X213814986Y-68549138D02*
X214195939Y-68549138D01*
X214195939Y-68549138D02*
X214386415Y-68453900D01*
X214386415Y-68453900D02*
X214481653Y-68358661D01*
X214481653Y-68358661D02*
X214576891Y-68168185D01*
X214576891Y-68168185D02*
X214576891Y-66549138D01*
X215243558Y-66549138D02*
X216386415Y-66549138D01*
X215814986Y-68549138D02*
X215814986Y-66549138D01*
X121377138Y-13612155D02*
X123377138Y-12945489D01*
X123377138Y-12945489D02*
X121377138Y-12278822D01*
X122615233Y-11612155D02*
X122615233Y-10088346D01*
X123186661Y-7993108D02*
X123281900Y-8088346D01*
X123281900Y-8088346D02*
X123377138Y-8374060D01*
X123377138Y-8374060D02*
X123377138Y-8564536D01*
X123377138Y-8564536D02*
X123281900Y-8850251D01*
X123281900Y-8850251D02*
X123091423Y-9040727D01*
X123091423Y-9040727D02*
X122900947Y-9135965D01*
X122900947Y-9135965D02*
X122519995Y-9231203D01*
X122519995Y-9231203D02*
X122234280Y-9231203D01*
X122234280Y-9231203D02*
X121853328Y-9135965D01*
X121853328Y-9135965D02*
X121662852Y-9040727D01*
X121662852Y-9040727D02*
X121472376Y-8850251D01*
X121472376Y-8850251D02*
X121377138Y-8564536D01*
X121377138Y-8564536D02*
X121377138Y-8374060D01*
X121377138Y-8374060D02*
X121472376Y-8088346D01*
X121472376Y-8088346D02*
X121567614Y-7993108D01*
X121377138Y-7135965D02*
X122996185Y-7135965D01*
X122996185Y-7135965D02*
X123186661Y-7040727D01*
X123186661Y-7040727D02*
X123281900Y-6945489D01*
X123281900Y-6945489D02*
X123377138Y-6755013D01*
X123377138Y-6755013D02*
X123377138Y-6374060D01*
X123377138Y-6374060D02*
X123281900Y-6183584D01*
X123281900Y-6183584D02*
X123186661Y-6088346D01*
X123186661Y-6088346D02*
X122996185Y-5993108D01*
X122996185Y-5993108D02*
X121377138Y-5993108D01*
X121377138Y-5326441D02*
X121377138Y-4183584D01*
X123377138Y-4755013D02*
X121377138Y-4755013D01*
X206957844Y-76709138D02*
X207624510Y-78709138D01*
X207624510Y-78709138D02*
X208291177Y-76709138D01*
X208957844Y-77947233D02*
X210481654Y-77947233D01*
X212576891Y-78518661D02*
X212481653Y-78613900D01*
X212481653Y-78613900D02*
X212195939Y-78709138D01*
X212195939Y-78709138D02*
X212005463Y-78709138D01*
X212005463Y-78709138D02*
X211719748Y-78613900D01*
X211719748Y-78613900D02*
X211529272Y-78423423D01*
X211529272Y-78423423D02*
X211434034Y-78232947D01*
X211434034Y-78232947D02*
X211338796Y-77851995D01*
X211338796Y-77851995D02*
X211338796Y-77566280D01*
X211338796Y-77566280D02*
X211434034Y-77185328D01*
X211434034Y-77185328D02*
X211529272Y-76994852D01*
X211529272Y-76994852D02*
X211719748Y-76804376D01*
X211719748Y-76804376D02*
X212005463Y-76709138D01*
X212005463Y-76709138D02*
X212195939Y-76709138D01*
X212195939Y-76709138D02*
X212481653Y-76804376D01*
X212481653Y-76804376D02*
X212576891Y-76899614D01*
X213434034Y-76709138D02*
X213434034Y-78328185D01*
X213434034Y-78328185D02*
X213529272Y-78518661D01*
X213529272Y-78518661D02*
X213624510Y-78613900D01*
X213624510Y-78613900D02*
X213814986Y-78709138D01*
X213814986Y-78709138D02*
X214195939Y-78709138D01*
X214195939Y-78709138D02*
X214386415Y-78613900D01*
X214386415Y-78613900D02*
X214481653Y-78518661D01*
X214481653Y-78518661D02*
X214576891Y-78328185D01*
X214576891Y-78328185D02*
X214576891Y-76709138D01*
X215243558Y-76709138D02*
X216386415Y-76709138D01*
X215814986Y-78709138D02*
X215814986Y-76709138D01*
X206957844Y-56389138D02*
X207624510Y-58389138D01*
X207624510Y-58389138D02*
X208291177Y-56389138D01*
X208957844Y-57627233D02*
X210481654Y-57627233D01*
X212576891Y-58198661D02*
X212481653Y-58293900D01*
X212481653Y-58293900D02*
X212195939Y-58389138D01*
X212195939Y-58389138D02*
X212005463Y-58389138D01*
X212005463Y-58389138D02*
X211719748Y-58293900D01*
X211719748Y-58293900D02*
X211529272Y-58103423D01*
X211529272Y-58103423D02*
X211434034Y-57912947D01*
X211434034Y-57912947D02*
X211338796Y-57531995D01*
X211338796Y-57531995D02*
X211338796Y-57246280D01*
X211338796Y-57246280D02*
X211434034Y-56865328D01*
X211434034Y-56865328D02*
X211529272Y-56674852D01*
X211529272Y-56674852D02*
X211719748Y-56484376D01*
X211719748Y-56484376D02*
X212005463Y-56389138D01*
X212005463Y-56389138D02*
X212195939Y-56389138D01*
X212195939Y-56389138D02*
X212481653Y-56484376D01*
X212481653Y-56484376D02*
X212576891Y-56579614D01*
X213434034Y-56389138D02*
X213434034Y-58008185D01*
X213434034Y-58008185D02*
X213529272Y-58198661D01*
X213529272Y-58198661D02*
X213624510Y-58293900D01*
X213624510Y-58293900D02*
X213814986Y-58389138D01*
X213814986Y-58389138D02*
X214195939Y-58389138D01*
X214195939Y-58389138D02*
X214386415Y-58293900D01*
X214386415Y-58293900D02*
X214481653Y-58198661D01*
X214481653Y-58198661D02*
X214576891Y-58008185D01*
X214576891Y-58008185D02*
X214576891Y-56389138D01*
X215243558Y-56389138D02*
X216386415Y-56389138D01*
X215814986Y-58389138D02*
X215814986Y-56389138D01*
X206957844Y-107189138D02*
X207624510Y-109189138D01*
X207624510Y-109189138D02*
X208291177Y-107189138D01*
X208957844Y-108427233D02*
X210481654Y-108427233D01*
X212576891Y-108998661D02*
X212481653Y-109093900D01*
X212481653Y-109093900D02*
X212195939Y-109189138D01*
X212195939Y-109189138D02*
X212005463Y-109189138D01*
X212005463Y-109189138D02*
X211719748Y-109093900D01*
X211719748Y-109093900D02*
X211529272Y-108903423D01*
X211529272Y-108903423D02*
X211434034Y-108712947D01*
X211434034Y-108712947D02*
X211338796Y-108331995D01*
X211338796Y-108331995D02*
X211338796Y-108046280D01*
X211338796Y-108046280D02*
X211434034Y-107665328D01*
X211434034Y-107665328D02*
X211529272Y-107474852D01*
X211529272Y-107474852D02*
X211719748Y-107284376D01*
X211719748Y-107284376D02*
X212005463Y-107189138D01*
X212005463Y-107189138D02*
X212195939Y-107189138D01*
X212195939Y-107189138D02*
X212481653Y-107284376D01*
X212481653Y-107284376D02*
X212576891Y-107379614D01*
X213434034Y-107189138D02*
X213434034Y-108808185D01*
X213434034Y-108808185D02*
X213529272Y-108998661D01*
X213529272Y-108998661D02*
X213624510Y-109093900D01*
X213624510Y-109093900D02*
X213814986Y-109189138D01*
X213814986Y-109189138D02*
X214195939Y-109189138D01*
X214195939Y-109189138D02*
X214386415Y-109093900D01*
X214386415Y-109093900D02*
X214481653Y-108998661D01*
X214481653Y-108998661D02*
X214576891Y-108808185D01*
X214576891Y-108808185D02*
X214576891Y-107189138D01*
X215243558Y-107189138D02*
X216386415Y-107189138D01*
X215814986Y-109189138D02*
X215814986Y-107189138D01*
X206957844Y-36069138D02*
X207624510Y-38069138D01*
X207624510Y-38069138D02*
X208291177Y-36069138D01*
X208957844Y-37307233D02*
X210481654Y-37307233D01*
X212576891Y-37878661D02*
X212481653Y-37973900D01*
X212481653Y-37973900D02*
X212195939Y-38069138D01*
X212195939Y-38069138D02*
X212005463Y-38069138D01*
X212005463Y-38069138D02*
X211719748Y-37973900D01*
X211719748Y-37973900D02*
X211529272Y-37783423D01*
X211529272Y-37783423D02*
X211434034Y-37592947D01*
X211434034Y-37592947D02*
X211338796Y-37211995D01*
X211338796Y-37211995D02*
X211338796Y-36926280D01*
X211338796Y-36926280D02*
X211434034Y-36545328D01*
X211434034Y-36545328D02*
X211529272Y-36354852D01*
X211529272Y-36354852D02*
X211719748Y-36164376D01*
X211719748Y-36164376D02*
X212005463Y-36069138D01*
X212005463Y-36069138D02*
X212195939Y-36069138D01*
X212195939Y-36069138D02*
X212481653Y-36164376D01*
X212481653Y-36164376D02*
X212576891Y-36259614D01*
X213434034Y-36069138D02*
X213434034Y-37688185D01*
X213434034Y-37688185D02*
X213529272Y-37878661D01*
X213529272Y-37878661D02*
X213624510Y-37973900D01*
X213624510Y-37973900D02*
X213814986Y-38069138D01*
X213814986Y-38069138D02*
X214195939Y-38069138D01*
X214195939Y-38069138D02*
X214386415Y-37973900D01*
X214386415Y-37973900D02*
X214481653Y-37878661D01*
X214481653Y-37878661D02*
X214576891Y-37688185D01*
X214576891Y-37688185D02*
X214576891Y-36069138D01*
X215243558Y-36069138D02*
X216386415Y-36069138D01*
X215814986Y-38069138D02*
X215814986Y-36069138D01*
X173447138Y-13612155D02*
X175447138Y-12945489D01*
X175447138Y-12945489D02*
X173447138Y-12278822D01*
X174685233Y-11612155D02*
X174685233Y-10088346D01*
X175256661Y-7993108D02*
X175351900Y-8088346D01*
X175351900Y-8088346D02*
X175447138Y-8374060D01*
X175447138Y-8374060D02*
X175447138Y-8564536D01*
X175447138Y-8564536D02*
X175351900Y-8850251D01*
X175351900Y-8850251D02*
X175161423Y-9040727D01*
X175161423Y-9040727D02*
X174970947Y-9135965D01*
X174970947Y-9135965D02*
X174589995Y-9231203D01*
X174589995Y-9231203D02*
X174304280Y-9231203D01*
X174304280Y-9231203D02*
X173923328Y-9135965D01*
X173923328Y-9135965D02*
X173732852Y-9040727D01*
X173732852Y-9040727D02*
X173542376Y-8850251D01*
X173542376Y-8850251D02*
X173447138Y-8564536D01*
X173447138Y-8564536D02*
X173447138Y-8374060D01*
X173447138Y-8374060D02*
X173542376Y-8088346D01*
X173542376Y-8088346D02*
X173637614Y-7993108D01*
X173447138Y-7135965D02*
X175066185Y-7135965D01*
X175066185Y-7135965D02*
X175256661Y-7040727D01*
X175256661Y-7040727D02*
X175351900Y-6945489D01*
X175351900Y-6945489D02*
X175447138Y-6755013D01*
X175447138Y-6755013D02*
X175447138Y-6374060D01*
X175447138Y-6374060D02*
X175351900Y-6183584D01*
X175351900Y-6183584D02*
X175256661Y-6088346D01*
X175256661Y-6088346D02*
X175066185Y-5993108D01*
X175066185Y-5993108D02*
X173447138Y-5993108D01*
X173447138Y-5326441D02*
X173447138Y-4183584D01*
X175447138Y-4755013D02*
X173447138Y-4755013D01*
X206957844Y-97029138D02*
X207624510Y-99029138D01*
X207624510Y-99029138D02*
X208291177Y-97029138D01*
X208957844Y-98267233D02*
X210481654Y-98267233D01*
X212576891Y-98838661D02*
X212481653Y-98933900D01*
X212481653Y-98933900D02*
X212195939Y-99029138D01*
X212195939Y-99029138D02*
X212005463Y-99029138D01*
X212005463Y-99029138D02*
X211719748Y-98933900D01*
X211719748Y-98933900D02*
X211529272Y-98743423D01*
X211529272Y-98743423D02*
X211434034Y-98552947D01*
X211434034Y-98552947D02*
X211338796Y-98171995D01*
X211338796Y-98171995D02*
X211338796Y-97886280D01*
X211338796Y-97886280D02*
X211434034Y-97505328D01*
X211434034Y-97505328D02*
X211529272Y-97314852D01*
X211529272Y-97314852D02*
X211719748Y-97124376D01*
X211719748Y-97124376D02*
X212005463Y-97029138D01*
X212005463Y-97029138D02*
X212195939Y-97029138D01*
X212195939Y-97029138D02*
X212481653Y-97124376D01*
X212481653Y-97124376D02*
X212576891Y-97219614D01*
X213434034Y-97029138D02*
X213434034Y-98648185D01*
X213434034Y-98648185D02*
X213529272Y-98838661D01*
X213529272Y-98838661D02*
X213624510Y-98933900D01*
X213624510Y-98933900D02*
X213814986Y-99029138D01*
X213814986Y-99029138D02*
X214195939Y-99029138D01*
X214195939Y-99029138D02*
X214386415Y-98933900D01*
X214386415Y-98933900D02*
X214481653Y-98838661D01*
X214481653Y-98838661D02*
X214576891Y-98648185D01*
X214576891Y-98648185D02*
X214576891Y-97029138D01*
X215243558Y-97029138D02*
X216386415Y-97029138D01*
X215814986Y-99029138D02*
X215814986Y-97029138D01*
D11*
%TO.C,H1*%
X103040000Y-32079500D02*
G75*
G02*
X97440000Y-32079500I-2800000J0D01*
G01*
X97440000Y-32079500D02*
G75*
G02*
X103040000Y-32079500I2800000J0D01*
G01*
X155110000Y-32079500D02*
G75*
G02*
X149510000Y-32079500I-2800000J0D01*
G01*
X149510000Y-32079500D02*
G75*
G02*
X155110000Y-32079500I2800000J0D01*
G01*
X155110000Y-72719500D02*
G75*
G02*
X149510000Y-72719500I-2800000J0D01*
G01*
X149510000Y-72719500D02*
G75*
G02*
X155110000Y-72719500I2800000J0D01*
G01*
X181145000Y-42239500D02*
G75*
G02*
X175545000Y-42239500I-2800000J0D01*
G01*
X175545000Y-42239500D02*
G75*
G02*
X181145000Y-42239500I2800000J0D01*
G01*
X129075000Y-82879500D02*
G75*
G02*
X123475000Y-82879500I-2800000J0D01*
G01*
X123475000Y-82879500D02*
G75*
G02*
X129075000Y-82879500I2800000J0D01*
G01*
X103040000Y-42239500D02*
G75*
G02*
X97440000Y-42239500I-2800000J0D01*
G01*
X97440000Y-42239500D02*
G75*
G02*
X103040000Y-42239500I2800000J0D01*
G01*
X155110000Y-82879500D02*
G75*
G02*
X149510000Y-82879500I-2800000J0D01*
G01*
X149510000Y-82879500D02*
G75*
G02*
X155110000Y-82879500I2800000J0D01*
G01*
X155110000Y-93039500D02*
G75*
G02*
X149510000Y-93039500I-2800000J0D01*
G01*
X149510000Y-93039500D02*
G75*
G02*
X155110000Y-93039500I2800000J0D01*
G01*
X181145000Y-82879500D02*
G75*
G02*
X175545000Y-82879500I-2800000J0D01*
G01*
X175545000Y-82879500D02*
G75*
G02*
X181145000Y-82879500I2800000J0D01*
G01*
X155110000Y-62559500D02*
G75*
G02*
X149510000Y-62559500I-2800000J0D01*
G01*
X149510000Y-62559500D02*
G75*
G02*
X155110000Y-62559500I2800000J0D01*
G01*
X103040000Y-72719500D02*
G75*
G02*
X97440000Y-72719500I-2800000J0D01*
G01*
X97440000Y-72719500D02*
G75*
G02*
X103040000Y-72719500I2800000J0D01*
G01*
X103040000Y-62559500D02*
G75*
G02*
X97440000Y-62559500I-2800000J0D01*
G01*
X97440000Y-62559500D02*
G75*
G02*
X103040000Y-62559500I2800000J0D01*
G01*
X103040000Y-103199500D02*
G75*
G02*
X97440000Y-103199500I-2800000J0D01*
G01*
X97440000Y-103199500D02*
G75*
G02*
X103040000Y-103199500I2800000J0D01*
G01*
X155110000Y-52399500D02*
G75*
G02*
X149510000Y-52399500I-2800000J0D01*
G01*
X149510000Y-52399500D02*
G75*
G02*
X155110000Y-52399500I2800000J0D01*
G01*
X181145000Y-103199500D02*
G75*
G02*
X175545000Y-103199500I-2800000J0D01*
G01*
X175545000Y-103199500D02*
G75*
G02*
X181145000Y-103199500I2800000J0D01*
G01*
X129075000Y-32079500D02*
G75*
G02*
X123475000Y-32079500I-2800000J0D01*
G01*
X123475000Y-32079500D02*
G75*
G02*
X129075000Y-32079500I2800000J0D01*
G01*
X129075000Y-103199500D02*
G75*
G02*
X123475000Y-103199500I-2800000J0D01*
G01*
X123475000Y-103199500D02*
G75*
G02*
X129075000Y-103199500I2800000J0D01*
G01*
X129075000Y-93039500D02*
G75*
G02*
X123475000Y-93039500I-2800000J0D01*
G01*
X123475000Y-93039500D02*
G75*
G02*
X129075000Y-93039500I2800000J0D01*
G01*
X181145000Y-72719500D02*
G75*
G02*
X175545000Y-72719500I-2800000J0D01*
G01*
X175545000Y-72719500D02*
G75*
G02*
X181145000Y-72719500I2800000J0D01*
G01*
X181145000Y-52399500D02*
G75*
G02*
X175545000Y-52399500I-2800000J0D01*
G01*
X175545000Y-52399500D02*
G75*
G02*
X181145000Y-52399500I2800000J0D01*
G01*
X103040000Y-52399500D02*
G75*
G02*
X97440000Y-52399500I-2800000J0D01*
G01*
X97440000Y-52399500D02*
G75*
G02*
X103040000Y-52399500I2800000J0D01*
G01*
X129075000Y-52399500D02*
G75*
G02*
X123475000Y-52399500I-2800000J0D01*
G01*
X123475000Y-52399500D02*
G75*
G02*
X129075000Y-52399500I2800000J0D01*
G01*
X181145000Y-93039500D02*
G75*
G02*
X175545000Y-93039500I-2800000J0D01*
G01*
X175545000Y-93039500D02*
G75*
G02*
X181145000Y-93039500I2800000J0D01*
G01*
X103040000Y-82879500D02*
G75*
G02*
X97440000Y-82879500I-2800000J0D01*
G01*
X97440000Y-82879500D02*
G75*
G02*
X103040000Y-82879500I2800000J0D01*
G01*
X129075000Y-72719500D02*
G75*
G02*
X123475000Y-72719500I-2800000J0D01*
G01*
X123475000Y-72719500D02*
G75*
G02*
X129075000Y-72719500I2800000J0D01*
G01*
X103040000Y-93039500D02*
G75*
G02*
X97440000Y-93039500I-2800000J0D01*
G01*
X97440000Y-93039500D02*
G75*
G02*
X103040000Y-93039500I2800000J0D01*
G01*
X129075000Y-42239500D02*
G75*
G02*
X123475000Y-42239500I-2800000J0D01*
G01*
X123475000Y-42239500D02*
G75*
G02*
X129075000Y-42239500I2800000J0D01*
G01*
X155110000Y-42239500D02*
G75*
G02*
X149510000Y-42239500I-2800000J0D01*
G01*
X149510000Y-42239500D02*
G75*
G02*
X155110000Y-42239500I2800000J0D01*
G01*
X181145000Y-32079500D02*
G75*
G02*
X175545000Y-32079500I-2800000J0D01*
G01*
X175545000Y-32079500D02*
G75*
G02*
X181145000Y-32079500I2800000J0D01*
G01*
X181145000Y-62559500D02*
G75*
G02*
X175545000Y-62559500I-2800000J0D01*
G01*
X175545000Y-62559500D02*
G75*
G02*
X181145000Y-62559500I2800000J0D01*
G01*
X129075000Y-62559500D02*
G75*
G02*
X123475000Y-62559500I-2800000J0D01*
G01*
X123475000Y-62559500D02*
G75*
G02*
X129075000Y-62559500I2800000J0D01*
G01*
X155110000Y-103199500D02*
G75*
G02*
X149510000Y-103199500I-2800000J0D01*
G01*
X149510000Y-103199500D02*
G75*
G02*
X155110000Y-103199500I2800000J0D01*
G01*
%TD*%
M02*
