%TF.GenerationSoftware,KiCad,Pcbnew,8.0.8*%
%TF.CreationDate,2025-02-21T18:04:56+11:00*%
%TF.ProjectId,panel,70616e65-6c2e-46b6-9963-61645f706362,rev?*%
%TF.SameCoordinates,Original*%
%TF.FileFunction,Legend,Bot*%
%TF.FilePolarity,Positive*%
%FSLAX46Y46*%
G04 Gerber Fmt 4.6, Leading zero omitted, Abs format (unit mm)*
G04 Created by KiCad (PCBNEW 8.0.8) date 2025-02-21 18:04:56*
%MOMM*%
%LPD*%
G01*
G04 APERTURE LIST*
%ADD10C,0.160000*%
%ADD11C,0.120000*%
%ADD12C,0.150000*%
G04 APERTURE END LIST*
D10*
X148245951Y-58822846D02*
X147484047Y-58822846D01*
X147864999Y-59203799D02*
X147864999Y-58441894D01*
X145076879Y-66207132D02*
X144838784Y-66873799D01*
X144838784Y-66873799D02*
X144600689Y-66207132D01*
X143695927Y-66873799D02*
X144267355Y-66873799D01*
X143981641Y-66873799D02*
X143981641Y-65873799D01*
X143981641Y-65873799D02*
X144076879Y-66016656D01*
X144076879Y-66016656D02*
X144172117Y-66111894D01*
X144172117Y-66111894D02*
X144267355Y-66159513D01*
X143267355Y-66778560D02*
X143219736Y-66826180D01*
X143219736Y-66826180D02*
X143267355Y-66873799D01*
X143267355Y-66873799D02*
X143314974Y-66826180D01*
X143314974Y-66826180D02*
X143267355Y-66778560D01*
X143267355Y-66778560D02*
X143267355Y-66873799D01*
X142600689Y-65873799D02*
X142505451Y-65873799D01*
X142505451Y-65873799D02*
X142410213Y-65921418D01*
X142410213Y-65921418D02*
X142362594Y-65969037D01*
X142362594Y-65969037D02*
X142314975Y-66064275D01*
X142314975Y-66064275D02*
X142267356Y-66254751D01*
X142267356Y-66254751D02*
X142267356Y-66492846D01*
X142267356Y-66492846D02*
X142314975Y-66683322D01*
X142314975Y-66683322D02*
X142362594Y-66778560D01*
X142362594Y-66778560D02*
X142410213Y-66826180D01*
X142410213Y-66826180D02*
X142505451Y-66873799D01*
X142505451Y-66873799D02*
X142600689Y-66873799D01*
X142600689Y-66873799D02*
X142695927Y-66826180D01*
X142695927Y-66826180D02*
X142743546Y-66778560D01*
X142743546Y-66778560D02*
X142791165Y-66683322D01*
X142791165Y-66683322D02*
X142838784Y-66492846D01*
X142838784Y-66492846D02*
X142838784Y-66254751D01*
X142838784Y-66254751D02*
X142791165Y-66064275D01*
X142791165Y-66064275D02*
X142743546Y-65969037D01*
X142743546Y-65969037D02*
X142695927Y-65921418D01*
X142695927Y-65921418D02*
X142600689Y-65873799D01*
X174280951Y-107082846D02*
X173519047Y-107082846D01*
X171111879Y-106847132D02*
X170873784Y-107513799D01*
X170873784Y-107513799D02*
X170635689Y-106847132D01*
X169730927Y-107513799D02*
X170302355Y-107513799D01*
X170016641Y-107513799D02*
X170016641Y-106513799D01*
X170016641Y-106513799D02*
X170111879Y-106656656D01*
X170111879Y-106656656D02*
X170207117Y-106751894D01*
X170207117Y-106751894D02*
X170302355Y-106799513D01*
X169302355Y-107418560D02*
X169254736Y-107466180D01*
X169254736Y-107466180D02*
X169302355Y-107513799D01*
X169302355Y-107513799D02*
X169349974Y-107466180D01*
X169349974Y-107466180D02*
X169302355Y-107418560D01*
X169302355Y-107418560D02*
X169302355Y-107513799D01*
X168635689Y-106513799D02*
X168540451Y-106513799D01*
X168540451Y-106513799D02*
X168445213Y-106561418D01*
X168445213Y-106561418D02*
X168397594Y-106609037D01*
X168397594Y-106609037D02*
X168349975Y-106704275D01*
X168349975Y-106704275D02*
X168302356Y-106894751D01*
X168302356Y-106894751D02*
X168302356Y-107132846D01*
X168302356Y-107132846D02*
X168349975Y-107323322D01*
X168349975Y-107323322D02*
X168397594Y-107418560D01*
X168397594Y-107418560D02*
X168445213Y-107466180D01*
X168445213Y-107466180D02*
X168540451Y-107513799D01*
X168540451Y-107513799D02*
X168635689Y-107513799D01*
X168635689Y-107513799D02*
X168730927Y-107466180D01*
X168730927Y-107466180D02*
X168778546Y-107418560D01*
X168778546Y-107418560D02*
X168826165Y-107323322D01*
X168826165Y-107323322D02*
X168873784Y-107132846D01*
X168873784Y-107132846D02*
X168873784Y-106894751D01*
X168873784Y-106894751D02*
X168826165Y-106704275D01*
X168826165Y-106704275D02*
X168778546Y-106609037D01*
X168778546Y-106609037D02*
X168730927Y-106561418D01*
X168730927Y-106561418D02*
X168635689Y-106513799D01*
X200315951Y-68982846D02*
X199554047Y-68982846D01*
X199934999Y-69363799D02*
X199934999Y-68601894D01*
X122210951Y-79142846D02*
X121449047Y-79142846D01*
X121829999Y-79523799D02*
X121829999Y-78761894D01*
X174280951Y-35962846D02*
X173519047Y-35962846D01*
X171111879Y-76367132D02*
X170873784Y-77033799D01*
X170873784Y-77033799D02*
X170635689Y-76367132D01*
X169730927Y-77033799D02*
X170302355Y-77033799D01*
X170016641Y-77033799D02*
X170016641Y-76033799D01*
X170016641Y-76033799D02*
X170111879Y-76176656D01*
X170111879Y-76176656D02*
X170207117Y-76271894D01*
X170207117Y-76271894D02*
X170302355Y-76319513D01*
X169302355Y-76938560D02*
X169254736Y-76986180D01*
X169254736Y-76986180D02*
X169302355Y-77033799D01*
X169302355Y-77033799D02*
X169349974Y-76986180D01*
X169349974Y-76986180D02*
X169302355Y-76938560D01*
X169302355Y-76938560D02*
X169302355Y-77033799D01*
X168635689Y-76033799D02*
X168540451Y-76033799D01*
X168540451Y-76033799D02*
X168445213Y-76081418D01*
X168445213Y-76081418D02*
X168397594Y-76129037D01*
X168397594Y-76129037D02*
X168349975Y-76224275D01*
X168349975Y-76224275D02*
X168302356Y-76414751D01*
X168302356Y-76414751D02*
X168302356Y-76652846D01*
X168302356Y-76652846D02*
X168349975Y-76843322D01*
X168349975Y-76843322D02*
X168397594Y-76938560D01*
X168397594Y-76938560D02*
X168445213Y-76986180D01*
X168445213Y-76986180D02*
X168540451Y-77033799D01*
X168540451Y-77033799D02*
X168635689Y-77033799D01*
X168635689Y-77033799D02*
X168730927Y-76986180D01*
X168730927Y-76986180D02*
X168778546Y-76938560D01*
X168778546Y-76938560D02*
X168826165Y-76843322D01*
X168826165Y-76843322D02*
X168873784Y-76652846D01*
X168873784Y-76652846D02*
X168873784Y-76414751D01*
X168873784Y-76414751D02*
X168826165Y-76224275D01*
X168826165Y-76224275D02*
X168778546Y-76129037D01*
X168778546Y-76129037D02*
X168730927Y-76081418D01*
X168730927Y-76081418D02*
X168635689Y-76033799D01*
X122210951Y-89302846D02*
X121449047Y-89302846D01*
X121829999Y-89683799D02*
X121829999Y-88921894D01*
X145029260Y-99608084D02*
X144553070Y-99608084D01*
X145124498Y-99893799D02*
X144791165Y-98893799D01*
X144791165Y-98893799D02*
X144457832Y-99893799D01*
X144124498Y-99893799D02*
X144124498Y-98893799D01*
X144124498Y-98893799D02*
X143553070Y-99893799D01*
X143553070Y-99893799D02*
X143553070Y-98893799D01*
X143219736Y-98893799D02*
X142648308Y-98893799D01*
X142934022Y-99893799D02*
X142934022Y-98893799D01*
X142362593Y-99846180D02*
X142219736Y-99893799D01*
X142219736Y-99893799D02*
X141981641Y-99893799D01*
X141981641Y-99893799D02*
X141886403Y-99846180D01*
X141886403Y-99846180D02*
X141838784Y-99798560D01*
X141838784Y-99798560D02*
X141791165Y-99703322D01*
X141791165Y-99703322D02*
X141791165Y-99608084D01*
X141791165Y-99608084D02*
X141838784Y-99512846D01*
X141838784Y-99512846D02*
X141886403Y-99465227D01*
X141886403Y-99465227D02*
X141981641Y-99417608D01*
X141981641Y-99417608D02*
X142172117Y-99369989D01*
X142172117Y-99369989D02*
X142267355Y-99322370D01*
X142267355Y-99322370D02*
X142314974Y-99274751D01*
X142314974Y-99274751D02*
X142362593Y-99179513D01*
X142362593Y-99179513D02*
X142362593Y-99084275D01*
X142362593Y-99084275D02*
X142314974Y-98989037D01*
X142314974Y-98989037D02*
X142267355Y-98941418D01*
X142267355Y-98941418D02*
X142172117Y-98893799D01*
X142172117Y-98893799D02*
X141934022Y-98893799D01*
X141934022Y-98893799D02*
X141791165Y-98941418D01*
X141457831Y-98893799D02*
X141219736Y-99893799D01*
X141219736Y-99893799D02*
X141029260Y-99179513D01*
X141029260Y-99179513D02*
X140838784Y-99893799D01*
X140838784Y-99893799D02*
X140600689Y-98893799D01*
X140219736Y-99893799D02*
X140219736Y-98893799D01*
X139886403Y-98893799D02*
X139314975Y-98893799D01*
X139600689Y-99893799D02*
X139600689Y-98893799D01*
X138410213Y-99798560D02*
X138457832Y-99846180D01*
X138457832Y-99846180D02*
X138600689Y-99893799D01*
X138600689Y-99893799D02*
X138695927Y-99893799D01*
X138695927Y-99893799D02*
X138838784Y-99846180D01*
X138838784Y-99846180D02*
X138934022Y-99750941D01*
X138934022Y-99750941D02*
X138981641Y-99655703D01*
X138981641Y-99655703D02*
X139029260Y-99465227D01*
X139029260Y-99465227D02*
X139029260Y-99322370D01*
X139029260Y-99322370D02*
X138981641Y-99131894D01*
X138981641Y-99131894D02*
X138934022Y-99036656D01*
X138934022Y-99036656D02*
X138838784Y-98941418D01*
X138838784Y-98941418D02*
X138695927Y-98893799D01*
X138695927Y-98893799D02*
X138600689Y-98893799D01*
X138600689Y-98893799D02*
X138457832Y-98941418D01*
X138457832Y-98941418D02*
X138410213Y-98989037D01*
X137981641Y-99893799D02*
X137981641Y-98893799D01*
X137981641Y-99369989D02*
X137410213Y-99369989D01*
X137410213Y-99893799D02*
X137410213Y-98893799D01*
X119041879Y-56047132D02*
X118803784Y-56713799D01*
X118803784Y-56713799D02*
X118565689Y-56047132D01*
X117660927Y-56713799D02*
X118232355Y-56713799D01*
X117946641Y-56713799D02*
X117946641Y-55713799D01*
X117946641Y-55713799D02*
X118041879Y-55856656D01*
X118041879Y-55856656D02*
X118137117Y-55951894D01*
X118137117Y-55951894D02*
X118232355Y-55999513D01*
X117232355Y-56618560D02*
X117184736Y-56666180D01*
X117184736Y-56666180D02*
X117232355Y-56713799D01*
X117232355Y-56713799D02*
X117279974Y-56666180D01*
X117279974Y-56666180D02*
X117232355Y-56618560D01*
X117232355Y-56618560D02*
X117232355Y-56713799D01*
X116565689Y-55713799D02*
X116470451Y-55713799D01*
X116470451Y-55713799D02*
X116375213Y-55761418D01*
X116375213Y-55761418D02*
X116327594Y-55809037D01*
X116327594Y-55809037D02*
X116279975Y-55904275D01*
X116279975Y-55904275D02*
X116232356Y-56094751D01*
X116232356Y-56094751D02*
X116232356Y-56332846D01*
X116232356Y-56332846D02*
X116279975Y-56523322D01*
X116279975Y-56523322D02*
X116327594Y-56618560D01*
X116327594Y-56618560D02*
X116375213Y-56666180D01*
X116375213Y-56666180D02*
X116470451Y-56713799D01*
X116470451Y-56713799D02*
X116565689Y-56713799D01*
X116565689Y-56713799D02*
X116660927Y-56666180D01*
X116660927Y-56666180D02*
X116708546Y-56618560D01*
X116708546Y-56618560D02*
X116756165Y-56523322D01*
X116756165Y-56523322D02*
X116803784Y-56332846D01*
X116803784Y-56332846D02*
X116803784Y-56094751D01*
X116803784Y-56094751D02*
X116756165Y-55904275D01*
X116756165Y-55904275D02*
X116708546Y-55809037D01*
X116708546Y-55809037D02*
X116660927Y-55761418D01*
X116660927Y-55761418D02*
X116565689Y-55713799D01*
X200315951Y-86762846D02*
X199554047Y-86762846D01*
X200315951Y-56282846D02*
X199554047Y-56282846D01*
X119041879Y-96687132D02*
X118803784Y-97353799D01*
X118803784Y-97353799D02*
X118565689Y-96687132D01*
X117660927Y-97353799D02*
X118232355Y-97353799D01*
X117946641Y-97353799D02*
X117946641Y-96353799D01*
X117946641Y-96353799D02*
X118041879Y-96496656D01*
X118041879Y-96496656D02*
X118137117Y-96591894D01*
X118137117Y-96591894D02*
X118232355Y-96639513D01*
X117232355Y-97258560D02*
X117184736Y-97306180D01*
X117184736Y-97306180D02*
X117232355Y-97353799D01*
X117232355Y-97353799D02*
X117279974Y-97306180D01*
X117279974Y-97306180D02*
X117232355Y-97258560D01*
X117232355Y-97258560D02*
X117232355Y-97353799D01*
X116565689Y-96353799D02*
X116470451Y-96353799D01*
X116470451Y-96353799D02*
X116375213Y-96401418D01*
X116375213Y-96401418D02*
X116327594Y-96449037D01*
X116327594Y-96449037D02*
X116279975Y-96544275D01*
X116279975Y-96544275D02*
X116232356Y-96734751D01*
X116232356Y-96734751D02*
X116232356Y-96972846D01*
X116232356Y-96972846D02*
X116279975Y-97163322D01*
X116279975Y-97163322D02*
X116327594Y-97258560D01*
X116327594Y-97258560D02*
X116375213Y-97306180D01*
X116375213Y-97306180D02*
X116470451Y-97353799D01*
X116470451Y-97353799D02*
X116565689Y-97353799D01*
X116565689Y-97353799D02*
X116660927Y-97306180D01*
X116660927Y-97306180D02*
X116708546Y-97258560D01*
X116708546Y-97258560D02*
X116756165Y-97163322D01*
X116756165Y-97163322D02*
X116803784Y-96972846D01*
X116803784Y-96972846D02*
X116803784Y-96734751D01*
X116803784Y-96734751D02*
X116756165Y-96544275D01*
X116756165Y-96544275D02*
X116708546Y-96449037D01*
X116708546Y-96449037D02*
X116660927Y-96401418D01*
X116660927Y-96401418D02*
X116565689Y-96353799D01*
X171111879Y-35727132D02*
X170873784Y-36393799D01*
X170873784Y-36393799D02*
X170635689Y-35727132D01*
X169730927Y-36393799D02*
X170302355Y-36393799D01*
X170016641Y-36393799D02*
X170016641Y-35393799D01*
X170016641Y-35393799D02*
X170111879Y-35536656D01*
X170111879Y-35536656D02*
X170207117Y-35631894D01*
X170207117Y-35631894D02*
X170302355Y-35679513D01*
X169302355Y-36298560D02*
X169254736Y-36346180D01*
X169254736Y-36346180D02*
X169302355Y-36393799D01*
X169302355Y-36393799D02*
X169349974Y-36346180D01*
X169349974Y-36346180D02*
X169302355Y-36298560D01*
X169302355Y-36298560D02*
X169302355Y-36393799D01*
X168635689Y-35393799D02*
X168540451Y-35393799D01*
X168540451Y-35393799D02*
X168445213Y-35441418D01*
X168445213Y-35441418D02*
X168397594Y-35489037D01*
X168397594Y-35489037D02*
X168349975Y-35584275D01*
X168349975Y-35584275D02*
X168302356Y-35774751D01*
X168302356Y-35774751D02*
X168302356Y-36012846D01*
X168302356Y-36012846D02*
X168349975Y-36203322D01*
X168349975Y-36203322D02*
X168397594Y-36298560D01*
X168397594Y-36298560D02*
X168445213Y-36346180D01*
X168445213Y-36346180D02*
X168540451Y-36393799D01*
X168540451Y-36393799D02*
X168635689Y-36393799D01*
X168635689Y-36393799D02*
X168730927Y-36346180D01*
X168730927Y-36346180D02*
X168778546Y-36298560D01*
X168778546Y-36298560D02*
X168826165Y-36203322D01*
X168826165Y-36203322D02*
X168873784Y-36012846D01*
X168873784Y-36012846D02*
X168873784Y-35774751D01*
X168873784Y-35774751D02*
X168826165Y-35584275D01*
X168826165Y-35584275D02*
X168778546Y-35489037D01*
X168778546Y-35489037D02*
X168730927Y-35441418D01*
X168730927Y-35441418D02*
X168635689Y-35393799D01*
X122210951Y-38502846D02*
X121449047Y-38502846D01*
X121829999Y-38883799D02*
X121829999Y-38121894D01*
X174280951Y-56282846D02*
X173519047Y-56282846D01*
X174280951Y-99462846D02*
X173519047Y-99462846D01*
X173899999Y-99843799D02*
X173899999Y-99081894D01*
X145076879Y-45887132D02*
X144838784Y-46553799D01*
X144838784Y-46553799D02*
X144600689Y-45887132D01*
X143695927Y-46553799D02*
X144267355Y-46553799D01*
X143981641Y-46553799D02*
X143981641Y-45553799D01*
X143981641Y-45553799D02*
X144076879Y-45696656D01*
X144076879Y-45696656D02*
X144172117Y-45791894D01*
X144172117Y-45791894D02*
X144267355Y-45839513D01*
X143267355Y-46458560D02*
X143219736Y-46506180D01*
X143219736Y-46506180D02*
X143267355Y-46553799D01*
X143267355Y-46553799D02*
X143314974Y-46506180D01*
X143314974Y-46506180D02*
X143267355Y-46458560D01*
X143267355Y-46458560D02*
X143267355Y-46553799D01*
X142600689Y-45553799D02*
X142505451Y-45553799D01*
X142505451Y-45553799D02*
X142410213Y-45601418D01*
X142410213Y-45601418D02*
X142362594Y-45649037D01*
X142362594Y-45649037D02*
X142314975Y-45744275D01*
X142314975Y-45744275D02*
X142267356Y-45934751D01*
X142267356Y-45934751D02*
X142267356Y-46172846D01*
X142267356Y-46172846D02*
X142314975Y-46363322D01*
X142314975Y-46363322D02*
X142362594Y-46458560D01*
X142362594Y-46458560D02*
X142410213Y-46506180D01*
X142410213Y-46506180D02*
X142505451Y-46553799D01*
X142505451Y-46553799D02*
X142600689Y-46553799D01*
X142600689Y-46553799D02*
X142695927Y-46506180D01*
X142695927Y-46506180D02*
X142743546Y-46458560D01*
X142743546Y-46458560D02*
X142791165Y-46363322D01*
X142791165Y-46363322D02*
X142838784Y-46172846D01*
X142838784Y-46172846D02*
X142838784Y-45934751D01*
X142838784Y-45934751D02*
X142791165Y-45744275D01*
X142791165Y-45744275D02*
X142743546Y-45649037D01*
X142743546Y-45649037D02*
X142695927Y-45601418D01*
X142695927Y-45601418D02*
X142600689Y-45553799D01*
X197099260Y-79288084D02*
X196623070Y-79288084D01*
X197194498Y-79573799D02*
X196861165Y-78573799D01*
X196861165Y-78573799D02*
X196527832Y-79573799D01*
X196194498Y-79573799D02*
X196194498Y-78573799D01*
X196194498Y-78573799D02*
X195623070Y-79573799D01*
X195623070Y-79573799D02*
X195623070Y-78573799D01*
X195289736Y-78573799D02*
X194718308Y-78573799D01*
X195004022Y-79573799D02*
X195004022Y-78573799D01*
X194432593Y-79526180D02*
X194289736Y-79573799D01*
X194289736Y-79573799D02*
X194051641Y-79573799D01*
X194051641Y-79573799D02*
X193956403Y-79526180D01*
X193956403Y-79526180D02*
X193908784Y-79478560D01*
X193908784Y-79478560D02*
X193861165Y-79383322D01*
X193861165Y-79383322D02*
X193861165Y-79288084D01*
X193861165Y-79288084D02*
X193908784Y-79192846D01*
X193908784Y-79192846D02*
X193956403Y-79145227D01*
X193956403Y-79145227D02*
X194051641Y-79097608D01*
X194051641Y-79097608D02*
X194242117Y-79049989D01*
X194242117Y-79049989D02*
X194337355Y-79002370D01*
X194337355Y-79002370D02*
X194384974Y-78954751D01*
X194384974Y-78954751D02*
X194432593Y-78859513D01*
X194432593Y-78859513D02*
X194432593Y-78764275D01*
X194432593Y-78764275D02*
X194384974Y-78669037D01*
X194384974Y-78669037D02*
X194337355Y-78621418D01*
X194337355Y-78621418D02*
X194242117Y-78573799D01*
X194242117Y-78573799D02*
X194004022Y-78573799D01*
X194004022Y-78573799D02*
X193861165Y-78621418D01*
X193527831Y-78573799D02*
X193289736Y-79573799D01*
X193289736Y-79573799D02*
X193099260Y-78859513D01*
X193099260Y-78859513D02*
X192908784Y-79573799D01*
X192908784Y-79573799D02*
X192670689Y-78573799D01*
X192289736Y-79573799D02*
X192289736Y-78573799D01*
X191956403Y-78573799D02*
X191384975Y-78573799D01*
X191670689Y-79573799D02*
X191670689Y-78573799D01*
X190480213Y-79478560D02*
X190527832Y-79526180D01*
X190527832Y-79526180D02*
X190670689Y-79573799D01*
X190670689Y-79573799D02*
X190765927Y-79573799D01*
X190765927Y-79573799D02*
X190908784Y-79526180D01*
X190908784Y-79526180D02*
X191004022Y-79430941D01*
X191004022Y-79430941D02*
X191051641Y-79335703D01*
X191051641Y-79335703D02*
X191099260Y-79145227D01*
X191099260Y-79145227D02*
X191099260Y-79002370D01*
X191099260Y-79002370D02*
X191051641Y-78811894D01*
X191051641Y-78811894D02*
X191004022Y-78716656D01*
X191004022Y-78716656D02*
X190908784Y-78621418D01*
X190908784Y-78621418D02*
X190765927Y-78573799D01*
X190765927Y-78573799D02*
X190670689Y-78573799D01*
X190670689Y-78573799D02*
X190527832Y-78621418D01*
X190527832Y-78621418D02*
X190480213Y-78669037D01*
X190051641Y-79573799D02*
X190051641Y-78573799D01*
X190051641Y-79049989D02*
X189480213Y-79049989D01*
X189480213Y-79573799D02*
X189480213Y-78573799D01*
X119041879Y-106847132D02*
X118803784Y-107513799D01*
X118803784Y-107513799D02*
X118565689Y-106847132D01*
X117660927Y-107513799D02*
X118232355Y-107513799D01*
X117946641Y-107513799D02*
X117946641Y-106513799D01*
X117946641Y-106513799D02*
X118041879Y-106656656D01*
X118041879Y-106656656D02*
X118137117Y-106751894D01*
X118137117Y-106751894D02*
X118232355Y-106799513D01*
X117232355Y-107418560D02*
X117184736Y-107466180D01*
X117184736Y-107466180D02*
X117232355Y-107513799D01*
X117232355Y-107513799D02*
X117279974Y-107466180D01*
X117279974Y-107466180D02*
X117232355Y-107418560D01*
X117232355Y-107418560D02*
X117232355Y-107513799D01*
X116565689Y-106513799D02*
X116470451Y-106513799D01*
X116470451Y-106513799D02*
X116375213Y-106561418D01*
X116375213Y-106561418D02*
X116327594Y-106609037D01*
X116327594Y-106609037D02*
X116279975Y-106704275D01*
X116279975Y-106704275D02*
X116232356Y-106894751D01*
X116232356Y-106894751D02*
X116232356Y-107132846D01*
X116232356Y-107132846D02*
X116279975Y-107323322D01*
X116279975Y-107323322D02*
X116327594Y-107418560D01*
X116327594Y-107418560D02*
X116375213Y-107466180D01*
X116375213Y-107466180D02*
X116470451Y-107513799D01*
X116470451Y-107513799D02*
X116565689Y-107513799D01*
X116565689Y-107513799D02*
X116660927Y-107466180D01*
X116660927Y-107466180D02*
X116708546Y-107418560D01*
X116708546Y-107418560D02*
X116756165Y-107323322D01*
X116756165Y-107323322D02*
X116803784Y-107132846D01*
X116803784Y-107132846D02*
X116803784Y-106894751D01*
X116803784Y-106894751D02*
X116756165Y-106704275D01*
X116756165Y-106704275D02*
X116708546Y-106609037D01*
X116708546Y-106609037D02*
X116660927Y-106561418D01*
X116660927Y-106561418D02*
X116565689Y-106513799D01*
X200315951Y-28342846D02*
X199554047Y-28342846D01*
X199934999Y-28723799D02*
X199934999Y-27961894D01*
X148245951Y-38502846D02*
X147484047Y-38502846D01*
X147864999Y-38883799D02*
X147864999Y-38121894D01*
X122210951Y-28342846D02*
X121449047Y-28342846D01*
X121829999Y-28723799D02*
X121829999Y-27961894D01*
X148245951Y-76602846D02*
X147484047Y-76602846D01*
X148245951Y-86762846D02*
X147484047Y-86762846D01*
X174280951Y-86762846D02*
X173519047Y-86762846D01*
X148245951Y-35962846D02*
X147484047Y-35962846D01*
X122210951Y-86762846D02*
X121449047Y-86762846D01*
X171064260Y-79288084D02*
X170588070Y-79288084D01*
X171159498Y-79573799D02*
X170826165Y-78573799D01*
X170826165Y-78573799D02*
X170492832Y-79573799D01*
X170159498Y-79573799D02*
X170159498Y-78573799D01*
X170159498Y-78573799D02*
X169588070Y-79573799D01*
X169588070Y-79573799D02*
X169588070Y-78573799D01*
X169254736Y-78573799D02*
X168683308Y-78573799D01*
X168969022Y-79573799D02*
X168969022Y-78573799D01*
X168397593Y-79526180D02*
X168254736Y-79573799D01*
X168254736Y-79573799D02*
X168016641Y-79573799D01*
X168016641Y-79573799D02*
X167921403Y-79526180D01*
X167921403Y-79526180D02*
X167873784Y-79478560D01*
X167873784Y-79478560D02*
X167826165Y-79383322D01*
X167826165Y-79383322D02*
X167826165Y-79288084D01*
X167826165Y-79288084D02*
X167873784Y-79192846D01*
X167873784Y-79192846D02*
X167921403Y-79145227D01*
X167921403Y-79145227D02*
X168016641Y-79097608D01*
X168016641Y-79097608D02*
X168207117Y-79049989D01*
X168207117Y-79049989D02*
X168302355Y-79002370D01*
X168302355Y-79002370D02*
X168349974Y-78954751D01*
X168349974Y-78954751D02*
X168397593Y-78859513D01*
X168397593Y-78859513D02*
X168397593Y-78764275D01*
X168397593Y-78764275D02*
X168349974Y-78669037D01*
X168349974Y-78669037D02*
X168302355Y-78621418D01*
X168302355Y-78621418D02*
X168207117Y-78573799D01*
X168207117Y-78573799D02*
X167969022Y-78573799D01*
X167969022Y-78573799D02*
X167826165Y-78621418D01*
X167492831Y-78573799D02*
X167254736Y-79573799D01*
X167254736Y-79573799D02*
X167064260Y-78859513D01*
X167064260Y-78859513D02*
X166873784Y-79573799D01*
X166873784Y-79573799D02*
X166635689Y-78573799D01*
X166254736Y-79573799D02*
X166254736Y-78573799D01*
X165921403Y-78573799D02*
X165349975Y-78573799D01*
X165635689Y-79573799D02*
X165635689Y-78573799D01*
X164445213Y-79478560D02*
X164492832Y-79526180D01*
X164492832Y-79526180D02*
X164635689Y-79573799D01*
X164635689Y-79573799D02*
X164730927Y-79573799D01*
X164730927Y-79573799D02*
X164873784Y-79526180D01*
X164873784Y-79526180D02*
X164969022Y-79430941D01*
X164969022Y-79430941D02*
X165016641Y-79335703D01*
X165016641Y-79335703D02*
X165064260Y-79145227D01*
X165064260Y-79145227D02*
X165064260Y-79002370D01*
X165064260Y-79002370D02*
X165016641Y-78811894D01*
X165016641Y-78811894D02*
X164969022Y-78716656D01*
X164969022Y-78716656D02*
X164873784Y-78621418D01*
X164873784Y-78621418D02*
X164730927Y-78573799D01*
X164730927Y-78573799D02*
X164635689Y-78573799D01*
X164635689Y-78573799D02*
X164492832Y-78621418D01*
X164492832Y-78621418D02*
X164445213Y-78669037D01*
X164016641Y-79573799D02*
X164016641Y-78573799D01*
X164016641Y-79049989D02*
X163445213Y-79049989D01*
X163445213Y-79573799D02*
X163445213Y-78573799D01*
X197099260Y-99608084D02*
X196623070Y-99608084D01*
X197194498Y-99893799D02*
X196861165Y-98893799D01*
X196861165Y-98893799D02*
X196527832Y-99893799D01*
X196194498Y-99893799D02*
X196194498Y-98893799D01*
X196194498Y-98893799D02*
X195623070Y-99893799D01*
X195623070Y-99893799D02*
X195623070Y-98893799D01*
X195289736Y-98893799D02*
X194718308Y-98893799D01*
X195004022Y-99893799D02*
X195004022Y-98893799D01*
X194432593Y-99846180D02*
X194289736Y-99893799D01*
X194289736Y-99893799D02*
X194051641Y-99893799D01*
X194051641Y-99893799D02*
X193956403Y-99846180D01*
X193956403Y-99846180D02*
X193908784Y-99798560D01*
X193908784Y-99798560D02*
X193861165Y-99703322D01*
X193861165Y-99703322D02*
X193861165Y-99608084D01*
X193861165Y-99608084D02*
X193908784Y-99512846D01*
X193908784Y-99512846D02*
X193956403Y-99465227D01*
X193956403Y-99465227D02*
X194051641Y-99417608D01*
X194051641Y-99417608D02*
X194242117Y-99369989D01*
X194242117Y-99369989D02*
X194337355Y-99322370D01*
X194337355Y-99322370D02*
X194384974Y-99274751D01*
X194384974Y-99274751D02*
X194432593Y-99179513D01*
X194432593Y-99179513D02*
X194432593Y-99084275D01*
X194432593Y-99084275D02*
X194384974Y-98989037D01*
X194384974Y-98989037D02*
X194337355Y-98941418D01*
X194337355Y-98941418D02*
X194242117Y-98893799D01*
X194242117Y-98893799D02*
X194004022Y-98893799D01*
X194004022Y-98893799D02*
X193861165Y-98941418D01*
X193527831Y-98893799D02*
X193289736Y-99893799D01*
X193289736Y-99893799D02*
X193099260Y-99179513D01*
X193099260Y-99179513D02*
X192908784Y-99893799D01*
X192908784Y-99893799D02*
X192670689Y-98893799D01*
X192289736Y-99893799D02*
X192289736Y-98893799D01*
X191956403Y-98893799D02*
X191384975Y-98893799D01*
X191670689Y-99893799D02*
X191670689Y-98893799D01*
X190480213Y-99798560D02*
X190527832Y-99846180D01*
X190527832Y-99846180D02*
X190670689Y-99893799D01*
X190670689Y-99893799D02*
X190765927Y-99893799D01*
X190765927Y-99893799D02*
X190908784Y-99846180D01*
X190908784Y-99846180D02*
X191004022Y-99750941D01*
X191004022Y-99750941D02*
X191051641Y-99655703D01*
X191051641Y-99655703D02*
X191099260Y-99465227D01*
X191099260Y-99465227D02*
X191099260Y-99322370D01*
X191099260Y-99322370D02*
X191051641Y-99131894D01*
X191051641Y-99131894D02*
X191004022Y-99036656D01*
X191004022Y-99036656D02*
X190908784Y-98941418D01*
X190908784Y-98941418D02*
X190765927Y-98893799D01*
X190765927Y-98893799D02*
X190670689Y-98893799D01*
X190670689Y-98893799D02*
X190527832Y-98941418D01*
X190527832Y-98941418D02*
X190480213Y-98989037D01*
X190051641Y-99893799D02*
X190051641Y-98893799D01*
X190051641Y-99369989D02*
X189480213Y-99369989D01*
X189480213Y-99893799D02*
X189480213Y-98893799D01*
X148245951Y-68982846D02*
X147484047Y-68982846D01*
X147864999Y-69363799D02*
X147864999Y-68601894D01*
X145076879Y-86527132D02*
X144838784Y-87193799D01*
X144838784Y-87193799D02*
X144600689Y-86527132D01*
X143695927Y-87193799D02*
X144267355Y-87193799D01*
X143981641Y-87193799D02*
X143981641Y-86193799D01*
X143981641Y-86193799D02*
X144076879Y-86336656D01*
X144076879Y-86336656D02*
X144172117Y-86431894D01*
X144172117Y-86431894D02*
X144267355Y-86479513D01*
X143267355Y-87098560D02*
X143219736Y-87146180D01*
X143219736Y-87146180D02*
X143267355Y-87193799D01*
X143267355Y-87193799D02*
X143314974Y-87146180D01*
X143314974Y-87146180D02*
X143267355Y-87098560D01*
X143267355Y-87098560D02*
X143267355Y-87193799D01*
X142600689Y-86193799D02*
X142505451Y-86193799D01*
X142505451Y-86193799D02*
X142410213Y-86241418D01*
X142410213Y-86241418D02*
X142362594Y-86289037D01*
X142362594Y-86289037D02*
X142314975Y-86384275D01*
X142314975Y-86384275D02*
X142267356Y-86574751D01*
X142267356Y-86574751D02*
X142267356Y-86812846D01*
X142267356Y-86812846D02*
X142314975Y-87003322D01*
X142314975Y-87003322D02*
X142362594Y-87098560D01*
X142362594Y-87098560D02*
X142410213Y-87146180D01*
X142410213Y-87146180D02*
X142505451Y-87193799D01*
X142505451Y-87193799D02*
X142600689Y-87193799D01*
X142600689Y-87193799D02*
X142695927Y-87146180D01*
X142695927Y-87146180D02*
X142743546Y-87098560D01*
X142743546Y-87098560D02*
X142791165Y-87003322D01*
X142791165Y-87003322D02*
X142838784Y-86812846D01*
X142838784Y-86812846D02*
X142838784Y-86574751D01*
X142838784Y-86574751D02*
X142791165Y-86384275D01*
X142791165Y-86384275D02*
X142743546Y-86289037D01*
X142743546Y-86289037D02*
X142695927Y-86241418D01*
X142695927Y-86241418D02*
X142600689Y-86193799D01*
X171111879Y-56047132D02*
X170873784Y-56713799D01*
X170873784Y-56713799D02*
X170635689Y-56047132D01*
X169730927Y-56713799D02*
X170302355Y-56713799D01*
X170016641Y-56713799D02*
X170016641Y-55713799D01*
X170016641Y-55713799D02*
X170111879Y-55856656D01*
X170111879Y-55856656D02*
X170207117Y-55951894D01*
X170207117Y-55951894D02*
X170302355Y-55999513D01*
X169302355Y-56618560D02*
X169254736Y-56666180D01*
X169254736Y-56666180D02*
X169302355Y-56713799D01*
X169302355Y-56713799D02*
X169349974Y-56666180D01*
X169349974Y-56666180D02*
X169302355Y-56618560D01*
X169302355Y-56618560D02*
X169302355Y-56713799D01*
X168635689Y-55713799D02*
X168540451Y-55713799D01*
X168540451Y-55713799D02*
X168445213Y-55761418D01*
X168445213Y-55761418D02*
X168397594Y-55809037D01*
X168397594Y-55809037D02*
X168349975Y-55904275D01*
X168349975Y-55904275D02*
X168302356Y-56094751D01*
X168302356Y-56094751D02*
X168302356Y-56332846D01*
X168302356Y-56332846D02*
X168349975Y-56523322D01*
X168349975Y-56523322D02*
X168397594Y-56618560D01*
X168397594Y-56618560D02*
X168445213Y-56666180D01*
X168445213Y-56666180D02*
X168540451Y-56713799D01*
X168540451Y-56713799D02*
X168635689Y-56713799D01*
X168635689Y-56713799D02*
X168730927Y-56666180D01*
X168730927Y-56666180D02*
X168778546Y-56618560D01*
X168778546Y-56618560D02*
X168826165Y-56523322D01*
X168826165Y-56523322D02*
X168873784Y-56332846D01*
X168873784Y-56332846D02*
X168873784Y-56094751D01*
X168873784Y-56094751D02*
X168826165Y-55904275D01*
X168826165Y-55904275D02*
X168778546Y-55809037D01*
X168778546Y-55809037D02*
X168730927Y-55761418D01*
X168730927Y-55761418D02*
X168635689Y-55713799D01*
X119041879Y-86527132D02*
X118803784Y-87193799D01*
X118803784Y-87193799D02*
X118565689Y-86527132D01*
X117660927Y-87193799D02*
X118232355Y-87193799D01*
X117946641Y-87193799D02*
X117946641Y-86193799D01*
X117946641Y-86193799D02*
X118041879Y-86336656D01*
X118041879Y-86336656D02*
X118137117Y-86431894D01*
X118137117Y-86431894D02*
X118232355Y-86479513D01*
X117232355Y-87098560D02*
X117184736Y-87146180D01*
X117184736Y-87146180D02*
X117232355Y-87193799D01*
X117232355Y-87193799D02*
X117279974Y-87146180D01*
X117279974Y-87146180D02*
X117232355Y-87098560D01*
X117232355Y-87098560D02*
X117232355Y-87193799D01*
X116565689Y-86193799D02*
X116470451Y-86193799D01*
X116470451Y-86193799D02*
X116375213Y-86241418D01*
X116375213Y-86241418D02*
X116327594Y-86289037D01*
X116327594Y-86289037D02*
X116279975Y-86384275D01*
X116279975Y-86384275D02*
X116232356Y-86574751D01*
X116232356Y-86574751D02*
X116232356Y-86812846D01*
X116232356Y-86812846D02*
X116279975Y-87003322D01*
X116279975Y-87003322D02*
X116327594Y-87098560D01*
X116327594Y-87098560D02*
X116375213Y-87146180D01*
X116375213Y-87146180D02*
X116470451Y-87193799D01*
X116470451Y-87193799D02*
X116565689Y-87193799D01*
X116565689Y-87193799D02*
X116660927Y-87146180D01*
X116660927Y-87146180D02*
X116708546Y-87098560D01*
X116708546Y-87098560D02*
X116756165Y-87003322D01*
X116756165Y-87003322D02*
X116803784Y-86812846D01*
X116803784Y-86812846D02*
X116803784Y-86574751D01*
X116803784Y-86574751D02*
X116756165Y-86384275D01*
X116756165Y-86384275D02*
X116708546Y-86289037D01*
X116708546Y-86289037D02*
X116660927Y-86241418D01*
X116660927Y-86241418D02*
X116565689Y-86193799D01*
X171111879Y-96687132D02*
X170873784Y-97353799D01*
X170873784Y-97353799D02*
X170635689Y-96687132D01*
X169730927Y-97353799D02*
X170302355Y-97353799D01*
X170016641Y-97353799D02*
X170016641Y-96353799D01*
X170016641Y-96353799D02*
X170111879Y-96496656D01*
X170111879Y-96496656D02*
X170207117Y-96591894D01*
X170207117Y-96591894D02*
X170302355Y-96639513D01*
X169302355Y-97258560D02*
X169254736Y-97306180D01*
X169254736Y-97306180D02*
X169302355Y-97353799D01*
X169302355Y-97353799D02*
X169349974Y-97306180D01*
X169349974Y-97306180D02*
X169302355Y-97258560D01*
X169302355Y-97258560D02*
X169302355Y-97353799D01*
X168635689Y-96353799D02*
X168540451Y-96353799D01*
X168540451Y-96353799D02*
X168445213Y-96401418D01*
X168445213Y-96401418D02*
X168397594Y-96449037D01*
X168397594Y-96449037D02*
X168349975Y-96544275D01*
X168349975Y-96544275D02*
X168302356Y-96734751D01*
X168302356Y-96734751D02*
X168302356Y-96972846D01*
X168302356Y-96972846D02*
X168349975Y-97163322D01*
X168349975Y-97163322D02*
X168397594Y-97258560D01*
X168397594Y-97258560D02*
X168445213Y-97306180D01*
X168445213Y-97306180D02*
X168540451Y-97353799D01*
X168540451Y-97353799D02*
X168635689Y-97353799D01*
X168635689Y-97353799D02*
X168730927Y-97306180D01*
X168730927Y-97306180D02*
X168778546Y-97258560D01*
X168778546Y-97258560D02*
X168826165Y-97163322D01*
X168826165Y-97163322D02*
X168873784Y-96972846D01*
X168873784Y-96972846D02*
X168873784Y-96734751D01*
X168873784Y-96734751D02*
X168826165Y-96544275D01*
X168826165Y-96544275D02*
X168778546Y-96449037D01*
X168778546Y-96449037D02*
X168730927Y-96401418D01*
X168730927Y-96401418D02*
X168635689Y-96353799D01*
X148245951Y-46122846D02*
X147484047Y-46122846D01*
X200315951Y-79142846D02*
X199554047Y-79142846D01*
X199934999Y-79523799D02*
X199934999Y-78761894D01*
X174280951Y-66442846D02*
X173519047Y-66442846D01*
X197099260Y-28488084D02*
X196623070Y-28488084D01*
X197194498Y-28773799D02*
X196861165Y-27773799D01*
X196861165Y-27773799D02*
X196527832Y-28773799D01*
X196194498Y-28773799D02*
X196194498Y-27773799D01*
X196194498Y-27773799D02*
X195623070Y-28773799D01*
X195623070Y-28773799D02*
X195623070Y-27773799D01*
X195289736Y-27773799D02*
X194718308Y-27773799D01*
X195004022Y-28773799D02*
X195004022Y-27773799D01*
X194432593Y-28726180D02*
X194289736Y-28773799D01*
X194289736Y-28773799D02*
X194051641Y-28773799D01*
X194051641Y-28773799D02*
X193956403Y-28726180D01*
X193956403Y-28726180D02*
X193908784Y-28678560D01*
X193908784Y-28678560D02*
X193861165Y-28583322D01*
X193861165Y-28583322D02*
X193861165Y-28488084D01*
X193861165Y-28488084D02*
X193908784Y-28392846D01*
X193908784Y-28392846D02*
X193956403Y-28345227D01*
X193956403Y-28345227D02*
X194051641Y-28297608D01*
X194051641Y-28297608D02*
X194242117Y-28249989D01*
X194242117Y-28249989D02*
X194337355Y-28202370D01*
X194337355Y-28202370D02*
X194384974Y-28154751D01*
X194384974Y-28154751D02*
X194432593Y-28059513D01*
X194432593Y-28059513D02*
X194432593Y-27964275D01*
X194432593Y-27964275D02*
X194384974Y-27869037D01*
X194384974Y-27869037D02*
X194337355Y-27821418D01*
X194337355Y-27821418D02*
X194242117Y-27773799D01*
X194242117Y-27773799D02*
X194004022Y-27773799D01*
X194004022Y-27773799D02*
X193861165Y-27821418D01*
X193527831Y-27773799D02*
X193289736Y-28773799D01*
X193289736Y-28773799D02*
X193099260Y-28059513D01*
X193099260Y-28059513D02*
X192908784Y-28773799D01*
X192908784Y-28773799D02*
X192670689Y-27773799D01*
X192289736Y-28773799D02*
X192289736Y-27773799D01*
X191956403Y-27773799D02*
X191384975Y-27773799D01*
X191670689Y-28773799D02*
X191670689Y-27773799D01*
X190480213Y-28678560D02*
X190527832Y-28726180D01*
X190527832Y-28726180D02*
X190670689Y-28773799D01*
X190670689Y-28773799D02*
X190765927Y-28773799D01*
X190765927Y-28773799D02*
X190908784Y-28726180D01*
X190908784Y-28726180D02*
X191004022Y-28630941D01*
X191004022Y-28630941D02*
X191051641Y-28535703D01*
X191051641Y-28535703D02*
X191099260Y-28345227D01*
X191099260Y-28345227D02*
X191099260Y-28202370D01*
X191099260Y-28202370D02*
X191051641Y-28011894D01*
X191051641Y-28011894D02*
X191004022Y-27916656D01*
X191004022Y-27916656D02*
X190908784Y-27821418D01*
X190908784Y-27821418D02*
X190765927Y-27773799D01*
X190765927Y-27773799D02*
X190670689Y-27773799D01*
X190670689Y-27773799D02*
X190527832Y-27821418D01*
X190527832Y-27821418D02*
X190480213Y-27869037D01*
X190051641Y-28773799D02*
X190051641Y-27773799D01*
X190051641Y-28249989D02*
X189480213Y-28249989D01*
X189480213Y-28773799D02*
X189480213Y-27773799D01*
X171064260Y-69128084D02*
X170588070Y-69128084D01*
X171159498Y-69413799D02*
X170826165Y-68413799D01*
X170826165Y-68413799D02*
X170492832Y-69413799D01*
X170159498Y-69413799D02*
X170159498Y-68413799D01*
X170159498Y-68413799D02*
X169588070Y-69413799D01*
X169588070Y-69413799D02*
X169588070Y-68413799D01*
X169254736Y-68413799D02*
X168683308Y-68413799D01*
X168969022Y-69413799D02*
X168969022Y-68413799D01*
X168397593Y-69366180D02*
X168254736Y-69413799D01*
X168254736Y-69413799D02*
X168016641Y-69413799D01*
X168016641Y-69413799D02*
X167921403Y-69366180D01*
X167921403Y-69366180D02*
X167873784Y-69318560D01*
X167873784Y-69318560D02*
X167826165Y-69223322D01*
X167826165Y-69223322D02*
X167826165Y-69128084D01*
X167826165Y-69128084D02*
X167873784Y-69032846D01*
X167873784Y-69032846D02*
X167921403Y-68985227D01*
X167921403Y-68985227D02*
X168016641Y-68937608D01*
X168016641Y-68937608D02*
X168207117Y-68889989D01*
X168207117Y-68889989D02*
X168302355Y-68842370D01*
X168302355Y-68842370D02*
X168349974Y-68794751D01*
X168349974Y-68794751D02*
X168397593Y-68699513D01*
X168397593Y-68699513D02*
X168397593Y-68604275D01*
X168397593Y-68604275D02*
X168349974Y-68509037D01*
X168349974Y-68509037D02*
X168302355Y-68461418D01*
X168302355Y-68461418D02*
X168207117Y-68413799D01*
X168207117Y-68413799D02*
X167969022Y-68413799D01*
X167969022Y-68413799D02*
X167826165Y-68461418D01*
X167492831Y-68413799D02*
X167254736Y-69413799D01*
X167254736Y-69413799D02*
X167064260Y-68699513D01*
X167064260Y-68699513D02*
X166873784Y-69413799D01*
X166873784Y-69413799D02*
X166635689Y-68413799D01*
X166254736Y-69413799D02*
X166254736Y-68413799D01*
X165921403Y-68413799D02*
X165349975Y-68413799D01*
X165635689Y-69413799D02*
X165635689Y-68413799D01*
X164445213Y-69318560D02*
X164492832Y-69366180D01*
X164492832Y-69366180D02*
X164635689Y-69413799D01*
X164635689Y-69413799D02*
X164730927Y-69413799D01*
X164730927Y-69413799D02*
X164873784Y-69366180D01*
X164873784Y-69366180D02*
X164969022Y-69270941D01*
X164969022Y-69270941D02*
X165016641Y-69175703D01*
X165016641Y-69175703D02*
X165064260Y-68985227D01*
X165064260Y-68985227D02*
X165064260Y-68842370D01*
X165064260Y-68842370D02*
X165016641Y-68651894D01*
X165016641Y-68651894D02*
X164969022Y-68556656D01*
X164969022Y-68556656D02*
X164873784Y-68461418D01*
X164873784Y-68461418D02*
X164730927Y-68413799D01*
X164730927Y-68413799D02*
X164635689Y-68413799D01*
X164635689Y-68413799D02*
X164492832Y-68461418D01*
X164492832Y-68461418D02*
X164445213Y-68509037D01*
X164016641Y-69413799D02*
X164016641Y-68413799D01*
X164016641Y-68889989D02*
X163445213Y-68889989D01*
X163445213Y-69413799D02*
X163445213Y-68413799D01*
X148245951Y-66442846D02*
X147484047Y-66442846D01*
X148245951Y-56282846D02*
X147484047Y-56282846D01*
X119041879Y-35727132D02*
X118803784Y-36393799D01*
X118803784Y-36393799D02*
X118565689Y-35727132D01*
X117660927Y-36393799D02*
X118232355Y-36393799D01*
X117946641Y-36393799D02*
X117946641Y-35393799D01*
X117946641Y-35393799D02*
X118041879Y-35536656D01*
X118041879Y-35536656D02*
X118137117Y-35631894D01*
X118137117Y-35631894D02*
X118232355Y-35679513D01*
X117232355Y-36298560D02*
X117184736Y-36346180D01*
X117184736Y-36346180D02*
X117232355Y-36393799D01*
X117232355Y-36393799D02*
X117279974Y-36346180D01*
X117279974Y-36346180D02*
X117232355Y-36298560D01*
X117232355Y-36298560D02*
X117232355Y-36393799D01*
X116565689Y-35393799D02*
X116470451Y-35393799D01*
X116470451Y-35393799D02*
X116375213Y-35441418D01*
X116375213Y-35441418D02*
X116327594Y-35489037D01*
X116327594Y-35489037D02*
X116279975Y-35584275D01*
X116279975Y-35584275D02*
X116232356Y-35774751D01*
X116232356Y-35774751D02*
X116232356Y-36012846D01*
X116232356Y-36012846D02*
X116279975Y-36203322D01*
X116279975Y-36203322D02*
X116327594Y-36298560D01*
X116327594Y-36298560D02*
X116375213Y-36346180D01*
X116375213Y-36346180D02*
X116470451Y-36393799D01*
X116470451Y-36393799D02*
X116565689Y-36393799D01*
X116565689Y-36393799D02*
X116660927Y-36346180D01*
X116660927Y-36346180D02*
X116708546Y-36298560D01*
X116708546Y-36298560D02*
X116756165Y-36203322D01*
X116756165Y-36203322D02*
X116803784Y-36012846D01*
X116803784Y-36012846D02*
X116803784Y-35774751D01*
X116803784Y-35774751D02*
X116756165Y-35584275D01*
X116756165Y-35584275D02*
X116708546Y-35489037D01*
X116708546Y-35489037D02*
X116660927Y-35441418D01*
X116660927Y-35441418D02*
X116565689Y-35393799D01*
X174280951Y-38502846D02*
X173519047Y-38502846D01*
X173899999Y-38883799D02*
X173899999Y-38121894D01*
X171064260Y-28488084D02*
X170588070Y-28488084D01*
X171159498Y-28773799D02*
X170826165Y-27773799D01*
X170826165Y-27773799D02*
X170492832Y-28773799D01*
X170159498Y-28773799D02*
X170159498Y-27773799D01*
X170159498Y-27773799D02*
X169588070Y-28773799D01*
X169588070Y-28773799D02*
X169588070Y-27773799D01*
X169254736Y-27773799D02*
X168683308Y-27773799D01*
X168969022Y-28773799D02*
X168969022Y-27773799D01*
X168397593Y-28726180D02*
X168254736Y-28773799D01*
X168254736Y-28773799D02*
X168016641Y-28773799D01*
X168016641Y-28773799D02*
X167921403Y-28726180D01*
X167921403Y-28726180D02*
X167873784Y-28678560D01*
X167873784Y-28678560D02*
X167826165Y-28583322D01*
X167826165Y-28583322D02*
X167826165Y-28488084D01*
X167826165Y-28488084D02*
X167873784Y-28392846D01*
X167873784Y-28392846D02*
X167921403Y-28345227D01*
X167921403Y-28345227D02*
X168016641Y-28297608D01*
X168016641Y-28297608D02*
X168207117Y-28249989D01*
X168207117Y-28249989D02*
X168302355Y-28202370D01*
X168302355Y-28202370D02*
X168349974Y-28154751D01*
X168349974Y-28154751D02*
X168397593Y-28059513D01*
X168397593Y-28059513D02*
X168397593Y-27964275D01*
X168397593Y-27964275D02*
X168349974Y-27869037D01*
X168349974Y-27869037D02*
X168302355Y-27821418D01*
X168302355Y-27821418D02*
X168207117Y-27773799D01*
X168207117Y-27773799D02*
X167969022Y-27773799D01*
X167969022Y-27773799D02*
X167826165Y-27821418D01*
X167492831Y-27773799D02*
X167254736Y-28773799D01*
X167254736Y-28773799D02*
X167064260Y-28059513D01*
X167064260Y-28059513D02*
X166873784Y-28773799D01*
X166873784Y-28773799D02*
X166635689Y-27773799D01*
X166254736Y-28773799D02*
X166254736Y-27773799D01*
X165921403Y-27773799D02*
X165349975Y-27773799D01*
X165635689Y-28773799D02*
X165635689Y-27773799D01*
X164445213Y-28678560D02*
X164492832Y-28726180D01*
X164492832Y-28726180D02*
X164635689Y-28773799D01*
X164635689Y-28773799D02*
X164730927Y-28773799D01*
X164730927Y-28773799D02*
X164873784Y-28726180D01*
X164873784Y-28726180D02*
X164969022Y-28630941D01*
X164969022Y-28630941D02*
X165016641Y-28535703D01*
X165016641Y-28535703D02*
X165064260Y-28345227D01*
X165064260Y-28345227D02*
X165064260Y-28202370D01*
X165064260Y-28202370D02*
X165016641Y-28011894D01*
X165016641Y-28011894D02*
X164969022Y-27916656D01*
X164969022Y-27916656D02*
X164873784Y-27821418D01*
X164873784Y-27821418D02*
X164730927Y-27773799D01*
X164730927Y-27773799D02*
X164635689Y-27773799D01*
X164635689Y-27773799D02*
X164492832Y-27821418D01*
X164492832Y-27821418D02*
X164445213Y-27869037D01*
X164016641Y-28773799D02*
X164016641Y-27773799D01*
X164016641Y-28249989D02*
X163445213Y-28249989D01*
X163445213Y-28773799D02*
X163445213Y-27773799D01*
X122210951Y-46122846D02*
X121449047Y-46122846D01*
X148245951Y-99462846D02*
X147484047Y-99462846D01*
X147864999Y-99843799D02*
X147864999Y-99081894D01*
X118994260Y-58968084D02*
X118518070Y-58968084D01*
X119089498Y-59253799D02*
X118756165Y-58253799D01*
X118756165Y-58253799D02*
X118422832Y-59253799D01*
X118089498Y-59253799D02*
X118089498Y-58253799D01*
X118089498Y-58253799D02*
X117518070Y-59253799D01*
X117518070Y-59253799D02*
X117518070Y-58253799D01*
X117184736Y-58253799D02*
X116613308Y-58253799D01*
X116899022Y-59253799D02*
X116899022Y-58253799D01*
X116327593Y-59206180D02*
X116184736Y-59253799D01*
X116184736Y-59253799D02*
X115946641Y-59253799D01*
X115946641Y-59253799D02*
X115851403Y-59206180D01*
X115851403Y-59206180D02*
X115803784Y-59158560D01*
X115803784Y-59158560D02*
X115756165Y-59063322D01*
X115756165Y-59063322D02*
X115756165Y-58968084D01*
X115756165Y-58968084D02*
X115803784Y-58872846D01*
X115803784Y-58872846D02*
X115851403Y-58825227D01*
X115851403Y-58825227D02*
X115946641Y-58777608D01*
X115946641Y-58777608D02*
X116137117Y-58729989D01*
X116137117Y-58729989D02*
X116232355Y-58682370D01*
X116232355Y-58682370D02*
X116279974Y-58634751D01*
X116279974Y-58634751D02*
X116327593Y-58539513D01*
X116327593Y-58539513D02*
X116327593Y-58444275D01*
X116327593Y-58444275D02*
X116279974Y-58349037D01*
X116279974Y-58349037D02*
X116232355Y-58301418D01*
X116232355Y-58301418D02*
X116137117Y-58253799D01*
X116137117Y-58253799D02*
X115899022Y-58253799D01*
X115899022Y-58253799D02*
X115756165Y-58301418D01*
X115422831Y-58253799D02*
X115184736Y-59253799D01*
X115184736Y-59253799D02*
X114994260Y-58539513D01*
X114994260Y-58539513D02*
X114803784Y-59253799D01*
X114803784Y-59253799D02*
X114565689Y-58253799D01*
X114184736Y-59253799D02*
X114184736Y-58253799D01*
X113851403Y-58253799D02*
X113279975Y-58253799D01*
X113565689Y-59253799D02*
X113565689Y-58253799D01*
X112375213Y-59158560D02*
X112422832Y-59206180D01*
X112422832Y-59206180D02*
X112565689Y-59253799D01*
X112565689Y-59253799D02*
X112660927Y-59253799D01*
X112660927Y-59253799D02*
X112803784Y-59206180D01*
X112803784Y-59206180D02*
X112899022Y-59110941D01*
X112899022Y-59110941D02*
X112946641Y-59015703D01*
X112946641Y-59015703D02*
X112994260Y-58825227D01*
X112994260Y-58825227D02*
X112994260Y-58682370D01*
X112994260Y-58682370D02*
X112946641Y-58491894D01*
X112946641Y-58491894D02*
X112899022Y-58396656D01*
X112899022Y-58396656D02*
X112803784Y-58301418D01*
X112803784Y-58301418D02*
X112660927Y-58253799D01*
X112660927Y-58253799D02*
X112565689Y-58253799D01*
X112565689Y-58253799D02*
X112422832Y-58301418D01*
X112422832Y-58301418D02*
X112375213Y-58349037D01*
X111946641Y-59253799D02*
X111946641Y-58253799D01*
X111946641Y-58729989D02*
X111375213Y-58729989D01*
X111375213Y-59253799D02*
X111375213Y-58253799D01*
X145029260Y-38648084D02*
X144553070Y-38648084D01*
X145124498Y-38933799D02*
X144791165Y-37933799D01*
X144791165Y-37933799D02*
X144457832Y-38933799D01*
X144124498Y-38933799D02*
X144124498Y-37933799D01*
X144124498Y-37933799D02*
X143553070Y-38933799D01*
X143553070Y-38933799D02*
X143553070Y-37933799D01*
X143219736Y-37933799D02*
X142648308Y-37933799D01*
X142934022Y-38933799D02*
X142934022Y-37933799D01*
X142362593Y-38886180D02*
X142219736Y-38933799D01*
X142219736Y-38933799D02*
X141981641Y-38933799D01*
X141981641Y-38933799D02*
X141886403Y-38886180D01*
X141886403Y-38886180D02*
X141838784Y-38838560D01*
X141838784Y-38838560D02*
X141791165Y-38743322D01*
X141791165Y-38743322D02*
X141791165Y-38648084D01*
X141791165Y-38648084D02*
X141838784Y-38552846D01*
X141838784Y-38552846D02*
X141886403Y-38505227D01*
X141886403Y-38505227D02*
X141981641Y-38457608D01*
X141981641Y-38457608D02*
X142172117Y-38409989D01*
X142172117Y-38409989D02*
X142267355Y-38362370D01*
X142267355Y-38362370D02*
X142314974Y-38314751D01*
X142314974Y-38314751D02*
X142362593Y-38219513D01*
X142362593Y-38219513D02*
X142362593Y-38124275D01*
X142362593Y-38124275D02*
X142314974Y-38029037D01*
X142314974Y-38029037D02*
X142267355Y-37981418D01*
X142267355Y-37981418D02*
X142172117Y-37933799D01*
X142172117Y-37933799D02*
X141934022Y-37933799D01*
X141934022Y-37933799D02*
X141791165Y-37981418D01*
X141457831Y-37933799D02*
X141219736Y-38933799D01*
X141219736Y-38933799D02*
X141029260Y-38219513D01*
X141029260Y-38219513D02*
X140838784Y-38933799D01*
X140838784Y-38933799D02*
X140600689Y-37933799D01*
X140219736Y-38933799D02*
X140219736Y-37933799D01*
X139886403Y-37933799D02*
X139314975Y-37933799D01*
X139600689Y-38933799D02*
X139600689Y-37933799D01*
X138410213Y-38838560D02*
X138457832Y-38886180D01*
X138457832Y-38886180D02*
X138600689Y-38933799D01*
X138600689Y-38933799D02*
X138695927Y-38933799D01*
X138695927Y-38933799D02*
X138838784Y-38886180D01*
X138838784Y-38886180D02*
X138934022Y-38790941D01*
X138934022Y-38790941D02*
X138981641Y-38695703D01*
X138981641Y-38695703D02*
X139029260Y-38505227D01*
X139029260Y-38505227D02*
X139029260Y-38362370D01*
X139029260Y-38362370D02*
X138981641Y-38171894D01*
X138981641Y-38171894D02*
X138934022Y-38076656D01*
X138934022Y-38076656D02*
X138838784Y-37981418D01*
X138838784Y-37981418D02*
X138695927Y-37933799D01*
X138695927Y-37933799D02*
X138600689Y-37933799D01*
X138600689Y-37933799D02*
X138457832Y-37981418D01*
X138457832Y-37981418D02*
X138410213Y-38029037D01*
X137981641Y-38933799D02*
X137981641Y-37933799D01*
X137981641Y-38409989D02*
X137410213Y-38409989D01*
X137410213Y-38933799D02*
X137410213Y-37933799D01*
X200315951Y-58822846D02*
X199554047Y-58822846D01*
X199934999Y-59203799D02*
X199934999Y-58441894D01*
X122210951Y-68982846D02*
X121449047Y-68982846D01*
X121829999Y-69363799D02*
X121829999Y-68601894D01*
X145076879Y-56047132D02*
X144838784Y-56713799D01*
X144838784Y-56713799D02*
X144600689Y-56047132D01*
X143695927Y-56713799D02*
X144267355Y-56713799D01*
X143981641Y-56713799D02*
X143981641Y-55713799D01*
X143981641Y-55713799D02*
X144076879Y-55856656D01*
X144076879Y-55856656D02*
X144172117Y-55951894D01*
X144172117Y-55951894D02*
X144267355Y-55999513D01*
X143267355Y-56618560D02*
X143219736Y-56666180D01*
X143219736Y-56666180D02*
X143267355Y-56713799D01*
X143267355Y-56713799D02*
X143314974Y-56666180D01*
X143314974Y-56666180D02*
X143267355Y-56618560D01*
X143267355Y-56618560D02*
X143267355Y-56713799D01*
X142600689Y-55713799D02*
X142505451Y-55713799D01*
X142505451Y-55713799D02*
X142410213Y-55761418D01*
X142410213Y-55761418D02*
X142362594Y-55809037D01*
X142362594Y-55809037D02*
X142314975Y-55904275D01*
X142314975Y-55904275D02*
X142267356Y-56094751D01*
X142267356Y-56094751D02*
X142267356Y-56332846D01*
X142267356Y-56332846D02*
X142314975Y-56523322D01*
X142314975Y-56523322D02*
X142362594Y-56618560D01*
X142362594Y-56618560D02*
X142410213Y-56666180D01*
X142410213Y-56666180D02*
X142505451Y-56713799D01*
X142505451Y-56713799D02*
X142600689Y-56713799D01*
X142600689Y-56713799D02*
X142695927Y-56666180D01*
X142695927Y-56666180D02*
X142743546Y-56618560D01*
X142743546Y-56618560D02*
X142791165Y-56523322D01*
X142791165Y-56523322D02*
X142838784Y-56332846D01*
X142838784Y-56332846D02*
X142838784Y-56094751D01*
X142838784Y-56094751D02*
X142791165Y-55904275D01*
X142791165Y-55904275D02*
X142743546Y-55809037D01*
X142743546Y-55809037D02*
X142695927Y-55761418D01*
X142695927Y-55761418D02*
X142600689Y-55713799D01*
X148245951Y-107082846D02*
X147484047Y-107082846D01*
X118994260Y-69128084D02*
X118518070Y-69128084D01*
X119089498Y-69413799D02*
X118756165Y-68413799D01*
X118756165Y-68413799D02*
X118422832Y-69413799D01*
X118089498Y-69413799D02*
X118089498Y-68413799D01*
X118089498Y-68413799D02*
X117518070Y-69413799D01*
X117518070Y-69413799D02*
X117518070Y-68413799D01*
X117184736Y-68413799D02*
X116613308Y-68413799D01*
X116899022Y-69413799D02*
X116899022Y-68413799D01*
X116327593Y-69366180D02*
X116184736Y-69413799D01*
X116184736Y-69413799D02*
X115946641Y-69413799D01*
X115946641Y-69413799D02*
X115851403Y-69366180D01*
X115851403Y-69366180D02*
X115803784Y-69318560D01*
X115803784Y-69318560D02*
X115756165Y-69223322D01*
X115756165Y-69223322D02*
X115756165Y-69128084D01*
X115756165Y-69128084D02*
X115803784Y-69032846D01*
X115803784Y-69032846D02*
X115851403Y-68985227D01*
X115851403Y-68985227D02*
X115946641Y-68937608D01*
X115946641Y-68937608D02*
X116137117Y-68889989D01*
X116137117Y-68889989D02*
X116232355Y-68842370D01*
X116232355Y-68842370D02*
X116279974Y-68794751D01*
X116279974Y-68794751D02*
X116327593Y-68699513D01*
X116327593Y-68699513D02*
X116327593Y-68604275D01*
X116327593Y-68604275D02*
X116279974Y-68509037D01*
X116279974Y-68509037D02*
X116232355Y-68461418D01*
X116232355Y-68461418D02*
X116137117Y-68413799D01*
X116137117Y-68413799D02*
X115899022Y-68413799D01*
X115899022Y-68413799D02*
X115756165Y-68461418D01*
X115422831Y-68413799D02*
X115184736Y-69413799D01*
X115184736Y-69413799D02*
X114994260Y-68699513D01*
X114994260Y-68699513D02*
X114803784Y-69413799D01*
X114803784Y-69413799D02*
X114565689Y-68413799D01*
X114184736Y-69413799D02*
X114184736Y-68413799D01*
X113851403Y-68413799D02*
X113279975Y-68413799D01*
X113565689Y-69413799D02*
X113565689Y-68413799D01*
X112375213Y-69318560D02*
X112422832Y-69366180D01*
X112422832Y-69366180D02*
X112565689Y-69413799D01*
X112565689Y-69413799D02*
X112660927Y-69413799D01*
X112660927Y-69413799D02*
X112803784Y-69366180D01*
X112803784Y-69366180D02*
X112899022Y-69270941D01*
X112899022Y-69270941D02*
X112946641Y-69175703D01*
X112946641Y-69175703D02*
X112994260Y-68985227D01*
X112994260Y-68985227D02*
X112994260Y-68842370D01*
X112994260Y-68842370D02*
X112946641Y-68651894D01*
X112946641Y-68651894D02*
X112899022Y-68556656D01*
X112899022Y-68556656D02*
X112803784Y-68461418D01*
X112803784Y-68461418D02*
X112660927Y-68413799D01*
X112660927Y-68413799D02*
X112565689Y-68413799D01*
X112565689Y-68413799D02*
X112422832Y-68461418D01*
X112422832Y-68461418D02*
X112375213Y-68509037D01*
X111946641Y-69413799D02*
X111946641Y-68413799D01*
X111946641Y-68889989D02*
X111375213Y-68889989D01*
X111375213Y-69413799D02*
X111375213Y-68413799D01*
X118994260Y-89448084D02*
X118518070Y-89448084D01*
X119089498Y-89733799D02*
X118756165Y-88733799D01*
X118756165Y-88733799D02*
X118422832Y-89733799D01*
X118089498Y-89733799D02*
X118089498Y-88733799D01*
X118089498Y-88733799D02*
X117518070Y-89733799D01*
X117518070Y-89733799D02*
X117518070Y-88733799D01*
X117184736Y-88733799D02*
X116613308Y-88733799D01*
X116899022Y-89733799D02*
X116899022Y-88733799D01*
X116327593Y-89686180D02*
X116184736Y-89733799D01*
X116184736Y-89733799D02*
X115946641Y-89733799D01*
X115946641Y-89733799D02*
X115851403Y-89686180D01*
X115851403Y-89686180D02*
X115803784Y-89638560D01*
X115803784Y-89638560D02*
X115756165Y-89543322D01*
X115756165Y-89543322D02*
X115756165Y-89448084D01*
X115756165Y-89448084D02*
X115803784Y-89352846D01*
X115803784Y-89352846D02*
X115851403Y-89305227D01*
X115851403Y-89305227D02*
X115946641Y-89257608D01*
X115946641Y-89257608D02*
X116137117Y-89209989D01*
X116137117Y-89209989D02*
X116232355Y-89162370D01*
X116232355Y-89162370D02*
X116279974Y-89114751D01*
X116279974Y-89114751D02*
X116327593Y-89019513D01*
X116327593Y-89019513D02*
X116327593Y-88924275D01*
X116327593Y-88924275D02*
X116279974Y-88829037D01*
X116279974Y-88829037D02*
X116232355Y-88781418D01*
X116232355Y-88781418D02*
X116137117Y-88733799D01*
X116137117Y-88733799D02*
X115899022Y-88733799D01*
X115899022Y-88733799D02*
X115756165Y-88781418D01*
X115422831Y-88733799D02*
X115184736Y-89733799D01*
X115184736Y-89733799D02*
X114994260Y-89019513D01*
X114994260Y-89019513D02*
X114803784Y-89733799D01*
X114803784Y-89733799D02*
X114565689Y-88733799D01*
X114184736Y-89733799D02*
X114184736Y-88733799D01*
X113851403Y-88733799D02*
X113279975Y-88733799D01*
X113565689Y-89733799D02*
X113565689Y-88733799D01*
X112375213Y-89638560D02*
X112422832Y-89686180D01*
X112422832Y-89686180D02*
X112565689Y-89733799D01*
X112565689Y-89733799D02*
X112660927Y-89733799D01*
X112660927Y-89733799D02*
X112803784Y-89686180D01*
X112803784Y-89686180D02*
X112899022Y-89590941D01*
X112899022Y-89590941D02*
X112946641Y-89495703D01*
X112946641Y-89495703D02*
X112994260Y-89305227D01*
X112994260Y-89305227D02*
X112994260Y-89162370D01*
X112994260Y-89162370D02*
X112946641Y-88971894D01*
X112946641Y-88971894D02*
X112899022Y-88876656D01*
X112899022Y-88876656D02*
X112803784Y-88781418D01*
X112803784Y-88781418D02*
X112660927Y-88733799D01*
X112660927Y-88733799D02*
X112565689Y-88733799D01*
X112565689Y-88733799D02*
X112422832Y-88781418D01*
X112422832Y-88781418D02*
X112375213Y-88829037D01*
X111946641Y-89733799D02*
X111946641Y-88733799D01*
X111946641Y-89209989D02*
X111375213Y-89209989D01*
X111375213Y-89733799D02*
X111375213Y-88733799D01*
X200315951Y-96922846D02*
X199554047Y-96922846D01*
X145029260Y-28488084D02*
X144553070Y-28488084D01*
X145124498Y-28773799D02*
X144791165Y-27773799D01*
X144791165Y-27773799D02*
X144457832Y-28773799D01*
X144124498Y-28773799D02*
X144124498Y-27773799D01*
X144124498Y-27773799D02*
X143553070Y-28773799D01*
X143553070Y-28773799D02*
X143553070Y-27773799D01*
X143219736Y-27773799D02*
X142648308Y-27773799D01*
X142934022Y-28773799D02*
X142934022Y-27773799D01*
X142362593Y-28726180D02*
X142219736Y-28773799D01*
X142219736Y-28773799D02*
X141981641Y-28773799D01*
X141981641Y-28773799D02*
X141886403Y-28726180D01*
X141886403Y-28726180D02*
X141838784Y-28678560D01*
X141838784Y-28678560D02*
X141791165Y-28583322D01*
X141791165Y-28583322D02*
X141791165Y-28488084D01*
X141791165Y-28488084D02*
X141838784Y-28392846D01*
X141838784Y-28392846D02*
X141886403Y-28345227D01*
X141886403Y-28345227D02*
X141981641Y-28297608D01*
X141981641Y-28297608D02*
X142172117Y-28249989D01*
X142172117Y-28249989D02*
X142267355Y-28202370D01*
X142267355Y-28202370D02*
X142314974Y-28154751D01*
X142314974Y-28154751D02*
X142362593Y-28059513D01*
X142362593Y-28059513D02*
X142362593Y-27964275D01*
X142362593Y-27964275D02*
X142314974Y-27869037D01*
X142314974Y-27869037D02*
X142267355Y-27821418D01*
X142267355Y-27821418D02*
X142172117Y-27773799D01*
X142172117Y-27773799D02*
X141934022Y-27773799D01*
X141934022Y-27773799D02*
X141791165Y-27821418D01*
X141457831Y-27773799D02*
X141219736Y-28773799D01*
X141219736Y-28773799D02*
X141029260Y-28059513D01*
X141029260Y-28059513D02*
X140838784Y-28773799D01*
X140838784Y-28773799D02*
X140600689Y-27773799D01*
X140219736Y-28773799D02*
X140219736Y-27773799D01*
X139886403Y-27773799D02*
X139314975Y-27773799D01*
X139600689Y-28773799D02*
X139600689Y-27773799D01*
X138410213Y-28678560D02*
X138457832Y-28726180D01*
X138457832Y-28726180D02*
X138600689Y-28773799D01*
X138600689Y-28773799D02*
X138695927Y-28773799D01*
X138695927Y-28773799D02*
X138838784Y-28726180D01*
X138838784Y-28726180D02*
X138934022Y-28630941D01*
X138934022Y-28630941D02*
X138981641Y-28535703D01*
X138981641Y-28535703D02*
X139029260Y-28345227D01*
X139029260Y-28345227D02*
X139029260Y-28202370D01*
X139029260Y-28202370D02*
X138981641Y-28011894D01*
X138981641Y-28011894D02*
X138934022Y-27916656D01*
X138934022Y-27916656D02*
X138838784Y-27821418D01*
X138838784Y-27821418D02*
X138695927Y-27773799D01*
X138695927Y-27773799D02*
X138600689Y-27773799D01*
X138600689Y-27773799D02*
X138457832Y-27821418D01*
X138457832Y-27821418D02*
X138410213Y-27869037D01*
X137981641Y-28773799D02*
X137981641Y-27773799D01*
X137981641Y-28249989D02*
X137410213Y-28249989D01*
X137410213Y-28773799D02*
X137410213Y-27773799D01*
X197099260Y-89448084D02*
X196623070Y-89448084D01*
X197194498Y-89733799D02*
X196861165Y-88733799D01*
X196861165Y-88733799D02*
X196527832Y-89733799D01*
X196194498Y-89733799D02*
X196194498Y-88733799D01*
X196194498Y-88733799D02*
X195623070Y-89733799D01*
X195623070Y-89733799D02*
X195623070Y-88733799D01*
X195289736Y-88733799D02*
X194718308Y-88733799D01*
X195004022Y-89733799D02*
X195004022Y-88733799D01*
X194432593Y-89686180D02*
X194289736Y-89733799D01*
X194289736Y-89733799D02*
X194051641Y-89733799D01*
X194051641Y-89733799D02*
X193956403Y-89686180D01*
X193956403Y-89686180D02*
X193908784Y-89638560D01*
X193908784Y-89638560D02*
X193861165Y-89543322D01*
X193861165Y-89543322D02*
X193861165Y-89448084D01*
X193861165Y-89448084D02*
X193908784Y-89352846D01*
X193908784Y-89352846D02*
X193956403Y-89305227D01*
X193956403Y-89305227D02*
X194051641Y-89257608D01*
X194051641Y-89257608D02*
X194242117Y-89209989D01*
X194242117Y-89209989D02*
X194337355Y-89162370D01*
X194337355Y-89162370D02*
X194384974Y-89114751D01*
X194384974Y-89114751D02*
X194432593Y-89019513D01*
X194432593Y-89019513D02*
X194432593Y-88924275D01*
X194432593Y-88924275D02*
X194384974Y-88829037D01*
X194384974Y-88829037D02*
X194337355Y-88781418D01*
X194337355Y-88781418D02*
X194242117Y-88733799D01*
X194242117Y-88733799D02*
X194004022Y-88733799D01*
X194004022Y-88733799D02*
X193861165Y-88781418D01*
X193527831Y-88733799D02*
X193289736Y-89733799D01*
X193289736Y-89733799D02*
X193099260Y-89019513D01*
X193099260Y-89019513D02*
X192908784Y-89733799D01*
X192908784Y-89733799D02*
X192670689Y-88733799D01*
X192289736Y-89733799D02*
X192289736Y-88733799D01*
X191956403Y-88733799D02*
X191384975Y-88733799D01*
X191670689Y-89733799D02*
X191670689Y-88733799D01*
X190480213Y-89638560D02*
X190527832Y-89686180D01*
X190527832Y-89686180D02*
X190670689Y-89733799D01*
X190670689Y-89733799D02*
X190765927Y-89733799D01*
X190765927Y-89733799D02*
X190908784Y-89686180D01*
X190908784Y-89686180D02*
X191004022Y-89590941D01*
X191004022Y-89590941D02*
X191051641Y-89495703D01*
X191051641Y-89495703D02*
X191099260Y-89305227D01*
X191099260Y-89305227D02*
X191099260Y-89162370D01*
X191099260Y-89162370D02*
X191051641Y-88971894D01*
X191051641Y-88971894D02*
X191004022Y-88876656D01*
X191004022Y-88876656D02*
X190908784Y-88781418D01*
X190908784Y-88781418D02*
X190765927Y-88733799D01*
X190765927Y-88733799D02*
X190670689Y-88733799D01*
X190670689Y-88733799D02*
X190527832Y-88781418D01*
X190527832Y-88781418D02*
X190480213Y-88829037D01*
X190051641Y-89733799D02*
X190051641Y-88733799D01*
X190051641Y-89209989D02*
X189480213Y-89209989D01*
X189480213Y-89733799D02*
X189480213Y-88733799D01*
X174280951Y-89302846D02*
X173519047Y-89302846D01*
X173899999Y-89683799D02*
X173899999Y-88921894D01*
X174280951Y-28342846D02*
X173519047Y-28342846D01*
X173899999Y-28723799D02*
X173899999Y-27961894D01*
X118994260Y-79288084D02*
X118518070Y-79288084D01*
X119089498Y-79573799D02*
X118756165Y-78573799D01*
X118756165Y-78573799D02*
X118422832Y-79573799D01*
X118089498Y-79573799D02*
X118089498Y-78573799D01*
X118089498Y-78573799D02*
X117518070Y-79573799D01*
X117518070Y-79573799D02*
X117518070Y-78573799D01*
X117184736Y-78573799D02*
X116613308Y-78573799D01*
X116899022Y-79573799D02*
X116899022Y-78573799D01*
X116327593Y-79526180D02*
X116184736Y-79573799D01*
X116184736Y-79573799D02*
X115946641Y-79573799D01*
X115946641Y-79573799D02*
X115851403Y-79526180D01*
X115851403Y-79526180D02*
X115803784Y-79478560D01*
X115803784Y-79478560D02*
X115756165Y-79383322D01*
X115756165Y-79383322D02*
X115756165Y-79288084D01*
X115756165Y-79288084D02*
X115803784Y-79192846D01*
X115803784Y-79192846D02*
X115851403Y-79145227D01*
X115851403Y-79145227D02*
X115946641Y-79097608D01*
X115946641Y-79097608D02*
X116137117Y-79049989D01*
X116137117Y-79049989D02*
X116232355Y-79002370D01*
X116232355Y-79002370D02*
X116279974Y-78954751D01*
X116279974Y-78954751D02*
X116327593Y-78859513D01*
X116327593Y-78859513D02*
X116327593Y-78764275D01*
X116327593Y-78764275D02*
X116279974Y-78669037D01*
X116279974Y-78669037D02*
X116232355Y-78621418D01*
X116232355Y-78621418D02*
X116137117Y-78573799D01*
X116137117Y-78573799D02*
X115899022Y-78573799D01*
X115899022Y-78573799D02*
X115756165Y-78621418D01*
X115422831Y-78573799D02*
X115184736Y-79573799D01*
X115184736Y-79573799D02*
X114994260Y-78859513D01*
X114994260Y-78859513D02*
X114803784Y-79573799D01*
X114803784Y-79573799D02*
X114565689Y-78573799D01*
X114184736Y-79573799D02*
X114184736Y-78573799D01*
X113851403Y-78573799D02*
X113279975Y-78573799D01*
X113565689Y-79573799D02*
X113565689Y-78573799D01*
X112375213Y-79478560D02*
X112422832Y-79526180D01*
X112422832Y-79526180D02*
X112565689Y-79573799D01*
X112565689Y-79573799D02*
X112660927Y-79573799D01*
X112660927Y-79573799D02*
X112803784Y-79526180D01*
X112803784Y-79526180D02*
X112899022Y-79430941D01*
X112899022Y-79430941D02*
X112946641Y-79335703D01*
X112946641Y-79335703D02*
X112994260Y-79145227D01*
X112994260Y-79145227D02*
X112994260Y-79002370D01*
X112994260Y-79002370D02*
X112946641Y-78811894D01*
X112946641Y-78811894D02*
X112899022Y-78716656D01*
X112899022Y-78716656D02*
X112803784Y-78621418D01*
X112803784Y-78621418D02*
X112660927Y-78573799D01*
X112660927Y-78573799D02*
X112565689Y-78573799D01*
X112565689Y-78573799D02*
X112422832Y-78621418D01*
X112422832Y-78621418D02*
X112375213Y-78669037D01*
X111946641Y-79573799D02*
X111946641Y-78573799D01*
X111946641Y-79049989D02*
X111375213Y-79049989D01*
X111375213Y-79573799D02*
X111375213Y-78573799D01*
X122210951Y-66442846D02*
X121449047Y-66442846D01*
X145076879Y-35727132D02*
X144838784Y-36393799D01*
X144838784Y-36393799D02*
X144600689Y-35727132D01*
X143695927Y-36393799D02*
X144267355Y-36393799D01*
X143981641Y-36393799D02*
X143981641Y-35393799D01*
X143981641Y-35393799D02*
X144076879Y-35536656D01*
X144076879Y-35536656D02*
X144172117Y-35631894D01*
X144172117Y-35631894D02*
X144267355Y-35679513D01*
X143267355Y-36298560D02*
X143219736Y-36346180D01*
X143219736Y-36346180D02*
X143267355Y-36393799D01*
X143267355Y-36393799D02*
X143314974Y-36346180D01*
X143314974Y-36346180D02*
X143267355Y-36298560D01*
X143267355Y-36298560D02*
X143267355Y-36393799D01*
X142600689Y-35393799D02*
X142505451Y-35393799D01*
X142505451Y-35393799D02*
X142410213Y-35441418D01*
X142410213Y-35441418D02*
X142362594Y-35489037D01*
X142362594Y-35489037D02*
X142314975Y-35584275D01*
X142314975Y-35584275D02*
X142267356Y-35774751D01*
X142267356Y-35774751D02*
X142267356Y-36012846D01*
X142267356Y-36012846D02*
X142314975Y-36203322D01*
X142314975Y-36203322D02*
X142362594Y-36298560D01*
X142362594Y-36298560D02*
X142410213Y-36346180D01*
X142410213Y-36346180D02*
X142505451Y-36393799D01*
X142505451Y-36393799D02*
X142600689Y-36393799D01*
X142600689Y-36393799D02*
X142695927Y-36346180D01*
X142695927Y-36346180D02*
X142743546Y-36298560D01*
X142743546Y-36298560D02*
X142791165Y-36203322D01*
X142791165Y-36203322D02*
X142838784Y-36012846D01*
X142838784Y-36012846D02*
X142838784Y-35774751D01*
X142838784Y-35774751D02*
X142791165Y-35584275D01*
X142791165Y-35584275D02*
X142743546Y-35489037D01*
X142743546Y-35489037D02*
X142695927Y-35441418D01*
X142695927Y-35441418D02*
X142600689Y-35393799D01*
X122210951Y-48662846D02*
X121449047Y-48662846D01*
X121829999Y-49043799D02*
X121829999Y-48281894D01*
X171111879Y-45887132D02*
X170873784Y-46553799D01*
X170873784Y-46553799D02*
X170635689Y-45887132D01*
X169730927Y-46553799D02*
X170302355Y-46553799D01*
X170016641Y-46553799D02*
X170016641Y-45553799D01*
X170016641Y-45553799D02*
X170111879Y-45696656D01*
X170111879Y-45696656D02*
X170207117Y-45791894D01*
X170207117Y-45791894D02*
X170302355Y-45839513D01*
X169302355Y-46458560D02*
X169254736Y-46506180D01*
X169254736Y-46506180D02*
X169302355Y-46553799D01*
X169302355Y-46553799D02*
X169349974Y-46506180D01*
X169349974Y-46506180D02*
X169302355Y-46458560D01*
X169302355Y-46458560D02*
X169302355Y-46553799D01*
X168635689Y-45553799D02*
X168540451Y-45553799D01*
X168540451Y-45553799D02*
X168445213Y-45601418D01*
X168445213Y-45601418D02*
X168397594Y-45649037D01*
X168397594Y-45649037D02*
X168349975Y-45744275D01*
X168349975Y-45744275D02*
X168302356Y-45934751D01*
X168302356Y-45934751D02*
X168302356Y-46172846D01*
X168302356Y-46172846D02*
X168349975Y-46363322D01*
X168349975Y-46363322D02*
X168397594Y-46458560D01*
X168397594Y-46458560D02*
X168445213Y-46506180D01*
X168445213Y-46506180D02*
X168540451Y-46553799D01*
X168540451Y-46553799D02*
X168635689Y-46553799D01*
X168635689Y-46553799D02*
X168730927Y-46506180D01*
X168730927Y-46506180D02*
X168778546Y-46458560D01*
X168778546Y-46458560D02*
X168826165Y-46363322D01*
X168826165Y-46363322D02*
X168873784Y-46172846D01*
X168873784Y-46172846D02*
X168873784Y-45934751D01*
X168873784Y-45934751D02*
X168826165Y-45744275D01*
X168826165Y-45744275D02*
X168778546Y-45649037D01*
X168778546Y-45649037D02*
X168730927Y-45601418D01*
X168730927Y-45601418D02*
X168635689Y-45553799D01*
X174280951Y-96922846D02*
X173519047Y-96922846D01*
X197146879Y-56047132D02*
X196908784Y-56713799D01*
X196908784Y-56713799D02*
X196670689Y-56047132D01*
X195765927Y-56713799D02*
X196337355Y-56713799D01*
X196051641Y-56713799D02*
X196051641Y-55713799D01*
X196051641Y-55713799D02*
X196146879Y-55856656D01*
X196146879Y-55856656D02*
X196242117Y-55951894D01*
X196242117Y-55951894D02*
X196337355Y-55999513D01*
X195337355Y-56618560D02*
X195289736Y-56666180D01*
X195289736Y-56666180D02*
X195337355Y-56713799D01*
X195337355Y-56713799D02*
X195384974Y-56666180D01*
X195384974Y-56666180D02*
X195337355Y-56618560D01*
X195337355Y-56618560D02*
X195337355Y-56713799D01*
X194670689Y-55713799D02*
X194575451Y-55713799D01*
X194575451Y-55713799D02*
X194480213Y-55761418D01*
X194480213Y-55761418D02*
X194432594Y-55809037D01*
X194432594Y-55809037D02*
X194384975Y-55904275D01*
X194384975Y-55904275D02*
X194337356Y-56094751D01*
X194337356Y-56094751D02*
X194337356Y-56332846D01*
X194337356Y-56332846D02*
X194384975Y-56523322D01*
X194384975Y-56523322D02*
X194432594Y-56618560D01*
X194432594Y-56618560D02*
X194480213Y-56666180D01*
X194480213Y-56666180D02*
X194575451Y-56713799D01*
X194575451Y-56713799D02*
X194670689Y-56713799D01*
X194670689Y-56713799D02*
X194765927Y-56666180D01*
X194765927Y-56666180D02*
X194813546Y-56618560D01*
X194813546Y-56618560D02*
X194861165Y-56523322D01*
X194861165Y-56523322D02*
X194908784Y-56332846D01*
X194908784Y-56332846D02*
X194908784Y-56094751D01*
X194908784Y-56094751D02*
X194861165Y-55904275D01*
X194861165Y-55904275D02*
X194813546Y-55809037D01*
X194813546Y-55809037D02*
X194765927Y-55761418D01*
X194765927Y-55761418D02*
X194670689Y-55713799D01*
X122210951Y-99462846D02*
X121449047Y-99462846D01*
X121829999Y-99843799D02*
X121829999Y-99081894D01*
X171111879Y-66207132D02*
X170873784Y-66873799D01*
X170873784Y-66873799D02*
X170635689Y-66207132D01*
X169730927Y-66873799D02*
X170302355Y-66873799D01*
X170016641Y-66873799D02*
X170016641Y-65873799D01*
X170016641Y-65873799D02*
X170111879Y-66016656D01*
X170111879Y-66016656D02*
X170207117Y-66111894D01*
X170207117Y-66111894D02*
X170302355Y-66159513D01*
X169302355Y-66778560D02*
X169254736Y-66826180D01*
X169254736Y-66826180D02*
X169302355Y-66873799D01*
X169302355Y-66873799D02*
X169349974Y-66826180D01*
X169349974Y-66826180D02*
X169302355Y-66778560D01*
X169302355Y-66778560D02*
X169302355Y-66873799D01*
X168635689Y-65873799D02*
X168540451Y-65873799D01*
X168540451Y-65873799D02*
X168445213Y-65921418D01*
X168445213Y-65921418D02*
X168397594Y-65969037D01*
X168397594Y-65969037D02*
X168349975Y-66064275D01*
X168349975Y-66064275D02*
X168302356Y-66254751D01*
X168302356Y-66254751D02*
X168302356Y-66492846D01*
X168302356Y-66492846D02*
X168349975Y-66683322D01*
X168349975Y-66683322D02*
X168397594Y-66778560D01*
X168397594Y-66778560D02*
X168445213Y-66826180D01*
X168445213Y-66826180D02*
X168540451Y-66873799D01*
X168540451Y-66873799D02*
X168635689Y-66873799D01*
X168635689Y-66873799D02*
X168730927Y-66826180D01*
X168730927Y-66826180D02*
X168778546Y-66778560D01*
X168778546Y-66778560D02*
X168826165Y-66683322D01*
X168826165Y-66683322D02*
X168873784Y-66492846D01*
X168873784Y-66492846D02*
X168873784Y-66254751D01*
X168873784Y-66254751D02*
X168826165Y-66064275D01*
X168826165Y-66064275D02*
X168778546Y-65969037D01*
X168778546Y-65969037D02*
X168730927Y-65921418D01*
X168730927Y-65921418D02*
X168635689Y-65873799D01*
X145029260Y-69128084D02*
X144553070Y-69128084D01*
X145124498Y-69413799D02*
X144791165Y-68413799D01*
X144791165Y-68413799D02*
X144457832Y-69413799D01*
X144124498Y-69413799D02*
X144124498Y-68413799D01*
X144124498Y-68413799D02*
X143553070Y-69413799D01*
X143553070Y-69413799D02*
X143553070Y-68413799D01*
X143219736Y-68413799D02*
X142648308Y-68413799D01*
X142934022Y-69413799D02*
X142934022Y-68413799D01*
X142362593Y-69366180D02*
X142219736Y-69413799D01*
X142219736Y-69413799D02*
X141981641Y-69413799D01*
X141981641Y-69413799D02*
X141886403Y-69366180D01*
X141886403Y-69366180D02*
X141838784Y-69318560D01*
X141838784Y-69318560D02*
X141791165Y-69223322D01*
X141791165Y-69223322D02*
X141791165Y-69128084D01*
X141791165Y-69128084D02*
X141838784Y-69032846D01*
X141838784Y-69032846D02*
X141886403Y-68985227D01*
X141886403Y-68985227D02*
X141981641Y-68937608D01*
X141981641Y-68937608D02*
X142172117Y-68889989D01*
X142172117Y-68889989D02*
X142267355Y-68842370D01*
X142267355Y-68842370D02*
X142314974Y-68794751D01*
X142314974Y-68794751D02*
X142362593Y-68699513D01*
X142362593Y-68699513D02*
X142362593Y-68604275D01*
X142362593Y-68604275D02*
X142314974Y-68509037D01*
X142314974Y-68509037D02*
X142267355Y-68461418D01*
X142267355Y-68461418D02*
X142172117Y-68413799D01*
X142172117Y-68413799D02*
X141934022Y-68413799D01*
X141934022Y-68413799D02*
X141791165Y-68461418D01*
X141457831Y-68413799D02*
X141219736Y-69413799D01*
X141219736Y-69413799D02*
X141029260Y-68699513D01*
X141029260Y-68699513D02*
X140838784Y-69413799D01*
X140838784Y-69413799D02*
X140600689Y-68413799D01*
X140219736Y-69413799D02*
X140219736Y-68413799D01*
X139886403Y-68413799D02*
X139314975Y-68413799D01*
X139600689Y-69413799D02*
X139600689Y-68413799D01*
X138410213Y-69318560D02*
X138457832Y-69366180D01*
X138457832Y-69366180D02*
X138600689Y-69413799D01*
X138600689Y-69413799D02*
X138695927Y-69413799D01*
X138695927Y-69413799D02*
X138838784Y-69366180D01*
X138838784Y-69366180D02*
X138934022Y-69270941D01*
X138934022Y-69270941D02*
X138981641Y-69175703D01*
X138981641Y-69175703D02*
X139029260Y-68985227D01*
X139029260Y-68985227D02*
X139029260Y-68842370D01*
X139029260Y-68842370D02*
X138981641Y-68651894D01*
X138981641Y-68651894D02*
X138934022Y-68556656D01*
X138934022Y-68556656D02*
X138838784Y-68461418D01*
X138838784Y-68461418D02*
X138695927Y-68413799D01*
X138695927Y-68413799D02*
X138600689Y-68413799D01*
X138600689Y-68413799D02*
X138457832Y-68461418D01*
X138457832Y-68461418D02*
X138410213Y-68509037D01*
X137981641Y-69413799D02*
X137981641Y-68413799D01*
X137981641Y-68889989D02*
X137410213Y-68889989D01*
X137410213Y-69413799D02*
X137410213Y-68413799D01*
X118994260Y-48808084D02*
X118518070Y-48808084D01*
X119089498Y-49093799D02*
X118756165Y-48093799D01*
X118756165Y-48093799D02*
X118422832Y-49093799D01*
X118089498Y-49093799D02*
X118089498Y-48093799D01*
X118089498Y-48093799D02*
X117518070Y-49093799D01*
X117518070Y-49093799D02*
X117518070Y-48093799D01*
X117184736Y-48093799D02*
X116613308Y-48093799D01*
X116899022Y-49093799D02*
X116899022Y-48093799D01*
X116327593Y-49046180D02*
X116184736Y-49093799D01*
X116184736Y-49093799D02*
X115946641Y-49093799D01*
X115946641Y-49093799D02*
X115851403Y-49046180D01*
X115851403Y-49046180D02*
X115803784Y-48998560D01*
X115803784Y-48998560D02*
X115756165Y-48903322D01*
X115756165Y-48903322D02*
X115756165Y-48808084D01*
X115756165Y-48808084D02*
X115803784Y-48712846D01*
X115803784Y-48712846D02*
X115851403Y-48665227D01*
X115851403Y-48665227D02*
X115946641Y-48617608D01*
X115946641Y-48617608D02*
X116137117Y-48569989D01*
X116137117Y-48569989D02*
X116232355Y-48522370D01*
X116232355Y-48522370D02*
X116279974Y-48474751D01*
X116279974Y-48474751D02*
X116327593Y-48379513D01*
X116327593Y-48379513D02*
X116327593Y-48284275D01*
X116327593Y-48284275D02*
X116279974Y-48189037D01*
X116279974Y-48189037D02*
X116232355Y-48141418D01*
X116232355Y-48141418D02*
X116137117Y-48093799D01*
X116137117Y-48093799D02*
X115899022Y-48093799D01*
X115899022Y-48093799D02*
X115756165Y-48141418D01*
X115422831Y-48093799D02*
X115184736Y-49093799D01*
X115184736Y-49093799D02*
X114994260Y-48379513D01*
X114994260Y-48379513D02*
X114803784Y-49093799D01*
X114803784Y-49093799D02*
X114565689Y-48093799D01*
X114184736Y-49093799D02*
X114184736Y-48093799D01*
X113851403Y-48093799D02*
X113279975Y-48093799D01*
X113565689Y-49093799D02*
X113565689Y-48093799D01*
X112375213Y-48998560D02*
X112422832Y-49046180D01*
X112422832Y-49046180D02*
X112565689Y-49093799D01*
X112565689Y-49093799D02*
X112660927Y-49093799D01*
X112660927Y-49093799D02*
X112803784Y-49046180D01*
X112803784Y-49046180D02*
X112899022Y-48950941D01*
X112899022Y-48950941D02*
X112946641Y-48855703D01*
X112946641Y-48855703D02*
X112994260Y-48665227D01*
X112994260Y-48665227D02*
X112994260Y-48522370D01*
X112994260Y-48522370D02*
X112946641Y-48331894D01*
X112946641Y-48331894D02*
X112899022Y-48236656D01*
X112899022Y-48236656D02*
X112803784Y-48141418D01*
X112803784Y-48141418D02*
X112660927Y-48093799D01*
X112660927Y-48093799D02*
X112565689Y-48093799D01*
X112565689Y-48093799D02*
X112422832Y-48141418D01*
X112422832Y-48141418D02*
X112375213Y-48189037D01*
X111946641Y-49093799D02*
X111946641Y-48093799D01*
X111946641Y-48569989D02*
X111375213Y-48569989D01*
X111375213Y-49093799D02*
X111375213Y-48093799D01*
X119041879Y-76367132D02*
X118803784Y-77033799D01*
X118803784Y-77033799D02*
X118565689Y-76367132D01*
X117660927Y-77033799D02*
X118232355Y-77033799D01*
X117946641Y-77033799D02*
X117946641Y-76033799D01*
X117946641Y-76033799D02*
X118041879Y-76176656D01*
X118041879Y-76176656D02*
X118137117Y-76271894D01*
X118137117Y-76271894D02*
X118232355Y-76319513D01*
X117232355Y-76938560D02*
X117184736Y-76986180D01*
X117184736Y-76986180D02*
X117232355Y-77033799D01*
X117232355Y-77033799D02*
X117279974Y-76986180D01*
X117279974Y-76986180D02*
X117232355Y-76938560D01*
X117232355Y-76938560D02*
X117232355Y-77033799D01*
X116565689Y-76033799D02*
X116470451Y-76033799D01*
X116470451Y-76033799D02*
X116375213Y-76081418D01*
X116375213Y-76081418D02*
X116327594Y-76129037D01*
X116327594Y-76129037D02*
X116279975Y-76224275D01*
X116279975Y-76224275D02*
X116232356Y-76414751D01*
X116232356Y-76414751D02*
X116232356Y-76652846D01*
X116232356Y-76652846D02*
X116279975Y-76843322D01*
X116279975Y-76843322D02*
X116327594Y-76938560D01*
X116327594Y-76938560D02*
X116375213Y-76986180D01*
X116375213Y-76986180D02*
X116470451Y-77033799D01*
X116470451Y-77033799D02*
X116565689Y-77033799D01*
X116565689Y-77033799D02*
X116660927Y-76986180D01*
X116660927Y-76986180D02*
X116708546Y-76938560D01*
X116708546Y-76938560D02*
X116756165Y-76843322D01*
X116756165Y-76843322D02*
X116803784Y-76652846D01*
X116803784Y-76652846D02*
X116803784Y-76414751D01*
X116803784Y-76414751D02*
X116756165Y-76224275D01*
X116756165Y-76224275D02*
X116708546Y-76129037D01*
X116708546Y-76129037D02*
X116660927Y-76081418D01*
X116660927Y-76081418D02*
X116565689Y-76033799D01*
X118994260Y-99608084D02*
X118518070Y-99608084D01*
X119089498Y-99893799D02*
X118756165Y-98893799D01*
X118756165Y-98893799D02*
X118422832Y-99893799D01*
X118089498Y-99893799D02*
X118089498Y-98893799D01*
X118089498Y-98893799D02*
X117518070Y-99893799D01*
X117518070Y-99893799D02*
X117518070Y-98893799D01*
X117184736Y-98893799D02*
X116613308Y-98893799D01*
X116899022Y-99893799D02*
X116899022Y-98893799D01*
X116327593Y-99846180D02*
X116184736Y-99893799D01*
X116184736Y-99893799D02*
X115946641Y-99893799D01*
X115946641Y-99893799D02*
X115851403Y-99846180D01*
X115851403Y-99846180D02*
X115803784Y-99798560D01*
X115803784Y-99798560D02*
X115756165Y-99703322D01*
X115756165Y-99703322D02*
X115756165Y-99608084D01*
X115756165Y-99608084D02*
X115803784Y-99512846D01*
X115803784Y-99512846D02*
X115851403Y-99465227D01*
X115851403Y-99465227D02*
X115946641Y-99417608D01*
X115946641Y-99417608D02*
X116137117Y-99369989D01*
X116137117Y-99369989D02*
X116232355Y-99322370D01*
X116232355Y-99322370D02*
X116279974Y-99274751D01*
X116279974Y-99274751D02*
X116327593Y-99179513D01*
X116327593Y-99179513D02*
X116327593Y-99084275D01*
X116327593Y-99084275D02*
X116279974Y-98989037D01*
X116279974Y-98989037D02*
X116232355Y-98941418D01*
X116232355Y-98941418D02*
X116137117Y-98893799D01*
X116137117Y-98893799D02*
X115899022Y-98893799D01*
X115899022Y-98893799D02*
X115756165Y-98941418D01*
X115422831Y-98893799D02*
X115184736Y-99893799D01*
X115184736Y-99893799D02*
X114994260Y-99179513D01*
X114994260Y-99179513D02*
X114803784Y-99893799D01*
X114803784Y-99893799D02*
X114565689Y-98893799D01*
X114184736Y-99893799D02*
X114184736Y-98893799D01*
X113851403Y-98893799D02*
X113279975Y-98893799D01*
X113565689Y-99893799D02*
X113565689Y-98893799D01*
X112375213Y-99798560D02*
X112422832Y-99846180D01*
X112422832Y-99846180D02*
X112565689Y-99893799D01*
X112565689Y-99893799D02*
X112660927Y-99893799D01*
X112660927Y-99893799D02*
X112803784Y-99846180D01*
X112803784Y-99846180D02*
X112899022Y-99750941D01*
X112899022Y-99750941D02*
X112946641Y-99655703D01*
X112946641Y-99655703D02*
X112994260Y-99465227D01*
X112994260Y-99465227D02*
X112994260Y-99322370D01*
X112994260Y-99322370D02*
X112946641Y-99131894D01*
X112946641Y-99131894D02*
X112899022Y-99036656D01*
X112899022Y-99036656D02*
X112803784Y-98941418D01*
X112803784Y-98941418D02*
X112660927Y-98893799D01*
X112660927Y-98893799D02*
X112565689Y-98893799D01*
X112565689Y-98893799D02*
X112422832Y-98941418D01*
X112422832Y-98941418D02*
X112375213Y-98989037D01*
X111946641Y-99893799D02*
X111946641Y-98893799D01*
X111946641Y-99369989D02*
X111375213Y-99369989D01*
X111375213Y-99893799D02*
X111375213Y-98893799D01*
X197099260Y-48808084D02*
X196623070Y-48808084D01*
X197194498Y-49093799D02*
X196861165Y-48093799D01*
X196861165Y-48093799D02*
X196527832Y-49093799D01*
X196194498Y-49093799D02*
X196194498Y-48093799D01*
X196194498Y-48093799D02*
X195623070Y-49093799D01*
X195623070Y-49093799D02*
X195623070Y-48093799D01*
X195289736Y-48093799D02*
X194718308Y-48093799D01*
X195004022Y-49093799D02*
X195004022Y-48093799D01*
X194432593Y-49046180D02*
X194289736Y-49093799D01*
X194289736Y-49093799D02*
X194051641Y-49093799D01*
X194051641Y-49093799D02*
X193956403Y-49046180D01*
X193956403Y-49046180D02*
X193908784Y-48998560D01*
X193908784Y-48998560D02*
X193861165Y-48903322D01*
X193861165Y-48903322D02*
X193861165Y-48808084D01*
X193861165Y-48808084D02*
X193908784Y-48712846D01*
X193908784Y-48712846D02*
X193956403Y-48665227D01*
X193956403Y-48665227D02*
X194051641Y-48617608D01*
X194051641Y-48617608D02*
X194242117Y-48569989D01*
X194242117Y-48569989D02*
X194337355Y-48522370D01*
X194337355Y-48522370D02*
X194384974Y-48474751D01*
X194384974Y-48474751D02*
X194432593Y-48379513D01*
X194432593Y-48379513D02*
X194432593Y-48284275D01*
X194432593Y-48284275D02*
X194384974Y-48189037D01*
X194384974Y-48189037D02*
X194337355Y-48141418D01*
X194337355Y-48141418D02*
X194242117Y-48093799D01*
X194242117Y-48093799D02*
X194004022Y-48093799D01*
X194004022Y-48093799D02*
X193861165Y-48141418D01*
X193527831Y-48093799D02*
X193289736Y-49093799D01*
X193289736Y-49093799D02*
X193099260Y-48379513D01*
X193099260Y-48379513D02*
X192908784Y-49093799D01*
X192908784Y-49093799D02*
X192670689Y-48093799D01*
X192289736Y-49093799D02*
X192289736Y-48093799D01*
X191956403Y-48093799D02*
X191384975Y-48093799D01*
X191670689Y-49093799D02*
X191670689Y-48093799D01*
X190480213Y-48998560D02*
X190527832Y-49046180D01*
X190527832Y-49046180D02*
X190670689Y-49093799D01*
X190670689Y-49093799D02*
X190765927Y-49093799D01*
X190765927Y-49093799D02*
X190908784Y-49046180D01*
X190908784Y-49046180D02*
X191004022Y-48950941D01*
X191004022Y-48950941D02*
X191051641Y-48855703D01*
X191051641Y-48855703D02*
X191099260Y-48665227D01*
X191099260Y-48665227D02*
X191099260Y-48522370D01*
X191099260Y-48522370D02*
X191051641Y-48331894D01*
X191051641Y-48331894D02*
X191004022Y-48236656D01*
X191004022Y-48236656D02*
X190908784Y-48141418D01*
X190908784Y-48141418D02*
X190765927Y-48093799D01*
X190765927Y-48093799D02*
X190670689Y-48093799D01*
X190670689Y-48093799D02*
X190527832Y-48141418D01*
X190527832Y-48141418D02*
X190480213Y-48189037D01*
X190051641Y-49093799D02*
X190051641Y-48093799D01*
X190051641Y-48569989D02*
X189480213Y-48569989D01*
X189480213Y-49093799D02*
X189480213Y-48093799D01*
X200315951Y-48662846D02*
X199554047Y-48662846D01*
X199934999Y-49043799D02*
X199934999Y-48281894D01*
X145076879Y-76367132D02*
X144838784Y-77033799D01*
X144838784Y-77033799D02*
X144600689Y-76367132D01*
X143695927Y-77033799D02*
X144267355Y-77033799D01*
X143981641Y-77033799D02*
X143981641Y-76033799D01*
X143981641Y-76033799D02*
X144076879Y-76176656D01*
X144076879Y-76176656D02*
X144172117Y-76271894D01*
X144172117Y-76271894D02*
X144267355Y-76319513D01*
X143267355Y-76938560D02*
X143219736Y-76986180D01*
X143219736Y-76986180D02*
X143267355Y-77033799D01*
X143267355Y-77033799D02*
X143314974Y-76986180D01*
X143314974Y-76986180D02*
X143267355Y-76938560D01*
X143267355Y-76938560D02*
X143267355Y-77033799D01*
X142600689Y-76033799D02*
X142505451Y-76033799D01*
X142505451Y-76033799D02*
X142410213Y-76081418D01*
X142410213Y-76081418D02*
X142362594Y-76129037D01*
X142362594Y-76129037D02*
X142314975Y-76224275D01*
X142314975Y-76224275D02*
X142267356Y-76414751D01*
X142267356Y-76414751D02*
X142267356Y-76652846D01*
X142267356Y-76652846D02*
X142314975Y-76843322D01*
X142314975Y-76843322D02*
X142362594Y-76938560D01*
X142362594Y-76938560D02*
X142410213Y-76986180D01*
X142410213Y-76986180D02*
X142505451Y-77033799D01*
X142505451Y-77033799D02*
X142600689Y-77033799D01*
X142600689Y-77033799D02*
X142695927Y-76986180D01*
X142695927Y-76986180D02*
X142743546Y-76938560D01*
X142743546Y-76938560D02*
X142791165Y-76843322D01*
X142791165Y-76843322D02*
X142838784Y-76652846D01*
X142838784Y-76652846D02*
X142838784Y-76414751D01*
X142838784Y-76414751D02*
X142791165Y-76224275D01*
X142791165Y-76224275D02*
X142743546Y-76129037D01*
X142743546Y-76129037D02*
X142695927Y-76081418D01*
X142695927Y-76081418D02*
X142600689Y-76033799D01*
X200315951Y-99462846D02*
X199554047Y-99462846D01*
X199934999Y-99843799D02*
X199934999Y-99081894D01*
X171064260Y-89448084D02*
X170588070Y-89448084D01*
X171159498Y-89733799D02*
X170826165Y-88733799D01*
X170826165Y-88733799D02*
X170492832Y-89733799D01*
X170159498Y-89733799D02*
X170159498Y-88733799D01*
X170159498Y-88733799D02*
X169588070Y-89733799D01*
X169588070Y-89733799D02*
X169588070Y-88733799D01*
X169254736Y-88733799D02*
X168683308Y-88733799D01*
X168969022Y-89733799D02*
X168969022Y-88733799D01*
X168397593Y-89686180D02*
X168254736Y-89733799D01*
X168254736Y-89733799D02*
X168016641Y-89733799D01*
X168016641Y-89733799D02*
X167921403Y-89686180D01*
X167921403Y-89686180D02*
X167873784Y-89638560D01*
X167873784Y-89638560D02*
X167826165Y-89543322D01*
X167826165Y-89543322D02*
X167826165Y-89448084D01*
X167826165Y-89448084D02*
X167873784Y-89352846D01*
X167873784Y-89352846D02*
X167921403Y-89305227D01*
X167921403Y-89305227D02*
X168016641Y-89257608D01*
X168016641Y-89257608D02*
X168207117Y-89209989D01*
X168207117Y-89209989D02*
X168302355Y-89162370D01*
X168302355Y-89162370D02*
X168349974Y-89114751D01*
X168349974Y-89114751D02*
X168397593Y-89019513D01*
X168397593Y-89019513D02*
X168397593Y-88924275D01*
X168397593Y-88924275D02*
X168349974Y-88829037D01*
X168349974Y-88829037D02*
X168302355Y-88781418D01*
X168302355Y-88781418D02*
X168207117Y-88733799D01*
X168207117Y-88733799D02*
X167969022Y-88733799D01*
X167969022Y-88733799D02*
X167826165Y-88781418D01*
X167492831Y-88733799D02*
X167254736Y-89733799D01*
X167254736Y-89733799D02*
X167064260Y-89019513D01*
X167064260Y-89019513D02*
X166873784Y-89733799D01*
X166873784Y-89733799D02*
X166635689Y-88733799D01*
X166254736Y-89733799D02*
X166254736Y-88733799D01*
X165921403Y-88733799D02*
X165349975Y-88733799D01*
X165635689Y-89733799D02*
X165635689Y-88733799D01*
X164445213Y-89638560D02*
X164492832Y-89686180D01*
X164492832Y-89686180D02*
X164635689Y-89733799D01*
X164635689Y-89733799D02*
X164730927Y-89733799D01*
X164730927Y-89733799D02*
X164873784Y-89686180D01*
X164873784Y-89686180D02*
X164969022Y-89590941D01*
X164969022Y-89590941D02*
X165016641Y-89495703D01*
X165016641Y-89495703D02*
X165064260Y-89305227D01*
X165064260Y-89305227D02*
X165064260Y-89162370D01*
X165064260Y-89162370D02*
X165016641Y-88971894D01*
X165016641Y-88971894D02*
X164969022Y-88876656D01*
X164969022Y-88876656D02*
X164873784Y-88781418D01*
X164873784Y-88781418D02*
X164730927Y-88733799D01*
X164730927Y-88733799D02*
X164635689Y-88733799D01*
X164635689Y-88733799D02*
X164492832Y-88781418D01*
X164492832Y-88781418D02*
X164445213Y-88829037D01*
X164016641Y-89733799D02*
X164016641Y-88733799D01*
X164016641Y-89209989D02*
X163445213Y-89209989D01*
X163445213Y-89733799D02*
X163445213Y-88733799D01*
X122210951Y-56282846D02*
X121449047Y-56282846D01*
X171064260Y-48808084D02*
X170588070Y-48808084D01*
X171159498Y-49093799D02*
X170826165Y-48093799D01*
X170826165Y-48093799D02*
X170492832Y-49093799D01*
X170159498Y-49093799D02*
X170159498Y-48093799D01*
X170159498Y-48093799D02*
X169588070Y-49093799D01*
X169588070Y-49093799D02*
X169588070Y-48093799D01*
X169254736Y-48093799D02*
X168683308Y-48093799D01*
X168969022Y-49093799D02*
X168969022Y-48093799D01*
X168397593Y-49046180D02*
X168254736Y-49093799D01*
X168254736Y-49093799D02*
X168016641Y-49093799D01*
X168016641Y-49093799D02*
X167921403Y-49046180D01*
X167921403Y-49046180D02*
X167873784Y-48998560D01*
X167873784Y-48998560D02*
X167826165Y-48903322D01*
X167826165Y-48903322D02*
X167826165Y-48808084D01*
X167826165Y-48808084D02*
X167873784Y-48712846D01*
X167873784Y-48712846D02*
X167921403Y-48665227D01*
X167921403Y-48665227D02*
X168016641Y-48617608D01*
X168016641Y-48617608D02*
X168207117Y-48569989D01*
X168207117Y-48569989D02*
X168302355Y-48522370D01*
X168302355Y-48522370D02*
X168349974Y-48474751D01*
X168349974Y-48474751D02*
X168397593Y-48379513D01*
X168397593Y-48379513D02*
X168397593Y-48284275D01*
X168397593Y-48284275D02*
X168349974Y-48189037D01*
X168349974Y-48189037D02*
X168302355Y-48141418D01*
X168302355Y-48141418D02*
X168207117Y-48093799D01*
X168207117Y-48093799D02*
X167969022Y-48093799D01*
X167969022Y-48093799D02*
X167826165Y-48141418D01*
X167492831Y-48093799D02*
X167254736Y-49093799D01*
X167254736Y-49093799D02*
X167064260Y-48379513D01*
X167064260Y-48379513D02*
X166873784Y-49093799D01*
X166873784Y-49093799D02*
X166635689Y-48093799D01*
X166254736Y-49093799D02*
X166254736Y-48093799D01*
X165921403Y-48093799D02*
X165349975Y-48093799D01*
X165635689Y-49093799D02*
X165635689Y-48093799D01*
X164445213Y-48998560D02*
X164492832Y-49046180D01*
X164492832Y-49046180D02*
X164635689Y-49093799D01*
X164635689Y-49093799D02*
X164730927Y-49093799D01*
X164730927Y-49093799D02*
X164873784Y-49046180D01*
X164873784Y-49046180D02*
X164969022Y-48950941D01*
X164969022Y-48950941D02*
X165016641Y-48855703D01*
X165016641Y-48855703D02*
X165064260Y-48665227D01*
X165064260Y-48665227D02*
X165064260Y-48522370D01*
X165064260Y-48522370D02*
X165016641Y-48331894D01*
X165016641Y-48331894D02*
X164969022Y-48236656D01*
X164969022Y-48236656D02*
X164873784Y-48141418D01*
X164873784Y-48141418D02*
X164730927Y-48093799D01*
X164730927Y-48093799D02*
X164635689Y-48093799D01*
X164635689Y-48093799D02*
X164492832Y-48141418D01*
X164492832Y-48141418D02*
X164445213Y-48189037D01*
X164016641Y-49093799D02*
X164016641Y-48093799D01*
X164016641Y-48569989D02*
X163445213Y-48569989D01*
X163445213Y-49093799D02*
X163445213Y-48093799D01*
X145029260Y-58968084D02*
X144553070Y-58968084D01*
X145124498Y-59253799D02*
X144791165Y-58253799D01*
X144791165Y-58253799D02*
X144457832Y-59253799D01*
X144124498Y-59253799D02*
X144124498Y-58253799D01*
X144124498Y-58253799D02*
X143553070Y-59253799D01*
X143553070Y-59253799D02*
X143553070Y-58253799D01*
X143219736Y-58253799D02*
X142648308Y-58253799D01*
X142934022Y-59253799D02*
X142934022Y-58253799D01*
X142362593Y-59206180D02*
X142219736Y-59253799D01*
X142219736Y-59253799D02*
X141981641Y-59253799D01*
X141981641Y-59253799D02*
X141886403Y-59206180D01*
X141886403Y-59206180D02*
X141838784Y-59158560D01*
X141838784Y-59158560D02*
X141791165Y-59063322D01*
X141791165Y-59063322D02*
X141791165Y-58968084D01*
X141791165Y-58968084D02*
X141838784Y-58872846D01*
X141838784Y-58872846D02*
X141886403Y-58825227D01*
X141886403Y-58825227D02*
X141981641Y-58777608D01*
X141981641Y-58777608D02*
X142172117Y-58729989D01*
X142172117Y-58729989D02*
X142267355Y-58682370D01*
X142267355Y-58682370D02*
X142314974Y-58634751D01*
X142314974Y-58634751D02*
X142362593Y-58539513D01*
X142362593Y-58539513D02*
X142362593Y-58444275D01*
X142362593Y-58444275D02*
X142314974Y-58349037D01*
X142314974Y-58349037D02*
X142267355Y-58301418D01*
X142267355Y-58301418D02*
X142172117Y-58253799D01*
X142172117Y-58253799D02*
X141934022Y-58253799D01*
X141934022Y-58253799D02*
X141791165Y-58301418D01*
X141457831Y-58253799D02*
X141219736Y-59253799D01*
X141219736Y-59253799D02*
X141029260Y-58539513D01*
X141029260Y-58539513D02*
X140838784Y-59253799D01*
X140838784Y-59253799D02*
X140600689Y-58253799D01*
X140219736Y-59253799D02*
X140219736Y-58253799D01*
X139886403Y-58253799D02*
X139314975Y-58253799D01*
X139600689Y-59253799D02*
X139600689Y-58253799D01*
X138410213Y-59158560D02*
X138457832Y-59206180D01*
X138457832Y-59206180D02*
X138600689Y-59253799D01*
X138600689Y-59253799D02*
X138695927Y-59253799D01*
X138695927Y-59253799D02*
X138838784Y-59206180D01*
X138838784Y-59206180D02*
X138934022Y-59110941D01*
X138934022Y-59110941D02*
X138981641Y-59015703D01*
X138981641Y-59015703D02*
X139029260Y-58825227D01*
X139029260Y-58825227D02*
X139029260Y-58682370D01*
X139029260Y-58682370D02*
X138981641Y-58491894D01*
X138981641Y-58491894D02*
X138934022Y-58396656D01*
X138934022Y-58396656D02*
X138838784Y-58301418D01*
X138838784Y-58301418D02*
X138695927Y-58253799D01*
X138695927Y-58253799D02*
X138600689Y-58253799D01*
X138600689Y-58253799D02*
X138457832Y-58301418D01*
X138457832Y-58301418D02*
X138410213Y-58349037D01*
X137981641Y-59253799D02*
X137981641Y-58253799D01*
X137981641Y-58729989D02*
X137410213Y-58729989D01*
X137410213Y-59253799D02*
X137410213Y-58253799D01*
X174280951Y-68982846D02*
X173519047Y-68982846D01*
X173899999Y-69363799D02*
X173899999Y-68601894D01*
X148245951Y-48662846D02*
X147484047Y-48662846D01*
X147864999Y-49043799D02*
X147864999Y-48281894D01*
X200315951Y-46122846D02*
X199554047Y-46122846D01*
X118994260Y-38648084D02*
X118518070Y-38648084D01*
X119089498Y-38933799D02*
X118756165Y-37933799D01*
X118756165Y-37933799D02*
X118422832Y-38933799D01*
X118089498Y-38933799D02*
X118089498Y-37933799D01*
X118089498Y-37933799D02*
X117518070Y-38933799D01*
X117518070Y-38933799D02*
X117518070Y-37933799D01*
X117184736Y-37933799D02*
X116613308Y-37933799D01*
X116899022Y-38933799D02*
X116899022Y-37933799D01*
X116327593Y-38886180D02*
X116184736Y-38933799D01*
X116184736Y-38933799D02*
X115946641Y-38933799D01*
X115946641Y-38933799D02*
X115851403Y-38886180D01*
X115851403Y-38886180D02*
X115803784Y-38838560D01*
X115803784Y-38838560D02*
X115756165Y-38743322D01*
X115756165Y-38743322D02*
X115756165Y-38648084D01*
X115756165Y-38648084D02*
X115803784Y-38552846D01*
X115803784Y-38552846D02*
X115851403Y-38505227D01*
X115851403Y-38505227D02*
X115946641Y-38457608D01*
X115946641Y-38457608D02*
X116137117Y-38409989D01*
X116137117Y-38409989D02*
X116232355Y-38362370D01*
X116232355Y-38362370D02*
X116279974Y-38314751D01*
X116279974Y-38314751D02*
X116327593Y-38219513D01*
X116327593Y-38219513D02*
X116327593Y-38124275D01*
X116327593Y-38124275D02*
X116279974Y-38029037D01*
X116279974Y-38029037D02*
X116232355Y-37981418D01*
X116232355Y-37981418D02*
X116137117Y-37933799D01*
X116137117Y-37933799D02*
X115899022Y-37933799D01*
X115899022Y-37933799D02*
X115756165Y-37981418D01*
X115422831Y-37933799D02*
X115184736Y-38933799D01*
X115184736Y-38933799D02*
X114994260Y-38219513D01*
X114994260Y-38219513D02*
X114803784Y-38933799D01*
X114803784Y-38933799D02*
X114565689Y-37933799D01*
X114184736Y-38933799D02*
X114184736Y-37933799D01*
X113851403Y-37933799D02*
X113279975Y-37933799D01*
X113565689Y-38933799D02*
X113565689Y-37933799D01*
X112375213Y-38838560D02*
X112422832Y-38886180D01*
X112422832Y-38886180D02*
X112565689Y-38933799D01*
X112565689Y-38933799D02*
X112660927Y-38933799D01*
X112660927Y-38933799D02*
X112803784Y-38886180D01*
X112803784Y-38886180D02*
X112899022Y-38790941D01*
X112899022Y-38790941D02*
X112946641Y-38695703D01*
X112946641Y-38695703D02*
X112994260Y-38505227D01*
X112994260Y-38505227D02*
X112994260Y-38362370D01*
X112994260Y-38362370D02*
X112946641Y-38171894D01*
X112946641Y-38171894D02*
X112899022Y-38076656D01*
X112899022Y-38076656D02*
X112803784Y-37981418D01*
X112803784Y-37981418D02*
X112660927Y-37933799D01*
X112660927Y-37933799D02*
X112565689Y-37933799D01*
X112565689Y-37933799D02*
X112422832Y-37981418D01*
X112422832Y-37981418D02*
X112375213Y-38029037D01*
X111946641Y-38933799D02*
X111946641Y-37933799D01*
X111946641Y-38409989D02*
X111375213Y-38409989D01*
X111375213Y-38933799D02*
X111375213Y-37933799D01*
X145029260Y-79288084D02*
X144553070Y-79288084D01*
X145124498Y-79573799D02*
X144791165Y-78573799D01*
X144791165Y-78573799D02*
X144457832Y-79573799D01*
X144124498Y-79573799D02*
X144124498Y-78573799D01*
X144124498Y-78573799D02*
X143553070Y-79573799D01*
X143553070Y-79573799D02*
X143553070Y-78573799D01*
X143219736Y-78573799D02*
X142648308Y-78573799D01*
X142934022Y-79573799D02*
X142934022Y-78573799D01*
X142362593Y-79526180D02*
X142219736Y-79573799D01*
X142219736Y-79573799D02*
X141981641Y-79573799D01*
X141981641Y-79573799D02*
X141886403Y-79526180D01*
X141886403Y-79526180D02*
X141838784Y-79478560D01*
X141838784Y-79478560D02*
X141791165Y-79383322D01*
X141791165Y-79383322D02*
X141791165Y-79288084D01*
X141791165Y-79288084D02*
X141838784Y-79192846D01*
X141838784Y-79192846D02*
X141886403Y-79145227D01*
X141886403Y-79145227D02*
X141981641Y-79097608D01*
X141981641Y-79097608D02*
X142172117Y-79049989D01*
X142172117Y-79049989D02*
X142267355Y-79002370D01*
X142267355Y-79002370D02*
X142314974Y-78954751D01*
X142314974Y-78954751D02*
X142362593Y-78859513D01*
X142362593Y-78859513D02*
X142362593Y-78764275D01*
X142362593Y-78764275D02*
X142314974Y-78669037D01*
X142314974Y-78669037D02*
X142267355Y-78621418D01*
X142267355Y-78621418D02*
X142172117Y-78573799D01*
X142172117Y-78573799D02*
X141934022Y-78573799D01*
X141934022Y-78573799D02*
X141791165Y-78621418D01*
X141457831Y-78573799D02*
X141219736Y-79573799D01*
X141219736Y-79573799D02*
X141029260Y-78859513D01*
X141029260Y-78859513D02*
X140838784Y-79573799D01*
X140838784Y-79573799D02*
X140600689Y-78573799D01*
X140219736Y-79573799D02*
X140219736Y-78573799D01*
X139886403Y-78573799D02*
X139314975Y-78573799D01*
X139600689Y-79573799D02*
X139600689Y-78573799D01*
X138410213Y-79478560D02*
X138457832Y-79526180D01*
X138457832Y-79526180D02*
X138600689Y-79573799D01*
X138600689Y-79573799D02*
X138695927Y-79573799D01*
X138695927Y-79573799D02*
X138838784Y-79526180D01*
X138838784Y-79526180D02*
X138934022Y-79430941D01*
X138934022Y-79430941D02*
X138981641Y-79335703D01*
X138981641Y-79335703D02*
X139029260Y-79145227D01*
X139029260Y-79145227D02*
X139029260Y-79002370D01*
X139029260Y-79002370D02*
X138981641Y-78811894D01*
X138981641Y-78811894D02*
X138934022Y-78716656D01*
X138934022Y-78716656D02*
X138838784Y-78621418D01*
X138838784Y-78621418D02*
X138695927Y-78573799D01*
X138695927Y-78573799D02*
X138600689Y-78573799D01*
X138600689Y-78573799D02*
X138457832Y-78621418D01*
X138457832Y-78621418D02*
X138410213Y-78669037D01*
X137981641Y-79573799D02*
X137981641Y-78573799D01*
X137981641Y-79049989D02*
X137410213Y-79049989D01*
X137410213Y-79573799D02*
X137410213Y-78573799D01*
X171064260Y-38648084D02*
X170588070Y-38648084D01*
X171159498Y-38933799D02*
X170826165Y-37933799D01*
X170826165Y-37933799D02*
X170492832Y-38933799D01*
X170159498Y-38933799D02*
X170159498Y-37933799D01*
X170159498Y-37933799D02*
X169588070Y-38933799D01*
X169588070Y-38933799D02*
X169588070Y-37933799D01*
X169254736Y-37933799D02*
X168683308Y-37933799D01*
X168969022Y-38933799D02*
X168969022Y-37933799D01*
X168397593Y-38886180D02*
X168254736Y-38933799D01*
X168254736Y-38933799D02*
X168016641Y-38933799D01*
X168016641Y-38933799D02*
X167921403Y-38886180D01*
X167921403Y-38886180D02*
X167873784Y-38838560D01*
X167873784Y-38838560D02*
X167826165Y-38743322D01*
X167826165Y-38743322D02*
X167826165Y-38648084D01*
X167826165Y-38648084D02*
X167873784Y-38552846D01*
X167873784Y-38552846D02*
X167921403Y-38505227D01*
X167921403Y-38505227D02*
X168016641Y-38457608D01*
X168016641Y-38457608D02*
X168207117Y-38409989D01*
X168207117Y-38409989D02*
X168302355Y-38362370D01*
X168302355Y-38362370D02*
X168349974Y-38314751D01*
X168349974Y-38314751D02*
X168397593Y-38219513D01*
X168397593Y-38219513D02*
X168397593Y-38124275D01*
X168397593Y-38124275D02*
X168349974Y-38029037D01*
X168349974Y-38029037D02*
X168302355Y-37981418D01*
X168302355Y-37981418D02*
X168207117Y-37933799D01*
X168207117Y-37933799D02*
X167969022Y-37933799D01*
X167969022Y-37933799D02*
X167826165Y-37981418D01*
X167492831Y-37933799D02*
X167254736Y-38933799D01*
X167254736Y-38933799D02*
X167064260Y-38219513D01*
X167064260Y-38219513D02*
X166873784Y-38933799D01*
X166873784Y-38933799D02*
X166635689Y-37933799D01*
X166254736Y-38933799D02*
X166254736Y-37933799D01*
X165921403Y-37933799D02*
X165349975Y-37933799D01*
X165635689Y-38933799D02*
X165635689Y-37933799D01*
X164445213Y-38838560D02*
X164492832Y-38886180D01*
X164492832Y-38886180D02*
X164635689Y-38933799D01*
X164635689Y-38933799D02*
X164730927Y-38933799D01*
X164730927Y-38933799D02*
X164873784Y-38886180D01*
X164873784Y-38886180D02*
X164969022Y-38790941D01*
X164969022Y-38790941D02*
X165016641Y-38695703D01*
X165016641Y-38695703D02*
X165064260Y-38505227D01*
X165064260Y-38505227D02*
X165064260Y-38362370D01*
X165064260Y-38362370D02*
X165016641Y-38171894D01*
X165016641Y-38171894D02*
X164969022Y-38076656D01*
X164969022Y-38076656D02*
X164873784Y-37981418D01*
X164873784Y-37981418D02*
X164730927Y-37933799D01*
X164730927Y-37933799D02*
X164635689Y-37933799D01*
X164635689Y-37933799D02*
X164492832Y-37981418D01*
X164492832Y-37981418D02*
X164445213Y-38029037D01*
X164016641Y-38933799D02*
X164016641Y-37933799D01*
X164016641Y-38409989D02*
X163445213Y-38409989D01*
X163445213Y-38933799D02*
X163445213Y-37933799D01*
X197146879Y-106847132D02*
X196908784Y-107513799D01*
X196908784Y-107513799D02*
X196670689Y-106847132D01*
X195765927Y-107513799D02*
X196337355Y-107513799D01*
X196051641Y-107513799D02*
X196051641Y-106513799D01*
X196051641Y-106513799D02*
X196146879Y-106656656D01*
X196146879Y-106656656D02*
X196242117Y-106751894D01*
X196242117Y-106751894D02*
X196337355Y-106799513D01*
X195337355Y-107418560D02*
X195289736Y-107466180D01*
X195289736Y-107466180D02*
X195337355Y-107513799D01*
X195337355Y-107513799D02*
X195384974Y-107466180D01*
X195384974Y-107466180D02*
X195337355Y-107418560D01*
X195337355Y-107418560D02*
X195337355Y-107513799D01*
X194670689Y-106513799D02*
X194575451Y-106513799D01*
X194575451Y-106513799D02*
X194480213Y-106561418D01*
X194480213Y-106561418D02*
X194432594Y-106609037D01*
X194432594Y-106609037D02*
X194384975Y-106704275D01*
X194384975Y-106704275D02*
X194337356Y-106894751D01*
X194337356Y-106894751D02*
X194337356Y-107132846D01*
X194337356Y-107132846D02*
X194384975Y-107323322D01*
X194384975Y-107323322D02*
X194432594Y-107418560D01*
X194432594Y-107418560D02*
X194480213Y-107466180D01*
X194480213Y-107466180D02*
X194575451Y-107513799D01*
X194575451Y-107513799D02*
X194670689Y-107513799D01*
X194670689Y-107513799D02*
X194765927Y-107466180D01*
X194765927Y-107466180D02*
X194813546Y-107418560D01*
X194813546Y-107418560D02*
X194861165Y-107323322D01*
X194861165Y-107323322D02*
X194908784Y-107132846D01*
X194908784Y-107132846D02*
X194908784Y-106894751D01*
X194908784Y-106894751D02*
X194861165Y-106704275D01*
X194861165Y-106704275D02*
X194813546Y-106609037D01*
X194813546Y-106609037D02*
X194765927Y-106561418D01*
X194765927Y-106561418D02*
X194670689Y-106513799D01*
X171064260Y-99608084D02*
X170588070Y-99608084D01*
X171159498Y-99893799D02*
X170826165Y-98893799D01*
X170826165Y-98893799D02*
X170492832Y-99893799D01*
X170159498Y-99893799D02*
X170159498Y-98893799D01*
X170159498Y-98893799D02*
X169588070Y-99893799D01*
X169588070Y-99893799D02*
X169588070Y-98893799D01*
X169254736Y-98893799D02*
X168683308Y-98893799D01*
X168969022Y-99893799D02*
X168969022Y-98893799D01*
X168397593Y-99846180D02*
X168254736Y-99893799D01*
X168254736Y-99893799D02*
X168016641Y-99893799D01*
X168016641Y-99893799D02*
X167921403Y-99846180D01*
X167921403Y-99846180D02*
X167873784Y-99798560D01*
X167873784Y-99798560D02*
X167826165Y-99703322D01*
X167826165Y-99703322D02*
X167826165Y-99608084D01*
X167826165Y-99608084D02*
X167873784Y-99512846D01*
X167873784Y-99512846D02*
X167921403Y-99465227D01*
X167921403Y-99465227D02*
X168016641Y-99417608D01*
X168016641Y-99417608D02*
X168207117Y-99369989D01*
X168207117Y-99369989D02*
X168302355Y-99322370D01*
X168302355Y-99322370D02*
X168349974Y-99274751D01*
X168349974Y-99274751D02*
X168397593Y-99179513D01*
X168397593Y-99179513D02*
X168397593Y-99084275D01*
X168397593Y-99084275D02*
X168349974Y-98989037D01*
X168349974Y-98989037D02*
X168302355Y-98941418D01*
X168302355Y-98941418D02*
X168207117Y-98893799D01*
X168207117Y-98893799D02*
X167969022Y-98893799D01*
X167969022Y-98893799D02*
X167826165Y-98941418D01*
X167492831Y-98893799D02*
X167254736Y-99893799D01*
X167254736Y-99893799D02*
X167064260Y-99179513D01*
X167064260Y-99179513D02*
X166873784Y-99893799D01*
X166873784Y-99893799D02*
X166635689Y-98893799D01*
X166254736Y-99893799D02*
X166254736Y-98893799D01*
X165921403Y-98893799D02*
X165349975Y-98893799D01*
X165635689Y-99893799D02*
X165635689Y-98893799D01*
X164445213Y-99798560D02*
X164492832Y-99846180D01*
X164492832Y-99846180D02*
X164635689Y-99893799D01*
X164635689Y-99893799D02*
X164730927Y-99893799D01*
X164730927Y-99893799D02*
X164873784Y-99846180D01*
X164873784Y-99846180D02*
X164969022Y-99750941D01*
X164969022Y-99750941D02*
X165016641Y-99655703D01*
X165016641Y-99655703D02*
X165064260Y-99465227D01*
X165064260Y-99465227D02*
X165064260Y-99322370D01*
X165064260Y-99322370D02*
X165016641Y-99131894D01*
X165016641Y-99131894D02*
X164969022Y-99036656D01*
X164969022Y-99036656D02*
X164873784Y-98941418D01*
X164873784Y-98941418D02*
X164730927Y-98893799D01*
X164730927Y-98893799D02*
X164635689Y-98893799D01*
X164635689Y-98893799D02*
X164492832Y-98941418D01*
X164492832Y-98941418D02*
X164445213Y-98989037D01*
X164016641Y-99893799D02*
X164016641Y-98893799D01*
X164016641Y-99369989D02*
X163445213Y-99369989D01*
X163445213Y-99893799D02*
X163445213Y-98893799D01*
X197146879Y-86527132D02*
X196908784Y-87193799D01*
X196908784Y-87193799D02*
X196670689Y-86527132D01*
X195765927Y-87193799D02*
X196337355Y-87193799D01*
X196051641Y-87193799D02*
X196051641Y-86193799D01*
X196051641Y-86193799D02*
X196146879Y-86336656D01*
X196146879Y-86336656D02*
X196242117Y-86431894D01*
X196242117Y-86431894D02*
X196337355Y-86479513D01*
X195337355Y-87098560D02*
X195289736Y-87146180D01*
X195289736Y-87146180D02*
X195337355Y-87193799D01*
X195337355Y-87193799D02*
X195384974Y-87146180D01*
X195384974Y-87146180D02*
X195337355Y-87098560D01*
X195337355Y-87098560D02*
X195337355Y-87193799D01*
X194670689Y-86193799D02*
X194575451Y-86193799D01*
X194575451Y-86193799D02*
X194480213Y-86241418D01*
X194480213Y-86241418D02*
X194432594Y-86289037D01*
X194432594Y-86289037D02*
X194384975Y-86384275D01*
X194384975Y-86384275D02*
X194337356Y-86574751D01*
X194337356Y-86574751D02*
X194337356Y-86812846D01*
X194337356Y-86812846D02*
X194384975Y-87003322D01*
X194384975Y-87003322D02*
X194432594Y-87098560D01*
X194432594Y-87098560D02*
X194480213Y-87146180D01*
X194480213Y-87146180D02*
X194575451Y-87193799D01*
X194575451Y-87193799D02*
X194670689Y-87193799D01*
X194670689Y-87193799D02*
X194765927Y-87146180D01*
X194765927Y-87146180D02*
X194813546Y-87098560D01*
X194813546Y-87098560D02*
X194861165Y-87003322D01*
X194861165Y-87003322D02*
X194908784Y-86812846D01*
X194908784Y-86812846D02*
X194908784Y-86574751D01*
X194908784Y-86574751D02*
X194861165Y-86384275D01*
X194861165Y-86384275D02*
X194813546Y-86289037D01*
X194813546Y-86289037D02*
X194765927Y-86241418D01*
X194765927Y-86241418D02*
X194670689Y-86193799D01*
X174280951Y-79142846D02*
X173519047Y-79142846D01*
X173899999Y-79523799D02*
X173899999Y-78761894D01*
X148245951Y-96922846D02*
X147484047Y-96922846D01*
X122210951Y-107082846D02*
X121449047Y-107082846D01*
X122210951Y-35962846D02*
X121449047Y-35962846D01*
X200315951Y-107082846D02*
X199554047Y-107082846D01*
X197099260Y-38648084D02*
X196623070Y-38648084D01*
X197194498Y-38933799D02*
X196861165Y-37933799D01*
X196861165Y-37933799D02*
X196527832Y-38933799D01*
X196194498Y-38933799D02*
X196194498Y-37933799D01*
X196194498Y-37933799D02*
X195623070Y-38933799D01*
X195623070Y-38933799D02*
X195623070Y-37933799D01*
X195289736Y-37933799D02*
X194718308Y-37933799D01*
X195004022Y-38933799D02*
X195004022Y-37933799D01*
X194432593Y-38886180D02*
X194289736Y-38933799D01*
X194289736Y-38933799D02*
X194051641Y-38933799D01*
X194051641Y-38933799D02*
X193956403Y-38886180D01*
X193956403Y-38886180D02*
X193908784Y-38838560D01*
X193908784Y-38838560D02*
X193861165Y-38743322D01*
X193861165Y-38743322D02*
X193861165Y-38648084D01*
X193861165Y-38648084D02*
X193908784Y-38552846D01*
X193908784Y-38552846D02*
X193956403Y-38505227D01*
X193956403Y-38505227D02*
X194051641Y-38457608D01*
X194051641Y-38457608D02*
X194242117Y-38409989D01*
X194242117Y-38409989D02*
X194337355Y-38362370D01*
X194337355Y-38362370D02*
X194384974Y-38314751D01*
X194384974Y-38314751D02*
X194432593Y-38219513D01*
X194432593Y-38219513D02*
X194432593Y-38124275D01*
X194432593Y-38124275D02*
X194384974Y-38029037D01*
X194384974Y-38029037D02*
X194337355Y-37981418D01*
X194337355Y-37981418D02*
X194242117Y-37933799D01*
X194242117Y-37933799D02*
X194004022Y-37933799D01*
X194004022Y-37933799D02*
X193861165Y-37981418D01*
X193527831Y-37933799D02*
X193289736Y-38933799D01*
X193289736Y-38933799D02*
X193099260Y-38219513D01*
X193099260Y-38219513D02*
X192908784Y-38933799D01*
X192908784Y-38933799D02*
X192670689Y-37933799D01*
X192289736Y-38933799D02*
X192289736Y-37933799D01*
X191956403Y-37933799D02*
X191384975Y-37933799D01*
X191670689Y-38933799D02*
X191670689Y-37933799D01*
X190480213Y-38838560D02*
X190527832Y-38886180D01*
X190527832Y-38886180D02*
X190670689Y-38933799D01*
X190670689Y-38933799D02*
X190765927Y-38933799D01*
X190765927Y-38933799D02*
X190908784Y-38886180D01*
X190908784Y-38886180D02*
X191004022Y-38790941D01*
X191004022Y-38790941D02*
X191051641Y-38695703D01*
X191051641Y-38695703D02*
X191099260Y-38505227D01*
X191099260Y-38505227D02*
X191099260Y-38362370D01*
X191099260Y-38362370D02*
X191051641Y-38171894D01*
X191051641Y-38171894D02*
X191004022Y-38076656D01*
X191004022Y-38076656D02*
X190908784Y-37981418D01*
X190908784Y-37981418D02*
X190765927Y-37933799D01*
X190765927Y-37933799D02*
X190670689Y-37933799D01*
X190670689Y-37933799D02*
X190527832Y-37981418D01*
X190527832Y-37981418D02*
X190480213Y-38029037D01*
X190051641Y-38933799D02*
X190051641Y-37933799D01*
X190051641Y-38409989D02*
X189480213Y-38409989D01*
X189480213Y-38933799D02*
X189480213Y-37933799D01*
X174280951Y-58822846D02*
X173519047Y-58822846D01*
X173899999Y-59203799D02*
X173899999Y-58441894D01*
X174280951Y-76602846D02*
X173519047Y-76602846D01*
X148245951Y-89302846D02*
X147484047Y-89302846D01*
X147864999Y-89683799D02*
X147864999Y-88921894D01*
X145076879Y-96687132D02*
X144838784Y-97353799D01*
X144838784Y-97353799D02*
X144600689Y-96687132D01*
X143695927Y-97353799D02*
X144267355Y-97353799D01*
X143981641Y-97353799D02*
X143981641Y-96353799D01*
X143981641Y-96353799D02*
X144076879Y-96496656D01*
X144076879Y-96496656D02*
X144172117Y-96591894D01*
X144172117Y-96591894D02*
X144267355Y-96639513D01*
X143267355Y-97258560D02*
X143219736Y-97306180D01*
X143219736Y-97306180D02*
X143267355Y-97353799D01*
X143267355Y-97353799D02*
X143314974Y-97306180D01*
X143314974Y-97306180D02*
X143267355Y-97258560D01*
X143267355Y-97258560D02*
X143267355Y-97353799D01*
X142600689Y-96353799D02*
X142505451Y-96353799D01*
X142505451Y-96353799D02*
X142410213Y-96401418D01*
X142410213Y-96401418D02*
X142362594Y-96449037D01*
X142362594Y-96449037D02*
X142314975Y-96544275D01*
X142314975Y-96544275D02*
X142267356Y-96734751D01*
X142267356Y-96734751D02*
X142267356Y-96972846D01*
X142267356Y-96972846D02*
X142314975Y-97163322D01*
X142314975Y-97163322D02*
X142362594Y-97258560D01*
X142362594Y-97258560D02*
X142410213Y-97306180D01*
X142410213Y-97306180D02*
X142505451Y-97353799D01*
X142505451Y-97353799D02*
X142600689Y-97353799D01*
X142600689Y-97353799D02*
X142695927Y-97306180D01*
X142695927Y-97306180D02*
X142743546Y-97258560D01*
X142743546Y-97258560D02*
X142791165Y-97163322D01*
X142791165Y-97163322D02*
X142838784Y-96972846D01*
X142838784Y-96972846D02*
X142838784Y-96734751D01*
X142838784Y-96734751D02*
X142791165Y-96544275D01*
X142791165Y-96544275D02*
X142743546Y-96449037D01*
X142743546Y-96449037D02*
X142695927Y-96401418D01*
X142695927Y-96401418D02*
X142600689Y-96353799D01*
X197146879Y-35727132D02*
X196908784Y-36393799D01*
X196908784Y-36393799D02*
X196670689Y-35727132D01*
X195765927Y-36393799D02*
X196337355Y-36393799D01*
X196051641Y-36393799D02*
X196051641Y-35393799D01*
X196051641Y-35393799D02*
X196146879Y-35536656D01*
X196146879Y-35536656D02*
X196242117Y-35631894D01*
X196242117Y-35631894D02*
X196337355Y-35679513D01*
X195337355Y-36298560D02*
X195289736Y-36346180D01*
X195289736Y-36346180D02*
X195337355Y-36393799D01*
X195337355Y-36393799D02*
X195384974Y-36346180D01*
X195384974Y-36346180D02*
X195337355Y-36298560D01*
X195337355Y-36298560D02*
X195337355Y-36393799D01*
X194670689Y-35393799D02*
X194575451Y-35393799D01*
X194575451Y-35393799D02*
X194480213Y-35441418D01*
X194480213Y-35441418D02*
X194432594Y-35489037D01*
X194432594Y-35489037D02*
X194384975Y-35584275D01*
X194384975Y-35584275D02*
X194337356Y-35774751D01*
X194337356Y-35774751D02*
X194337356Y-36012846D01*
X194337356Y-36012846D02*
X194384975Y-36203322D01*
X194384975Y-36203322D02*
X194432594Y-36298560D01*
X194432594Y-36298560D02*
X194480213Y-36346180D01*
X194480213Y-36346180D02*
X194575451Y-36393799D01*
X194575451Y-36393799D02*
X194670689Y-36393799D01*
X194670689Y-36393799D02*
X194765927Y-36346180D01*
X194765927Y-36346180D02*
X194813546Y-36298560D01*
X194813546Y-36298560D02*
X194861165Y-36203322D01*
X194861165Y-36203322D02*
X194908784Y-36012846D01*
X194908784Y-36012846D02*
X194908784Y-35774751D01*
X194908784Y-35774751D02*
X194861165Y-35584275D01*
X194861165Y-35584275D02*
X194813546Y-35489037D01*
X194813546Y-35489037D02*
X194765927Y-35441418D01*
X194765927Y-35441418D02*
X194670689Y-35393799D01*
X197146879Y-66207132D02*
X196908784Y-66873799D01*
X196908784Y-66873799D02*
X196670689Y-66207132D01*
X195765927Y-66873799D02*
X196337355Y-66873799D01*
X196051641Y-66873799D02*
X196051641Y-65873799D01*
X196051641Y-65873799D02*
X196146879Y-66016656D01*
X196146879Y-66016656D02*
X196242117Y-66111894D01*
X196242117Y-66111894D02*
X196337355Y-66159513D01*
X195337355Y-66778560D02*
X195289736Y-66826180D01*
X195289736Y-66826180D02*
X195337355Y-66873799D01*
X195337355Y-66873799D02*
X195384974Y-66826180D01*
X195384974Y-66826180D02*
X195337355Y-66778560D01*
X195337355Y-66778560D02*
X195337355Y-66873799D01*
X194670689Y-65873799D02*
X194575451Y-65873799D01*
X194575451Y-65873799D02*
X194480213Y-65921418D01*
X194480213Y-65921418D02*
X194432594Y-65969037D01*
X194432594Y-65969037D02*
X194384975Y-66064275D01*
X194384975Y-66064275D02*
X194337356Y-66254751D01*
X194337356Y-66254751D02*
X194337356Y-66492846D01*
X194337356Y-66492846D02*
X194384975Y-66683322D01*
X194384975Y-66683322D02*
X194432594Y-66778560D01*
X194432594Y-66778560D02*
X194480213Y-66826180D01*
X194480213Y-66826180D02*
X194575451Y-66873799D01*
X194575451Y-66873799D02*
X194670689Y-66873799D01*
X194670689Y-66873799D02*
X194765927Y-66826180D01*
X194765927Y-66826180D02*
X194813546Y-66778560D01*
X194813546Y-66778560D02*
X194861165Y-66683322D01*
X194861165Y-66683322D02*
X194908784Y-66492846D01*
X194908784Y-66492846D02*
X194908784Y-66254751D01*
X194908784Y-66254751D02*
X194861165Y-66064275D01*
X194861165Y-66064275D02*
X194813546Y-65969037D01*
X194813546Y-65969037D02*
X194765927Y-65921418D01*
X194765927Y-65921418D02*
X194670689Y-65873799D01*
X197099260Y-58968084D02*
X196623070Y-58968084D01*
X197194498Y-59253799D02*
X196861165Y-58253799D01*
X196861165Y-58253799D02*
X196527832Y-59253799D01*
X196194498Y-59253799D02*
X196194498Y-58253799D01*
X196194498Y-58253799D02*
X195623070Y-59253799D01*
X195623070Y-59253799D02*
X195623070Y-58253799D01*
X195289736Y-58253799D02*
X194718308Y-58253799D01*
X195004022Y-59253799D02*
X195004022Y-58253799D01*
X194432593Y-59206180D02*
X194289736Y-59253799D01*
X194289736Y-59253799D02*
X194051641Y-59253799D01*
X194051641Y-59253799D02*
X193956403Y-59206180D01*
X193956403Y-59206180D02*
X193908784Y-59158560D01*
X193908784Y-59158560D02*
X193861165Y-59063322D01*
X193861165Y-59063322D02*
X193861165Y-58968084D01*
X193861165Y-58968084D02*
X193908784Y-58872846D01*
X193908784Y-58872846D02*
X193956403Y-58825227D01*
X193956403Y-58825227D02*
X194051641Y-58777608D01*
X194051641Y-58777608D02*
X194242117Y-58729989D01*
X194242117Y-58729989D02*
X194337355Y-58682370D01*
X194337355Y-58682370D02*
X194384974Y-58634751D01*
X194384974Y-58634751D02*
X194432593Y-58539513D01*
X194432593Y-58539513D02*
X194432593Y-58444275D01*
X194432593Y-58444275D02*
X194384974Y-58349037D01*
X194384974Y-58349037D02*
X194337355Y-58301418D01*
X194337355Y-58301418D02*
X194242117Y-58253799D01*
X194242117Y-58253799D02*
X194004022Y-58253799D01*
X194004022Y-58253799D02*
X193861165Y-58301418D01*
X193527831Y-58253799D02*
X193289736Y-59253799D01*
X193289736Y-59253799D02*
X193099260Y-58539513D01*
X193099260Y-58539513D02*
X192908784Y-59253799D01*
X192908784Y-59253799D02*
X192670689Y-58253799D01*
X192289736Y-59253799D02*
X192289736Y-58253799D01*
X191956403Y-58253799D02*
X191384975Y-58253799D01*
X191670689Y-59253799D02*
X191670689Y-58253799D01*
X190480213Y-59158560D02*
X190527832Y-59206180D01*
X190527832Y-59206180D02*
X190670689Y-59253799D01*
X190670689Y-59253799D02*
X190765927Y-59253799D01*
X190765927Y-59253799D02*
X190908784Y-59206180D01*
X190908784Y-59206180D02*
X191004022Y-59110941D01*
X191004022Y-59110941D02*
X191051641Y-59015703D01*
X191051641Y-59015703D02*
X191099260Y-58825227D01*
X191099260Y-58825227D02*
X191099260Y-58682370D01*
X191099260Y-58682370D02*
X191051641Y-58491894D01*
X191051641Y-58491894D02*
X191004022Y-58396656D01*
X191004022Y-58396656D02*
X190908784Y-58301418D01*
X190908784Y-58301418D02*
X190765927Y-58253799D01*
X190765927Y-58253799D02*
X190670689Y-58253799D01*
X190670689Y-58253799D02*
X190527832Y-58301418D01*
X190527832Y-58301418D02*
X190480213Y-58349037D01*
X190051641Y-59253799D02*
X190051641Y-58253799D01*
X190051641Y-58729989D02*
X189480213Y-58729989D01*
X189480213Y-59253799D02*
X189480213Y-58253799D01*
X145076879Y-106847132D02*
X144838784Y-107513799D01*
X144838784Y-107513799D02*
X144600689Y-106847132D01*
X143695927Y-107513799D02*
X144267355Y-107513799D01*
X143981641Y-107513799D02*
X143981641Y-106513799D01*
X143981641Y-106513799D02*
X144076879Y-106656656D01*
X144076879Y-106656656D02*
X144172117Y-106751894D01*
X144172117Y-106751894D02*
X144267355Y-106799513D01*
X143267355Y-107418560D02*
X143219736Y-107466180D01*
X143219736Y-107466180D02*
X143267355Y-107513799D01*
X143267355Y-107513799D02*
X143314974Y-107466180D01*
X143314974Y-107466180D02*
X143267355Y-107418560D01*
X143267355Y-107418560D02*
X143267355Y-107513799D01*
X142600689Y-106513799D02*
X142505451Y-106513799D01*
X142505451Y-106513799D02*
X142410213Y-106561418D01*
X142410213Y-106561418D02*
X142362594Y-106609037D01*
X142362594Y-106609037D02*
X142314975Y-106704275D01*
X142314975Y-106704275D02*
X142267356Y-106894751D01*
X142267356Y-106894751D02*
X142267356Y-107132846D01*
X142267356Y-107132846D02*
X142314975Y-107323322D01*
X142314975Y-107323322D02*
X142362594Y-107418560D01*
X142362594Y-107418560D02*
X142410213Y-107466180D01*
X142410213Y-107466180D02*
X142505451Y-107513799D01*
X142505451Y-107513799D02*
X142600689Y-107513799D01*
X142600689Y-107513799D02*
X142695927Y-107466180D01*
X142695927Y-107466180D02*
X142743546Y-107418560D01*
X142743546Y-107418560D02*
X142791165Y-107323322D01*
X142791165Y-107323322D02*
X142838784Y-107132846D01*
X142838784Y-107132846D02*
X142838784Y-106894751D01*
X142838784Y-106894751D02*
X142791165Y-106704275D01*
X142791165Y-106704275D02*
X142743546Y-106609037D01*
X142743546Y-106609037D02*
X142695927Y-106561418D01*
X142695927Y-106561418D02*
X142600689Y-106513799D01*
X171111879Y-86527132D02*
X170873784Y-87193799D01*
X170873784Y-87193799D02*
X170635689Y-86527132D01*
X169730927Y-87193799D02*
X170302355Y-87193799D01*
X170016641Y-87193799D02*
X170016641Y-86193799D01*
X170016641Y-86193799D02*
X170111879Y-86336656D01*
X170111879Y-86336656D02*
X170207117Y-86431894D01*
X170207117Y-86431894D02*
X170302355Y-86479513D01*
X169302355Y-87098560D02*
X169254736Y-87146180D01*
X169254736Y-87146180D02*
X169302355Y-87193799D01*
X169302355Y-87193799D02*
X169349974Y-87146180D01*
X169349974Y-87146180D02*
X169302355Y-87098560D01*
X169302355Y-87098560D02*
X169302355Y-87193799D01*
X168635689Y-86193799D02*
X168540451Y-86193799D01*
X168540451Y-86193799D02*
X168445213Y-86241418D01*
X168445213Y-86241418D02*
X168397594Y-86289037D01*
X168397594Y-86289037D02*
X168349975Y-86384275D01*
X168349975Y-86384275D02*
X168302356Y-86574751D01*
X168302356Y-86574751D02*
X168302356Y-86812846D01*
X168302356Y-86812846D02*
X168349975Y-87003322D01*
X168349975Y-87003322D02*
X168397594Y-87098560D01*
X168397594Y-87098560D02*
X168445213Y-87146180D01*
X168445213Y-87146180D02*
X168540451Y-87193799D01*
X168540451Y-87193799D02*
X168635689Y-87193799D01*
X168635689Y-87193799D02*
X168730927Y-87146180D01*
X168730927Y-87146180D02*
X168778546Y-87098560D01*
X168778546Y-87098560D02*
X168826165Y-87003322D01*
X168826165Y-87003322D02*
X168873784Y-86812846D01*
X168873784Y-86812846D02*
X168873784Y-86574751D01*
X168873784Y-86574751D02*
X168826165Y-86384275D01*
X168826165Y-86384275D02*
X168778546Y-86289037D01*
X168778546Y-86289037D02*
X168730927Y-86241418D01*
X168730927Y-86241418D02*
X168635689Y-86193799D01*
X148245951Y-28342846D02*
X147484047Y-28342846D01*
X147864999Y-28723799D02*
X147864999Y-27961894D01*
X171064260Y-58968084D02*
X170588070Y-58968084D01*
X171159498Y-59253799D02*
X170826165Y-58253799D01*
X170826165Y-58253799D02*
X170492832Y-59253799D01*
X170159498Y-59253799D02*
X170159498Y-58253799D01*
X170159498Y-58253799D02*
X169588070Y-59253799D01*
X169588070Y-59253799D02*
X169588070Y-58253799D01*
X169254736Y-58253799D02*
X168683308Y-58253799D01*
X168969022Y-59253799D02*
X168969022Y-58253799D01*
X168397593Y-59206180D02*
X168254736Y-59253799D01*
X168254736Y-59253799D02*
X168016641Y-59253799D01*
X168016641Y-59253799D02*
X167921403Y-59206180D01*
X167921403Y-59206180D02*
X167873784Y-59158560D01*
X167873784Y-59158560D02*
X167826165Y-59063322D01*
X167826165Y-59063322D02*
X167826165Y-58968084D01*
X167826165Y-58968084D02*
X167873784Y-58872846D01*
X167873784Y-58872846D02*
X167921403Y-58825227D01*
X167921403Y-58825227D02*
X168016641Y-58777608D01*
X168016641Y-58777608D02*
X168207117Y-58729989D01*
X168207117Y-58729989D02*
X168302355Y-58682370D01*
X168302355Y-58682370D02*
X168349974Y-58634751D01*
X168349974Y-58634751D02*
X168397593Y-58539513D01*
X168397593Y-58539513D02*
X168397593Y-58444275D01*
X168397593Y-58444275D02*
X168349974Y-58349037D01*
X168349974Y-58349037D02*
X168302355Y-58301418D01*
X168302355Y-58301418D02*
X168207117Y-58253799D01*
X168207117Y-58253799D02*
X167969022Y-58253799D01*
X167969022Y-58253799D02*
X167826165Y-58301418D01*
X167492831Y-58253799D02*
X167254736Y-59253799D01*
X167254736Y-59253799D02*
X167064260Y-58539513D01*
X167064260Y-58539513D02*
X166873784Y-59253799D01*
X166873784Y-59253799D02*
X166635689Y-58253799D01*
X166254736Y-59253799D02*
X166254736Y-58253799D01*
X165921403Y-58253799D02*
X165349975Y-58253799D01*
X165635689Y-59253799D02*
X165635689Y-58253799D01*
X164445213Y-59158560D02*
X164492832Y-59206180D01*
X164492832Y-59206180D02*
X164635689Y-59253799D01*
X164635689Y-59253799D02*
X164730927Y-59253799D01*
X164730927Y-59253799D02*
X164873784Y-59206180D01*
X164873784Y-59206180D02*
X164969022Y-59110941D01*
X164969022Y-59110941D02*
X165016641Y-59015703D01*
X165016641Y-59015703D02*
X165064260Y-58825227D01*
X165064260Y-58825227D02*
X165064260Y-58682370D01*
X165064260Y-58682370D02*
X165016641Y-58491894D01*
X165016641Y-58491894D02*
X164969022Y-58396656D01*
X164969022Y-58396656D02*
X164873784Y-58301418D01*
X164873784Y-58301418D02*
X164730927Y-58253799D01*
X164730927Y-58253799D02*
X164635689Y-58253799D01*
X164635689Y-58253799D02*
X164492832Y-58301418D01*
X164492832Y-58301418D02*
X164445213Y-58349037D01*
X164016641Y-59253799D02*
X164016641Y-58253799D01*
X164016641Y-58729989D02*
X163445213Y-58729989D01*
X163445213Y-59253799D02*
X163445213Y-58253799D01*
X197146879Y-96687132D02*
X196908784Y-97353799D01*
X196908784Y-97353799D02*
X196670689Y-96687132D01*
X195765927Y-97353799D02*
X196337355Y-97353799D01*
X196051641Y-97353799D02*
X196051641Y-96353799D01*
X196051641Y-96353799D02*
X196146879Y-96496656D01*
X196146879Y-96496656D02*
X196242117Y-96591894D01*
X196242117Y-96591894D02*
X196337355Y-96639513D01*
X195337355Y-97258560D02*
X195289736Y-97306180D01*
X195289736Y-97306180D02*
X195337355Y-97353799D01*
X195337355Y-97353799D02*
X195384974Y-97306180D01*
X195384974Y-97306180D02*
X195337355Y-97258560D01*
X195337355Y-97258560D02*
X195337355Y-97353799D01*
X194670689Y-96353799D02*
X194575451Y-96353799D01*
X194575451Y-96353799D02*
X194480213Y-96401418D01*
X194480213Y-96401418D02*
X194432594Y-96449037D01*
X194432594Y-96449037D02*
X194384975Y-96544275D01*
X194384975Y-96544275D02*
X194337356Y-96734751D01*
X194337356Y-96734751D02*
X194337356Y-96972846D01*
X194337356Y-96972846D02*
X194384975Y-97163322D01*
X194384975Y-97163322D02*
X194432594Y-97258560D01*
X194432594Y-97258560D02*
X194480213Y-97306180D01*
X194480213Y-97306180D02*
X194575451Y-97353799D01*
X194575451Y-97353799D02*
X194670689Y-97353799D01*
X194670689Y-97353799D02*
X194765927Y-97306180D01*
X194765927Y-97306180D02*
X194813546Y-97258560D01*
X194813546Y-97258560D02*
X194861165Y-97163322D01*
X194861165Y-97163322D02*
X194908784Y-96972846D01*
X194908784Y-96972846D02*
X194908784Y-96734751D01*
X194908784Y-96734751D02*
X194861165Y-96544275D01*
X194861165Y-96544275D02*
X194813546Y-96449037D01*
X194813546Y-96449037D02*
X194765927Y-96401418D01*
X194765927Y-96401418D02*
X194670689Y-96353799D01*
X174280951Y-48662846D02*
X173519047Y-48662846D01*
X173899999Y-49043799D02*
X173899999Y-48281894D01*
X145029260Y-89448084D02*
X144553070Y-89448084D01*
X145124498Y-89733799D02*
X144791165Y-88733799D01*
X144791165Y-88733799D02*
X144457832Y-89733799D01*
X144124498Y-89733799D02*
X144124498Y-88733799D01*
X144124498Y-88733799D02*
X143553070Y-89733799D01*
X143553070Y-89733799D02*
X143553070Y-88733799D01*
X143219736Y-88733799D02*
X142648308Y-88733799D01*
X142934022Y-89733799D02*
X142934022Y-88733799D01*
X142362593Y-89686180D02*
X142219736Y-89733799D01*
X142219736Y-89733799D02*
X141981641Y-89733799D01*
X141981641Y-89733799D02*
X141886403Y-89686180D01*
X141886403Y-89686180D02*
X141838784Y-89638560D01*
X141838784Y-89638560D02*
X141791165Y-89543322D01*
X141791165Y-89543322D02*
X141791165Y-89448084D01*
X141791165Y-89448084D02*
X141838784Y-89352846D01*
X141838784Y-89352846D02*
X141886403Y-89305227D01*
X141886403Y-89305227D02*
X141981641Y-89257608D01*
X141981641Y-89257608D02*
X142172117Y-89209989D01*
X142172117Y-89209989D02*
X142267355Y-89162370D01*
X142267355Y-89162370D02*
X142314974Y-89114751D01*
X142314974Y-89114751D02*
X142362593Y-89019513D01*
X142362593Y-89019513D02*
X142362593Y-88924275D01*
X142362593Y-88924275D02*
X142314974Y-88829037D01*
X142314974Y-88829037D02*
X142267355Y-88781418D01*
X142267355Y-88781418D02*
X142172117Y-88733799D01*
X142172117Y-88733799D02*
X141934022Y-88733799D01*
X141934022Y-88733799D02*
X141791165Y-88781418D01*
X141457831Y-88733799D02*
X141219736Y-89733799D01*
X141219736Y-89733799D02*
X141029260Y-89019513D01*
X141029260Y-89019513D02*
X140838784Y-89733799D01*
X140838784Y-89733799D02*
X140600689Y-88733799D01*
X140219736Y-89733799D02*
X140219736Y-88733799D01*
X139886403Y-88733799D02*
X139314975Y-88733799D01*
X139600689Y-89733799D02*
X139600689Y-88733799D01*
X138410213Y-89638560D02*
X138457832Y-89686180D01*
X138457832Y-89686180D02*
X138600689Y-89733799D01*
X138600689Y-89733799D02*
X138695927Y-89733799D01*
X138695927Y-89733799D02*
X138838784Y-89686180D01*
X138838784Y-89686180D02*
X138934022Y-89590941D01*
X138934022Y-89590941D02*
X138981641Y-89495703D01*
X138981641Y-89495703D02*
X139029260Y-89305227D01*
X139029260Y-89305227D02*
X139029260Y-89162370D01*
X139029260Y-89162370D02*
X138981641Y-88971894D01*
X138981641Y-88971894D02*
X138934022Y-88876656D01*
X138934022Y-88876656D02*
X138838784Y-88781418D01*
X138838784Y-88781418D02*
X138695927Y-88733799D01*
X138695927Y-88733799D02*
X138600689Y-88733799D01*
X138600689Y-88733799D02*
X138457832Y-88781418D01*
X138457832Y-88781418D02*
X138410213Y-88829037D01*
X137981641Y-89733799D02*
X137981641Y-88733799D01*
X137981641Y-89209989D02*
X137410213Y-89209989D01*
X137410213Y-89733799D02*
X137410213Y-88733799D01*
X122210951Y-58822846D02*
X121449047Y-58822846D01*
X121829999Y-59203799D02*
X121829999Y-58441894D01*
X118994260Y-28488084D02*
X118518070Y-28488084D01*
X119089498Y-28773799D02*
X118756165Y-27773799D01*
X118756165Y-27773799D02*
X118422832Y-28773799D01*
X118089498Y-28773799D02*
X118089498Y-27773799D01*
X118089498Y-27773799D02*
X117518070Y-28773799D01*
X117518070Y-28773799D02*
X117518070Y-27773799D01*
X117184736Y-27773799D02*
X116613308Y-27773799D01*
X116899022Y-28773799D02*
X116899022Y-27773799D01*
X116327593Y-28726180D02*
X116184736Y-28773799D01*
X116184736Y-28773799D02*
X115946641Y-28773799D01*
X115946641Y-28773799D02*
X115851403Y-28726180D01*
X115851403Y-28726180D02*
X115803784Y-28678560D01*
X115803784Y-28678560D02*
X115756165Y-28583322D01*
X115756165Y-28583322D02*
X115756165Y-28488084D01*
X115756165Y-28488084D02*
X115803784Y-28392846D01*
X115803784Y-28392846D02*
X115851403Y-28345227D01*
X115851403Y-28345227D02*
X115946641Y-28297608D01*
X115946641Y-28297608D02*
X116137117Y-28249989D01*
X116137117Y-28249989D02*
X116232355Y-28202370D01*
X116232355Y-28202370D02*
X116279974Y-28154751D01*
X116279974Y-28154751D02*
X116327593Y-28059513D01*
X116327593Y-28059513D02*
X116327593Y-27964275D01*
X116327593Y-27964275D02*
X116279974Y-27869037D01*
X116279974Y-27869037D02*
X116232355Y-27821418D01*
X116232355Y-27821418D02*
X116137117Y-27773799D01*
X116137117Y-27773799D02*
X115899022Y-27773799D01*
X115899022Y-27773799D02*
X115756165Y-27821418D01*
X115422831Y-27773799D02*
X115184736Y-28773799D01*
X115184736Y-28773799D02*
X114994260Y-28059513D01*
X114994260Y-28059513D02*
X114803784Y-28773799D01*
X114803784Y-28773799D02*
X114565689Y-27773799D01*
X114184736Y-28773799D02*
X114184736Y-27773799D01*
X113851403Y-27773799D02*
X113279975Y-27773799D01*
X113565689Y-28773799D02*
X113565689Y-27773799D01*
X112375213Y-28678560D02*
X112422832Y-28726180D01*
X112422832Y-28726180D02*
X112565689Y-28773799D01*
X112565689Y-28773799D02*
X112660927Y-28773799D01*
X112660927Y-28773799D02*
X112803784Y-28726180D01*
X112803784Y-28726180D02*
X112899022Y-28630941D01*
X112899022Y-28630941D02*
X112946641Y-28535703D01*
X112946641Y-28535703D02*
X112994260Y-28345227D01*
X112994260Y-28345227D02*
X112994260Y-28202370D01*
X112994260Y-28202370D02*
X112946641Y-28011894D01*
X112946641Y-28011894D02*
X112899022Y-27916656D01*
X112899022Y-27916656D02*
X112803784Y-27821418D01*
X112803784Y-27821418D02*
X112660927Y-27773799D01*
X112660927Y-27773799D02*
X112565689Y-27773799D01*
X112565689Y-27773799D02*
X112422832Y-27821418D01*
X112422832Y-27821418D02*
X112375213Y-27869037D01*
X111946641Y-28773799D02*
X111946641Y-27773799D01*
X111946641Y-28249989D02*
X111375213Y-28249989D01*
X111375213Y-28773799D02*
X111375213Y-27773799D01*
X174280951Y-46122846D02*
X173519047Y-46122846D01*
X197146879Y-76367132D02*
X196908784Y-77033799D01*
X196908784Y-77033799D02*
X196670689Y-76367132D01*
X195765927Y-77033799D02*
X196337355Y-77033799D01*
X196051641Y-77033799D02*
X196051641Y-76033799D01*
X196051641Y-76033799D02*
X196146879Y-76176656D01*
X196146879Y-76176656D02*
X196242117Y-76271894D01*
X196242117Y-76271894D02*
X196337355Y-76319513D01*
X195337355Y-76938560D02*
X195289736Y-76986180D01*
X195289736Y-76986180D02*
X195337355Y-77033799D01*
X195337355Y-77033799D02*
X195384974Y-76986180D01*
X195384974Y-76986180D02*
X195337355Y-76938560D01*
X195337355Y-76938560D02*
X195337355Y-77033799D01*
X194670689Y-76033799D02*
X194575451Y-76033799D01*
X194575451Y-76033799D02*
X194480213Y-76081418D01*
X194480213Y-76081418D02*
X194432594Y-76129037D01*
X194432594Y-76129037D02*
X194384975Y-76224275D01*
X194384975Y-76224275D02*
X194337356Y-76414751D01*
X194337356Y-76414751D02*
X194337356Y-76652846D01*
X194337356Y-76652846D02*
X194384975Y-76843322D01*
X194384975Y-76843322D02*
X194432594Y-76938560D01*
X194432594Y-76938560D02*
X194480213Y-76986180D01*
X194480213Y-76986180D02*
X194575451Y-77033799D01*
X194575451Y-77033799D02*
X194670689Y-77033799D01*
X194670689Y-77033799D02*
X194765927Y-76986180D01*
X194765927Y-76986180D02*
X194813546Y-76938560D01*
X194813546Y-76938560D02*
X194861165Y-76843322D01*
X194861165Y-76843322D02*
X194908784Y-76652846D01*
X194908784Y-76652846D02*
X194908784Y-76414751D01*
X194908784Y-76414751D02*
X194861165Y-76224275D01*
X194861165Y-76224275D02*
X194813546Y-76129037D01*
X194813546Y-76129037D02*
X194765927Y-76081418D01*
X194765927Y-76081418D02*
X194670689Y-76033799D01*
X197099260Y-69128084D02*
X196623070Y-69128084D01*
X197194498Y-69413799D02*
X196861165Y-68413799D01*
X196861165Y-68413799D02*
X196527832Y-69413799D01*
X196194498Y-69413799D02*
X196194498Y-68413799D01*
X196194498Y-68413799D02*
X195623070Y-69413799D01*
X195623070Y-69413799D02*
X195623070Y-68413799D01*
X195289736Y-68413799D02*
X194718308Y-68413799D01*
X195004022Y-69413799D02*
X195004022Y-68413799D01*
X194432593Y-69366180D02*
X194289736Y-69413799D01*
X194289736Y-69413799D02*
X194051641Y-69413799D01*
X194051641Y-69413799D02*
X193956403Y-69366180D01*
X193956403Y-69366180D02*
X193908784Y-69318560D01*
X193908784Y-69318560D02*
X193861165Y-69223322D01*
X193861165Y-69223322D02*
X193861165Y-69128084D01*
X193861165Y-69128084D02*
X193908784Y-69032846D01*
X193908784Y-69032846D02*
X193956403Y-68985227D01*
X193956403Y-68985227D02*
X194051641Y-68937608D01*
X194051641Y-68937608D02*
X194242117Y-68889989D01*
X194242117Y-68889989D02*
X194337355Y-68842370D01*
X194337355Y-68842370D02*
X194384974Y-68794751D01*
X194384974Y-68794751D02*
X194432593Y-68699513D01*
X194432593Y-68699513D02*
X194432593Y-68604275D01*
X194432593Y-68604275D02*
X194384974Y-68509037D01*
X194384974Y-68509037D02*
X194337355Y-68461418D01*
X194337355Y-68461418D02*
X194242117Y-68413799D01*
X194242117Y-68413799D02*
X194004022Y-68413799D01*
X194004022Y-68413799D02*
X193861165Y-68461418D01*
X193527831Y-68413799D02*
X193289736Y-69413799D01*
X193289736Y-69413799D02*
X193099260Y-68699513D01*
X193099260Y-68699513D02*
X192908784Y-69413799D01*
X192908784Y-69413799D02*
X192670689Y-68413799D01*
X192289736Y-69413799D02*
X192289736Y-68413799D01*
X191956403Y-68413799D02*
X191384975Y-68413799D01*
X191670689Y-69413799D02*
X191670689Y-68413799D01*
X190480213Y-69318560D02*
X190527832Y-69366180D01*
X190527832Y-69366180D02*
X190670689Y-69413799D01*
X190670689Y-69413799D02*
X190765927Y-69413799D01*
X190765927Y-69413799D02*
X190908784Y-69366180D01*
X190908784Y-69366180D02*
X191004022Y-69270941D01*
X191004022Y-69270941D02*
X191051641Y-69175703D01*
X191051641Y-69175703D02*
X191099260Y-68985227D01*
X191099260Y-68985227D02*
X191099260Y-68842370D01*
X191099260Y-68842370D02*
X191051641Y-68651894D01*
X191051641Y-68651894D02*
X191004022Y-68556656D01*
X191004022Y-68556656D02*
X190908784Y-68461418D01*
X190908784Y-68461418D02*
X190765927Y-68413799D01*
X190765927Y-68413799D02*
X190670689Y-68413799D01*
X190670689Y-68413799D02*
X190527832Y-68461418D01*
X190527832Y-68461418D02*
X190480213Y-68509037D01*
X190051641Y-69413799D02*
X190051641Y-68413799D01*
X190051641Y-68889989D02*
X189480213Y-68889989D01*
X189480213Y-69413799D02*
X189480213Y-68413799D01*
X200315951Y-66442846D02*
X199554047Y-66442846D01*
X145029260Y-48808084D02*
X144553070Y-48808084D01*
X145124498Y-49093799D02*
X144791165Y-48093799D01*
X144791165Y-48093799D02*
X144457832Y-49093799D01*
X144124498Y-49093799D02*
X144124498Y-48093799D01*
X144124498Y-48093799D02*
X143553070Y-49093799D01*
X143553070Y-49093799D02*
X143553070Y-48093799D01*
X143219736Y-48093799D02*
X142648308Y-48093799D01*
X142934022Y-49093799D02*
X142934022Y-48093799D01*
X142362593Y-49046180D02*
X142219736Y-49093799D01*
X142219736Y-49093799D02*
X141981641Y-49093799D01*
X141981641Y-49093799D02*
X141886403Y-49046180D01*
X141886403Y-49046180D02*
X141838784Y-48998560D01*
X141838784Y-48998560D02*
X141791165Y-48903322D01*
X141791165Y-48903322D02*
X141791165Y-48808084D01*
X141791165Y-48808084D02*
X141838784Y-48712846D01*
X141838784Y-48712846D02*
X141886403Y-48665227D01*
X141886403Y-48665227D02*
X141981641Y-48617608D01*
X141981641Y-48617608D02*
X142172117Y-48569989D01*
X142172117Y-48569989D02*
X142267355Y-48522370D01*
X142267355Y-48522370D02*
X142314974Y-48474751D01*
X142314974Y-48474751D02*
X142362593Y-48379513D01*
X142362593Y-48379513D02*
X142362593Y-48284275D01*
X142362593Y-48284275D02*
X142314974Y-48189037D01*
X142314974Y-48189037D02*
X142267355Y-48141418D01*
X142267355Y-48141418D02*
X142172117Y-48093799D01*
X142172117Y-48093799D02*
X141934022Y-48093799D01*
X141934022Y-48093799D02*
X141791165Y-48141418D01*
X141457831Y-48093799D02*
X141219736Y-49093799D01*
X141219736Y-49093799D02*
X141029260Y-48379513D01*
X141029260Y-48379513D02*
X140838784Y-49093799D01*
X140838784Y-49093799D02*
X140600689Y-48093799D01*
X140219736Y-49093799D02*
X140219736Y-48093799D01*
X139886403Y-48093799D02*
X139314975Y-48093799D01*
X139600689Y-49093799D02*
X139600689Y-48093799D01*
X138410213Y-48998560D02*
X138457832Y-49046180D01*
X138457832Y-49046180D02*
X138600689Y-49093799D01*
X138600689Y-49093799D02*
X138695927Y-49093799D01*
X138695927Y-49093799D02*
X138838784Y-49046180D01*
X138838784Y-49046180D02*
X138934022Y-48950941D01*
X138934022Y-48950941D02*
X138981641Y-48855703D01*
X138981641Y-48855703D02*
X139029260Y-48665227D01*
X139029260Y-48665227D02*
X139029260Y-48522370D01*
X139029260Y-48522370D02*
X138981641Y-48331894D01*
X138981641Y-48331894D02*
X138934022Y-48236656D01*
X138934022Y-48236656D02*
X138838784Y-48141418D01*
X138838784Y-48141418D02*
X138695927Y-48093799D01*
X138695927Y-48093799D02*
X138600689Y-48093799D01*
X138600689Y-48093799D02*
X138457832Y-48141418D01*
X138457832Y-48141418D02*
X138410213Y-48189037D01*
X137981641Y-49093799D02*
X137981641Y-48093799D01*
X137981641Y-48569989D02*
X137410213Y-48569989D01*
X137410213Y-49093799D02*
X137410213Y-48093799D01*
X197146879Y-45887132D02*
X196908784Y-46553799D01*
X196908784Y-46553799D02*
X196670689Y-45887132D01*
X195765927Y-46553799D02*
X196337355Y-46553799D01*
X196051641Y-46553799D02*
X196051641Y-45553799D01*
X196051641Y-45553799D02*
X196146879Y-45696656D01*
X196146879Y-45696656D02*
X196242117Y-45791894D01*
X196242117Y-45791894D02*
X196337355Y-45839513D01*
X195337355Y-46458560D02*
X195289736Y-46506180D01*
X195289736Y-46506180D02*
X195337355Y-46553799D01*
X195337355Y-46553799D02*
X195384974Y-46506180D01*
X195384974Y-46506180D02*
X195337355Y-46458560D01*
X195337355Y-46458560D02*
X195337355Y-46553799D01*
X194670689Y-45553799D02*
X194575451Y-45553799D01*
X194575451Y-45553799D02*
X194480213Y-45601418D01*
X194480213Y-45601418D02*
X194432594Y-45649037D01*
X194432594Y-45649037D02*
X194384975Y-45744275D01*
X194384975Y-45744275D02*
X194337356Y-45934751D01*
X194337356Y-45934751D02*
X194337356Y-46172846D01*
X194337356Y-46172846D02*
X194384975Y-46363322D01*
X194384975Y-46363322D02*
X194432594Y-46458560D01*
X194432594Y-46458560D02*
X194480213Y-46506180D01*
X194480213Y-46506180D02*
X194575451Y-46553799D01*
X194575451Y-46553799D02*
X194670689Y-46553799D01*
X194670689Y-46553799D02*
X194765927Y-46506180D01*
X194765927Y-46506180D02*
X194813546Y-46458560D01*
X194813546Y-46458560D02*
X194861165Y-46363322D01*
X194861165Y-46363322D02*
X194908784Y-46172846D01*
X194908784Y-46172846D02*
X194908784Y-45934751D01*
X194908784Y-45934751D02*
X194861165Y-45744275D01*
X194861165Y-45744275D02*
X194813546Y-45649037D01*
X194813546Y-45649037D02*
X194765927Y-45601418D01*
X194765927Y-45601418D02*
X194670689Y-45553799D01*
X122210951Y-76602846D02*
X121449047Y-76602846D01*
X119041879Y-45887132D02*
X118803784Y-46553799D01*
X118803784Y-46553799D02*
X118565689Y-45887132D01*
X117660927Y-46553799D02*
X118232355Y-46553799D01*
X117946641Y-46553799D02*
X117946641Y-45553799D01*
X117946641Y-45553799D02*
X118041879Y-45696656D01*
X118041879Y-45696656D02*
X118137117Y-45791894D01*
X118137117Y-45791894D02*
X118232355Y-45839513D01*
X117232355Y-46458560D02*
X117184736Y-46506180D01*
X117184736Y-46506180D02*
X117232355Y-46553799D01*
X117232355Y-46553799D02*
X117279974Y-46506180D01*
X117279974Y-46506180D02*
X117232355Y-46458560D01*
X117232355Y-46458560D02*
X117232355Y-46553799D01*
X116565689Y-45553799D02*
X116470451Y-45553799D01*
X116470451Y-45553799D02*
X116375213Y-45601418D01*
X116375213Y-45601418D02*
X116327594Y-45649037D01*
X116327594Y-45649037D02*
X116279975Y-45744275D01*
X116279975Y-45744275D02*
X116232356Y-45934751D01*
X116232356Y-45934751D02*
X116232356Y-46172846D01*
X116232356Y-46172846D02*
X116279975Y-46363322D01*
X116279975Y-46363322D02*
X116327594Y-46458560D01*
X116327594Y-46458560D02*
X116375213Y-46506180D01*
X116375213Y-46506180D02*
X116470451Y-46553799D01*
X116470451Y-46553799D02*
X116565689Y-46553799D01*
X116565689Y-46553799D02*
X116660927Y-46506180D01*
X116660927Y-46506180D02*
X116708546Y-46458560D01*
X116708546Y-46458560D02*
X116756165Y-46363322D01*
X116756165Y-46363322D02*
X116803784Y-46172846D01*
X116803784Y-46172846D02*
X116803784Y-45934751D01*
X116803784Y-45934751D02*
X116756165Y-45744275D01*
X116756165Y-45744275D02*
X116708546Y-45649037D01*
X116708546Y-45649037D02*
X116660927Y-45601418D01*
X116660927Y-45601418D02*
X116565689Y-45553799D01*
X119041879Y-66207132D02*
X118803784Y-66873799D01*
X118803784Y-66873799D02*
X118565689Y-66207132D01*
X117660927Y-66873799D02*
X118232355Y-66873799D01*
X117946641Y-66873799D02*
X117946641Y-65873799D01*
X117946641Y-65873799D02*
X118041879Y-66016656D01*
X118041879Y-66016656D02*
X118137117Y-66111894D01*
X118137117Y-66111894D02*
X118232355Y-66159513D01*
X117232355Y-66778560D02*
X117184736Y-66826180D01*
X117184736Y-66826180D02*
X117232355Y-66873799D01*
X117232355Y-66873799D02*
X117279974Y-66826180D01*
X117279974Y-66826180D02*
X117232355Y-66778560D01*
X117232355Y-66778560D02*
X117232355Y-66873799D01*
X116565689Y-65873799D02*
X116470451Y-65873799D01*
X116470451Y-65873799D02*
X116375213Y-65921418D01*
X116375213Y-65921418D02*
X116327594Y-65969037D01*
X116327594Y-65969037D02*
X116279975Y-66064275D01*
X116279975Y-66064275D02*
X116232356Y-66254751D01*
X116232356Y-66254751D02*
X116232356Y-66492846D01*
X116232356Y-66492846D02*
X116279975Y-66683322D01*
X116279975Y-66683322D02*
X116327594Y-66778560D01*
X116327594Y-66778560D02*
X116375213Y-66826180D01*
X116375213Y-66826180D02*
X116470451Y-66873799D01*
X116470451Y-66873799D02*
X116565689Y-66873799D01*
X116565689Y-66873799D02*
X116660927Y-66826180D01*
X116660927Y-66826180D02*
X116708546Y-66778560D01*
X116708546Y-66778560D02*
X116756165Y-66683322D01*
X116756165Y-66683322D02*
X116803784Y-66492846D01*
X116803784Y-66492846D02*
X116803784Y-66254751D01*
X116803784Y-66254751D02*
X116756165Y-66064275D01*
X116756165Y-66064275D02*
X116708546Y-65969037D01*
X116708546Y-65969037D02*
X116660927Y-65921418D01*
X116660927Y-65921418D02*
X116565689Y-65873799D01*
X200315951Y-35962846D02*
X199554047Y-35962846D01*
X200315951Y-38502846D02*
X199554047Y-38502846D01*
X199934999Y-38883799D02*
X199934999Y-38121894D01*
X200315951Y-76602846D02*
X199554047Y-76602846D01*
X148245951Y-79142846D02*
X147484047Y-79142846D01*
X147864999Y-79523799D02*
X147864999Y-78761894D01*
X200315951Y-89302846D02*
X199554047Y-89302846D01*
X199934999Y-89683799D02*
X199934999Y-88921894D01*
X122210951Y-96922846D02*
X121449047Y-96922846D01*
D11*
%TO.C,J9*%
X130080000Y-84724500D02*
X132112000Y-84724500D01*
X130080000Y-87384500D02*
X130080000Y-84724500D01*
X130080000Y-87384500D02*
X132112000Y-87384500D01*
D12*
X132366000Y-84784500D02*
X132874000Y-84784500D01*
X132366000Y-87324500D02*
X132874000Y-87324500D01*
D11*
X133188000Y-84724500D02*
X135220000Y-84724500D01*
X133188000Y-87384500D02*
X135220000Y-87384500D01*
X135220000Y-87384500D02*
X135220000Y-84724500D01*
%TO.C,J8*%
X130080000Y-37734500D02*
X132112000Y-37734500D01*
X130080000Y-40394500D02*
X130080000Y-37734500D01*
X130080000Y-40394500D02*
X132112000Y-40394500D01*
D12*
X132366000Y-37794500D02*
X132874000Y-37794500D01*
X132366000Y-40334500D02*
X132874000Y-40334500D01*
X132620000Y-38048500D02*
X132620000Y-37540500D01*
X132620000Y-40588500D02*
X132620000Y-40080500D01*
D11*
X133188000Y-37734500D02*
X135220000Y-37734500D01*
X133188000Y-40394500D02*
X135220000Y-40394500D01*
X135220000Y-40394500D02*
X135220000Y-37734500D01*
%TO.C,J9*%
X156115000Y-44084500D02*
X158147000Y-44084500D01*
X156115000Y-46744500D02*
X156115000Y-44084500D01*
X156115000Y-46744500D02*
X158147000Y-46744500D01*
D12*
X158401000Y-44144500D02*
X158909000Y-44144500D01*
X158401000Y-46684500D02*
X158909000Y-46684500D01*
D11*
X159223000Y-44084500D02*
X161255000Y-44084500D01*
X159223000Y-46744500D02*
X161255000Y-46744500D01*
X161255000Y-46744500D02*
X161255000Y-44084500D01*
X104045000Y-54244500D02*
X106077000Y-54244500D01*
X104045000Y-56904500D02*
X104045000Y-54244500D01*
X104045000Y-56904500D02*
X106077000Y-56904500D01*
D12*
X106331000Y-54304500D02*
X106839000Y-54304500D01*
X106331000Y-56844500D02*
X106839000Y-56844500D01*
D11*
X107153000Y-54244500D02*
X109185000Y-54244500D01*
X107153000Y-56904500D02*
X109185000Y-56904500D01*
X109185000Y-56904500D02*
X109185000Y-54244500D01*
%TO.C,J8*%
X156115000Y-68214500D02*
X158147000Y-68214500D01*
X156115000Y-70874500D02*
X156115000Y-68214500D01*
X156115000Y-70874500D02*
X158147000Y-70874500D01*
D12*
X158401000Y-68274500D02*
X158909000Y-68274500D01*
X158401000Y-70814500D02*
X158909000Y-70814500D01*
X158655000Y-68528500D02*
X158655000Y-68020500D01*
X158655000Y-71068500D02*
X158655000Y-70560500D01*
D11*
X159223000Y-68214500D02*
X161255000Y-68214500D01*
X159223000Y-70874500D02*
X161255000Y-70874500D01*
X161255000Y-70874500D02*
X161255000Y-68214500D01*
%TO.C,J9*%
X130080000Y-74564500D02*
X132112000Y-74564500D01*
X130080000Y-77224500D02*
X130080000Y-74564500D01*
X130080000Y-77224500D02*
X132112000Y-77224500D01*
D12*
X132366000Y-74624500D02*
X132874000Y-74624500D01*
X132366000Y-77164500D02*
X132874000Y-77164500D01*
D11*
X133188000Y-74564500D02*
X135220000Y-74564500D01*
X133188000Y-77224500D02*
X135220000Y-77224500D01*
X135220000Y-77224500D02*
X135220000Y-74564500D01*
X130080000Y-54244500D02*
X132112000Y-54244500D01*
X130080000Y-56904500D02*
X130080000Y-54244500D01*
X130080000Y-56904500D02*
X132112000Y-56904500D01*
D12*
X132366000Y-54304500D02*
X132874000Y-54304500D01*
X132366000Y-56844500D02*
X132874000Y-56844500D01*
D11*
X133188000Y-54244500D02*
X135220000Y-54244500D01*
X133188000Y-56904500D02*
X135220000Y-56904500D01*
X135220000Y-56904500D02*
X135220000Y-54244500D01*
X130080000Y-94884500D02*
X132112000Y-94884500D01*
X130080000Y-97544500D02*
X130080000Y-94884500D01*
X130080000Y-97544500D02*
X132112000Y-97544500D01*
D12*
X132366000Y-94944500D02*
X132874000Y-94944500D01*
X132366000Y-97484500D02*
X132874000Y-97484500D01*
D11*
X133188000Y-94884500D02*
X135220000Y-94884500D01*
X133188000Y-97544500D02*
X135220000Y-97544500D01*
X135220000Y-97544500D02*
X135220000Y-94884500D01*
%TO.C,J8*%
X104045000Y-37734500D02*
X106077000Y-37734500D01*
X104045000Y-40394500D02*
X104045000Y-37734500D01*
X104045000Y-40394500D02*
X106077000Y-40394500D01*
D12*
X106331000Y-37794500D02*
X106839000Y-37794500D01*
X106331000Y-40334500D02*
X106839000Y-40334500D01*
X106585000Y-38048500D02*
X106585000Y-37540500D01*
X106585000Y-40588500D02*
X106585000Y-40080500D01*
D11*
X107153000Y-37734500D02*
X109185000Y-37734500D01*
X107153000Y-40394500D02*
X109185000Y-40394500D01*
X109185000Y-40394500D02*
X109185000Y-37734500D01*
X182150000Y-98694500D02*
X184182000Y-98694500D01*
X182150000Y-101354500D02*
X182150000Y-98694500D01*
X182150000Y-101354500D02*
X184182000Y-101354500D01*
D12*
X184436000Y-98754500D02*
X184944000Y-98754500D01*
X184436000Y-101294500D02*
X184944000Y-101294500D01*
X184690000Y-99008500D02*
X184690000Y-98500500D01*
X184690000Y-101548500D02*
X184690000Y-101040500D01*
D11*
X185258000Y-98694500D02*
X187290000Y-98694500D01*
X185258000Y-101354500D02*
X187290000Y-101354500D01*
X187290000Y-101354500D02*
X187290000Y-98694500D01*
X182150000Y-37734500D02*
X184182000Y-37734500D01*
X182150000Y-40394500D02*
X182150000Y-37734500D01*
X182150000Y-40394500D02*
X184182000Y-40394500D01*
D12*
X184436000Y-37794500D02*
X184944000Y-37794500D01*
X184436000Y-40334500D02*
X184944000Y-40334500D01*
X184690000Y-38048500D02*
X184690000Y-37540500D01*
X184690000Y-40588500D02*
X184690000Y-40080500D01*
D11*
X185258000Y-37734500D02*
X187290000Y-37734500D01*
X185258000Y-40394500D02*
X187290000Y-40394500D01*
X187290000Y-40394500D02*
X187290000Y-37734500D01*
X182150000Y-68214500D02*
X184182000Y-68214500D01*
X182150000Y-70874500D02*
X182150000Y-68214500D01*
X182150000Y-70874500D02*
X184182000Y-70874500D01*
D12*
X184436000Y-68274500D02*
X184944000Y-68274500D01*
X184436000Y-70814500D02*
X184944000Y-70814500D01*
X184690000Y-68528500D02*
X184690000Y-68020500D01*
X184690000Y-71068500D02*
X184690000Y-70560500D01*
D11*
X185258000Y-68214500D02*
X187290000Y-68214500D01*
X185258000Y-70874500D02*
X187290000Y-70874500D01*
X187290000Y-70874500D02*
X187290000Y-68214500D01*
X182150000Y-58054500D02*
X184182000Y-58054500D01*
X182150000Y-60714500D02*
X182150000Y-58054500D01*
X182150000Y-60714500D02*
X184182000Y-60714500D01*
D12*
X184436000Y-58114500D02*
X184944000Y-58114500D01*
X184436000Y-60654500D02*
X184944000Y-60654500D01*
X184690000Y-58368500D02*
X184690000Y-57860500D01*
X184690000Y-60908500D02*
X184690000Y-60400500D01*
D11*
X185258000Y-58054500D02*
X187290000Y-58054500D01*
X185258000Y-60714500D02*
X187290000Y-60714500D01*
X187290000Y-60714500D02*
X187290000Y-58054500D01*
%TO.C,J9*%
X156115000Y-105044500D02*
X158147000Y-105044500D01*
X156115000Y-107704500D02*
X156115000Y-105044500D01*
X156115000Y-107704500D02*
X158147000Y-107704500D01*
D12*
X158401000Y-105104500D02*
X158909000Y-105104500D01*
X158401000Y-107644500D02*
X158909000Y-107644500D01*
D11*
X159223000Y-105044500D02*
X161255000Y-105044500D01*
X159223000Y-107704500D02*
X161255000Y-107704500D01*
X161255000Y-107704500D02*
X161255000Y-105044500D01*
%TO.C,J8*%
X156115000Y-27574500D02*
X158147000Y-27574500D01*
X156115000Y-30234500D02*
X156115000Y-27574500D01*
X156115000Y-30234500D02*
X158147000Y-30234500D01*
D12*
X158401000Y-27634500D02*
X158909000Y-27634500D01*
X158401000Y-30174500D02*
X158909000Y-30174500D01*
X158655000Y-27888500D02*
X158655000Y-27380500D01*
X158655000Y-30428500D02*
X158655000Y-29920500D01*
D11*
X159223000Y-27574500D02*
X161255000Y-27574500D01*
X159223000Y-30234500D02*
X161255000Y-30234500D01*
X161255000Y-30234500D02*
X161255000Y-27574500D01*
X182150000Y-27574500D02*
X184182000Y-27574500D01*
X182150000Y-30234500D02*
X182150000Y-27574500D01*
X182150000Y-30234500D02*
X184182000Y-30234500D01*
D12*
X184436000Y-27634500D02*
X184944000Y-27634500D01*
X184436000Y-30174500D02*
X184944000Y-30174500D01*
X184690000Y-27888500D02*
X184690000Y-27380500D01*
X184690000Y-30428500D02*
X184690000Y-29920500D01*
D11*
X185258000Y-27574500D02*
X187290000Y-27574500D01*
X185258000Y-30234500D02*
X187290000Y-30234500D01*
X187290000Y-30234500D02*
X187290000Y-27574500D01*
X104045000Y-27574500D02*
X106077000Y-27574500D01*
X104045000Y-30234500D02*
X104045000Y-27574500D01*
X104045000Y-30234500D02*
X106077000Y-30234500D01*
D12*
X106331000Y-27634500D02*
X106839000Y-27634500D01*
X106331000Y-30174500D02*
X106839000Y-30174500D01*
X106585000Y-27888500D02*
X106585000Y-27380500D01*
X106585000Y-30428500D02*
X106585000Y-29920500D01*
D11*
X107153000Y-27574500D02*
X109185000Y-27574500D01*
X107153000Y-30234500D02*
X109185000Y-30234500D01*
X109185000Y-30234500D02*
X109185000Y-27574500D01*
X156115000Y-88534500D02*
X158147000Y-88534500D01*
X156115000Y-91194500D02*
X156115000Y-88534500D01*
X156115000Y-91194500D02*
X158147000Y-91194500D01*
D12*
X158401000Y-88594500D02*
X158909000Y-88594500D01*
X158401000Y-91134500D02*
X158909000Y-91134500D01*
X158655000Y-88848500D02*
X158655000Y-88340500D01*
X158655000Y-91388500D02*
X158655000Y-90880500D01*
D11*
X159223000Y-88534500D02*
X161255000Y-88534500D01*
X159223000Y-91194500D02*
X161255000Y-91194500D01*
X161255000Y-91194500D02*
X161255000Y-88534500D01*
X104045000Y-78374500D02*
X106077000Y-78374500D01*
X104045000Y-81034500D02*
X104045000Y-78374500D01*
X104045000Y-81034500D02*
X106077000Y-81034500D01*
D12*
X106331000Y-78434500D02*
X106839000Y-78434500D01*
X106331000Y-80974500D02*
X106839000Y-80974500D01*
X106585000Y-78688500D02*
X106585000Y-78180500D01*
X106585000Y-81228500D02*
X106585000Y-80720500D01*
D11*
X107153000Y-78374500D02*
X109185000Y-78374500D01*
X107153000Y-81034500D02*
X109185000Y-81034500D01*
X109185000Y-81034500D02*
X109185000Y-78374500D01*
%TO.C,J9*%
X156115000Y-64404500D02*
X158147000Y-64404500D01*
X156115000Y-67064500D02*
X156115000Y-64404500D01*
X156115000Y-67064500D02*
X158147000Y-67064500D01*
D12*
X158401000Y-64464500D02*
X158909000Y-64464500D01*
X158401000Y-67004500D02*
X158909000Y-67004500D01*
D11*
X159223000Y-64404500D02*
X161255000Y-64404500D01*
X159223000Y-67064500D02*
X161255000Y-67064500D01*
X161255000Y-67064500D02*
X161255000Y-64404500D01*
X182150000Y-74564500D02*
X184182000Y-74564500D01*
X182150000Y-77224500D02*
X182150000Y-74564500D01*
X182150000Y-77224500D02*
X184182000Y-77224500D01*
D12*
X184436000Y-74624500D02*
X184944000Y-74624500D01*
X184436000Y-77164500D02*
X184944000Y-77164500D01*
D11*
X185258000Y-74564500D02*
X187290000Y-74564500D01*
X185258000Y-77224500D02*
X187290000Y-77224500D01*
X187290000Y-77224500D02*
X187290000Y-74564500D01*
X182150000Y-84724500D02*
X184182000Y-84724500D01*
X182150000Y-87384500D02*
X182150000Y-84724500D01*
X182150000Y-87384500D02*
X184182000Y-87384500D01*
D12*
X184436000Y-84784500D02*
X184944000Y-84784500D01*
X184436000Y-87324500D02*
X184944000Y-87324500D01*
D11*
X185258000Y-84724500D02*
X187290000Y-84724500D01*
X185258000Y-87384500D02*
X187290000Y-87384500D01*
X187290000Y-87384500D02*
X187290000Y-84724500D01*
X182150000Y-44084500D02*
X184182000Y-44084500D01*
X182150000Y-46744500D02*
X182150000Y-44084500D01*
X182150000Y-46744500D02*
X184182000Y-46744500D01*
D12*
X184436000Y-44144500D02*
X184944000Y-44144500D01*
X184436000Y-46684500D02*
X184944000Y-46684500D01*
D11*
X185258000Y-44084500D02*
X187290000Y-44084500D01*
X185258000Y-46744500D02*
X187290000Y-46744500D01*
X187290000Y-46744500D02*
X187290000Y-44084500D01*
X156115000Y-54244500D02*
X158147000Y-54244500D01*
X156115000Y-56904500D02*
X156115000Y-54244500D01*
X156115000Y-56904500D02*
X158147000Y-56904500D01*
D12*
X158401000Y-54304500D02*
X158909000Y-54304500D01*
X158401000Y-56844500D02*
X158909000Y-56844500D01*
D11*
X159223000Y-54244500D02*
X161255000Y-54244500D01*
X159223000Y-56904500D02*
X161255000Y-56904500D01*
X161255000Y-56904500D02*
X161255000Y-54244500D01*
%TO.C,J8*%
X130080000Y-27574500D02*
X132112000Y-27574500D01*
X130080000Y-30234500D02*
X130080000Y-27574500D01*
X130080000Y-30234500D02*
X132112000Y-30234500D01*
D12*
X132366000Y-27634500D02*
X132874000Y-27634500D01*
X132366000Y-30174500D02*
X132874000Y-30174500D01*
X132620000Y-27888500D02*
X132620000Y-27380500D01*
X132620000Y-30428500D02*
X132620000Y-29920500D01*
D11*
X133188000Y-27574500D02*
X135220000Y-27574500D01*
X133188000Y-30234500D02*
X135220000Y-30234500D01*
X135220000Y-30234500D02*
X135220000Y-27574500D01*
%TO.C,J9*%
X156115000Y-94884500D02*
X158147000Y-94884500D01*
X156115000Y-97544500D02*
X156115000Y-94884500D01*
X156115000Y-97544500D02*
X158147000Y-97544500D01*
D12*
X158401000Y-94944500D02*
X158909000Y-94944500D01*
X158401000Y-97484500D02*
X158909000Y-97484500D01*
D11*
X159223000Y-94884500D02*
X161255000Y-94884500D01*
X159223000Y-97544500D02*
X161255000Y-97544500D01*
X161255000Y-97544500D02*
X161255000Y-94884500D01*
X130080000Y-64404500D02*
X132112000Y-64404500D01*
X130080000Y-67064500D02*
X130080000Y-64404500D01*
X130080000Y-67064500D02*
X132112000Y-67064500D01*
D12*
X132366000Y-64464500D02*
X132874000Y-64464500D01*
X132366000Y-67004500D02*
X132874000Y-67004500D01*
D11*
X133188000Y-64404500D02*
X135220000Y-64404500D01*
X133188000Y-67064500D02*
X135220000Y-67064500D01*
X135220000Y-67064500D02*
X135220000Y-64404500D01*
X182150000Y-54244500D02*
X184182000Y-54244500D01*
X182150000Y-56904500D02*
X182150000Y-54244500D01*
X182150000Y-56904500D02*
X184182000Y-56904500D01*
D12*
X184436000Y-54304500D02*
X184944000Y-54304500D01*
X184436000Y-56844500D02*
X184944000Y-56844500D01*
D11*
X185258000Y-54244500D02*
X187290000Y-54244500D01*
X185258000Y-56904500D02*
X187290000Y-56904500D01*
X187290000Y-56904500D02*
X187290000Y-54244500D01*
X182150000Y-64404500D02*
X184182000Y-64404500D01*
X182150000Y-67064500D02*
X182150000Y-64404500D01*
X182150000Y-67064500D02*
X184182000Y-67064500D01*
D12*
X184436000Y-64464500D02*
X184944000Y-64464500D01*
X184436000Y-67004500D02*
X184944000Y-67004500D01*
D11*
X185258000Y-64404500D02*
X187290000Y-64404500D01*
X185258000Y-67064500D02*
X187290000Y-67064500D01*
X187290000Y-67064500D02*
X187290000Y-64404500D01*
%TO.C,J8*%
X130080000Y-78374500D02*
X132112000Y-78374500D01*
X130080000Y-81034500D02*
X130080000Y-78374500D01*
X130080000Y-81034500D02*
X132112000Y-81034500D01*
D12*
X132366000Y-78434500D02*
X132874000Y-78434500D01*
X132366000Y-80974500D02*
X132874000Y-80974500D01*
X132620000Y-78688500D02*
X132620000Y-78180500D01*
X132620000Y-81228500D02*
X132620000Y-80720500D01*
D11*
X133188000Y-78374500D02*
X135220000Y-78374500D01*
X133188000Y-81034500D02*
X135220000Y-81034500D01*
X135220000Y-81034500D02*
X135220000Y-78374500D01*
X156115000Y-58054500D02*
X158147000Y-58054500D01*
X156115000Y-60714500D02*
X156115000Y-58054500D01*
X156115000Y-60714500D02*
X158147000Y-60714500D01*
D12*
X158401000Y-58114500D02*
X158909000Y-58114500D01*
X158401000Y-60654500D02*
X158909000Y-60654500D01*
X158655000Y-58368500D02*
X158655000Y-57860500D01*
X158655000Y-60908500D02*
X158655000Y-60400500D01*
D11*
X159223000Y-58054500D02*
X161255000Y-58054500D01*
X159223000Y-60714500D02*
X161255000Y-60714500D01*
X161255000Y-60714500D02*
X161255000Y-58054500D01*
X130080000Y-98694500D02*
X132112000Y-98694500D01*
X130080000Y-101354500D02*
X130080000Y-98694500D01*
X130080000Y-101354500D02*
X132112000Y-101354500D01*
D12*
X132366000Y-98754500D02*
X132874000Y-98754500D01*
X132366000Y-101294500D02*
X132874000Y-101294500D01*
X132620000Y-99008500D02*
X132620000Y-98500500D01*
X132620000Y-101548500D02*
X132620000Y-101040500D01*
D11*
X133188000Y-98694500D02*
X135220000Y-98694500D01*
X133188000Y-101354500D02*
X135220000Y-101354500D01*
X135220000Y-101354500D02*
X135220000Y-98694500D01*
X130080000Y-88534500D02*
X132112000Y-88534500D01*
X130080000Y-91194500D02*
X130080000Y-88534500D01*
X130080000Y-91194500D02*
X132112000Y-91194500D01*
D12*
X132366000Y-88594500D02*
X132874000Y-88594500D01*
X132366000Y-91134500D02*
X132874000Y-91134500D01*
X132620000Y-88848500D02*
X132620000Y-88340500D01*
X132620000Y-91388500D02*
X132620000Y-90880500D01*
D11*
X133188000Y-88534500D02*
X135220000Y-88534500D01*
X133188000Y-91194500D02*
X135220000Y-91194500D01*
X135220000Y-91194500D02*
X135220000Y-88534500D01*
%TO.C,J9*%
X182150000Y-105044500D02*
X184182000Y-105044500D01*
X182150000Y-107704500D02*
X182150000Y-105044500D01*
X182150000Y-107704500D02*
X184182000Y-107704500D01*
D12*
X184436000Y-105104500D02*
X184944000Y-105104500D01*
X184436000Y-107644500D02*
X184944000Y-107644500D01*
D11*
X185258000Y-105044500D02*
X187290000Y-105044500D01*
X185258000Y-107704500D02*
X187290000Y-107704500D01*
X187290000Y-107704500D02*
X187290000Y-105044500D01*
X156115000Y-33924500D02*
X158147000Y-33924500D01*
X156115000Y-36584500D02*
X156115000Y-33924500D01*
X156115000Y-36584500D02*
X158147000Y-36584500D01*
D12*
X158401000Y-33984500D02*
X158909000Y-33984500D01*
X158401000Y-36524500D02*
X158909000Y-36524500D01*
D11*
X159223000Y-33924500D02*
X161255000Y-33924500D01*
X159223000Y-36584500D02*
X161255000Y-36584500D01*
X161255000Y-36584500D02*
X161255000Y-33924500D01*
X130080000Y-44084500D02*
X132112000Y-44084500D01*
X130080000Y-46744500D02*
X130080000Y-44084500D01*
X130080000Y-46744500D02*
X132112000Y-46744500D01*
D12*
X132366000Y-44144500D02*
X132874000Y-44144500D01*
X132366000Y-46684500D02*
X132874000Y-46684500D01*
D11*
X133188000Y-44084500D02*
X135220000Y-44084500D01*
X133188000Y-46744500D02*
X135220000Y-46744500D01*
X135220000Y-46744500D02*
X135220000Y-44084500D01*
X156115000Y-84724500D02*
X158147000Y-84724500D01*
X156115000Y-87384500D02*
X156115000Y-84724500D01*
X156115000Y-87384500D02*
X158147000Y-87384500D01*
D12*
X158401000Y-84784500D02*
X158909000Y-84784500D01*
X158401000Y-87324500D02*
X158909000Y-87324500D01*
D11*
X159223000Y-84724500D02*
X161255000Y-84724500D01*
X159223000Y-87384500D02*
X161255000Y-87384500D01*
X161255000Y-87384500D02*
X161255000Y-84724500D01*
X156115000Y-74564500D02*
X158147000Y-74564500D01*
X156115000Y-77224500D02*
X156115000Y-74564500D01*
X156115000Y-77224500D02*
X158147000Y-77224500D01*
D12*
X158401000Y-74624500D02*
X158909000Y-74624500D01*
X158401000Y-77164500D02*
X158909000Y-77164500D01*
D11*
X159223000Y-74564500D02*
X161255000Y-74564500D01*
X159223000Y-77224500D02*
X161255000Y-77224500D01*
X161255000Y-77224500D02*
X161255000Y-74564500D01*
%TO.C,J8*%
X130080000Y-68214500D02*
X132112000Y-68214500D01*
X130080000Y-70874500D02*
X130080000Y-68214500D01*
X130080000Y-70874500D02*
X132112000Y-70874500D01*
D12*
X132366000Y-68274500D02*
X132874000Y-68274500D01*
X132366000Y-70814500D02*
X132874000Y-70814500D01*
X132620000Y-68528500D02*
X132620000Y-68020500D01*
X132620000Y-71068500D02*
X132620000Y-70560500D01*
D11*
X133188000Y-68214500D02*
X135220000Y-68214500D01*
X133188000Y-70874500D02*
X135220000Y-70874500D01*
X135220000Y-70874500D02*
X135220000Y-68214500D01*
%TO.C,J9*%
X104045000Y-94884500D02*
X106077000Y-94884500D01*
X104045000Y-97544500D02*
X104045000Y-94884500D01*
X104045000Y-97544500D02*
X106077000Y-97544500D01*
D12*
X106331000Y-94944500D02*
X106839000Y-94944500D01*
X106331000Y-97484500D02*
X106839000Y-97484500D01*
D11*
X107153000Y-94884500D02*
X109185000Y-94884500D01*
X107153000Y-97544500D02*
X109185000Y-97544500D01*
X109185000Y-97544500D02*
X109185000Y-94884500D01*
%TO.C,J8*%
X130080000Y-47894500D02*
X132112000Y-47894500D01*
X130080000Y-50554500D02*
X130080000Y-47894500D01*
X130080000Y-50554500D02*
X132112000Y-50554500D01*
D12*
X132366000Y-47954500D02*
X132874000Y-47954500D01*
X132366000Y-50494500D02*
X132874000Y-50494500D01*
X132620000Y-48208500D02*
X132620000Y-47700500D01*
X132620000Y-50748500D02*
X132620000Y-50240500D01*
D11*
X133188000Y-47894500D02*
X135220000Y-47894500D01*
X133188000Y-50554500D02*
X135220000Y-50554500D01*
X135220000Y-50554500D02*
X135220000Y-47894500D01*
%TO.C,J9*%
X104045000Y-64404500D02*
X106077000Y-64404500D01*
X104045000Y-67064500D02*
X104045000Y-64404500D01*
X104045000Y-67064500D02*
X106077000Y-67064500D01*
D12*
X106331000Y-64464500D02*
X106839000Y-64464500D01*
X106331000Y-67004500D02*
X106839000Y-67004500D01*
D11*
X107153000Y-64404500D02*
X109185000Y-64404500D01*
X107153000Y-67064500D02*
X109185000Y-67064500D01*
X109185000Y-67064500D02*
X109185000Y-64404500D01*
%TO.C,J8*%
X182150000Y-88534500D02*
X184182000Y-88534500D01*
X182150000Y-91194500D02*
X182150000Y-88534500D01*
X182150000Y-91194500D02*
X184182000Y-91194500D01*
D12*
X184436000Y-88594500D02*
X184944000Y-88594500D01*
X184436000Y-91134500D02*
X184944000Y-91134500D01*
X184690000Y-88848500D02*
X184690000Y-88340500D01*
X184690000Y-91388500D02*
X184690000Y-90880500D01*
D11*
X185258000Y-88534500D02*
X187290000Y-88534500D01*
X185258000Y-91194500D02*
X187290000Y-91194500D01*
X187290000Y-91194500D02*
X187290000Y-88534500D01*
X182150000Y-78374500D02*
X184182000Y-78374500D01*
X182150000Y-81034500D02*
X182150000Y-78374500D01*
X182150000Y-81034500D02*
X184182000Y-81034500D01*
D12*
X184436000Y-78434500D02*
X184944000Y-78434500D01*
X184436000Y-80974500D02*
X184944000Y-80974500D01*
X184690000Y-78688500D02*
X184690000Y-78180500D01*
X184690000Y-81228500D02*
X184690000Y-80720500D01*
D11*
X185258000Y-78374500D02*
X187290000Y-78374500D01*
X185258000Y-81034500D02*
X187290000Y-81034500D01*
X187290000Y-81034500D02*
X187290000Y-78374500D01*
X104045000Y-88534500D02*
X106077000Y-88534500D01*
X104045000Y-91194500D02*
X104045000Y-88534500D01*
X104045000Y-91194500D02*
X106077000Y-91194500D01*
D12*
X106331000Y-88594500D02*
X106839000Y-88594500D01*
X106331000Y-91134500D02*
X106839000Y-91134500D01*
X106585000Y-88848500D02*
X106585000Y-88340500D01*
X106585000Y-91388500D02*
X106585000Y-90880500D01*
D11*
X107153000Y-88534500D02*
X109185000Y-88534500D01*
X107153000Y-91194500D02*
X109185000Y-91194500D01*
X109185000Y-91194500D02*
X109185000Y-88534500D01*
X104045000Y-58054500D02*
X106077000Y-58054500D01*
X104045000Y-60714500D02*
X104045000Y-58054500D01*
X104045000Y-60714500D02*
X106077000Y-60714500D01*
D12*
X106331000Y-58114500D02*
X106839000Y-58114500D01*
X106331000Y-60654500D02*
X106839000Y-60654500D01*
X106585000Y-58368500D02*
X106585000Y-57860500D01*
X106585000Y-60908500D02*
X106585000Y-60400500D01*
D11*
X107153000Y-58054500D02*
X109185000Y-58054500D01*
X107153000Y-60714500D02*
X109185000Y-60714500D01*
X109185000Y-60714500D02*
X109185000Y-58054500D01*
%TO.C,J9*%
X130080000Y-105044500D02*
X132112000Y-105044500D01*
X130080000Y-107704500D02*
X130080000Y-105044500D01*
X130080000Y-107704500D02*
X132112000Y-107704500D01*
D12*
X132366000Y-105104500D02*
X132874000Y-105104500D01*
X132366000Y-107644500D02*
X132874000Y-107644500D01*
D11*
X133188000Y-105044500D02*
X135220000Y-105044500D01*
X133188000Y-107704500D02*
X135220000Y-107704500D01*
X135220000Y-107704500D02*
X135220000Y-105044500D01*
%TO.C,J8*%
X130080000Y-58054500D02*
X132112000Y-58054500D01*
X130080000Y-60714500D02*
X130080000Y-58054500D01*
X130080000Y-60714500D02*
X132112000Y-60714500D01*
D12*
X132366000Y-58114500D02*
X132874000Y-58114500D01*
X132366000Y-60654500D02*
X132874000Y-60654500D01*
X132620000Y-58368500D02*
X132620000Y-57860500D01*
X132620000Y-60908500D02*
X132620000Y-60400500D01*
D11*
X133188000Y-58054500D02*
X135220000Y-58054500D01*
X133188000Y-60714500D02*
X135220000Y-60714500D01*
X135220000Y-60714500D02*
X135220000Y-58054500D01*
%TO.C,J9*%
X130080000Y-33924500D02*
X132112000Y-33924500D01*
X130080000Y-36584500D02*
X130080000Y-33924500D01*
X130080000Y-36584500D02*
X132112000Y-36584500D01*
D12*
X132366000Y-33984500D02*
X132874000Y-33984500D01*
X132366000Y-36524500D02*
X132874000Y-36524500D01*
D11*
X133188000Y-33924500D02*
X135220000Y-33924500D01*
X133188000Y-36584500D02*
X135220000Y-36584500D01*
X135220000Y-36584500D02*
X135220000Y-33924500D01*
X104045000Y-105044500D02*
X106077000Y-105044500D01*
X104045000Y-107704500D02*
X104045000Y-105044500D01*
X104045000Y-107704500D02*
X106077000Y-107704500D01*
D12*
X106331000Y-105104500D02*
X106839000Y-105104500D01*
X106331000Y-107644500D02*
X106839000Y-107644500D01*
D11*
X107153000Y-105044500D02*
X109185000Y-105044500D01*
X107153000Y-107704500D02*
X109185000Y-107704500D01*
X109185000Y-107704500D02*
X109185000Y-105044500D01*
%TO.C,J8*%
X104045000Y-98694500D02*
X106077000Y-98694500D01*
X104045000Y-101354500D02*
X104045000Y-98694500D01*
X104045000Y-101354500D02*
X106077000Y-101354500D01*
D12*
X106331000Y-98754500D02*
X106839000Y-98754500D01*
X106331000Y-101294500D02*
X106839000Y-101294500D01*
X106585000Y-99008500D02*
X106585000Y-98500500D01*
X106585000Y-101548500D02*
X106585000Y-101040500D01*
D11*
X107153000Y-98694500D02*
X109185000Y-98694500D01*
X107153000Y-101354500D02*
X109185000Y-101354500D01*
X109185000Y-101354500D02*
X109185000Y-98694500D01*
X156115000Y-37734500D02*
X158147000Y-37734500D01*
X156115000Y-40394500D02*
X156115000Y-37734500D01*
X156115000Y-40394500D02*
X158147000Y-40394500D01*
D12*
X158401000Y-37794500D02*
X158909000Y-37794500D01*
X158401000Y-40334500D02*
X158909000Y-40334500D01*
X158655000Y-38048500D02*
X158655000Y-37540500D01*
X158655000Y-40588500D02*
X158655000Y-40080500D01*
D11*
X159223000Y-37734500D02*
X161255000Y-37734500D01*
X159223000Y-40394500D02*
X161255000Y-40394500D01*
X161255000Y-40394500D02*
X161255000Y-37734500D01*
X182150000Y-47894500D02*
X184182000Y-47894500D01*
X182150000Y-50554500D02*
X182150000Y-47894500D01*
X182150000Y-50554500D02*
X184182000Y-50554500D01*
D12*
X184436000Y-47954500D02*
X184944000Y-47954500D01*
X184436000Y-50494500D02*
X184944000Y-50494500D01*
X184690000Y-48208500D02*
X184690000Y-47700500D01*
X184690000Y-50748500D02*
X184690000Y-50240500D01*
D11*
X185258000Y-47894500D02*
X187290000Y-47894500D01*
X185258000Y-50554500D02*
X187290000Y-50554500D01*
X187290000Y-50554500D02*
X187290000Y-47894500D01*
%TO.C,J9*%
X104045000Y-44084500D02*
X106077000Y-44084500D01*
X104045000Y-46744500D02*
X104045000Y-44084500D01*
X104045000Y-46744500D02*
X106077000Y-46744500D01*
D12*
X106331000Y-44144500D02*
X106839000Y-44144500D01*
X106331000Y-46684500D02*
X106839000Y-46684500D01*
D11*
X107153000Y-44084500D02*
X109185000Y-44084500D01*
X107153000Y-46744500D02*
X109185000Y-46744500D01*
X109185000Y-46744500D02*
X109185000Y-44084500D01*
X104045000Y-33924500D02*
X106077000Y-33924500D01*
X104045000Y-36584500D02*
X104045000Y-33924500D01*
X104045000Y-36584500D02*
X106077000Y-36584500D01*
D12*
X106331000Y-33984500D02*
X106839000Y-33984500D01*
X106331000Y-36524500D02*
X106839000Y-36524500D01*
D11*
X107153000Y-33924500D02*
X109185000Y-33924500D01*
X107153000Y-36584500D02*
X109185000Y-36584500D01*
X109185000Y-36584500D02*
X109185000Y-33924500D01*
%TO.C,J8*%
X156115000Y-98694500D02*
X158147000Y-98694500D01*
X156115000Y-101354500D02*
X156115000Y-98694500D01*
X156115000Y-101354500D02*
X158147000Y-101354500D01*
D12*
X158401000Y-98754500D02*
X158909000Y-98754500D01*
X158401000Y-101294500D02*
X158909000Y-101294500D01*
X158655000Y-99008500D02*
X158655000Y-98500500D01*
X158655000Y-101548500D02*
X158655000Y-101040500D01*
D11*
X159223000Y-98694500D02*
X161255000Y-98694500D01*
X159223000Y-101354500D02*
X161255000Y-101354500D01*
X161255000Y-101354500D02*
X161255000Y-98694500D01*
X104045000Y-68214500D02*
X106077000Y-68214500D01*
X104045000Y-70874500D02*
X104045000Y-68214500D01*
X104045000Y-70874500D02*
X106077000Y-70874500D01*
D12*
X106331000Y-68274500D02*
X106839000Y-68274500D01*
X106331000Y-70814500D02*
X106839000Y-70814500D01*
X106585000Y-68528500D02*
X106585000Y-68020500D01*
X106585000Y-71068500D02*
X106585000Y-70560500D01*
D11*
X107153000Y-68214500D02*
X109185000Y-68214500D01*
X107153000Y-70874500D02*
X109185000Y-70874500D01*
X109185000Y-70874500D02*
X109185000Y-68214500D01*
X156115000Y-47894500D02*
X158147000Y-47894500D01*
X156115000Y-50554500D02*
X156115000Y-47894500D01*
X156115000Y-50554500D02*
X158147000Y-50554500D01*
D12*
X158401000Y-47954500D02*
X158909000Y-47954500D01*
X158401000Y-50494500D02*
X158909000Y-50494500D01*
X158655000Y-48208500D02*
X158655000Y-47700500D01*
X158655000Y-50748500D02*
X158655000Y-50240500D01*
D11*
X159223000Y-47894500D02*
X161255000Y-47894500D01*
X159223000Y-50554500D02*
X161255000Y-50554500D01*
X161255000Y-50554500D02*
X161255000Y-47894500D01*
%TO.C,J9*%
X182150000Y-33924500D02*
X184182000Y-33924500D01*
X182150000Y-36584500D02*
X182150000Y-33924500D01*
X182150000Y-36584500D02*
X184182000Y-36584500D01*
D12*
X184436000Y-33984500D02*
X184944000Y-33984500D01*
X184436000Y-36524500D02*
X184944000Y-36524500D01*
D11*
X185258000Y-33924500D02*
X187290000Y-33924500D01*
X185258000Y-36584500D02*
X187290000Y-36584500D01*
X187290000Y-36584500D02*
X187290000Y-33924500D01*
%TO.C,J8*%
X156115000Y-78374500D02*
X158147000Y-78374500D01*
X156115000Y-81034500D02*
X156115000Y-78374500D01*
X156115000Y-81034500D02*
X158147000Y-81034500D01*
D12*
X158401000Y-78434500D02*
X158909000Y-78434500D01*
X158401000Y-80974500D02*
X158909000Y-80974500D01*
X158655000Y-78688500D02*
X158655000Y-78180500D01*
X158655000Y-81228500D02*
X158655000Y-80720500D01*
D11*
X159223000Y-78374500D02*
X161255000Y-78374500D01*
X159223000Y-81034500D02*
X161255000Y-81034500D01*
X161255000Y-81034500D02*
X161255000Y-78374500D01*
%TO.C,J9*%
X104045000Y-74564500D02*
X106077000Y-74564500D01*
X104045000Y-77224500D02*
X104045000Y-74564500D01*
X104045000Y-77224500D02*
X106077000Y-77224500D01*
D12*
X106331000Y-74624500D02*
X106839000Y-74624500D01*
X106331000Y-77164500D02*
X106839000Y-77164500D01*
D11*
X107153000Y-74564500D02*
X109185000Y-74564500D01*
X107153000Y-77224500D02*
X109185000Y-77224500D01*
X109185000Y-77224500D02*
X109185000Y-74564500D01*
X182150000Y-94884500D02*
X184182000Y-94884500D01*
X182150000Y-97544500D02*
X182150000Y-94884500D01*
X182150000Y-97544500D02*
X184182000Y-97544500D01*
D12*
X184436000Y-94944500D02*
X184944000Y-94944500D01*
X184436000Y-97484500D02*
X184944000Y-97484500D01*
D11*
X185258000Y-94884500D02*
X187290000Y-94884500D01*
X185258000Y-97544500D02*
X187290000Y-97544500D01*
X187290000Y-97544500D02*
X187290000Y-94884500D01*
%TO.C,J8*%
X104045000Y-47894500D02*
X106077000Y-47894500D01*
X104045000Y-50554500D02*
X104045000Y-47894500D01*
X104045000Y-50554500D02*
X106077000Y-50554500D01*
D12*
X106331000Y-47954500D02*
X106839000Y-47954500D01*
X106331000Y-50494500D02*
X106839000Y-50494500D01*
X106585000Y-48208500D02*
X106585000Y-47700500D01*
X106585000Y-50748500D02*
X106585000Y-50240500D01*
D11*
X107153000Y-47894500D02*
X109185000Y-47894500D01*
X107153000Y-50554500D02*
X109185000Y-50554500D01*
X109185000Y-50554500D02*
X109185000Y-47894500D01*
%TO.C,J9*%
X104045000Y-84724500D02*
X106077000Y-84724500D01*
X104045000Y-87384500D02*
X104045000Y-84724500D01*
X104045000Y-87384500D02*
X106077000Y-87384500D01*
D12*
X106331000Y-84784500D02*
X106839000Y-84784500D01*
X106331000Y-87324500D02*
X106839000Y-87324500D01*
D11*
X107153000Y-84724500D02*
X109185000Y-84724500D01*
X107153000Y-87384500D02*
X109185000Y-87384500D01*
X109185000Y-87384500D02*
X109185000Y-84724500D01*
%TO.C,J3*%
X170530000Y-39439500D02*
X171130000Y-39739500D01*
X170530000Y-40039500D02*
X170530000Y-39439500D01*
X171130000Y-39739500D02*
X170530000Y-40039500D01*
X172630000Y-38619500D02*
X172630000Y-37453500D01*
X172630000Y-45879500D02*
X172630000Y-47105500D01*
X173120000Y-38599500D02*
X172630000Y-38599500D01*
X173120000Y-45879500D02*
X172630000Y-45879500D01*
D12*
X174154000Y-37453500D02*
X172630000Y-37453500D01*
X174154000Y-47105500D02*
X172630000Y-47105500D01*
D11*
X174230000Y-39489500D02*
X174230000Y-39989500D01*
X174230000Y-41989500D02*
X174230000Y-42489500D01*
X174230000Y-44489500D02*
X174230000Y-44989500D01*
X170530000Y-80079500D02*
X171130000Y-80379500D01*
X170530000Y-80679500D02*
X170530000Y-80079500D01*
X171130000Y-80379500D02*
X170530000Y-80679500D01*
X172630000Y-79259500D02*
X172630000Y-78093500D01*
X172630000Y-86519500D02*
X172630000Y-87745500D01*
X173120000Y-79239500D02*
X172630000Y-79239500D01*
X173120000Y-86519500D02*
X172630000Y-86519500D01*
D12*
X174154000Y-78093500D02*
X172630000Y-78093500D01*
X174154000Y-87745500D02*
X172630000Y-87745500D01*
D11*
X174230000Y-80129500D02*
X174230000Y-80629500D01*
X174230000Y-82629500D02*
X174230000Y-83129500D01*
X174230000Y-85129500D02*
X174230000Y-85629500D01*
X144495000Y-80079500D02*
X145095000Y-80379500D01*
X144495000Y-80679500D02*
X144495000Y-80079500D01*
X145095000Y-80379500D02*
X144495000Y-80679500D01*
X146595000Y-79259500D02*
X146595000Y-78093500D01*
X146595000Y-86519500D02*
X146595000Y-87745500D01*
X147085000Y-79239500D02*
X146595000Y-79239500D01*
X147085000Y-86519500D02*
X146595000Y-86519500D01*
D12*
X148119000Y-78093500D02*
X146595000Y-78093500D01*
X148119000Y-87745500D02*
X146595000Y-87745500D01*
D11*
X148195000Y-80129500D02*
X148195000Y-80629500D01*
X148195000Y-82629500D02*
X148195000Y-83129500D01*
X148195000Y-85129500D02*
X148195000Y-85629500D01*
X118460000Y-69919500D02*
X119060000Y-70219500D01*
X118460000Y-70519500D02*
X118460000Y-69919500D01*
X119060000Y-70219500D02*
X118460000Y-70519500D01*
X120560000Y-69099500D02*
X120560000Y-67933500D01*
X120560000Y-76359500D02*
X120560000Y-77585500D01*
X121050000Y-69079500D02*
X120560000Y-69079500D01*
X121050000Y-76359500D02*
X120560000Y-76359500D01*
D12*
X122084000Y-67933500D02*
X120560000Y-67933500D01*
X122084000Y-77585500D02*
X120560000Y-77585500D01*
D11*
X122160000Y-69969500D02*
X122160000Y-70469500D01*
X122160000Y-72469500D02*
X122160000Y-72969500D01*
X122160000Y-74969500D02*
X122160000Y-75469500D01*
X196565000Y-59759500D02*
X197165000Y-60059500D01*
X196565000Y-60359500D02*
X196565000Y-59759500D01*
X197165000Y-60059500D02*
X196565000Y-60359500D01*
X198665000Y-58939500D02*
X198665000Y-57773500D01*
X198665000Y-66199500D02*
X198665000Y-67425500D01*
X199155000Y-58919500D02*
X198665000Y-58919500D01*
X199155000Y-66199500D02*
X198665000Y-66199500D01*
D12*
X200189000Y-57773500D02*
X198665000Y-57773500D01*
X200189000Y-67425500D02*
X198665000Y-67425500D01*
D11*
X200265000Y-59809500D02*
X200265000Y-60309500D01*
X200265000Y-62309500D02*
X200265000Y-62809500D01*
X200265000Y-64809500D02*
X200265000Y-65309500D01*
X196565000Y-49599500D02*
X197165000Y-49899500D01*
X196565000Y-50199500D02*
X196565000Y-49599500D01*
X197165000Y-49899500D02*
X196565000Y-50199500D01*
X198665000Y-48779500D02*
X198665000Y-47613500D01*
X198665000Y-56039500D02*
X198665000Y-57265500D01*
X199155000Y-48759500D02*
X198665000Y-48759500D01*
X199155000Y-56039500D02*
X198665000Y-56039500D01*
D12*
X200189000Y-47613500D02*
X198665000Y-47613500D01*
X200189000Y-57265500D02*
X198665000Y-57265500D01*
D11*
X200265000Y-49649500D02*
X200265000Y-50149500D01*
X200265000Y-52149500D02*
X200265000Y-52649500D01*
X200265000Y-54649500D02*
X200265000Y-55149500D01*
X144495000Y-100399500D02*
X145095000Y-100699500D01*
X144495000Y-100999500D02*
X144495000Y-100399500D01*
X145095000Y-100699500D02*
X144495000Y-100999500D01*
X146595000Y-99579500D02*
X146595000Y-98413500D01*
X146595000Y-106839500D02*
X146595000Y-108065500D01*
X147085000Y-99559500D02*
X146595000Y-99559500D01*
X147085000Y-106839500D02*
X146595000Y-106839500D01*
D12*
X148119000Y-98413500D02*
X146595000Y-98413500D01*
X148119000Y-108065500D02*
X146595000Y-108065500D01*
D11*
X148195000Y-100449500D02*
X148195000Y-100949500D01*
X148195000Y-102949500D02*
X148195000Y-103449500D01*
X148195000Y-105449500D02*
X148195000Y-105949500D01*
X144495000Y-90239500D02*
X145095000Y-90539500D01*
X144495000Y-90839500D02*
X144495000Y-90239500D01*
X145095000Y-90539500D02*
X144495000Y-90839500D01*
X146595000Y-89419500D02*
X146595000Y-88253500D01*
X146595000Y-96679500D02*
X146595000Y-97905500D01*
X147085000Y-89399500D02*
X146595000Y-89399500D01*
X147085000Y-96679500D02*
X146595000Y-96679500D01*
D12*
X148119000Y-88253500D02*
X146595000Y-88253500D01*
X148119000Y-97905500D02*
X146595000Y-97905500D01*
D11*
X148195000Y-90289500D02*
X148195000Y-90789500D01*
X148195000Y-92789500D02*
X148195000Y-93289500D01*
X148195000Y-95289500D02*
X148195000Y-95789500D01*
X118460000Y-90239500D02*
X119060000Y-90539500D01*
X118460000Y-90839500D02*
X118460000Y-90239500D01*
X119060000Y-90539500D02*
X118460000Y-90839500D01*
X120560000Y-89419500D02*
X120560000Y-88253500D01*
X120560000Y-96679500D02*
X120560000Y-97905500D01*
X121050000Y-89399500D02*
X120560000Y-89399500D01*
X121050000Y-96679500D02*
X120560000Y-96679500D01*
D12*
X122084000Y-88253500D02*
X120560000Y-88253500D01*
X122084000Y-97905500D02*
X120560000Y-97905500D01*
D11*
X122160000Y-90289500D02*
X122160000Y-90789500D01*
X122160000Y-92789500D02*
X122160000Y-93289500D01*
X122160000Y-95289500D02*
X122160000Y-95789500D01*
X144495000Y-49599500D02*
X145095000Y-49899500D01*
X144495000Y-50199500D02*
X144495000Y-49599500D01*
X145095000Y-49899500D02*
X144495000Y-50199500D01*
X146595000Y-48779500D02*
X146595000Y-47613500D01*
X146595000Y-56039500D02*
X146595000Y-57265500D01*
X147085000Y-48759500D02*
X146595000Y-48759500D01*
X147085000Y-56039500D02*
X146595000Y-56039500D01*
D12*
X148119000Y-47613500D02*
X146595000Y-47613500D01*
X148119000Y-57265500D02*
X146595000Y-57265500D01*
D11*
X148195000Y-49649500D02*
X148195000Y-50149500D01*
X148195000Y-52149500D02*
X148195000Y-52649500D01*
X148195000Y-54649500D02*
X148195000Y-55149500D01*
X170530000Y-90239500D02*
X171130000Y-90539500D01*
X170530000Y-90839500D02*
X170530000Y-90239500D01*
X171130000Y-90539500D02*
X170530000Y-90839500D01*
X172630000Y-89419500D02*
X172630000Y-88253500D01*
X172630000Y-96679500D02*
X172630000Y-97905500D01*
X173120000Y-89399500D02*
X172630000Y-89399500D01*
X173120000Y-96679500D02*
X172630000Y-96679500D01*
D12*
X174154000Y-88253500D02*
X172630000Y-88253500D01*
X174154000Y-97905500D02*
X172630000Y-97905500D01*
D11*
X174230000Y-90289500D02*
X174230000Y-90789500D01*
X174230000Y-92789500D02*
X174230000Y-93289500D01*
X174230000Y-95289500D02*
X174230000Y-95789500D01*
X170530000Y-59759500D02*
X171130000Y-60059500D01*
X170530000Y-60359500D02*
X170530000Y-59759500D01*
X171130000Y-60059500D02*
X170530000Y-60359500D01*
X172630000Y-58939500D02*
X172630000Y-57773500D01*
X172630000Y-66199500D02*
X172630000Y-67425500D01*
X173120000Y-58919500D02*
X172630000Y-58919500D01*
X173120000Y-66199500D02*
X172630000Y-66199500D01*
D12*
X174154000Y-57773500D02*
X172630000Y-57773500D01*
X174154000Y-67425500D02*
X172630000Y-67425500D01*
D11*
X174230000Y-59809500D02*
X174230000Y-60309500D01*
X174230000Y-62309500D02*
X174230000Y-62809500D01*
X174230000Y-64809500D02*
X174230000Y-65309500D01*
X170530000Y-100399500D02*
X171130000Y-100699500D01*
X170530000Y-100999500D02*
X170530000Y-100399500D01*
X171130000Y-100699500D02*
X170530000Y-100999500D01*
X172630000Y-99579500D02*
X172630000Y-98413500D01*
X172630000Y-106839500D02*
X172630000Y-108065500D01*
X173120000Y-99559500D02*
X172630000Y-99559500D01*
X173120000Y-106839500D02*
X172630000Y-106839500D01*
D12*
X174154000Y-98413500D02*
X172630000Y-98413500D01*
X174154000Y-108065500D02*
X172630000Y-108065500D01*
D11*
X174230000Y-100449500D02*
X174230000Y-100949500D01*
X174230000Y-102949500D02*
X174230000Y-103449500D01*
X174230000Y-105449500D02*
X174230000Y-105949500D01*
X196565000Y-69919500D02*
X197165000Y-70219500D01*
X196565000Y-70519500D02*
X196565000Y-69919500D01*
X197165000Y-70219500D02*
X196565000Y-70519500D01*
X198665000Y-69099500D02*
X198665000Y-67933500D01*
X198665000Y-76359500D02*
X198665000Y-77585500D01*
X199155000Y-69079500D02*
X198665000Y-69079500D01*
X199155000Y-76359500D02*
X198665000Y-76359500D01*
D12*
X200189000Y-67933500D02*
X198665000Y-67933500D01*
X200189000Y-77585500D02*
X198665000Y-77585500D01*
D11*
X200265000Y-69969500D02*
X200265000Y-70469500D01*
X200265000Y-72469500D02*
X200265000Y-72969500D01*
X200265000Y-74969500D02*
X200265000Y-75469500D01*
X144495000Y-69919500D02*
X145095000Y-70219500D01*
X144495000Y-70519500D02*
X144495000Y-69919500D01*
X145095000Y-70219500D02*
X144495000Y-70519500D01*
X146595000Y-69099500D02*
X146595000Y-67933500D01*
X146595000Y-76359500D02*
X146595000Y-77585500D01*
X147085000Y-69079500D02*
X146595000Y-69079500D01*
X147085000Y-76359500D02*
X146595000Y-76359500D01*
D12*
X148119000Y-67933500D02*
X146595000Y-67933500D01*
X148119000Y-77585500D02*
X146595000Y-77585500D01*
D11*
X148195000Y-69969500D02*
X148195000Y-70469500D01*
X148195000Y-72469500D02*
X148195000Y-72969500D01*
X148195000Y-74969500D02*
X148195000Y-75469500D01*
X144495000Y-29279500D02*
X145095000Y-29579500D01*
X144495000Y-29879500D02*
X144495000Y-29279500D01*
X145095000Y-29579500D02*
X144495000Y-29879500D01*
X146595000Y-28459500D02*
X146595000Y-27293500D01*
X146595000Y-35719500D02*
X146595000Y-36945500D01*
X147085000Y-28439500D02*
X146595000Y-28439500D01*
X147085000Y-35719500D02*
X146595000Y-35719500D01*
D12*
X148119000Y-27293500D02*
X146595000Y-27293500D01*
X148119000Y-36945500D02*
X146595000Y-36945500D01*
D11*
X148195000Y-29329500D02*
X148195000Y-29829500D01*
X148195000Y-31829500D02*
X148195000Y-32329500D01*
X148195000Y-34329500D02*
X148195000Y-34829500D01*
X170530000Y-29279500D02*
X171130000Y-29579500D01*
X170530000Y-29879500D02*
X170530000Y-29279500D01*
X171130000Y-29579500D02*
X170530000Y-29879500D01*
X172630000Y-28459500D02*
X172630000Y-27293500D01*
X172630000Y-35719500D02*
X172630000Y-36945500D01*
X173120000Y-28439500D02*
X172630000Y-28439500D01*
X173120000Y-35719500D02*
X172630000Y-35719500D01*
D12*
X174154000Y-27293500D02*
X172630000Y-27293500D01*
X174154000Y-36945500D02*
X172630000Y-36945500D01*
D11*
X174230000Y-29329500D02*
X174230000Y-29829500D01*
X174230000Y-31829500D02*
X174230000Y-32329500D01*
X174230000Y-34329500D02*
X174230000Y-34829500D01*
X196565000Y-90239500D02*
X197165000Y-90539500D01*
X196565000Y-90839500D02*
X196565000Y-90239500D01*
X197165000Y-90539500D02*
X196565000Y-90839500D01*
X198665000Y-89419500D02*
X198665000Y-88253500D01*
X198665000Y-96679500D02*
X198665000Y-97905500D01*
X199155000Y-89399500D02*
X198665000Y-89399500D01*
X199155000Y-96679500D02*
X198665000Y-96679500D01*
D12*
X200189000Y-88253500D02*
X198665000Y-88253500D01*
X200189000Y-97905500D02*
X198665000Y-97905500D01*
D11*
X200265000Y-90289500D02*
X200265000Y-90789500D01*
X200265000Y-92789500D02*
X200265000Y-93289500D01*
X200265000Y-95289500D02*
X200265000Y-95789500D01*
X196565000Y-39439500D02*
X197165000Y-39739500D01*
X196565000Y-40039500D02*
X196565000Y-39439500D01*
X197165000Y-39739500D02*
X196565000Y-40039500D01*
X198665000Y-38619500D02*
X198665000Y-37453500D01*
X198665000Y-45879500D02*
X198665000Y-47105500D01*
X199155000Y-38599500D02*
X198665000Y-38599500D01*
X199155000Y-45879500D02*
X198665000Y-45879500D01*
D12*
X200189000Y-37453500D02*
X198665000Y-37453500D01*
X200189000Y-47105500D02*
X198665000Y-47105500D01*
D11*
X200265000Y-39489500D02*
X200265000Y-39989500D01*
X200265000Y-41989500D02*
X200265000Y-42489500D01*
X200265000Y-44489500D02*
X200265000Y-44989500D01*
X118460000Y-80079500D02*
X119060000Y-80379500D01*
X118460000Y-80679500D02*
X118460000Y-80079500D01*
X119060000Y-80379500D02*
X118460000Y-80679500D01*
X120560000Y-79259500D02*
X120560000Y-78093500D01*
X120560000Y-86519500D02*
X120560000Y-87745500D01*
X121050000Y-79239500D02*
X120560000Y-79239500D01*
X121050000Y-86519500D02*
X120560000Y-86519500D01*
D12*
X122084000Y-78093500D02*
X120560000Y-78093500D01*
X122084000Y-87745500D02*
X120560000Y-87745500D01*
D11*
X122160000Y-80129500D02*
X122160000Y-80629500D01*
X122160000Y-82629500D02*
X122160000Y-83129500D01*
X122160000Y-85129500D02*
X122160000Y-85629500D01*
X118460000Y-49599500D02*
X119060000Y-49899500D01*
X118460000Y-50199500D02*
X118460000Y-49599500D01*
X119060000Y-49899500D02*
X118460000Y-50199500D01*
X120560000Y-48779500D02*
X120560000Y-47613500D01*
X120560000Y-56039500D02*
X120560000Y-57265500D01*
X121050000Y-48759500D02*
X120560000Y-48759500D01*
X121050000Y-56039500D02*
X120560000Y-56039500D01*
D12*
X122084000Y-47613500D02*
X120560000Y-47613500D01*
X122084000Y-57265500D02*
X120560000Y-57265500D01*
D11*
X122160000Y-49649500D02*
X122160000Y-50149500D01*
X122160000Y-52149500D02*
X122160000Y-52649500D01*
X122160000Y-54649500D02*
X122160000Y-55149500D01*
X118460000Y-29279500D02*
X119060000Y-29579500D01*
X118460000Y-29879500D02*
X118460000Y-29279500D01*
X119060000Y-29579500D02*
X118460000Y-29879500D01*
X120560000Y-28459500D02*
X120560000Y-27293500D01*
X120560000Y-35719500D02*
X120560000Y-36945500D01*
X121050000Y-28439500D02*
X120560000Y-28439500D01*
X121050000Y-35719500D02*
X120560000Y-35719500D01*
D12*
X122084000Y-27293500D02*
X120560000Y-27293500D01*
X122084000Y-36945500D02*
X120560000Y-36945500D01*
D11*
X122160000Y-29329500D02*
X122160000Y-29829500D01*
X122160000Y-31829500D02*
X122160000Y-32329500D01*
X122160000Y-34329500D02*
X122160000Y-34829500D01*
X118460000Y-100399500D02*
X119060000Y-100699500D01*
X118460000Y-100999500D02*
X118460000Y-100399500D01*
X119060000Y-100699500D02*
X118460000Y-100999500D01*
X120560000Y-99579500D02*
X120560000Y-98413500D01*
X120560000Y-106839500D02*
X120560000Y-108065500D01*
X121050000Y-99559500D02*
X120560000Y-99559500D01*
X121050000Y-106839500D02*
X120560000Y-106839500D01*
D12*
X122084000Y-98413500D02*
X120560000Y-98413500D01*
X122084000Y-108065500D02*
X120560000Y-108065500D01*
D11*
X122160000Y-100449500D02*
X122160000Y-100949500D01*
X122160000Y-102949500D02*
X122160000Y-103449500D01*
X122160000Y-105449500D02*
X122160000Y-105949500D01*
X170530000Y-49599500D02*
X171130000Y-49899500D01*
X170530000Y-50199500D02*
X170530000Y-49599500D01*
X171130000Y-49899500D02*
X170530000Y-50199500D01*
X172630000Y-48779500D02*
X172630000Y-47613500D01*
X172630000Y-56039500D02*
X172630000Y-57265500D01*
X173120000Y-48759500D02*
X172630000Y-48759500D01*
X173120000Y-56039500D02*
X172630000Y-56039500D01*
D12*
X174154000Y-47613500D02*
X172630000Y-47613500D01*
X174154000Y-57265500D02*
X172630000Y-57265500D01*
D11*
X174230000Y-49649500D02*
X174230000Y-50149500D01*
X174230000Y-52149500D02*
X174230000Y-52649500D01*
X174230000Y-54649500D02*
X174230000Y-55149500D01*
X196565000Y-29279500D02*
X197165000Y-29579500D01*
X196565000Y-29879500D02*
X196565000Y-29279500D01*
X197165000Y-29579500D02*
X196565000Y-29879500D01*
X198665000Y-28459500D02*
X198665000Y-27293500D01*
X198665000Y-35719500D02*
X198665000Y-36945500D01*
X199155000Y-28439500D02*
X198665000Y-28439500D01*
X199155000Y-35719500D02*
X198665000Y-35719500D01*
D12*
X200189000Y-27293500D02*
X198665000Y-27293500D01*
X200189000Y-36945500D02*
X198665000Y-36945500D01*
D11*
X200265000Y-29329500D02*
X200265000Y-29829500D01*
X200265000Y-31829500D02*
X200265000Y-32329500D01*
X200265000Y-34329500D02*
X200265000Y-34829500D01*
X196565000Y-80079500D02*
X197165000Y-80379500D01*
X196565000Y-80679500D02*
X196565000Y-80079500D01*
X197165000Y-80379500D02*
X196565000Y-80679500D01*
X198665000Y-79259500D02*
X198665000Y-78093500D01*
X198665000Y-86519500D02*
X198665000Y-87745500D01*
X199155000Y-79239500D02*
X198665000Y-79239500D01*
X199155000Y-86519500D02*
X198665000Y-86519500D01*
D12*
X200189000Y-78093500D02*
X198665000Y-78093500D01*
X200189000Y-87745500D02*
X198665000Y-87745500D01*
D11*
X200265000Y-80129500D02*
X200265000Y-80629500D01*
X200265000Y-82629500D02*
X200265000Y-83129500D01*
X200265000Y-85129500D02*
X200265000Y-85629500D01*
X118460000Y-59759500D02*
X119060000Y-60059500D01*
X118460000Y-60359500D02*
X118460000Y-59759500D01*
X119060000Y-60059500D02*
X118460000Y-60359500D01*
X120560000Y-58939500D02*
X120560000Y-57773500D01*
X120560000Y-66199500D02*
X120560000Y-67425500D01*
X121050000Y-58919500D02*
X120560000Y-58919500D01*
X121050000Y-66199500D02*
X120560000Y-66199500D01*
D12*
X122084000Y-57773500D02*
X120560000Y-57773500D01*
X122084000Y-67425500D02*
X120560000Y-67425500D01*
D11*
X122160000Y-59809500D02*
X122160000Y-60309500D01*
X122160000Y-62309500D02*
X122160000Y-62809500D01*
X122160000Y-64809500D02*
X122160000Y-65309500D01*
X196565000Y-100399500D02*
X197165000Y-100699500D01*
X196565000Y-100999500D02*
X196565000Y-100399500D01*
X197165000Y-100699500D02*
X196565000Y-100999500D01*
X198665000Y-99579500D02*
X198665000Y-98413500D01*
X198665000Y-106839500D02*
X198665000Y-108065500D01*
X199155000Y-99559500D02*
X198665000Y-99559500D01*
X199155000Y-106839500D02*
X198665000Y-106839500D01*
D12*
X200189000Y-98413500D02*
X198665000Y-98413500D01*
X200189000Y-108065500D02*
X198665000Y-108065500D01*
D11*
X200265000Y-100449500D02*
X200265000Y-100949500D01*
X200265000Y-102949500D02*
X200265000Y-103449500D01*
X200265000Y-105449500D02*
X200265000Y-105949500D01*
X144495000Y-59759500D02*
X145095000Y-60059500D01*
X144495000Y-60359500D02*
X144495000Y-59759500D01*
X145095000Y-60059500D02*
X144495000Y-60359500D01*
X146595000Y-58939500D02*
X146595000Y-57773500D01*
X146595000Y-66199500D02*
X146595000Y-67425500D01*
X147085000Y-58919500D02*
X146595000Y-58919500D01*
X147085000Y-66199500D02*
X146595000Y-66199500D01*
D12*
X148119000Y-57773500D02*
X146595000Y-57773500D01*
X148119000Y-67425500D02*
X146595000Y-67425500D01*
D11*
X148195000Y-59809500D02*
X148195000Y-60309500D01*
X148195000Y-62309500D02*
X148195000Y-62809500D01*
X148195000Y-64809500D02*
X148195000Y-65309500D01*
X144495000Y-39439500D02*
X145095000Y-39739500D01*
X144495000Y-40039500D02*
X144495000Y-39439500D01*
X145095000Y-39739500D02*
X144495000Y-40039500D01*
X146595000Y-38619500D02*
X146595000Y-37453500D01*
X146595000Y-45879500D02*
X146595000Y-47105500D01*
X147085000Y-38599500D02*
X146595000Y-38599500D01*
X147085000Y-45879500D02*
X146595000Y-45879500D01*
D12*
X148119000Y-37453500D02*
X146595000Y-37453500D01*
X148119000Y-47105500D02*
X146595000Y-47105500D01*
D11*
X148195000Y-39489500D02*
X148195000Y-39989500D01*
X148195000Y-41989500D02*
X148195000Y-42489500D01*
X148195000Y-44489500D02*
X148195000Y-44989500D01*
X118460000Y-39439500D02*
X119060000Y-39739500D01*
X118460000Y-40039500D02*
X118460000Y-39439500D01*
X119060000Y-39739500D02*
X118460000Y-40039500D01*
X120560000Y-38619500D02*
X120560000Y-37453500D01*
X120560000Y-45879500D02*
X120560000Y-47105500D01*
X121050000Y-38599500D02*
X120560000Y-38599500D01*
X121050000Y-45879500D02*
X120560000Y-45879500D01*
D12*
X122084000Y-37453500D02*
X120560000Y-37453500D01*
X122084000Y-47105500D02*
X120560000Y-47105500D01*
D11*
X122160000Y-39489500D02*
X122160000Y-39989500D01*
X122160000Y-41989500D02*
X122160000Y-42489500D01*
X122160000Y-44489500D02*
X122160000Y-44989500D01*
X170530000Y-69919500D02*
X171130000Y-70219500D01*
X170530000Y-70519500D02*
X170530000Y-69919500D01*
X171130000Y-70219500D02*
X170530000Y-70519500D01*
X172630000Y-69099500D02*
X172630000Y-67933500D01*
X172630000Y-76359500D02*
X172630000Y-77585500D01*
X173120000Y-69079500D02*
X172630000Y-69079500D01*
X173120000Y-76359500D02*
X172630000Y-76359500D01*
D12*
X174154000Y-67933500D02*
X172630000Y-67933500D01*
X174154000Y-77585500D02*
X172630000Y-77585500D01*
D11*
X174230000Y-69969500D02*
X174230000Y-70469500D01*
X174230000Y-72469500D02*
X174230000Y-72969500D01*
X174230000Y-74969500D02*
X174230000Y-75469500D01*
%TD*%
M02*
