%TF.GenerationSoftware,KiCad,Pcbnew,8.0.8*%
%TF.CreationDate,2025-02-21T18:04:56+11:00*%
%TF.ProjectId,panel,70616e65-6c2e-46b6-9963-61645f706362,rev?*%
%TF.SameCoordinates,Original*%
%TF.FileFunction,Soldermask,Top*%
%TF.FilePolarity,Negative*%
%FSLAX46Y46*%
G04 Gerber Fmt 4.6, Leading zero omitted, Abs format (unit mm)*
G04 Created by KiCad (PCBNEW 8.0.8) date 2025-02-21 18:04:56*
%MOMM*%
%LPD*%
G01*
G04 APERTURE LIST*
G04 Aperture macros list*
%AMRoundRect*
0 Rectangle with rounded corners*
0 $1 Rounding radius*
0 $2 $3 $4 $5 $6 $7 $8 $9 X,Y pos of 4 corners*
0 Add a 4 corners polygon primitive as box body*
4,1,4,$2,$3,$4,$5,$6,$7,$8,$9,$2,$3,0*
0 Add four circle primitives for the rounded corners*
1,1,$1+$1,$2,$3*
1,1,$1+$1,$4,$5*
1,1,$1+$1,$6,$7*
1,1,$1+$1,$8,$9*
0 Add four rect primitives between the rounded corners*
20,1,$1+$1,$2,$3,$4,$5,0*
20,1,$1+$1,$4,$5,$6,$7,0*
20,1,$1+$1,$6,$7,$8,$9,0*
20,1,$1+$1,$8,$9,$2,$3,0*%
G04 Aperture macros list end*
%ADD10O,1.100000X1.100000*%
%ADD11C,3.200000*%
%ADD12O,1.700000X1.700000*%
%ADD13R,1.700000X1.700000*%
%ADD14RoundRect,0.237500X0.287500X0.237500X-0.287500X0.237500X-0.287500X-0.237500X0.287500X-0.237500X0*%
%ADD15RoundRect,0.250000X-1.075000X0.400000X-1.075000X-0.400000X1.075000X-0.400000X1.075000X0.400000X0*%
%ADD16C,2.000000*%
%ADD17C,1.700000*%
%ADD18RoundRect,0.250000X-0.725000X0.600000X-0.725000X-0.600000X0.725000X-0.600000X0.725000X0.600000X0*%
%ADD19O,1.950000X1.700000*%
%ADD20C,2.100000*%
G04 APERTURE END LIST*
D10*
%TO.C,H2*%
X162816155Y-81979500D03*
X162816155Y-83779500D03*
X164375000Y-81079500D03*
X164375000Y-84679500D03*
X165933845Y-81979500D03*
X165933845Y-83779499D03*
%TD*%
D11*
%TO.C,H1*%
X100240000Y-32079500D03*
%TD*%
D12*
%TO.C,J9*%
X131350000Y-86054500D03*
X133890000Y-86054500D03*
%TD*%
D10*
%TO.C,H2*%
X136781155Y-41339500D03*
X136781155Y-43139500D03*
X138340000Y-40439500D03*
X138340000Y-44039500D03*
X139898845Y-41339500D03*
X139898845Y-43139499D03*
%TD*%
D11*
%TO.C,H1*%
X152310000Y-32079500D03*
%TD*%
D13*
%TO.C,J8*%
X131350000Y-39064500D03*
X133890000Y-39064500D03*
%TD*%
D10*
%TO.C,H2*%
X136781155Y-71819500D03*
X136781155Y-73619500D03*
X138340000Y-70919500D03*
X138340000Y-74519500D03*
X139898845Y-71819500D03*
X139898845Y-73619499D03*
%TD*%
D12*
%TO.C,J9*%
X157385000Y-45414500D03*
X159925000Y-45414500D03*
%TD*%
D10*
%TO.C,H2*%
X110746155Y-41339500D03*
X110746155Y-43139500D03*
X112305000Y-40439500D03*
X112305000Y-44039500D03*
X113863845Y-41339500D03*
X113863845Y-43139499D03*
%TD*%
D14*
%TO.C,D1*%
X144295000Y-66369500D03*
X142545000Y-66369500D03*
%TD*%
D11*
%TO.C,H1*%
X152310000Y-72719500D03*
%TD*%
%TO.C,H1*%
X178345000Y-42239500D03*
%TD*%
D14*
%TO.C,D1*%
X196365000Y-76529500D03*
X194615000Y-76529500D03*
%TD*%
D12*
%TO.C,J9*%
X105315000Y-55574500D03*
X107855000Y-55574500D03*
%TD*%
D15*
%TO.C,R1*%
X169455000Y-61009500D03*
X169455000Y-64109500D03*
%TD*%
D14*
%TO.C,D1*%
X118260000Y-66369500D03*
X116510000Y-66369500D03*
%TD*%
%TO.C,D1*%
X144295000Y-96849500D03*
X142545000Y-96849500D03*
%TD*%
D16*
%TO.C,KiKit_TO_1*%
X98930000Y-22500000D03*
%TD*%
D10*
%TO.C,H2*%
X136781155Y-102299500D03*
X136781155Y-104099500D03*
X138340000Y-101399500D03*
X138340000Y-104999500D03*
X139898845Y-102299500D03*
X139898845Y-104099499D03*
%TD*%
%TO.C,H2*%
X162816155Y-71819500D03*
X162816155Y-73619500D03*
X164375000Y-70919500D03*
X164375000Y-74519500D03*
X165933845Y-71819500D03*
X165933845Y-73619499D03*
%TD*%
D15*
%TO.C,R1*%
X169455000Y-30529500D03*
X169455000Y-33629500D03*
%TD*%
D11*
%TO.C,H1*%
X126275000Y-82879500D03*
%TD*%
D13*
%TO.C,J8*%
X157385000Y-69544500D03*
X159925000Y-69544500D03*
%TD*%
D14*
%TO.C,D1*%
X196365000Y-86689500D03*
X194615000Y-86689500D03*
%TD*%
%TO.C,D1*%
X170330000Y-76529500D03*
X168580000Y-76529500D03*
%TD*%
D12*
%TO.C,J9*%
X131350000Y-75894500D03*
X133890000Y-75894500D03*
%TD*%
%TO.C,J9*%
X131350000Y-55574500D03*
X133890000Y-55574500D03*
%TD*%
D10*
%TO.C,H2*%
X136781155Y-81979500D03*
X136781155Y-83779500D03*
X138340000Y-81079500D03*
X138340000Y-84679500D03*
X139898845Y-81979500D03*
X139898845Y-83779499D03*
%TD*%
D12*
%TO.C,J9*%
X131350000Y-96214500D03*
X133890000Y-96214500D03*
%TD*%
D15*
%TO.C,R1*%
X143420000Y-91489500D03*
X143420000Y-94589500D03*
%TD*%
%TO.C,R1*%
X195490000Y-50849500D03*
X195490000Y-53949500D03*
%TD*%
D14*
%TO.C,D1*%
X118260000Y-86689500D03*
X116510000Y-86689500D03*
%TD*%
%TO.C,D1*%
X144295000Y-56209500D03*
X142545000Y-56209500D03*
%TD*%
D13*
%TO.C,J8*%
X105315000Y-39064500D03*
X107855000Y-39064500D03*
%TD*%
D14*
%TO.C,D1*%
X144295000Y-46049500D03*
X142545000Y-46049500D03*
%TD*%
D13*
%TO.C,J8*%
X183420000Y-100024500D03*
X185960000Y-100024500D03*
%TD*%
D11*
%TO.C,H1*%
X100240000Y-42239500D03*
%TD*%
D13*
%TO.C,J8*%
X183420000Y-39064500D03*
X185960000Y-39064500D03*
%TD*%
%TO.C,J8*%
X183420000Y-69544500D03*
X185960000Y-69544500D03*
%TD*%
%TO.C,J8*%
X183420000Y-59384500D03*
X185960000Y-59384500D03*
%TD*%
D17*
%TO.C,KiKit_FID_T_1*%
X101430000Y-22500000D03*
%TD*%
D10*
%TO.C,H2*%
X188851155Y-51499500D03*
X188851155Y-53299500D03*
X190410000Y-50599500D03*
X190410000Y-54199500D03*
X191968845Y-51499500D03*
X191968845Y-53299499D03*
%TD*%
%TO.C,H2*%
X136781155Y-92139500D03*
X136781155Y-93939500D03*
X138340000Y-91239500D03*
X138340000Y-94839500D03*
X139898845Y-92139500D03*
X139898845Y-93939499D03*
%TD*%
D12*
%TO.C,J9*%
X157385000Y-106374500D03*
X159925000Y-106374500D03*
%TD*%
D10*
%TO.C,H2*%
X162816155Y-41339500D03*
X162816155Y-43139500D03*
X164375000Y-40439500D03*
X164375000Y-44039500D03*
X165933845Y-41339500D03*
X165933845Y-43139499D03*
%TD*%
D15*
%TO.C,R1*%
X117385000Y-50849500D03*
X117385000Y-53949500D03*
%TD*%
D11*
%TO.C,H1*%
X152310000Y-82879500D03*
%TD*%
D10*
%TO.C,H2*%
X136781155Y-31179500D03*
X136781155Y-32979500D03*
X138340000Y-30279500D03*
X138340000Y-33879500D03*
X139898845Y-31179500D03*
X139898845Y-32979499D03*
%TD*%
D13*
%TO.C,J8*%
X157385000Y-28904500D03*
X159925000Y-28904500D03*
%TD*%
D15*
%TO.C,R1*%
X143420000Y-50849500D03*
X143420000Y-53949500D03*
%TD*%
D13*
%TO.C,J8*%
X183420000Y-28904500D03*
X185960000Y-28904500D03*
%TD*%
%TO.C,J8*%
X105315000Y-28904500D03*
X107855000Y-28904500D03*
%TD*%
D10*
%TO.C,H2*%
X188851155Y-61659500D03*
X188851155Y-63459500D03*
X190410000Y-60759500D03*
X190410000Y-64359500D03*
X191968845Y-61659500D03*
X191968845Y-63459499D03*
%TD*%
%TO.C,H2*%
X110746155Y-31179500D03*
X110746155Y-32979500D03*
X112305000Y-30279500D03*
X112305000Y-33879500D03*
X113863845Y-31179500D03*
X113863845Y-32979499D03*
%TD*%
%TO.C,H2*%
X188851155Y-92139500D03*
X188851155Y-93939500D03*
X190410000Y-91239500D03*
X190410000Y-94839500D03*
X191968845Y-92139500D03*
X191968845Y-93939499D03*
%TD*%
D14*
%TO.C,D1*%
X118260000Y-35889500D03*
X116510000Y-35889500D03*
%TD*%
D13*
%TO.C,J8*%
X157385000Y-89864500D03*
X159925000Y-89864500D03*
%TD*%
D15*
%TO.C,R1*%
X169455000Y-71169500D03*
X169455000Y-74269500D03*
%TD*%
D14*
%TO.C,D1*%
X196365000Y-46049500D03*
X194615000Y-46049500D03*
%TD*%
D10*
%TO.C,H2*%
X110746155Y-61659500D03*
X110746155Y-63459500D03*
X112305000Y-60759500D03*
X112305000Y-64359500D03*
X113863845Y-61659500D03*
X113863845Y-63459499D03*
%TD*%
D14*
%TO.C,D1*%
X118260000Y-46049500D03*
X116510000Y-46049500D03*
%TD*%
D10*
%TO.C,H2*%
X188851155Y-81979500D03*
X188851155Y-83779500D03*
X190410000Y-81079500D03*
X190410000Y-84679500D03*
X191968845Y-81979500D03*
X191968845Y-83779499D03*
%TD*%
D13*
%TO.C,J8*%
X105315000Y-79704500D03*
X107855000Y-79704500D03*
%TD*%
D11*
%TO.C,H1*%
X152310000Y-93039500D03*
%TD*%
D10*
%TO.C,H2*%
X110746155Y-92139500D03*
X110746155Y-93939500D03*
X112305000Y-91239500D03*
X112305000Y-94839500D03*
X113863845Y-92139500D03*
X113863845Y-93939499D03*
%TD*%
D17*
%TO.C,KiKit_FID_T_2*%
X195570000Y-22500000D03*
%TD*%
D14*
%TO.C,D1*%
X170330000Y-66369500D03*
X168580000Y-66369500D03*
%TD*%
D10*
%TO.C,H2*%
X188851155Y-41339500D03*
X188851155Y-43139500D03*
X190410000Y-40439500D03*
X190410000Y-44039500D03*
X191968845Y-41339500D03*
X191968845Y-43139499D03*
%TD*%
D12*
%TO.C,J9*%
X157385000Y-65734500D03*
X159925000Y-65734500D03*
%TD*%
D11*
%TO.C,H1*%
X178345000Y-82879500D03*
%TD*%
D12*
%TO.C,J9*%
X183420000Y-75894500D03*
X185960000Y-75894500D03*
%TD*%
%TO.C,J9*%
X183420000Y-86054500D03*
X185960000Y-86054500D03*
%TD*%
D10*
%TO.C,H2*%
X188851155Y-102299500D03*
X188851155Y-104099500D03*
X190410000Y-101399500D03*
X190410000Y-104999500D03*
X191968845Y-102299500D03*
X191968845Y-104099499D03*
%TD*%
%TO.C,H2*%
X162816155Y-61659500D03*
X162816155Y-63459500D03*
X164375000Y-60759500D03*
X164375000Y-64359500D03*
X165933845Y-61659500D03*
X165933845Y-63459499D03*
%TD*%
D11*
%TO.C,H1*%
X152310000Y-62559500D03*
%TD*%
D14*
%TO.C,D1*%
X196365000Y-96849500D03*
X194615000Y-96849500D03*
%TD*%
D11*
%TO.C,H1*%
X100240000Y-72719500D03*
%TD*%
D12*
%TO.C,J9*%
X183420000Y-45414500D03*
X185960000Y-45414500D03*
%TD*%
D15*
%TO.C,R1*%
X117385000Y-91489500D03*
X117385000Y-94589500D03*
%TD*%
%TO.C,R1*%
X169455000Y-40689500D03*
X169455000Y-43789500D03*
%TD*%
%TO.C,R1*%
X195490000Y-91489500D03*
X195490000Y-94589500D03*
%TD*%
D12*
%TO.C,J9*%
X157385000Y-55574500D03*
X159925000Y-55574500D03*
%TD*%
D13*
%TO.C,J8*%
X131350000Y-28904500D03*
X133890000Y-28904500D03*
%TD*%
D12*
%TO.C,J9*%
X157385000Y-96214500D03*
X159925000Y-96214500D03*
%TD*%
D14*
%TO.C,D1*%
X170330000Y-35889500D03*
X168580000Y-35889500D03*
%TD*%
D11*
%TO.C,H1*%
X100240000Y-62559500D03*
%TD*%
D12*
%TO.C,J9*%
X131350000Y-65734500D03*
X133890000Y-65734500D03*
%TD*%
D11*
%TO.C,H1*%
X100240000Y-103199500D03*
%TD*%
D12*
%TO.C,J9*%
X183420000Y-55574500D03*
X185960000Y-55574500D03*
%TD*%
D15*
%TO.C,R1*%
X143420000Y-101649500D03*
X143420000Y-104749500D03*
%TD*%
D10*
%TO.C,H2*%
X188851155Y-71819500D03*
X188851155Y-73619500D03*
X190410000Y-70919500D03*
X190410000Y-74519500D03*
X191968845Y-71819500D03*
X191968845Y-73619499D03*
%TD*%
%TO.C,H2*%
X110746155Y-71819500D03*
X110746155Y-73619500D03*
X112305000Y-70919500D03*
X112305000Y-74519500D03*
X113863845Y-71819500D03*
X113863845Y-73619499D03*
%TD*%
D14*
%TO.C,D1*%
X196365000Y-66369500D03*
X194615000Y-66369500D03*
%TD*%
D11*
%TO.C,H1*%
X152310000Y-52399500D03*
%TD*%
D14*
%TO.C,D1*%
X170330000Y-56209500D03*
X168580000Y-56209500D03*
%TD*%
D16*
%TO.C,KiKit_TO_3*%
X98930000Y-112779500D03*
%TD*%
D15*
%TO.C,R1*%
X169455000Y-50849500D03*
X169455000Y-53949500D03*
%TD*%
D12*
%TO.C,J9*%
X183420000Y-65734500D03*
X185960000Y-65734500D03*
%TD*%
D13*
%TO.C,J8*%
X131350000Y-79704500D03*
X133890000Y-79704500D03*
%TD*%
D14*
%TO.C,D1*%
X170330000Y-46049500D03*
X168580000Y-46049500D03*
%TD*%
D15*
%TO.C,R1*%
X117385000Y-101649500D03*
X117385000Y-104749500D03*
%TD*%
D13*
%TO.C,J8*%
X157385000Y-59384500D03*
X159925000Y-59384500D03*
%TD*%
D15*
%TO.C,R1*%
X195490000Y-40689500D03*
X195490000Y-43789500D03*
%TD*%
D11*
%TO.C,H1*%
X178345000Y-103199500D03*
%TD*%
%TO.C,H1*%
X126275000Y-32079500D03*
%TD*%
D14*
%TO.C,D1*%
X170330000Y-96849500D03*
X168580000Y-96849500D03*
%TD*%
D13*
%TO.C,J8*%
X131350000Y-100024500D03*
X133890000Y-100024500D03*
%TD*%
D11*
%TO.C,H1*%
X126275000Y-103199500D03*
%TD*%
D13*
%TO.C,J8*%
X131350000Y-89864500D03*
X133890000Y-89864500D03*
%TD*%
D12*
%TO.C,J9*%
X183420000Y-106374500D03*
X185960000Y-106374500D03*
%TD*%
D15*
%TO.C,R1*%
X195490000Y-101649500D03*
X195490000Y-104749500D03*
%TD*%
D14*
%TO.C,D1*%
X144295000Y-107009500D03*
X142545000Y-107009500D03*
%TD*%
%TO.C,D1*%
X118260000Y-76529500D03*
X116510000Y-76529500D03*
%TD*%
%TO.C,D1*%
X170330000Y-107009500D03*
X168580000Y-107009500D03*
%TD*%
D12*
%TO.C,J9*%
X157385000Y-35254500D03*
X159925000Y-35254500D03*
%TD*%
%TO.C,J9*%
X131350000Y-45414500D03*
X133890000Y-45414500D03*
%TD*%
D15*
%TO.C,R1*%
X143420000Y-61009500D03*
X143420000Y-64109500D03*
%TD*%
D10*
%TO.C,H2*%
X162816155Y-31179500D03*
X162816155Y-32979500D03*
X164375000Y-30279500D03*
X164375000Y-33879500D03*
X165933845Y-31179500D03*
X165933845Y-32979499D03*
%TD*%
D12*
%TO.C,J9*%
X157385000Y-86054500D03*
X159925000Y-86054500D03*
%TD*%
D15*
%TO.C,R1*%
X143420000Y-30529500D03*
X143420000Y-33629500D03*
%TD*%
%TO.C,R1*%
X195490000Y-61009500D03*
X195490000Y-64109500D03*
%TD*%
D10*
%TO.C,H2*%
X136781155Y-61659500D03*
X136781155Y-63459500D03*
X138340000Y-60759500D03*
X138340000Y-64359500D03*
X139898845Y-61659500D03*
X139898845Y-63459499D03*
%TD*%
D17*
%TO.C,KiKit_FID_T_4*%
X195570000Y-112779500D03*
%TD*%
%TO.C,KiKit_FID_T_3*%
X101430000Y-112779500D03*
%TD*%
D12*
%TO.C,J9*%
X157385000Y-75894500D03*
X159925000Y-75894500D03*
%TD*%
D13*
%TO.C,J8*%
X131350000Y-69544500D03*
X133890000Y-69544500D03*
%TD*%
D12*
%TO.C,J9*%
X105315000Y-96214500D03*
X107855000Y-96214500D03*
%TD*%
D13*
%TO.C,J8*%
X131350000Y-49224500D03*
X133890000Y-49224500D03*
%TD*%
D11*
%TO.C,H1*%
X126275000Y-93039500D03*
%TD*%
D15*
%TO.C,R1*%
X143420000Y-81329500D03*
X143420000Y-84429500D03*
%TD*%
%TO.C,R1*%
X117385000Y-61009500D03*
X117385000Y-64109500D03*
%TD*%
%TO.C,R1*%
X117385000Y-40689500D03*
X117385000Y-43789500D03*
%TD*%
D10*
%TO.C,H2*%
X110746155Y-51499500D03*
X110746155Y-53299500D03*
X112305000Y-50599500D03*
X112305000Y-54199500D03*
X113863845Y-51499500D03*
X113863845Y-53299499D03*
%TD*%
D15*
%TO.C,R1*%
X195490000Y-81329500D03*
X195490000Y-84429500D03*
%TD*%
D10*
%TO.C,H2*%
X162816155Y-92139500D03*
X162816155Y-93939500D03*
X164375000Y-91239500D03*
X164375000Y-94839500D03*
X165933845Y-92139500D03*
X165933845Y-93939499D03*
%TD*%
D15*
%TO.C,R1*%
X117385000Y-71169500D03*
X117385000Y-74269500D03*
%TD*%
D12*
%TO.C,J9*%
X105315000Y-65734500D03*
X107855000Y-65734500D03*
%TD*%
D10*
%TO.C,H2*%
X110746155Y-81979500D03*
X110746155Y-83779500D03*
X112305000Y-81079500D03*
X112305000Y-84679500D03*
X113863845Y-81979500D03*
X113863845Y-83779499D03*
%TD*%
D13*
%TO.C,J8*%
X183420000Y-89864500D03*
X185960000Y-89864500D03*
%TD*%
D15*
%TO.C,R1*%
X143420000Y-40689500D03*
X143420000Y-43789500D03*
%TD*%
D10*
%TO.C,H2*%
X162816155Y-102299500D03*
X162816155Y-104099500D03*
X164375000Y-101399500D03*
X164375000Y-104999500D03*
X165933845Y-102299500D03*
X165933845Y-104099499D03*
%TD*%
D14*
%TO.C,D1*%
X118260000Y-107009500D03*
X116510000Y-107009500D03*
%TD*%
D11*
%TO.C,H1*%
X178345000Y-72719500D03*
%TD*%
D13*
%TO.C,J8*%
X183420000Y-79704500D03*
X185960000Y-79704500D03*
%TD*%
%TO.C,J8*%
X105315000Y-89864500D03*
X107855000Y-89864500D03*
%TD*%
D14*
%TO.C,D1*%
X118260000Y-56209500D03*
X116510000Y-56209500D03*
%TD*%
%TO.C,D1*%
X170330000Y-86689500D03*
X168580000Y-86689500D03*
%TD*%
D13*
%TO.C,J8*%
X105315000Y-59384500D03*
X107855000Y-59384500D03*
%TD*%
D15*
%TO.C,R1*%
X117385000Y-81329500D03*
X117385000Y-84429500D03*
%TD*%
D12*
%TO.C,J9*%
X131350000Y-106374500D03*
X133890000Y-106374500D03*
%TD*%
D13*
%TO.C,J8*%
X131350000Y-59384500D03*
X133890000Y-59384500D03*
%TD*%
D14*
%TO.C,D1*%
X196365000Y-56209500D03*
X194615000Y-56209500D03*
%TD*%
%TO.C,D1*%
X144295000Y-86689500D03*
X142545000Y-86689500D03*
%TD*%
D10*
%TO.C,H2*%
X136781155Y-51499500D03*
X136781155Y-53299500D03*
X138340000Y-50599500D03*
X138340000Y-54199500D03*
X139898845Y-51499500D03*
X139898845Y-53299499D03*
%TD*%
D11*
%TO.C,H1*%
X178345000Y-52399500D03*
%TD*%
D12*
%TO.C,J9*%
X131350000Y-35254500D03*
X133890000Y-35254500D03*
%TD*%
%TO.C,J9*%
X105315000Y-106374500D03*
X107855000Y-106374500D03*
%TD*%
D11*
%TO.C,H1*%
X100240000Y-52399500D03*
%TD*%
D13*
%TO.C,J8*%
X105315000Y-100024500D03*
X107855000Y-100024500D03*
%TD*%
D14*
%TO.C,D1*%
X118260000Y-96849500D03*
X116510000Y-96849500D03*
%TD*%
D13*
%TO.C,J8*%
X157385000Y-39064500D03*
X159925000Y-39064500D03*
%TD*%
D14*
%TO.C,D1*%
X196365000Y-35889500D03*
X194615000Y-35889500D03*
%TD*%
D10*
%TO.C,H2*%
X188851155Y-31179500D03*
X188851155Y-32979500D03*
X190410000Y-30279500D03*
X190410000Y-33879500D03*
X191968845Y-31179500D03*
X191968845Y-32979499D03*
%TD*%
D13*
%TO.C,J8*%
X183420000Y-49224500D03*
X185960000Y-49224500D03*
%TD*%
D11*
%TO.C,H1*%
X126275000Y-52399500D03*
%TD*%
D12*
%TO.C,J9*%
X105315000Y-45414500D03*
X107855000Y-45414500D03*
%TD*%
%TO.C,J9*%
X105315000Y-35254500D03*
X107855000Y-35254500D03*
%TD*%
D13*
%TO.C,J8*%
X157385000Y-100024500D03*
X159925000Y-100024500D03*
%TD*%
%TO.C,J8*%
X105315000Y-69544500D03*
X107855000Y-69544500D03*
%TD*%
D10*
%TO.C,H2*%
X110746155Y-102299500D03*
X110746155Y-104099500D03*
X112305000Y-101399500D03*
X112305000Y-104999500D03*
X113863845Y-102299500D03*
X113863845Y-104099499D03*
%TD*%
D15*
%TO.C,R1*%
X195490000Y-30529500D03*
X195490000Y-33629500D03*
%TD*%
D14*
%TO.C,D1*%
X144295000Y-35889500D03*
X142545000Y-35889500D03*
%TD*%
D11*
%TO.C,H1*%
X178345000Y-93039500D03*
%TD*%
%TO.C,H1*%
X100240000Y-82879500D03*
%TD*%
%TO.C,H1*%
X126275000Y-72719500D03*
%TD*%
D15*
%TO.C,R1*%
X169455000Y-81329500D03*
X169455000Y-84429500D03*
%TD*%
D16*
%TO.C,KiKit_TO_4*%
X198070000Y-112779500D03*
%TD*%
D13*
%TO.C,J8*%
X157385000Y-49224500D03*
X159925000Y-49224500D03*
%TD*%
D15*
%TO.C,R1*%
X169455000Y-101649500D03*
X169455000Y-104749500D03*
%TD*%
D11*
%TO.C,H1*%
X100240000Y-93039500D03*
%TD*%
%TO.C,H1*%
X126275000Y-42239500D03*
%TD*%
%TO.C,H1*%
X152310000Y-42239500D03*
%TD*%
%TO.C,H1*%
X178345000Y-32079500D03*
%TD*%
D12*
%TO.C,J9*%
X183420000Y-35254500D03*
X185960000Y-35254500D03*
%TD*%
D15*
%TO.C,R1*%
X169455000Y-91489500D03*
X169455000Y-94589500D03*
%TD*%
D11*
%TO.C,H1*%
X178345000Y-62559500D03*
%TD*%
D13*
%TO.C,J8*%
X157385000Y-79704500D03*
X159925000Y-79704500D03*
%TD*%
D14*
%TO.C,D1*%
X144295000Y-76529500D03*
X142545000Y-76529500D03*
%TD*%
D15*
%TO.C,R1*%
X143420000Y-71169500D03*
X143420000Y-74269500D03*
%TD*%
D12*
%TO.C,J9*%
X105315000Y-75894500D03*
X107855000Y-75894500D03*
%TD*%
D11*
%TO.C,H1*%
X126275000Y-62559500D03*
%TD*%
D16*
%TO.C,KiKit_TO_2*%
X198070000Y-22500000D03*
%TD*%
D12*
%TO.C,J9*%
X183420000Y-96214500D03*
X185960000Y-96214500D03*
%TD*%
D14*
%TO.C,D1*%
X196365000Y-107009500D03*
X194615000Y-107009500D03*
%TD*%
D11*
%TO.C,H1*%
X152310000Y-103199500D03*
%TD*%
D15*
%TO.C,R1*%
X117385000Y-30529500D03*
X117385000Y-33629500D03*
%TD*%
D13*
%TO.C,J8*%
X105315000Y-49224500D03*
X107855000Y-49224500D03*
%TD*%
D12*
%TO.C,J9*%
X105315000Y-86054500D03*
X107855000Y-86054500D03*
%TD*%
D10*
%TO.C,H2*%
X162816155Y-51499500D03*
X162816155Y-53299500D03*
X164375000Y-50599500D03*
X164375000Y-54199500D03*
X165933845Y-51499500D03*
X165933845Y-53299499D03*
%TD*%
D15*
%TO.C,R1*%
X195490000Y-71169500D03*
X195490000Y-74269500D03*
%TD*%
D18*
%TO.C,J3*%
X172630000Y-39739500D03*
D19*
X172630000Y-42239500D03*
X172630000Y-44739500D03*
%TD*%
D18*
%TO.C,J3*%
X172630000Y-80379500D03*
D19*
X172630000Y-82879500D03*
X172630000Y-85379500D03*
%TD*%
D18*
%TO.C,J3*%
X146595000Y-80379500D03*
D19*
X146595000Y-82879500D03*
X146595000Y-85379500D03*
%TD*%
D20*
%TO.C,H4*%
X190410000Y-103199500D03*
%TD*%
%TO.C,H4*%
X112305000Y-82879500D03*
%TD*%
D18*
%TO.C,J3*%
X120560000Y-70219500D03*
D19*
X120560000Y-72719500D03*
X120560000Y-75219500D03*
%TD*%
D20*
%TO.C,H4*%
X112305000Y-93039500D03*
%TD*%
D18*
%TO.C,J3*%
X198665000Y-60059500D03*
D19*
X198665000Y-62559500D03*
X198665000Y-65059500D03*
%TD*%
D18*
%TO.C,J3*%
X198665000Y-49899500D03*
D19*
X198665000Y-52399500D03*
X198665000Y-54899500D03*
%TD*%
D20*
%TO.C,H4*%
X190410000Y-52399500D03*
%TD*%
%TO.C,H4*%
X112305000Y-32079500D03*
%TD*%
%TO.C,H4*%
X112305000Y-42239500D03*
%TD*%
%TO.C,H4*%
X164375000Y-42239500D03*
%TD*%
%TO.C,H4*%
X164375000Y-52399500D03*
%TD*%
%TO.C,H4*%
X164375000Y-82879500D03*
%TD*%
D18*
%TO.C,J3*%
X146595000Y-100699500D03*
D19*
X146595000Y-103199500D03*
X146595000Y-105699500D03*
%TD*%
D20*
%TO.C,H4*%
X190410000Y-82879500D03*
%TD*%
%TO.C,H4*%
X138340000Y-93039500D03*
%TD*%
%TO.C,H4*%
X138340000Y-42239500D03*
%TD*%
D18*
%TO.C,J3*%
X146595000Y-90539500D03*
D19*
X146595000Y-93039500D03*
X146595000Y-95539500D03*
%TD*%
D18*
%TO.C,J3*%
X120560000Y-90539500D03*
D19*
X120560000Y-93039500D03*
X120560000Y-95539500D03*
%TD*%
D18*
%TO.C,J3*%
X146595000Y-49899500D03*
D19*
X146595000Y-52399500D03*
X146595000Y-54899500D03*
%TD*%
D18*
%TO.C,J3*%
X172630000Y-90539500D03*
D19*
X172630000Y-93039500D03*
X172630000Y-95539500D03*
%TD*%
D20*
%TO.C,H4*%
X190410000Y-62559500D03*
%TD*%
%TO.C,H4*%
X112305000Y-62559500D03*
%TD*%
%TO.C,H4*%
X112305000Y-103199500D03*
%TD*%
D18*
%TO.C,J3*%
X172630000Y-60059500D03*
D19*
X172630000Y-62559500D03*
X172630000Y-65059500D03*
%TD*%
D20*
%TO.C,H4*%
X138340000Y-32079500D03*
%TD*%
D18*
%TO.C,J3*%
X172630000Y-100699500D03*
D19*
X172630000Y-103199500D03*
X172630000Y-105699500D03*
%TD*%
D18*
%TO.C,J3*%
X198665000Y-70219500D03*
D19*
X198665000Y-72719500D03*
X198665000Y-75219500D03*
%TD*%
D20*
%TO.C,H4*%
X164375000Y-62559500D03*
%TD*%
D18*
%TO.C,J3*%
X146595000Y-70219500D03*
D19*
X146595000Y-72719500D03*
X146595000Y-75219500D03*
%TD*%
D18*
%TO.C,J3*%
X146595000Y-29579500D03*
D19*
X146595000Y-32079500D03*
X146595000Y-34579500D03*
%TD*%
D18*
%TO.C,J3*%
X172630000Y-29579500D03*
D19*
X172630000Y-32079500D03*
X172630000Y-34579500D03*
%TD*%
D20*
%TO.C,H4*%
X138340000Y-82879500D03*
%TD*%
D18*
%TO.C,J3*%
X198665000Y-90539500D03*
D19*
X198665000Y-93039500D03*
X198665000Y-95539500D03*
%TD*%
D20*
%TO.C,H4*%
X138340000Y-72719500D03*
%TD*%
D18*
%TO.C,J3*%
X198665000Y-39739500D03*
D19*
X198665000Y-42239500D03*
X198665000Y-44739500D03*
%TD*%
D18*
%TO.C,J3*%
X120560000Y-80379500D03*
D19*
X120560000Y-82879500D03*
X120560000Y-85379500D03*
%TD*%
D20*
%TO.C,H4*%
X190410000Y-72719500D03*
%TD*%
%TO.C,H4*%
X164375000Y-103199500D03*
%TD*%
%TO.C,H4*%
X190410000Y-32079500D03*
%TD*%
D18*
%TO.C,J3*%
X120560000Y-49899500D03*
D19*
X120560000Y-52399500D03*
X120560000Y-54899500D03*
%TD*%
D18*
%TO.C,J3*%
X120560000Y-29579500D03*
D19*
X120560000Y-32079500D03*
X120560000Y-34579500D03*
%TD*%
D18*
%TO.C,J3*%
X120560000Y-100699500D03*
D19*
X120560000Y-103199500D03*
X120560000Y-105699500D03*
%TD*%
D18*
%TO.C,J3*%
X172630000Y-49899500D03*
D19*
X172630000Y-52399500D03*
X172630000Y-54899500D03*
%TD*%
D18*
%TO.C,J3*%
X198665000Y-29579500D03*
D19*
X198665000Y-32079500D03*
X198665000Y-34579500D03*
%TD*%
D18*
%TO.C,J3*%
X198665000Y-80379500D03*
D19*
X198665000Y-82879500D03*
X198665000Y-85379500D03*
%TD*%
D20*
%TO.C,H4*%
X164375000Y-72719500D03*
%TD*%
D18*
%TO.C,J3*%
X120560000Y-60059500D03*
D19*
X120560000Y-62559500D03*
X120560000Y-65059500D03*
%TD*%
D20*
%TO.C,H4*%
X112305000Y-72719500D03*
%TD*%
%TO.C,H4*%
X138340000Y-62559500D03*
%TD*%
D18*
%TO.C,J3*%
X198665000Y-100699500D03*
D19*
X198665000Y-103199500D03*
X198665000Y-105699500D03*
%TD*%
D20*
%TO.C,H4*%
X190410000Y-93039500D03*
%TD*%
D18*
%TO.C,J3*%
X146595000Y-60059500D03*
D19*
X146595000Y-62559500D03*
X146595000Y-65059500D03*
%TD*%
D20*
%TO.C,H4*%
X112305000Y-52399500D03*
%TD*%
%TO.C,H4*%
X190410000Y-42239500D03*
%TD*%
%TO.C,H4*%
X138340000Y-103199500D03*
%TD*%
D18*
%TO.C,J3*%
X146595000Y-39739500D03*
D19*
X146595000Y-42239500D03*
X146595000Y-44739500D03*
%TD*%
D20*
%TO.C,H4*%
X164375000Y-32079500D03*
%TD*%
%TO.C,H4*%
X164375000Y-93039500D03*
%TD*%
%TO.C,H4*%
X138340000Y-52399500D03*
%TD*%
D18*
%TO.C,J3*%
X120560000Y-39739500D03*
D19*
X120560000Y-42239500D03*
X120560000Y-44739500D03*
%TD*%
D18*
%TO.C,J3*%
X172630000Y-70219500D03*
D19*
X172630000Y-72719500D03*
X172630000Y-75219500D03*
%TD*%
M02*
