%TF.GenerationSoftware,KiCad,Pcbnew,8.0.8*%
%TF.CreationDate,2025-02-20T22:09:20+11:00*%
%TF.ProjectId,panel,70616e65-6c2e-46b6-9963-61645f706362,rev?*%
%TF.SameCoordinates,Original*%
%TF.FileFunction,Legend,Bot*%
%TF.FilePolarity,Positive*%
%FSLAX46Y46*%
G04 Gerber Fmt 4.6, Leading zero omitted, Abs format (unit mm)*
G04 Created by KiCad (PCBNEW 8.0.8) date 2025-02-20 22:09:20*
%MOMM*%
%LPD*%
G01*
G04 APERTURE LIST*
G04 Aperture macros list*
%AMRoundRect*
0 Rectangle with rounded corners*
0 $1 Rounding radius*
0 $2 $3 $4 $5 $6 $7 $8 $9 X,Y pos of 4 corners*
0 Add a 4 corners polygon primitive as box body*
4,1,4,$2,$3,$4,$5,$6,$7,$8,$9,$2,$3,0*
0 Add four circle primitives for the rounded corners*
1,1,$1+$1,$2,$3*
1,1,$1+$1,$4,$5*
1,1,$1+$1,$6,$7*
1,1,$1+$1,$8,$9*
0 Add four rect primitives between the rounded corners*
20,1,$1+$1,$2,$3,$4,$5,0*
20,1,$1+$1,$4,$5,$6,$7,0*
20,1,$1+$1,$6,$7,$8,$9,0*
20,1,$1+$1,$8,$9,$2,$3,0*%
%AMFreePoly0*
4,1,85,-1.240370,1.979643,-0.961535,1.918986,-0.694170,1.819264,-0.443718,1.682507,-0.215279,1.511499,-0.013501,1.309721,0.157507,1.081282,0.294264,0.830830,0.393986,0.563465,0.454643,0.284630,0.475000,0.000000,0.454643,-0.284630,0.393986,-0.563465,0.294264,-0.830830,0.157507,-1.081282,-0.013501,-1.309721,-0.215279,-1.511499,-0.443718,-1.682507,-0.694170,-1.819264,-0.961535,-1.918986,
-1.240370,-1.979643,-1.525000,-2.000000,-1.809630,-1.979643,-2.088465,-1.918986,-2.355830,-1.819264,-2.606282,-1.682507,-2.834721,-1.511499,-3.036499,-1.309721,-3.207507,-1.081282,-3.344264,-0.830830,-3.443986,-0.563465,-3.504643,-0.284630,-3.525000,0.000000,-2.779775,0.000000,-2.760712,-0.217889,-2.704103,-0.429158,-2.611667,-0.627388,-2.486213,-0.806554,-2.331554,-0.961213,-2.152388,-1.086667,
-1.954158,-1.179103,-1.742889,-1.235712,-1.525000,-1.254775,-1.307111,-1.235712,-1.095842,-1.179103,-0.897612,-1.086667,-0.718446,-0.961213,-0.563787,-0.806554,-0.438333,-0.627388,-0.345897,-0.429158,-0.289288,-0.217889,-0.271683,-0.016674,-0.275000,0.000000,-0.271683,0.016674,-0.289288,0.217889,-0.345897,0.429158,-0.438333,0.627387,-0.563787,0.806554,-0.718446,0.961213,-0.897612,1.086667,
-1.095842,1.179103,-1.307111,1.235712,-1.525000,1.254775,-1.742889,1.235712,-1.954158,1.179103,-2.152387,1.086667,-2.331554,0.961213,-2.486213,0.806554,-2.611667,0.627387,-2.704103,0.429158,-2.760712,0.217889,-2.779775,0.000000,-3.525000,0.000000,-3.504643,0.284630,-3.443986,0.563465,-3.344264,0.830830,-3.207507,1.081282,-3.036499,1.309721,-2.834721,1.511499,-2.606282,1.682507,
-2.355830,1.819264,-2.088465,1.918986,-1.809630,1.979643,-1.525000,2.000000,-1.240370,1.979643,-1.240370,1.979643,$1*%
G04 Aperture macros list end*
%ADD10C,0.160000*%
%ADD11C,0.120000*%
%ADD12C,0.150000*%
%ADD13R,1.700000X1.700000*%
%ADD14C,3.200000*%
%ADD15O,1.700000X1.700000*%
%ADD16C,2.000000*%
%ADD17FreePoly0,180.000000*%
%ADD18C,2.100000*%
%ADD19O,1.950000X1.700000*%
%ADD20RoundRect,0.250000X-0.725000X0.600000X-0.725000X-0.600000X0.725000X-0.600000X0.725000X0.600000X0*%
%ADD21C,1.700000*%
%ADD22C,0.800000*%
G04 APERTURE END LIST*
D10*
X145029260Y-38648084D02*
X144553070Y-38648084D01*
X145124498Y-38933799D02*
X144791165Y-37933799D01*
X144791165Y-37933799D02*
X144457832Y-38933799D01*
X144124498Y-38933799D02*
X144124498Y-37933799D01*
X144124498Y-37933799D02*
X143553070Y-38933799D01*
X143553070Y-38933799D02*
X143553070Y-37933799D01*
X143219736Y-37933799D02*
X142648308Y-37933799D01*
X142934022Y-38933799D02*
X142934022Y-37933799D01*
X142362593Y-38886180D02*
X142219736Y-38933799D01*
X142219736Y-38933799D02*
X141981641Y-38933799D01*
X141981641Y-38933799D02*
X141886403Y-38886180D01*
X141886403Y-38886180D02*
X141838784Y-38838560D01*
X141838784Y-38838560D02*
X141791165Y-38743322D01*
X141791165Y-38743322D02*
X141791165Y-38648084D01*
X141791165Y-38648084D02*
X141838784Y-38552846D01*
X141838784Y-38552846D02*
X141886403Y-38505227D01*
X141886403Y-38505227D02*
X141981641Y-38457608D01*
X141981641Y-38457608D02*
X142172117Y-38409989D01*
X142172117Y-38409989D02*
X142267355Y-38362370D01*
X142267355Y-38362370D02*
X142314974Y-38314751D01*
X142314974Y-38314751D02*
X142362593Y-38219513D01*
X142362593Y-38219513D02*
X142362593Y-38124275D01*
X142362593Y-38124275D02*
X142314974Y-38029037D01*
X142314974Y-38029037D02*
X142267355Y-37981418D01*
X142267355Y-37981418D02*
X142172117Y-37933799D01*
X142172117Y-37933799D02*
X141934022Y-37933799D01*
X141934022Y-37933799D02*
X141791165Y-37981418D01*
X141457831Y-37933799D02*
X141219736Y-38933799D01*
X141219736Y-38933799D02*
X141029260Y-38219513D01*
X141029260Y-38219513D02*
X140838784Y-38933799D01*
X140838784Y-38933799D02*
X140600689Y-37933799D01*
X140219736Y-38933799D02*
X140219736Y-37933799D01*
X139886403Y-37933799D02*
X139314975Y-37933799D01*
X139600689Y-38933799D02*
X139600689Y-37933799D01*
X138410213Y-38838560D02*
X138457832Y-38886180D01*
X138457832Y-38886180D02*
X138600689Y-38933799D01*
X138600689Y-38933799D02*
X138695927Y-38933799D01*
X138695927Y-38933799D02*
X138838784Y-38886180D01*
X138838784Y-38886180D02*
X138934022Y-38790941D01*
X138934022Y-38790941D02*
X138981641Y-38695703D01*
X138981641Y-38695703D02*
X139029260Y-38505227D01*
X139029260Y-38505227D02*
X139029260Y-38362370D01*
X139029260Y-38362370D02*
X138981641Y-38171894D01*
X138981641Y-38171894D02*
X138934022Y-38076656D01*
X138934022Y-38076656D02*
X138838784Y-37981418D01*
X138838784Y-37981418D02*
X138695927Y-37933799D01*
X138695927Y-37933799D02*
X138600689Y-37933799D01*
X138600689Y-37933799D02*
X138457832Y-37981418D01*
X138457832Y-37981418D02*
X138410213Y-38029037D01*
X137981641Y-38933799D02*
X137981641Y-37933799D01*
X137981641Y-38409989D02*
X137410213Y-38409989D01*
X137410213Y-38933799D02*
X137410213Y-37933799D01*
X148245951Y-68982846D02*
X147484047Y-68982846D01*
X147864999Y-69363799D02*
X147864999Y-68601894D01*
X145076879Y-45887132D02*
X144838784Y-46553799D01*
X144838784Y-46553799D02*
X144600689Y-45887132D01*
X143695927Y-46553799D02*
X144267355Y-46553799D01*
X143981641Y-46553799D02*
X143981641Y-45553799D01*
X143981641Y-45553799D02*
X144076879Y-45696656D01*
X144076879Y-45696656D02*
X144172117Y-45791894D01*
X144172117Y-45791894D02*
X144267355Y-45839513D01*
X143267355Y-46458560D02*
X143219736Y-46506180D01*
X143219736Y-46506180D02*
X143267355Y-46553799D01*
X143267355Y-46553799D02*
X143314974Y-46506180D01*
X143314974Y-46506180D02*
X143267355Y-46458560D01*
X143267355Y-46458560D02*
X143267355Y-46553799D01*
X142600689Y-45553799D02*
X142505451Y-45553799D01*
X142505451Y-45553799D02*
X142410213Y-45601418D01*
X142410213Y-45601418D02*
X142362594Y-45649037D01*
X142362594Y-45649037D02*
X142314975Y-45744275D01*
X142314975Y-45744275D02*
X142267356Y-45934751D01*
X142267356Y-45934751D02*
X142267356Y-46172846D01*
X142267356Y-46172846D02*
X142314975Y-46363322D01*
X142314975Y-46363322D02*
X142362594Y-46458560D01*
X142362594Y-46458560D02*
X142410213Y-46506180D01*
X142410213Y-46506180D02*
X142505451Y-46553799D01*
X142505451Y-46553799D02*
X142600689Y-46553799D01*
X142600689Y-46553799D02*
X142695927Y-46506180D01*
X142695927Y-46506180D02*
X142743546Y-46458560D01*
X142743546Y-46458560D02*
X142791165Y-46363322D01*
X142791165Y-46363322D02*
X142838784Y-46172846D01*
X142838784Y-46172846D02*
X142838784Y-45934751D01*
X142838784Y-45934751D02*
X142791165Y-45744275D01*
X142791165Y-45744275D02*
X142743546Y-45649037D01*
X142743546Y-45649037D02*
X142695927Y-45601418D01*
X142695927Y-45601418D02*
X142600689Y-45553799D01*
X145076879Y-66207132D02*
X144838784Y-66873799D01*
X144838784Y-66873799D02*
X144600689Y-66207132D01*
X143695927Y-66873799D02*
X144267355Y-66873799D01*
X143981641Y-66873799D02*
X143981641Y-65873799D01*
X143981641Y-65873799D02*
X144076879Y-66016656D01*
X144076879Y-66016656D02*
X144172117Y-66111894D01*
X144172117Y-66111894D02*
X144267355Y-66159513D01*
X143267355Y-66778560D02*
X143219736Y-66826180D01*
X143219736Y-66826180D02*
X143267355Y-66873799D01*
X143267355Y-66873799D02*
X143314974Y-66826180D01*
X143314974Y-66826180D02*
X143267355Y-66778560D01*
X143267355Y-66778560D02*
X143267355Y-66873799D01*
X142600689Y-65873799D02*
X142505451Y-65873799D01*
X142505451Y-65873799D02*
X142410213Y-65921418D01*
X142410213Y-65921418D02*
X142362594Y-65969037D01*
X142362594Y-65969037D02*
X142314975Y-66064275D01*
X142314975Y-66064275D02*
X142267356Y-66254751D01*
X142267356Y-66254751D02*
X142267356Y-66492846D01*
X142267356Y-66492846D02*
X142314975Y-66683322D01*
X142314975Y-66683322D02*
X142362594Y-66778560D01*
X142362594Y-66778560D02*
X142410213Y-66826180D01*
X142410213Y-66826180D02*
X142505451Y-66873799D01*
X142505451Y-66873799D02*
X142600689Y-66873799D01*
X142600689Y-66873799D02*
X142695927Y-66826180D01*
X142695927Y-66826180D02*
X142743546Y-66778560D01*
X142743546Y-66778560D02*
X142791165Y-66683322D01*
X142791165Y-66683322D02*
X142838784Y-66492846D01*
X142838784Y-66492846D02*
X142838784Y-66254751D01*
X142838784Y-66254751D02*
X142791165Y-66064275D01*
X142791165Y-66064275D02*
X142743546Y-65969037D01*
X142743546Y-65969037D02*
X142695927Y-65921418D01*
X142695927Y-65921418D02*
X142600689Y-65873799D01*
X174280951Y-56282846D02*
X173519047Y-56282846D01*
X171111879Y-56047132D02*
X170873784Y-56713799D01*
X170873784Y-56713799D02*
X170635689Y-56047132D01*
X169730927Y-56713799D02*
X170302355Y-56713799D01*
X170016641Y-56713799D02*
X170016641Y-55713799D01*
X170016641Y-55713799D02*
X170111879Y-55856656D01*
X170111879Y-55856656D02*
X170207117Y-55951894D01*
X170207117Y-55951894D02*
X170302355Y-55999513D01*
X169302355Y-56618560D02*
X169254736Y-56666180D01*
X169254736Y-56666180D02*
X169302355Y-56713799D01*
X169302355Y-56713799D02*
X169349974Y-56666180D01*
X169349974Y-56666180D02*
X169302355Y-56618560D01*
X169302355Y-56618560D02*
X169302355Y-56713799D01*
X168635689Y-55713799D02*
X168540451Y-55713799D01*
X168540451Y-55713799D02*
X168445213Y-55761418D01*
X168445213Y-55761418D02*
X168397594Y-55809037D01*
X168397594Y-55809037D02*
X168349975Y-55904275D01*
X168349975Y-55904275D02*
X168302356Y-56094751D01*
X168302356Y-56094751D02*
X168302356Y-56332846D01*
X168302356Y-56332846D02*
X168349975Y-56523322D01*
X168349975Y-56523322D02*
X168397594Y-56618560D01*
X168397594Y-56618560D02*
X168445213Y-56666180D01*
X168445213Y-56666180D02*
X168540451Y-56713799D01*
X168540451Y-56713799D02*
X168635689Y-56713799D01*
X168635689Y-56713799D02*
X168730927Y-56666180D01*
X168730927Y-56666180D02*
X168778546Y-56618560D01*
X168778546Y-56618560D02*
X168826165Y-56523322D01*
X168826165Y-56523322D02*
X168873784Y-56332846D01*
X168873784Y-56332846D02*
X168873784Y-56094751D01*
X168873784Y-56094751D02*
X168826165Y-55904275D01*
X168826165Y-55904275D02*
X168778546Y-55809037D01*
X168778546Y-55809037D02*
X168730927Y-55761418D01*
X168730927Y-55761418D02*
X168635689Y-55713799D01*
X148245951Y-56282846D02*
X147484047Y-56282846D01*
X145076879Y-76367132D02*
X144838784Y-77033799D01*
X144838784Y-77033799D02*
X144600689Y-76367132D01*
X143695927Y-77033799D02*
X144267355Y-77033799D01*
X143981641Y-77033799D02*
X143981641Y-76033799D01*
X143981641Y-76033799D02*
X144076879Y-76176656D01*
X144076879Y-76176656D02*
X144172117Y-76271894D01*
X144172117Y-76271894D02*
X144267355Y-76319513D01*
X143267355Y-76938560D02*
X143219736Y-76986180D01*
X143219736Y-76986180D02*
X143267355Y-77033799D01*
X143267355Y-77033799D02*
X143314974Y-76986180D01*
X143314974Y-76986180D02*
X143267355Y-76938560D01*
X143267355Y-76938560D02*
X143267355Y-77033799D01*
X142600689Y-76033799D02*
X142505451Y-76033799D01*
X142505451Y-76033799D02*
X142410213Y-76081418D01*
X142410213Y-76081418D02*
X142362594Y-76129037D01*
X142362594Y-76129037D02*
X142314975Y-76224275D01*
X142314975Y-76224275D02*
X142267356Y-76414751D01*
X142267356Y-76414751D02*
X142267356Y-76652846D01*
X142267356Y-76652846D02*
X142314975Y-76843322D01*
X142314975Y-76843322D02*
X142362594Y-76938560D01*
X142362594Y-76938560D02*
X142410213Y-76986180D01*
X142410213Y-76986180D02*
X142505451Y-77033799D01*
X142505451Y-77033799D02*
X142600689Y-77033799D01*
X142600689Y-77033799D02*
X142695927Y-76986180D01*
X142695927Y-76986180D02*
X142743546Y-76938560D01*
X142743546Y-76938560D02*
X142791165Y-76843322D01*
X142791165Y-76843322D02*
X142838784Y-76652846D01*
X142838784Y-76652846D02*
X142838784Y-76414751D01*
X142838784Y-76414751D02*
X142791165Y-76224275D01*
X142791165Y-76224275D02*
X142743546Y-76129037D01*
X142743546Y-76129037D02*
X142695927Y-76081418D01*
X142695927Y-76081418D02*
X142600689Y-76033799D01*
X171111879Y-45887132D02*
X170873784Y-46553799D01*
X170873784Y-46553799D02*
X170635689Y-45887132D01*
X169730927Y-46553799D02*
X170302355Y-46553799D01*
X170016641Y-46553799D02*
X170016641Y-45553799D01*
X170016641Y-45553799D02*
X170111879Y-45696656D01*
X170111879Y-45696656D02*
X170207117Y-45791894D01*
X170207117Y-45791894D02*
X170302355Y-45839513D01*
X169302355Y-46458560D02*
X169254736Y-46506180D01*
X169254736Y-46506180D02*
X169302355Y-46553799D01*
X169302355Y-46553799D02*
X169349974Y-46506180D01*
X169349974Y-46506180D02*
X169302355Y-46458560D01*
X169302355Y-46458560D02*
X169302355Y-46553799D01*
X168635689Y-45553799D02*
X168540451Y-45553799D01*
X168540451Y-45553799D02*
X168445213Y-45601418D01*
X168445213Y-45601418D02*
X168397594Y-45649037D01*
X168397594Y-45649037D02*
X168349975Y-45744275D01*
X168349975Y-45744275D02*
X168302356Y-45934751D01*
X168302356Y-45934751D02*
X168302356Y-46172846D01*
X168302356Y-46172846D02*
X168349975Y-46363322D01*
X168349975Y-46363322D02*
X168397594Y-46458560D01*
X168397594Y-46458560D02*
X168445213Y-46506180D01*
X168445213Y-46506180D02*
X168540451Y-46553799D01*
X168540451Y-46553799D02*
X168635689Y-46553799D01*
X168635689Y-46553799D02*
X168730927Y-46506180D01*
X168730927Y-46506180D02*
X168778546Y-46458560D01*
X168778546Y-46458560D02*
X168826165Y-46363322D01*
X168826165Y-46363322D02*
X168873784Y-46172846D01*
X168873784Y-46172846D02*
X168873784Y-45934751D01*
X168873784Y-45934751D02*
X168826165Y-45744275D01*
X168826165Y-45744275D02*
X168778546Y-45649037D01*
X168778546Y-45649037D02*
X168730927Y-45601418D01*
X168730927Y-45601418D02*
X168635689Y-45553799D01*
X145076879Y-35727132D02*
X144838784Y-36393799D01*
X144838784Y-36393799D02*
X144600689Y-35727132D01*
X143695927Y-36393799D02*
X144267355Y-36393799D01*
X143981641Y-36393799D02*
X143981641Y-35393799D01*
X143981641Y-35393799D02*
X144076879Y-35536656D01*
X144076879Y-35536656D02*
X144172117Y-35631894D01*
X144172117Y-35631894D02*
X144267355Y-35679513D01*
X143267355Y-36298560D02*
X143219736Y-36346180D01*
X143219736Y-36346180D02*
X143267355Y-36393799D01*
X143267355Y-36393799D02*
X143314974Y-36346180D01*
X143314974Y-36346180D02*
X143267355Y-36298560D01*
X143267355Y-36298560D02*
X143267355Y-36393799D01*
X142600689Y-35393799D02*
X142505451Y-35393799D01*
X142505451Y-35393799D02*
X142410213Y-35441418D01*
X142410213Y-35441418D02*
X142362594Y-35489037D01*
X142362594Y-35489037D02*
X142314975Y-35584275D01*
X142314975Y-35584275D02*
X142267356Y-35774751D01*
X142267356Y-35774751D02*
X142267356Y-36012846D01*
X142267356Y-36012846D02*
X142314975Y-36203322D01*
X142314975Y-36203322D02*
X142362594Y-36298560D01*
X142362594Y-36298560D02*
X142410213Y-36346180D01*
X142410213Y-36346180D02*
X142505451Y-36393799D01*
X142505451Y-36393799D02*
X142600689Y-36393799D01*
X142600689Y-36393799D02*
X142695927Y-36346180D01*
X142695927Y-36346180D02*
X142743546Y-36298560D01*
X142743546Y-36298560D02*
X142791165Y-36203322D01*
X142791165Y-36203322D02*
X142838784Y-36012846D01*
X142838784Y-36012846D02*
X142838784Y-35774751D01*
X142838784Y-35774751D02*
X142791165Y-35584275D01*
X142791165Y-35584275D02*
X142743546Y-35489037D01*
X142743546Y-35489037D02*
X142695927Y-35441418D01*
X142695927Y-35441418D02*
X142600689Y-35393799D01*
X171111879Y-76367132D02*
X170873784Y-77033799D01*
X170873784Y-77033799D02*
X170635689Y-76367132D01*
X169730927Y-77033799D02*
X170302355Y-77033799D01*
X170016641Y-77033799D02*
X170016641Y-76033799D01*
X170016641Y-76033799D02*
X170111879Y-76176656D01*
X170111879Y-76176656D02*
X170207117Y-76271894D01*
X170207117Y-76271894D02*
X170302355Y-76319513D01*
X169302355Y-76938560D02*
X169254736Y-76986180D01*
X169254736Y-76986180D02*
X169302355Y-77033799D01*
X169302355Y-77033799D02*
X169349974Y-76986180D01*
X169349974Y-76986180D02*
X169302355Y-76938560D01*
X169302355Y-76938560D02*
X169302355Y-77033799D01*
X168635689Y-76033799D02*
X168540451Y-76033799D01*
X168540451Y-76033799D02*
X168445213Y-76081418D01*
X168445213Y-76081418D02*
X168397594Y-76129037D01*
X168397594Y-76129037D02*
X168349975Y-76224275D01*
X168349975Y-76224275D02*
X168302356Y-76414751D01*
X168302356Y-76414751D02*
X168302356Y-76652846D01*
X168302356Y-76652846D02*
X168349975Y-76843322D01*
X168349975Y-76843322D02*
X168397594Y-76938560D01*
X168397594Y-76938560D02*
X168445213Y-76986180D01*
X168445213Y-76986180D02*
X168540451Y-77033799D01*
X168540451Y-77033799D02*
X168635689Y-77033799D01*
X168635689Y-77033799D02*
X168730927Y-76986180D01*
X168730927Y-76986180D02*
X168778546Y-76938560D01*
X168778546Y-76938560D02*
X168826165Y-76843322D01*
X168826165Y-76843322D02*
X168873784Y-76652846D01*
X168873784Y-76652846D02*
X168873784Y-76414751D01*
X168873784Y-76414751D02*
X168826165Y-76224275D01*
X168826165Y-76224275D02*
X168778546Y-76129037D01*
X168778546Y-76129037D02*
X168730927Y-76081418D01*
X168730927Y-76081418D02*
X168635689Y-76033799D01*
X148245951Y-48662846D02*
X147484047Y-48662846D01*
X147864999Y-49043799D02*
X147864999Y-48281894D01*
X148245951Y-58822846D02*
X147484047Y-58822846D01*
X147864999Y-59203799D02*
X147864999Y-58441894D01*
X148245951Y-76602846D02*
X147484047Y-76602846D01*
X174280951Y-48662846D02*
X173519047Y-48662846D01*
X173899999Y-49043799D02*
X173899999Y-48281894D01*
X145029260Y-69128084D02*
X144553070Y-69128084D01*
X145124498Y-69413799D02*
X144791165Y-68413799D01*
X144791165Y-68413799D02*
X144457832Y-69413799D01*
X144124498Y-69413799D02*
X144124498Y-68413799D01*
X144124498Y-68413799D02*
X143553070Y-69413799D01*
X143553070Y-69413799D02*
X143553070Y-68413799D01*
X143219736Y-68413799D02*
X142648308Y-68413799D01*
X142934022Y-69413799D02*
X142934022Y-68413799D01*
X142362593Y-69366180D02*
X142219736Y-69413799D01*
X142219736Y-69413799D02*
X141981641Y-69413799D01*
X141981641Y-69413799D02*
X141886403Y-69366180D01*
X141886403Y-69366180D02*
X141838784Y-69318560D01*
X141838784Y-69318560D02*
X141791165Y-69223322D01*
X141791165Y-69223322D02*
X141791165Y-69128084D01*
X141791165Y-69128084D02*
X141838784Y-69032846D01*
X141838784Y-69032846D02*
X141886403Y-68985227D01*
X141886403Y-68985227D02*
X141981641Y-68937608D01*
X141981641Y-68937608D02*
X142172117Y-68889989D01*
X142172117Y-68889989D02*
X142267355Y-68842370D01*
X142267355Y-68842370D02*
X142314974Y-68794751D01*
X142314974Y-68794751D02*
X142362593Y-68699513D01*
X142362593Y-68699513D02*
X142362593Y-68604275D01*
X142362593Y-68604275D02*
X142314974Y-68509037D01*
X142314974Y-68509037D02*
X142267355Y-68461418D01*
X142267355Y-68461418D02*
X142172117Y-68413799D01*
X142172117Y-68413799D02*
X141934022Y-68413799D01*
X141934022Y-68413799D02*
X141791165Y-68461418D01*
X141457831Y-68413799D02*
X141219736Y-69413799D01*
X141219736Y-69413799D02*
X141029260Y-68699513D01*
X141029260Y-68699513D02*
X140838784Y-69413799D01*
X140838784Y-69413799D02*
X140600689Y-68413799D01*
X140219736Y-69413799D02*
X140219736Y-68413799D01*
X139886403Y-68413799D02*
X139314975Y-68413799D01*
X139600689Y-69413799D02*
X139600689Y-68413799D01*
X138410213Y-69318560D02*
X138457832Y-69366180D01*
X138457832Y-69366180D02*
X138600689Y-69413799D01*
X138600689Y-69413799D02*
X138695927Y-69413799D01*
X138695927Y-69413799D02*
X138838784Y-69366180D01*
X138838784Y-69366180D02*
X138934022Y-69270941D01*
X138934022Y-69270941D02*
X138981641Y-69175703D01*
X138981641Y-69175703D02*
X139029260Y-68985227D01*
X139029260Y-68985227D02*
X139029260Y-68842370D01*
X139029260Y-68842370D02*
X138981641Y-68651894D01*
X138981641Y-68651894D02*
X138934022Y-68556656D01*
X138934022Y-68556656D02*
X138838784Y-68461418D01*
X138838784Y-68461418D02*
X138695927Y-68413799D01*
X138695927Y-68413799D02*
X138600689Y-68413799D01*
X138600689Y-68413799D02*
X138457832Y-68461418D01*
X138457832Y-68461418D02*
X138410213Y-68509037D01*
X137981641Y-69413799D02*
X137981641Y-68413799D01*
X137981641Y-68889989D02*
X137410213Y-68889989D01*
X137410213Y-69413799D02*
X137410213Y-68413799D01*
X171064260Y-28488084D02*
X170588070Y-28488084D01*
X171159498Y-28773799D02*
X170826165Y-27773799D01*
X170826165Y-27773799D02*
X170492832Y-28773799D01*
X170159498Y-28773799D02*
X170159498Y-27773799D01*
X170159498Y-27773799D02*
X169588070Y-28773799D01*
X169588070Y-28773799D02*
X169588070Y-27773799D01*
X169254736Y-27773799D02*
X168683308Y-27773799D01*
X168969022Y-28773799D02*
X168969022Y-27773799D01*
X168397593Y-28726180D02*
X168254736Y-28773799D01*
X168254736Y-28773799D02*
X168016641Y-28773799D01*
X168016641Y-28773799D02*
X167921403Y-28726180D01*
X167921403Y-28726180D02*
X167873784Y-28678560D01*
X167873784Y-28678560D02*
X167826165Y-28583322D01*
X167826165Y-28583322D02*
X167826165Y-28488084D01*
X167826165Y-28488084D02*
X167873784Y-28392846D01*
X167873784Y-28392846D02*
X167921403Y-28345227D01*
X167921403Y-28345227D02*
X168016641Y-28297608D01*
X168016641Y-28297608D02*
X168207117Y-28249989D01*
X168207117Y-28249989D02*
X168302355Y-28202370D01*
X168302355Y-28202370D02*
X168349974Y-28154751D01*
X168349974Y-28154751D02*
X168397593Y-28059513D01*
X168397593Y-28059513D02*
X168397593Y-27964275D01*
X168397593Y-27964275D02*
X168349974Y-27869037D01*
X168349974Y-27869037D02*
X168302355Y-27821418D01*
X168302355Y-27821418D02*
X168207117Y-27773799D01*
X168207117Y-27773799D02*
X167969022Y-27773799D01*
X167969022Y-27773799D02*
X167826165Y-27821418D01*
X167492831Y-27773799D02*
X167254736Y-28773799D01*
X167254736Y-28773799D02*
X167064260Y-28059513D01*
X167064260Y-28059513D02*
X166873784Y-28773799D01*
X166873784Y-28773799D02*
X166635689Y-27773799D01*
X166254736Y-28773799D02*
X166254736Y-27773799D01*
X165921403Y-27773799D02*
X165349975Y-27773799D01*
X165635689Y-28773799D02*
X165635689Y-27773799D01*
X164445213Y-28678560D02*
X164492832Y-28726180D01*
X164492832Y-28726180D02*
X164635689Y-28773799D01*
X164635689Y-28773799D02*
X164730927Y-28773799D01*
X164730927Y-28773799D02*
X164873784Y-28726180D01*
X164873784Y-28726180D02*
X164969022Y-28630941D01*
X164969022Y-28630941D02*
X165016641Y-28535703D01*
X165016641Y-28535703D02*
X165064260Y-28345227D01*
X165064260Y-28345227D02*
X165064260Y-28202370D01*
X165064260Y-28202370D02*
X165016641Y-28011894D01*
X165016641Y-28011894D02*
X164969022Y-27916656D01*
X164969022Y-27916656D02*
X164873784Y-27821418D01*
X164873784Y-27821418D02*
X164730927Y-27773799D01*
X164730927Y-27773799D02*
X164635689Y-27773799D01*
X164635689Y-27773799D02*
X164492832Y-27821418D01*
X164492832Y-27821418D02*
X164445213Y-27869037D01*
X164016641Y-28773799D02*
X164016641Y-27773799D01*
X164016641Y-28249989D02*
X163445213Y-28249989D01*
X163445213Y-28773799D02*
X163445213Y-27773799D01*
X171064260Y-58968084D02*
X170588070Y-58968084D01*
X171159498Y-59253799D02*
X170826165Y-58253799D01*
X170826165Y-58253799D02*
X170492832Y-59253799D01*
X170159498Y-59253799D02*
X170159498Y-58253799D01*
X170159498Y-58253799D02*
X169588070Y-59253799D01*
X169588070Y-59253799D02*
X169588070Y-58253799D01*
X169254736Y-58253799D02*
X168683308Y-58253799D01*
X168969022Y-59253799D02*
X168969022Y-58253799D01*
X168397593Y-59206180D02*
X168254736Y-59253799D01*
X168254736Y-59253799D02*
X168016641Y-59253799D01*
X168016641Y-59253799D02*
X167921403Y-59206180D01*
X167921403Y-59206180D02*
X167873784Y-59158560D01*
X167873784Y-59158560D02*
X167826165Y-59063322D01*
X167826165Y-59063322D02*
X167826165Y-58968084D01*
X167826165Y-58968084D02*
X167873784Y-58872846D01*
X167873784Y-58872846D02*
X167921403Y-58825227D01*
X167921403Y-58825227D02*
X168016641Y-58777608D01*
X168016641Y-58777608D02*
X168207117Y-58729989D01*
X168207117Y-58729989D02*
X168302355Y-58682370D01*
X168302355Y-58682370D02*
X168349974Y-58634751D01*
X168349974Y-58634751D02*
X168397593Y-58539513D01*
X168397593Y-58539513D02*
X168397593Y-58444275D01*
X168397593Y-58444275D02*
X168349974Y-58349037D01*
X168349974Y-58349037D02*
X168302355Y-58301418D01*
X168302355Y-58301418D02*
X168207117Y-58253799D01*
X168207117Y-58253799D02*
X167969022Y-58253799D01*
X167969022Y-58253799D02*
X167826165Y-58301418D01*
X167492831Y-58253799D02*
X167254736Y-59253799D01*
X167254736Y-59253799D02*
X167064260Y-58539513D01*
X167064260Y-58539513D02*
X166873784Y-59253799D01*
X166873784Y-59253799D02*
X166635689Y-58253799D01*
X166254736Y-59253799D02*
X166254736Y-58253799D01*
X165921403Y-58253799D02*
X165349975Y-58253799D01*
X165635689Y-59253799D02*
X165635689Y-58253799D01*
X164445213Y-59158560D02*
X164492832Y-59206180D01*
X164492832Y-59206180D02*
X164635689Y-59253799D01*
X164635689Y-59253799D02*
X164730927Y-59253799D01*
X164730927Y-59253799D02*
X164873784Y-59206180D01*
X164873784Y-59206180D02*
X164969022Y-59110941D01*
X164969022Y-59110941D02*
X165016641Y-59015703D01*
X165016641Y-59015703D02*
X165064260Y-58825227D01*
X165064260Y-58825227D02*
X165064260Y-58682370D01*
X165064260Y-58682370D02*
X165016641Y-58491894D01*
X165016641Y-58491894D02*
X164969022Y-58396656D01*
X164969022Y-58396656D02*
X164873784Y-58301418D01*
X164873784Y-58301418D02*
X164730927Y-58253799D01*
X164730927Y-58253799D02*
X164635689Y-58253799D01*
X164635689Y-58253799D02*
X164492832Y-58301418D01*
X164492832Y-58301418D02*
X164445213Y-58349037D01*
X164016641Y-59253799D02*
X164016641Y-58253799D01*
X164016641Y-58729989D02*
X163445213Y-58729989D01*
X163445213Y-59253799D02*
X163445213Y-58253799D01*
X174280951Y-58822846D02*
X173519047Y-58822846D01*
X173899999Y-59203799D02*
X173899999Y-58441894D01*
X174280951Y-28342846D02*
X173519047Y-28342846D01*
X173899999Y-28723799D02*
X173899999Y-27961894D01*
X148245951Y-66442846D02*
X147484047Y-66442846D01*
X145029260Y-28488084D02*
X144553070Y-28488084D01*
X145124498Y-28773799D02*
X144791165Y-27773799D01*
X144791165Y-27773799D02*
X144457832Y-28773799D01*
X144124498Y-28773799D02*
X144124498Y-27773799D01*
X144124498Y-27773799D02*
X143553070Y-28773799D01*
X143553070Y-28773799D02*
X143553070Y-27773799D01*
X143219736Y-27773799D02*
X142648308Y-27773799D01*
X142934022Y-28773799D02*
X142934022Y-27773799D01*
X142362593Y-28726180D02*
X142219736Y-28773799D01*
X142219736Y-28773799D02*
X141981641Y-28773799D01*
X141981641Y-28773799D02*
X141886403Y-28726180D01*
X141886403Y-28726180D02*
X141838784Y-28678560D01*
X141838784Y-28678560D02*
X141791165Y-28583322D01*
X141791165Y-28583322D02*
X141791165Y-28488084D01*
X141791165Y-28488084D02*
X141838784Y-28392846D01*
X141838784Y-28392846D02*
X141886403Y-28345227D01*
X141886403Y-28345227D02*
X141981641Y-28297608D01*
X141981641Y-28297608D02*
X142172117Y-28249989D01*
X142172117Y-28249989D02*
X142267355Y-28202370D01*
X142267355Y-28202370D02*
X142314974Y-28154751D01*
X142314974Y-28154751D02*
X142362593Y-28059513D01*
X142362593Y-28059513D02*
X142362593Y-27964275D01*
X142362593Y-27964275D02*
X142314974Y-27869037D01*
X142314974Y-27869037D02*
X142267355Y-27821418D01*
X142267355Y-27821418D02*
X142172117Y-27773799D01*
X142172117Y-27773799D02*
X141934022Y-27773799D01*
X141934022Y-27773799D02*
X141791165Y-27821418D01*
X141457831Y-27773799D02*
X141219736Y-28773799D01*
X141219736Y-28773799D02*
X141029260Y-28059513D01*
X141029260Y-28059513D02*
X140838784Y-28773799D01*
X140838784Y-28773799D02*
X140600689Y-27773799D01*
X140219736Y-28773799D02*
X140219736Y-27773799D01*
X139886403Y-27773799D02*
X139314975Y-27773799D01*
X139600689Y-28773799D02*
X139600689Y-27773799D01*
X138410213Y-28678560D02*
X138457832Y-28726180D01*
X138457832Y-28726180D02*
X138600689Y-28773799D01*
X138600689Y-28773799D02*
X138695927Y-28773799D01*
X138695927Y-28773799D02*
X138838784Y-28726180D01*
X138838784Y-28726180D02*
X138934022Y-28630941D01*
X138934022Y-28630941D02*
X138981641Y-28535703D01*
X138981641Y-28535703D02*
X139029260Y-28345227D01*
X139029260Y-28345227D02*
X139029260Y-28202370D01*
X139029260Y-28202370D02*
X138981641Y-28011894D01*
X138981641Y-28011894D02*
X138934022Y-27916656D01*
X138934022Y-27916656D02*
X138838784Y-27821418D01*
X138838784Y-27821418D02*
X138695927Y-27773799D01*
X138695927Y-27773799D02*
X138600689Y-27773799D01*
X138600689Y-27773799D02*
X138457832Y-27821418D01*
X138457832Y-27821418D02*
X138410213Y-27869037D01*
X137981641Y-28773799D02*
X137981641Y-27773799D01*
X137981641Y-28249989D02*
X137410213Y-28249989D01*
X137410213Y-28773799D02*
X137410213Y-27773799D01*
X171064260Y-69128084D02*
X170588070Y-69128084D01*
X171159498Y-69413799D02*
X170826165Y-68413799D01*
X170826165Y-68413799D02*
X170492832Y-69413799D01*
X170159498Y-69413799D02*
X170159498Y-68413799D01*
X170159498Y-68413799D02*
X169588070Y-69413799D01*
X169588070Y-69413799D02*
X169588070Y-68413799D01*
X169254736Y-68413799D02*
X168683308Y-68413799D01*
X168969022Y-69413799D02*
X168969022Y-68413799D01*
X168397593Y-69366180D02*
X168254736Y-69413799D01*
X168254736Y-69413799D02*
X168016641Y-69413799D01*
X168016641Y-69413799D02*
X167921403Y-69366180D01*
X167921403Y-69366180D02*
X167873784Y-69318560D01*
X167873784Y-69318560D02*
X167826165Y-69223322D01*
X167826165Y-69223322D02*
X167826165Y-69128084D01*
X167826165Y-69128084D02*
X167873784Y-69032846D01*
X167873784Y-69032846D02*
X167921403Y-68985227D01*
X167921403Y-68985227D02*
X168016641Y-68937608D01*
X168016641Y-68937608D02*
X168207117Y-68889989D01*
X168207117Y-68889989D02*
X168302355Y-68842370D01*
X168302355Y-68842370D02*
X168349974Y-68794751D01*
X168349974Y-68794751D02*
X168397593Y-68699513D01*
X168397593Y-68699513D02*
X168397593Y-68604275D01*
X168397593Y-68604275D02*
X168349974Y-68509037D01*
X168349974Y-68509037D02*
X168302355Y-68461418D01*
X168302355Y-68461418D02*
X168207117Y-68413799D01*
X168207117Y-68413799D02*
X167969022Y-68413799D01*
X167969022Y-68413799D02*
X167826165Y-68461418D01*
X167492831Y-68413799D02*
X167254736Y-69413799D01*
X167254736Y-69413799D02*
X167064260Y-68699513D01*
X167064260Y-68699513D02*
X166873784Y-69413799D01*
X166873784Y-69413799D02*
X166635689Y-68413799D01*
X166254736Y-69413799D02*
X166254736Y-68413799D01*
X165921403Y-68413799D02*
X165349975Y-68413799D01*
X165635689Y-69413799D02*
X165635689Y-68413799D01*
X164445213Y-69318560D02*
X164492832Y-69366180D01*
X164492832Y-69366180D02*
X164635689Y-69413799D01*
X164635689Y-69413799D02*
X164730927Y-69413799D01*
X164730927Y-69413799D02*
X164873784Y-69366180D01*
X164873784Y-69366180D02*
X164969022Y-69270941D01*
X164969022Y-69270941D02*
X165016641Y-69175703D01*
X165016641Y-69175703D02*
X165064260Y-68985227D01*
X165064260Y-68985227D02*
X165064260Y-68842370D01*
X165064260Y-68842370D02*
X165016641Y-68651894D01*
X165016641Y-68651894D02*
X164969022Y-68556656D01*
X164969022Y-68556656D02*
X164873784Y-68461418D01*
X164873784Y-68461418D02*
X164730927Y-68413799D01*
X164730927Y-68413799D02*
X164635689Y-68413799D01*
X164635689Y-68413799D02*
X164492832Y-68461418D01*
X164492832Y-68461418D02*
X164445213Y-68509037D01*
X164016641Y-69413799D02*
X164016641Y-68413799D01*
X164016641Y-68889989D02*
X163445213Y-68889989D01*
X163445213Y-69413799D02*
X163445213Y-68413799D01*
X171111879Y-35727132D02*
X170873784Y-36393799D01*
X170873784Y-36393799D02*
X170635689Y-35727132D01*
X169730927Y-36393799D02*
X170302355Y-36393799D01*
X170016641Y-36393799D02*
X170016641Y-35393799D01*
X170016641Y-35393799D02*
X170111879Y-35536656D01*
X170111879Y-35536656D02*
X170207117Y-35631894D01*
X170207117Y-35631894D02*
X170302355Y-35679513D01*
X169302355Y-36298560D02*
X169254736Y-36346180D01*
X169254736Y-36346180D02*
X169302355Y-36393799D01*
X169302355Y-36393799D02*
X169349974Y-36346180D01*
X169349974Y-36346180D02*
X169302355Y-36298560D01*
X169302355Y-36298560D02*
X169302355Y-36393799D01*
X168635689Y-35393799D02*
X168540451Y-35393799D01*
X168540451Y-35393799D02*
X168445213Y-35441418D01*
X168445213Y-35441418D02*
X168397594Y-35489037D01*
X168397594Y-35489037D02*
X168349975Y-35584275D01*
X168349975Y-35584275D02*
X168302356Y-35774751D01*
X168302356Y-35774751D02*
X168302356Y-36012846D01*
X168302356Y-36012846D02*
X168349975Y-36203322D01*
X168349975Y-36203322D02*
X168397594Y-36298560D01*
X168397594Y-36298560D02*
X168445213Y-36346180D01*
X168445213Y-36346180D02*
X168540451Y-36393799D01*
X168540451Y-36393799D02*
X168635689Y-36393799D01*
X168635689Y-36393799D02*
X168730927Y-36346180D01*
X168730927Y-36346180D02*
X168778546Y-36298560D01*
X168778546Y-36298560D02*
X168826165Y-36203322D01*
X168826165Y-36203322D02*
X168873784Y-36012846D01*
X168873784Y-36012846D02*
X168873784Y-35774751D01*
X168873784Y-35774751D02*
X168826165Y-35584275D01*
X168826165Y-35584275D02*
X168778546Y-35489037D01*
X168778546Y-35489037D02*
X168730927Y-35441418D01*
X168730927Y-35441418D02*
X168635689Y-35393799D01*
X148245951Y-35962846D02*
X147484047Y-35962846D01*
X171064260Y-48808084D02*
X170588070Y-48808084D01*
X171159498Y-49093799D02*
X170826165Y-48093799D01*
X170826165Y-48093799D02*
X170492832Y-49093799D01*
X170159498Y-49093799D02*
X170159498Y-48093799D01*
X170159498Y-48093799D02*
X169588070Y-49093799D01*
X169588070Y-49093799D02*
X169588070Y-48093799D01*
X169254736Y-48093799D02*
X168683308Y-48093799D01*
X168969022Y-49093799D02*
X168969022Y-48093799D01*
X168397593Y-49046180D02*
X168254736Y-49093799D01*
X168254736Y-49093799D02*
X168016641Y-49093799D01*
X168016641Y-49093799D02*
X167921403Y-49046180D01*
X167921403Y-49046180D02*
X167873784Y-48998560D01*
X167873784Y-48998560D02*
X167826165Y-48903322D01*
X167826165Y-48903322D02*
X167826165Y-48808084D01*
X167826165Y-48808084D02*
X167873784Y-48712846D01*
X167873784Y-48712846D02*
X167921403Y-48665227D01*
X167921403Y-48665227D02*
X168016641Y-48617608D01*
X168016641Y-48617608D02*
X168207117Y-48569989D01*
X168207117Y-48569989D02*
X168302355Y-48522370D01*
X168302355Y-48522370D02*
X168349974Y-48474751D01*
X168349974Y-48474751D02*
X168397593Y-48379513D01*
X168397593Y-48379513D02*
X168397593Y-48284275D01*
X168397593Y-48284275D02*
X168349974Y-48189037D01*
X168349974Y-48189037D02*
X168302355Y-48141418D01*
X168302355Y-48141418D02*
X168207117Y-48093799D01*
X168207117Y-48093799D02*
X167969022Y-48093799D01*
X167969022Y-48093799D02*
X167826165Y-48141418D01*
X167492831Y-48093799D02*
X167254736Y-49093799D01*
X167254736Y-49093799D02*
X167064260Y-48379513D01*
X167064260Y-48379513D02*
X166873784Y-49093799D01*
X166873784Y-49093799D02*
X166635689Y-48093799D01*
X166254736Y-49093799D02*
X166254736Y-48093799D01*
X165921403Y-48093799D02*
X165349975Y-48093799D01*
X165635689Y-49093799D02*
X165635689Y-48093799D01*
X164445213Y-48998560D02*
X164492832Y-49046180D01*
X164492832Y-49046180D02*
X164635689Y-49093799D01*
X164635689Y-49093799D02*
X164730927Y-49093799D01*
X164730927Y-49093799D02*
X164873784Y-49046180D01*
X164873784Y-49046180D02*
X164969022Y-48950941D01*
X164969022Y-48950941D02*
X165016641Y-48855703D01*
X165016641Y-48855703D02*
X165064260Y-48665227D01*
X165064260Y-48665227D02*
X165064260Y-48522370D01*
X165064260Y-48522370D02*
X165016641Y-48331894D01*
X165016641Y-48331894D02*
X164969022Y-48236656D01*
X164969022Y-48236656D02*
X164873784Y-48141418D01*
X164873784Y-48141418D02*
X164730927Y-48093799D01*
X164730927Y-48093799D02*
X164635689Y-48093799D01*
X164635689Y-48093799D02*
X164492832Y-48141418D01*
X164492832Y-48141418D02*
X164445213Y-48189037D01*
X164016641Y-49093799D02*
X164016641Y-48093799D01*
X164016641Y-48569989D02*
X163445213Y-48569989D01*
X163445213Y-49093799D02*
X163445213Y-48093799D01*
X148245951Y-46122846D02*
X147484047Y-46122846D01*
X145029260Y-48808084D02*
X144553070Y-48808084D01*
X145124498Y-49093799D02*
X144791165Y-48093799D01*
X144791165Y-48093799D02*
X144457832Y-49093799D01*
X144124498Y-49093799D02*
X144124498Y-48093799D01*
X144124498Y-48093799D02*
X143553070Y-49093799D01*
X143553070Y-49093799D02*
X143553070Y-48093799D01*
X143219736Y-48093799D02*
X142648308Y-48093799D01*
X142934022Y-49093799D02*
X142934022Y-48093799D01*
X142362593Y-49046180D02*
X142219736Y-49093799D01*
X142219736Y-49093799D02*
X141981641Y-49093799D01*
X141981641Y-49093799D02*
X141886403Y-49046180D01*
X141886403Y-49046180D02*
X141838784Y-48998560D01*
X141838784Y-48998560D02*
X141791165Y-48903322D01*
X141791165Y-48903322D02*
X141791165Y-48808084D01*
X141791165Y-48808084D02*
X141838784Y-48712846D01*
X141838784Y-48712846D02*
X141886403Y-48665227D01*
X141886403Y-48665227D02*
X141981641Y-48617608D01*
X141981641Y-48617608D02*
X142172117Y-48569989D01*
X142172117Y-48569989D02*
X142267355Y-48522370D01*
X142267355Y-48522370D02*
X142314974Y-48474751D01*
X142314974Y-48474751D02*
X142362593Y-48379513D01*
X142362593Y-48379513D02*
X142362593Y-48284275D01*
X142362593Y-48284275D02*
X142314974Y-48189037D01*
X142314974Y-48189037D02*
X142267355Y-48141418D01*
X142267355Y-48141418D02*
X142172117Y-48093799D01*
X142172117Y-48093799D02*
X141934022Y-48093799D01*
X141934022Y-48093799D02*
X141791165Y-48141418D01*
X141457831Y-48093799D02*
X141219736Y-49093799D01*
X141219736Y-49093799D02*
X141029260Y-48379513D01*
X141029260Y-48379513D02*
X140838784Y-49093799D01*
X140838784Y-49093799D02*
X140600689Y-48093799D01*
X140219736Y-49093799D02*
X140219736Y-48093799D01*
X139886403Y-48093799D02*
X139314975Y-48093799D01*
X139600689Y-49093799D02*
X139600689Y-48093799D01*
X138410213Y-48998560D02*
X138457832Y-49046180D01*
X138457832Y-49046180D02*
X138600689Y-49093799D01*
X138600689Y-49093799D02*
X138695927Y-49093799D01*
X138695927Y-49093799D02*
X138838784Y-49046180D01*
X138838784Y-49046180D02*
X138934022Y-48950941D01*
X138934022Y-48950941D02*
X138981641Y-48855703D01*
X138981641Y-48855703D02*
X139029260Y-48665227D01*
X139029260Y-48665227D02*
X139029260Y-48522370D01*
X139029260Y-48522370D02*
X138981641Y-48331894D01*
X138981641Y-48331894D02*
X138934022Y-48236656D01*
X138934022Y-48236656D02*
X138838784Y-48141418D01*
X138838784Y-48141418D02*
X138695927Y-48093799D01*
X138695927Y-48093799D02*
X138600689Y-48093799D01*
X138600689Y-48093799D02*
X138457832Y-48141418D01*
X138457832Y-48141418D02*
X138410213Y-48189037D01*
X137981641Y-49093799D02*
X137981641Y-48093799D01*
X137981641Y-48569989D02*
X137410213Y-48569989D01*
X137410213Y-49093799D02*
X137410213Y-48093799D01*
X148245951Y-28342846D02*
X147484047Y-28342846D01*
X147864999Y-28723799D02*
X147864999Y-27961894D01*
X145076879Y-56047132D02*
X144838784Y-56713799D01*
X144838784Y-56713799D02*
X144600689Y-56047132D01*
X143695927Y-56713799D02*
X144267355Y-56713799D01*
X143981641Y-56713799D02*
X143981641Y-55713799D01*
X143981641Y-55713799D02*
X144076879Y-55856656D01*
X144076879Y-55856656D02*
X144172117Y-55951894D01*
X144172117Y-55951894D02*
X144267355Y-55999513D01*
X143267355Y-56618560D02*
X143219736Y-56666180D01*
X143219736Y-56666180D02*
X143267355Y-56713799D01*
X143267355Y-56713799D02*
X143314974Y-56666180D01*
X143314974Y-56666180D02*
X143267355Y-56618560D01*
X143267355Y-56618560D02*
X143267355Y-56713799D01*
X142600689Y-55713799D02*
X142505451Y-55713799D01*
X142505451Y-55713799D02*
X142410213Y-55761418D01*
X142410213Y-55761418D02*
X142362594Y-55809037D01*
X142362594Y-55809037D02*
X142314975Y-55904275D01*
X142314975Y-55904275D02*
X142267356Y-56094751D01*
X142267356Y-56094751D02*
X142267356Y-56332846D01*
X142267356Y-56332846D02*
X142314975Y-56523322D01*
X142314975Y-56523322D02*
X142362594Y-56618560D01*
X142362594Y-56618560D02*
X142410213Y-56666180D01*
X142410213Y-56666180D02*
X142505451Y-56713799D01*
X142505451Y-56713799D02*
X142600689Y-56713799D01*
X142600689Y-56713799D02*
X142695927Y-56666180D01*
X142695927Y-56666180D02*
X142743546Y-56618560D01*
X142743546Y-56618560D02*
X142791165Y-56523322D01*
X142791165Y-56523322D02*
X142838784Y-56332846D01*
X142838784Y-56332846D02*
X142838784Y-56094751D01*
X142838784Y-56094751D02*
X142791165Y-55904275D01*
X142791165Y-55904275D02*
X142743546Y-55809037D01*
X142743546Y-55809037D02*
X142695927Y-55761418D01*
X142695927Y-55761418D02*
X142600689Y-55713799D01*
X171064260Y-38648084D02*
X170588070Y-38648084D01*
X171159498Y-38933799D02*
X170826165Y-37933799D01*
X170826165Y-37933799D02*
X170492832Y-38933799D01*
X170159498Y-38933799D02*
X170159498Y-37933799D01*
X170159498Y-37933799D02*
X169588070Y-38933799D01*
X169588070Y-38933799D02*
X169588070Y-37933799D01*
X169254736Y-37933799D02*
X168683308Y-37933799D01*
X168969022Y-38933799D02*
X168969022Y-37933799D01*
X168397593Y-38886180D02*
X168254736Y-38933799D01*
X168254736Y-38933799D02*
X168016641Y-38933799D01*
X168016641Y-38933799D02*
X167921403Y-38886180D01*
X167921403Y-38886180D02*
X167873784Y-38838560D01*
X167873784Y-38838560D02*
X167826165Y-38743322D01*
X167826165Y-38743322D02*
X167826165Y-38648084D01*
X167826165Y-38648084D02*
X167873784Y-38552846D01*
X167873784Y-38552846D02*
X167921403Y-38505227D01*
X167921403Y-38505227D02*
X168016641Y-38457608D01*
X168016641Y-38457608D02*
X168207117Y-38409989D01*
X168207117Y-38409989D02*
X168302355Y-38362370D01*
X168302355Y-38362370D02*
X168349974Y-38314751D01*
X168349974Y-38314751D02*
X168397593Y-38219513D01*
X168397593Y-38219513D02*
X168397593Y-38124275D01*
X168397593Y-38124275D02*
X168349974Y-38029037D01*
X168349974Y-38029037D02*
X168302355Y-37981418D01*
X168302355Y-37981418D02*
X168207117Y-37933799D01*
X168207117Y-37933799D02*
X167969022Y-37933799D01*
X167969022Y-37933799D02*
X167826165Y-37981418D01*
X167492831Y-37933799D02*
X167254736Y-38933799D01*
X167254736Y-38933799D02*
X167064260Y-38219513D01*
X167064260Y-38219513D02*
X166873784Y-38933799D01*
X166873784Y-38933799D02*
X166635689Y-37933799D01*
X166254736Y-38933799D02*
X166254736Y-37933799D01*
X165921403Y-37933799D02*
X165349975Y-37933799D01*
X165635689Y-38933799D02*
X165635689Y-37933799D01*
X164445213Y-38838560D02*
X164492832Y-38886180D01*
X164492832Y-38886180D02*
X164635689Y-38933799D01*
X164635689Y-38933799D02*
X164730927Y-38933799D01*
X164730927Y-38933799D02*
X164873784Y-38886180D01*
X164873784Y-38886180D02*
X164969022Y-38790941D01*
X164969022Y-38790941D02*
X165016641Y-38695703D01*
X165016641Y-38695703D02*
X165064260Y-38505227D01*
X165064260Y-38505227D02*
X165064260Y-38362370D01*
X165064260Y-38362370D02*
X165016641Y-38171894D01*
X165016641Y-38171894D02*
X164969022Y-38076656D01*
X164969022Y-38076656D02*
X164873784Y-37981418D01*
X164873784Y-37981418D02*
X164730927Y-37933799D01*
X164730927Y-37933799D02*
X164635689Y-37933799D01*
X164635689Y-37933799D02*
X164492832Y-37981418D01*
X164492832Y-37981418D02*
X164445213Y-38029037D01*
X164016641Y-38933799D02*
X164016641Y-37933799D01*
X164016641Y-38409989D02*
X163445213Y-38409989D01*
X163445213Y-38933799D02*
X163445213Y-37933799D01*
X145029260Y-58968084D02*
X144553070Y-58968084D01*
X145124498Y-59253799D02*
X144791165Y-58253799D01*
X144791165Y-58253799D02*
X144457832Y-59253799D01*
X144124498Y-59253799D02*
X144124498Y-58253799D01*
X144124498Y-58253799D02*
X143553070Y-59253799D01*
X143553070Y-59253799D02*
X143553070Y-58253799D01*
X143219736Y-58253799D02*
X142648308Y-58253799D01*
X142934022Y-59253799D02*
X142934022Y-58253799D01*
X142362593Y-59206180D02*
X142219736Y-59253799D01*
X142219736Y-59253799D02*
X141981641Y-59253799D01*
X141981641Y-59253799D02*
X141886403Y-59206180D01*
X141886403Y-59206180D02*
X141838784Y-59158560D01*
X141838784Y-59158560D02*
X141791165Y-59063322D01*
X141791165Y-59063322D02*
X141791165Y-58968084D01*
X141791165Y-58968084D02*
X141838784Y-58872846D01*
X141838784Y-58872846D02*
X141886403Y-58825227D01*
X141886403Y-58825227D02*
X141981641Y-58777608D01*
X141981641Y-58777608D02*
X142172117Y-58729989D01*
X142172117Y-58729989D02*
X142267355Y-58682370D01*
X142267355Y-58682370D02*
X142314974Y-58634751D01*
X142314974Y-58634751D02*
X142362593Y-58539513D01*
X142362593Y-58539513D02*
X142362593Y-58444275D01*
X142362593Y-58444275D02*
X142314974Y-58349037D01*
X142314974Y-58349037D02*
X142267355Y-58301418D01*
X142267355Y-58301418D02*
X142172117Y-58253799D01*
X142172117Y-58253799D02*
X141934022Y-58253799D01*
X141934022Y-58253799D02*
X141791165Y-58301418D01*
X141457831Y-58253799D02*
X141219736Y-59253799D01*
X141219736Y-59253799D02*
X141029260Y-58539513D01*
X141029260Y-58539513D02*
X140838784Y-59253799D01*
X140838784Y-59253799D02*
X140600689Y-58253799D01*
X140219736Y-59253799D02*
X140219736Y-58253799D01*
X139886403Y-58253799D02*
X139314975Y-58253799D01*
X139600689Y-59253799D02*
X139600689Y-58253799D01*
X138410213Y-59158560D02*
X138457832Y-59206180D01*
X138457832Y-59206180D02*
X138600689Y-59253799D01*
X138600689Y-59253799D02*
X138695927Y-59253799D01*
X138695927Y-59253799D02*
X138838784Y-59206180D01*
X138838784Y-59206180D02*
X138934022Y-59110941D01*
X138934022Y-59110941D02*
X138981641Y-59015703D01*
X138981641Y-59015703D02*
X139029260Y-58825227D01*
X139029260Y-58825227D02*
X139029260Y-58682370D01*
X139029260Y-58682370D02*
X138981641Y-58491894D01*
X138981641Y-58491894D02*
X138934022Y-58396656D01*
X138934022Y-58396656D02*
X138838784Y-58301418D01*
X138838784Y-58301418D02*
X138695927Y-58253799D01*
X138695927Y-58253799D02*
X138600689Y-58253799D01*
X138600689Y-58253799D02*
X138457832Y-58301418D01*
X138457832Y-58301418D02*
X138410213Y-58349037D01*
X137981641Y-59253799D02*
X137981641Y-58253799D01*
X137981641Y-58729989D02*
X137410213Y-58729989D01*
X137410213Y-59253799D02*
X137410213Y-58253799D01*
X174280951Y-35962846D02*
X173519047Y-35962846D01*
X148245951Y-38502846D02*
X147484047Y-38502846D01*
X147864999Y-38883799D02*
X147864999Y-38121894D01*
X174280951Y-68982846D02*
X173519047Y-68982846D01*
X173899999Y-69363799D02*
X173899999Y-68601894D01*
X174280951Y-46122846D02*
X173519047Y-46122846D01*
X174280951Y-38502846D02*
X173519047Y-38502846D01*
X173899999Y-38883799D02*
X173899999Y-38121894D01*
X171111879Y-66207132D02*
X170873784Y-66873799D01*
X170873784Y-66873799D02*
X170635689Y-66207132D01*
X169730927Y-66873799D02*
X170302355Y-66873799D01*
X170016641Y-66873799D02*
X170016641Y-65873799D01*
X170016641Y-65873799D02*
X170111879Y-66016656D01*
X170111879Y-66016656D02*
X170207117Y-66111894D01*
X170207117Y-66111894D02*
X170302355Y-66159513D01*
X169302355Y-66778560D02*
X169254736Y-66826180D01*
X169254736Y-66826180D02*
X169302355Y-66873799D01*
X169302355Y-66873799D02*
X169349974Y-66826180D01*
X169349974Y-66826180D02*
X169302355Y-66778560D01*
X169302355Y-66778560D02*
X169302355Y-66873799D01*
X168635689Y-65873799D02*
X168540451Y-65873799D01*
X168540451Y-65873799D02*
X168445213Y-65921418D01*
X168445213Y-65921418D02*
X168397594Y-65969037D01*
X168397594Y-65969037D02*
X168349975Y-66064275D01*
X168349975Y-66064275D02*
X168302356Y-66254751D01*
X168302356Y-66254751D02*
X168302356Y-66492846D01*
X168302356Y-66492846D02*
X168349975Y-66683322D01*
X168349975Y-66683322D02*
X168397594Y-66778560D01*
X168397594Y-66778560D02*
X168445213Y-66826180D01*
X168445213Y-66826180D02*
X168540451Y-66873799D01*
X168540451Y-66873799D02*
X168635689Y-66873799D01*
X168635689Y-66873799D02*
X168730927Y-66826180D01*
X168730927Y-66826180D02*
X168778546Y-66778560D01*
X168778546Y-66778560D02*
X168826165Y-66683322D01*
X168826165Y-66683322D02*
X168873784Y-66492846D01*
X168873784Y-66492846D02*
X168873784Y-66254751D01*
X168873784Y-66254751D02*
X168826165Y-66064275D01*
X168826165Y-66064275D02*
X168778546Y-65969037D01*
X168778546Y-65969037D02*
X168730927Y-65921418D01*
X168730927Y-65921418D02*
X168635689Y-65873799D01*
X174280951Y-66442846D02*
X173519047Y-66442846D01*
X174280951Y-76602846D02*
X173519047Y-76602846D01*
D11*
%TO.C,J8*%
X161255000Y-50554500D02*
X161255000Y-47894500D01*
X159223000Y-50554500D02*
X161255000Y-50554500D01*
X159223000Y-47894500D02*
X161255000Y-47894500D01*
D12*
X158655000Y-50748500D02*
X158655000Y-50240500D01*
X158655000Y-48208500D02*
X158655000Y-47700500D01*
X158401000Y-50494500D02*
X158909000Y-50494500D01*
X158401000Y-47954500D02*
X158909000Y-47954500D01*
D11*
X156115000Y-50554500D02*
X158147000Y-50554500D01*
X156115000Y-50554500D02*
X156115000Y-47894500D01*
X156115000Y-47894500D02*
X158147000Y-47894500D01*
%TO.C,J9*%
X135220000Y-67064500D02*
X135220000Y-64404500D01*
X133188000Y-67064500D02*
X135220000Y-67064500D01*
X133188000Y-64404500D02*
X135220000Y-64404500D01*
D12*
X132366000Y-67004500D02*
X132874000Y-67004500D01*
X132366000Y-64464500D02*
X132874000Y-64464500D01*
D11*
X130080000Y-67064500D02*
X132112000Y-67064500D01*
X130080000Y-67064500D02*
X130080000Y-64404500D01*
X130080000Y-64404500D02*
X132112000Y-64404500D01*
%TO.C,J8*%
X161255000Y-70874500D02*
X161255000Y-68214500D01*
X159223000Y-70874500D02*
X161255000Y-70874500D01*
X159223000Y-68214500D02*
X161255000Y-68214500D01*
D12*
X158655000Y-71068500D02*
X158655000Y-70560500D01*
X158655000Y-68528500D02*
X158655000Y-68020500D01*
X158401000Y-70814500D02*
X158909000Y-70814500D01*
X158401000Y-68274500D02*
X158909000Y-68274500D01*
D11*
X156115000Y-70874500D02*
X158147000Y-70874500D01*
X156115000Y-70874500D02*
X156115000Y-68214500D01*
X156115000Y-68214500D02*
X158147000Y-68214500D01*
%TO.C,J9*%
X135220000Y-56904500D02*
X135220000Y-54244500D01*
X133188000Y-56904500D02*
X135220000Y-56904500D01*
X133188000Y-54244500D02*
X135220000Y-54244500D01*
D12*
X132366000Y-56844500D02*
X132874000Y-56844500D01*
X132366000Y-54304500D02*
X132874000Y-54304500D01*
D11*
X130080000Y-56904500D02*
X132112000Y-56904500D01*
X130080000Y-56904500D02*
X130080000Y-54244500D01*
X130080000Y-54244500D02*
X132112000Y-54244500D01*
%TO.C,J8*%
X161255000Y-60714500D02*
X161255000Y-58054500D01*
X159223000Y-60714500D02*
X161255000Y-60714500D01*
X159223000Y-58054500D02*
X161255000Y-58054500D01*
D12*
X158655000Y-60908500D02*
X158655000Y-60400500D01*
X158655000Y-58368500D02*
X158655000Y-57860500D01*
X158401000Y-60654500D02*
X158909000Y-60654500D01*
X158401000Y-58114500D02*
X158909000Y-58114500D01*
D11*
X156115000Y-60714500D02*
X158147000Y-60714500D01*
X156115000Y-60714500D02*
X156115000Y-58054500D01*
X156115000Y-58054500D02*
X158147000Y-58054500D01*
%TO.C,J9*%
X161255000Y-56904500D02*
X161255000Y-54244500D01*
X159223000Y-56904500D02*
X161255000Y-56904500D01*
X159223000Y-54244500D02*
X161255000Y-54244500D01*
D12*
X158401000Y-56844500D02*
X158909000Y-56844500D01*
X158401000Y-54304500D02*
X158909000Y-54304500D01*
D11*
X156115000Y-56904500D02*
X158147000Y-56904500D01*
X156115000Y-56904500D02*
X156115000Y-54244500D01*
X156115000Y-54244500D02*
X158147000Y-54244500D01*
X135220000Y-36584500D02*
X135220000Y-33924500D01*
X133188000Y-36584500D02*
X135220000Y-36584500D01*
X133188000Y-33924500D02*
X135220000Y-33924500D01*
D12*
X132366000Y-36524500D02*
X132874000Y-36524500D01*
X132366000Y-33984500D02*
X132874000Y-33984500D01*
D11*
X130080000Y-36584500D02*
X132112000Y-36584500D01*
X130080000Y-36584500D02*
X130080000Y-33924500D01*
X130080000Y-33924500D02*
X132112000Y-33924500D01*
%TO.C,J8*%
X135220000Y-30234500D02*
X135220000Y-27574500D01*
X133188000Y-30234500D02*
X135220000Y-30234500D01*
X133188000Y-27574500D02*
X135220000Y-27574500D01*
D12*
X132620000Y-30428500D02*
X132620000Y-29920500D01*
X132620000Y-27888500D02*
X132620000Y-27380500D01*
X132366000Y-30174500D02*
X132874000Y-30174500D01*
X132366000Y-27634500D02*
X132874000Y-27634500D01*
D11*
X130080000Y-30234500D02*
X132112000Y-30234500D01*
X130080000Y-30234500D02*
X130080000Y-27574500D01*
X130080000Y-27574500D02*
X132112000Y-27574500D01*
%TO.C,J9*%
X161255000Y-67064500D02*
X161255000Y-64404500D01*
X159223000Y-67064500D02*
X161255000Y-67064500D01*
X159223000Y-64404500D02*
X161255000Y-64404500D01*
D12*
X158401000Y-67004500D02*
X158909000Y-67004500D01*
X158401000Y-64464500D02*
X158909000Y-64464500D01*
D11*
X156115000Y-67064500D02*
X158147000Y-67064500D01*
X156115000Y-67064500D02*
X156115000Y-64404500D01*
X156115000Y-64404500D02*
X158147000Y-64404500D01*
%TO.C,J8*%
X135220000Y-40394500D02*
X135220000Y-37734500D01*
X133188000Y-40394500D02*
X135220000Y-40394500D01*
X133188000Y-37734500D02*
X135220000Y-37734500D01*
D12*
X132620000Y-40588500D02*
X132620000Y-40080500D01*
X132620000Y-38048500D02*
X132620000Y-37540500D01*
X132366000Y-40334500D02*
X132874000Y-40334500D01*
X132366000Y-37794500D02*
X132874000Y-37794500D01*
D11*
X130080000Y-40394500D02*
X132112000Y-40394500D01*
X130080000Y-40394500D02*
X130080000Y-37734500D01*
X130080000Y-37734500D02*
X132112000Y-37734500D01*
%TO.C,J9*%
X135220000Y-77224500D02*
X135220000Y-74564500D01*
X133188000Y-77224500D02*
X135220000Y-77224500D01*
X133188000Y-74564500D02*
X135220000Y-74564500D01*
D12*
X132366000Y-77164500D02*
X132874000Y-77164500D01*
X132366000Y-74624500D02*
X132874000Y-74624500D01*
D11*
X130080000Y-77224500D02*
X132112000Y-77224500D01*
X130080000Y-77224500D02*
X130080000Y-74564500D01*
X130080000Y-74564500D02*
X132112000Y-74564500D01*
%TO.C,J8*%
X135220000Y-50554500D02*
X135220000Y-47894500D01*
X133188000Y-50554500D02*
X135220000Y-50554500D01*
X133188000Y-47894500D02*
X135220000Y-47894500D01*
D12*
X132620000Y-50748500D02*
X132620000Y-50240500D01*
X132620000Y-48208500D02*
X132620000Y-47700500D01*
X132366000Y-50494500D02*
X132874000Y-50494500D01*
X132366000Y-47954500D02*
X132874000Y-47954500D01*
D11*
X130080000Y-50554500D02*
X132112000Y-50554500D01*
X130080000Y-50554500D02*
X130080000Y-47894500D01*
X130080000Y-47894500D02*
X132112000Y-47894500D01*
%TO.C,J9*%
X161255000Y-36584500D02*
X161255000Y-33924500D01*
X159223000Y-36584500D02*
X161255000Y-36584500D01*
X159223000Y-33924500D02*
X161255000Y-33924500D01*
D12*
X158401000Y-36524500D02*
X158909000Y-36524500D01*
X158401000Y-33984500D02*
X158909000Y-33984500D01*
D11*
X156115000Y-36584500D02*
X158147000Y-36584500D01*
X156115000Y-36584500D02*
X156115000Y-33924500D01*
X156115000Y-33924500D02*
X158147000Y-33924500D01*
%TO.C,J8*%
X161255000Y-30234500D02*
X161255000Y-27574500D01*
X159223000Y-30234500D02*
X161255000Y-30234500D01*
X159223000Y-27574500D02*
X161255000Y-27574500D01*
D12*
X158655000Y-30428500D02*
X158655000Y-29920500D01*
X158655000Y-27888500D02*
X158655000Y-27380500D01*
X158401000Y-30174500D02*
X158909000Y-30174500D01*
X158401000Y-27634500D02*
X158909000Y-27634500D01*
D11*
X156115000Y-30234500D02*
X158147000Y-30234500D01*
X156115000Y-30234500D02*
X156115000Y-27574500D01*
X156115000Y-27574500D02*
X158147000Y-27574500D01*
X161255000Y-40394500D02*
X161255000Y-37734500D01*
X159223000Y-40394500D02*
X161255000Y-40394500D01*
X159223000Y-37734500D02*
X161255000Y-37734500D01*
D12*
X158655000Y-40588500D02*
X158655000Y-40080500D01*
X158655000Y-38048500D02*
X158655000Y-37540500D01*
X158401000Y-40334500D02*
X158909000Y-40334500D01*
X158401000Y-37794500D02*
X158909000Y-37794500D01*
D11*
X156115000Y-40394500D02*
X158147000Y-40394500D01*
X156115000Y-40394500D02*
X156115000Y-37734500D01*
X156115000Y-37734500D02*
X158147000Y-37734500D01*
%TO.C,J9*%
X135220000Y-46744500D02*
X135220000Y-44084500D01*
X133188000Y-46744500D02*
X135220000Y-46744500D01*
X133188000Y-44084500D02*
X135220000Y-44084500D01*
D12*
X132366000Y-46684500D02*
X132874000Y-46684500D01*
X132366000Y-44144500D02*
X132874000Y-44144500D01*
D11*
X130080000Y-46744500D02*
X132112000Y-46744500D01*
X130080000Y-46744500D02*
X130080000Y-44084500D01*
X130080000Y-44084500D02*
X132112000Y-44084500D01*
X161255000Y-77224500D02*
X161255000Y-74564500D01*
X159223000Y-77224500D02*
X161255000Y-77224500D01*
X159223000Y-74564500D02*
X161255000Y-74564500D01*
D12*
X158401000Y-77164500D02*
X158909000Y-77164500D01*
X158401000Y-74624500D02*
X158909000Y-74624500D01*
D11*
X156115000Y-77224500D02*
X158147000Y-77224500D01*
X156115000Y-77224500D02*
X156115000Y-74564500D01*
X156115000Y-74564500D02*
X158147000Y-74564500D01*
%TO.C,J8*%
X135220000Y-60714500D02*
X135220000Y-58054500D01*
X133188000Y-60714500D02*
X135220000Y-60714500D01*
X133188000Y-58054500D02*
X135220000Y-58054500D01*
D12*
X132620000Y-60908500D02*
X132620000Y-60400500D01*
X132620000Y-58368500D02*
X132620000Y-57860500D01*
X132366000Y-60654500D02*
X132874000Y-60654500D01*
X132366000Y-58114500D02*
X132874000Y-58114500D01*
D11*
X130080000Y-60714500D02*
X132112000Y-60714500D01*
X130080000Y-60714500D02*
X130080000Y-58054500D01*
X130080000Y-58054500D02*
X132112000Y-58054500D01*
X135220000Y-70874500D02*
X135220000Y-68214500D01*
X133188000Y-70874500D02*
X135220000Y-70874500D01*
X133188000Y-68214500D02*
X135220000Y-68214500D01*
D12*
X132620000Y-71068500D02*
X132620000Y-70560500D01*
X132620000Y-68528500D02*
X132620000Y-68020500D01*
X132366000Y-70814500D02*
X132874000Y-70814500D01*
X132366000Y-68274500D02*
X132874000Y-68274500D01*
D11*
X130080000Y-70874500D02*
X132112000Y-70874500D01*
X130080000Y-70874500D02*
X130080000Y-68214500D01*
X130080000Y-68214500D02*
X132112000Y-68214500D01*
%TO.C,J9*%
X161255000Y-46744500D02*
X161255000Y-44084500D01*
X159223000Y-46744500D02*
X161255000Y-46744500D01*
X159223000Y-44084500D02*
X161255000Y-44084500D01*
D12*
X158401000Y-46684500D02*
X158909000Y-46684500D01*
X158401000Y-44144500D02*
X158909000Y-44144500D01*
D11*
X156115000Y-46744500D02*
X158147000Y-46744500D01*
X156115000Y-46744500D02*
X156115000Y-44084500D01*
X156115000Y-44084500D02*
X158147000Y-44084500D01*
%TO.C,J3*%
X174230000Y-34329500D02*
X174230000Y-34829500D01*
X174230000Y-31829500D02*
X174230000Y-32329500D01*
X174230000Y-29329500D02*
X174230000Y-29829500D01*
D12*
X174154000Y-36945500D02*
X172630000Y-36945500D01*
X174154000Y-27293500D02*
X172630000Y-27293500D01*
D11*
X173120000Y-35719500D02*
X172630000Y-35719500D01*
X173120000Y-28439500D02*
X172630000Y-28439500D01*
X172630000Y-35719500D02*
X172630000Y-36945500D01*
X172630000Y-28459500D02*
X172630000Y-27293500D01*
X171130000Y-29579500D02*
X170530000Y-29879500D01*
X170530000Y-29879500D02*
X170530000Y-29279500D01*
X170530000Y-29279500D02*
X171130000Y-29579500D01*
X148195000Y-34329500D02*
X148195000Y-34829500D01*
X148195000Y-31829500D02*
X148195000Y-32329500D01*
X148195000Y-29329500D02*
X148195000Y-29829500D01*
D12*
X148119000Y-36945500D02*
X146595000Y-36945500D01*
X148119000Y-27293500D02*
X146595000Y-27293500D01*
D11*
X147085000Y-35719500D02*
X146595000Y-35719500D01*
X147085000Y-28439500D02*
X146595000Y-28439500D01*
X146595000Y-35719500D02*
X146595000Y-36945500D01*
X146595000Y-28459500D02*
X146595000Y-27293500D01*
X145095000Y-29579500D02*
X144495000Y-29879500D01*
X144495000Y-29879500D02*
X144495000Y-29279500D01*
X144495000Y-29279500D02*
X145095000Y-29579500D01*
X174230000Y-74969500D02*
X174230000Y-75469500D01*
X174230000Y-72469500D02*
X174230000Y-72969500D01*
X174230000Y-69969500D02*
X174230000Y-70469500D01*
D12*
X174154000Y-77585500D02*
X172630000Y-77585500D01*
X174154000Y-67933500D02*
X172630000Y-67933500D01*
D11*
X173120000Y-76359500D02*
X172630000Y-76359500D01*
X173120000Y-69079500D02*
X172630000Y-69079500D01*
X172630000Y-76359500D02*
X172630000Y-77585500D01*
X172630000Y-69099500D02*
X172630000Y-67933500D01*
X171130000Y-70219500D02*
X170530000Y-70519500D01*
X170530000Y-70519500D02*
X170530000Y-69919500D01*
X170530000Y-69919500D02*
X171130000Y-70219500D01*
X174230000Y-64809500D02*
X174230000Y-65309500D01*
X174230000Y-62309500D02*
X174230000Y-62809500D01*
X174230000Y-59809500D02*
X174230000Y-60309500D01*
D12*
X174154000Y-67425500D02*
X172630000Y-67425500D01*
X174154000Y-57773500D02*
X172630000Y-57773500D01*
D11*
X173120000Y-66199500D02*
X172630000Y-66199500D01*
X173120000Y-58919500D02*
X172630000Y-58919500D01*
X172630000Y-66199500D02*
X172630000Y-67425500D01*
X172630000Y-58939500D02*
X172630000Y-57773500D01*
X171130000Y-60059500D02*
X170530000Y-60359500D01*
X170530000Y-60359500D02*
X170530000Y-59759500D01*
X170530000Y-59759500D02*
X171130000Y-60059500D01*
X148195000Y-54649500D02*
X148195000Y-55149500D01*
X148195000Y-52149500D02*
X148195000Y-52649500D01*
X148195000Y-49649500D02*
X148195000Y-50149500D01*
D12*
X148119000Y-57265500D02*
X146595000Y-57265500D01*
X148119000Y-47613500D02*
X146595000Y-47613500D01*
D11*
X147085000Y-56039500D02*
X146595000Y-56039500D01*
X147085000Y-48759500D02*
X146595000Y-48759500D01*
X146595000Y-56039500D02*
X146595000Y-57265500D01*
X146595000Y-48779500D02*
X146595000Y-47613500D01*
X145095000Y-49899500D02*
X144495000Y-50199500D01*
X144495000Y-50199500D02*
X144495000Y-49599500D01*
X144495000Y-49599500D02*
X145095000Y-49899500D01*
X174230000Y-44489500D02*
X174230000Y-44989500D01*
X174230000Y-41989500D02*
X174230000Y-42489500D01*
X174230000Y-39489500D02*
X174230000Y-39989500D01*
D12*
X174154000Y-47105500D02*
X172630000Y-47105500D01*
X174154000Y-37453500D02*
X172630000Y-37453500D01*
D11*
X173120000Y-45879500D02*
X172630000Y-45879500D01*
X173120000Y-38599500D02*
X172630000Y-38599500D01*
X172630000Y-45879500D02*
X172630000Y-47105500D01*
X172630000Y-38619500D02*
X172630000Y-37453500D01*
X171130000Y-39739500D02*
X170530000Y-40039500D01*
X170530000Y-40039500D02*
X170530000Y-39439500D01*
X170530000Y-39439500D02*
X171130000Y-39739500D01*
X174230000Y-54649500D02*
X174230000Y-55149500D01*
X174230000Y-52149500D02*
X174230000Y-52649500D01*
X174230000Y-49649500D02*
X174230000Y-50149500D01*
D12*
X174154000Y-57265500D02*
X172630000Y-57265500D01*
X174154000Y-47613500D02*
X172630000Y-47613500D01*
D11*
X173120000Y-56039500D02*
X172630000Y-56039500D01*
X173120000Y-48759500D02*
X172630000Y-48759500D01*
X172630000Y-56039500D02*
X172630000Y-57265500D01*
X172630000Y-48779500D02*
X172630000Y-47613500D01*
X171130000Y-49899500D02*
X170530000Y-50199500D01*
X170530000Y-50199500D02*
X170530000Y-49599500D01*
X170530000Y-49599500D02*
X171130000Y-49899500D01*
X148195000Y-74969500D02*
X148195000Y-75469500D01*
X148195000Y-72469500D02*
X148195000Y-72969500D01*
X148195000Y-69969500D02*
X148195000Y-70469500D01*
D12*
X148119000Y-77585500D02*
X146595000Y-77585500D01*
X148119000Y-67933500D02*
X146595000Y-67933500D01*
D11*
X147085000Y-76359500D02*
X146595000Y-76359500D01*
X147085000Y-69079500D02*
X146595000Y-69079500D01*
X146595000Y-76359500D02*
X146595000Y-77585500D01*
X146595000Y-69099500D02*
X146595000Y-67933500D01*
X145095000Y-70219500D02*
X144495000Y-70519500D01*
X144495000Y-70519500D02*
X144495000Y-69919500D01*
X144495000Y-69919500D02*
X145095000Y-70219500D01*
X148195000Y-64809500D02*
X148195000Y-65309500D01*
X148195000Y-62309500D02*
X148195000Y-62809500D01*
X148195000Y-59809500D02*
X148195000Y-60309500D01*
D12*
X148119000Y-67425500D02*
X146595000Y-67425500D01*
X148119000Y-57773500D02*
X146595000Y-57773500D01*
D11*
X147085000Y-66199500D02*
X146595000Y-66199500D01*
X147085000Y-58919500D02*
X146595000Y-58919500D01*
X146595000Y-66199500D02*
X146595000Y-67425500D01*
X146595000Y-58939500D02*
X146595000Y-57773500D01*
X145095000Y-60059500D02*
X144495000Y-60359500D01*
X144495000Y-60359500D02*
X144495000Y-59759500D01*
X144495000Y-59759500D02*
X145095000Y-60059500D01*
X148195000Y-44489500D02*
X148195000Y-44989500D01*
X148195000Y-41989500D02*
X148195000Y-42489500D01*
X148195000Y-39489500D02*
X148195000Y-39989500D01*
D12*
X148119000Y-47105500D02*
X146595000Y-47105500D01*
X148119000Y-37453500D02*
X146595000Y-37453500D01*
D11*
X147085000Y-45879500D02*
X146595000Y-45879500D01*
X147085000Y-38599500D02*
X146595000Y-38599500D01*
X146595000Y-45879500D02*
X146595000Y-47105500D01*
X146595000Y-38619500D02*
X146595000Y-37453500D01*
X145095000Y-39739500D02*
X144495000Y-40039500D01*
X144495000Y-40039500D02*
X144495000Y-39439500D01*
X144495000Y-39439500D02*
X145095000Y-39739500D01*
%TD*%
%LPC*%
D13*
%TO.C,J8*%
X159925000Y-49224500D03*
X157385000Y-49224500D03*
%TD*%
D14*
%TO.C,H1*%
X152310000Y-42239500D03*
%TD*%
%TO.C,H1*%
X126275000Y-52399500D03*
%TD*%
%TO.C,H1*%
X152310000Y-32079500D03*
%TD*%
%TO.C,H1*%
X152310000Y-52399500D03*
%TD*%
D15*
%TO.C,J9*%
X133890000Y-65734500D03*
X131350000Y-65734500D03*
%TD*%
D13*
%TO.C,J8*%
X159925000Y-69544500D03*
X157385000Y-69544500D03*
%TD*%
D15*
%TO.C,J9*%
X133890000Y-55574500D03*
X131350000Y-55574500D03*
%TD*%
D16*
%TO.C,KiKit_TO_3*%
X124965000Y-82299500D03*
%TD*%
D14*
%TO.C,H1*%
X152310000Y-72719500D03*
%TD*%
D13*
%TO.C,J8*%
X159925000Y-59384500D03*
X157385000Y-59384500D03*
%TD*%
D16*
%TO.C,KiKit_TO_2*%
X172035000Y-22500000D03*
%TD*%
D15*
%TO.C,J9*%
X159925000Y-55574500D03*
X157385000Y-55574500D03*
%TD*%
D14*
%TO.C,H1*%
X126275000Y-72719500D03*
%TD*%
D15*
%TO.C,J9*%
X133890000Y-35254500D03*
X131350000Y-35254500D03*
%TD*%
D14*
%TO.C,H1*%
X126275000Y-62559500D03*
%TD*%
D13*
%TO.C,J8*%
X133890000Y-28904500D03*
X131350000Y-28904500D03*
%TD*%
D15*
%TO.C,J9*%
X159925000Y-65734500D03*
X157385000Y-65734500D03*
%TD*%
D13*
%TO.C,J8*%
X133890000Y-39064500D03*
X131350000Y-39064500D03*
%TD*%
D16*
%TO.C,KiKit_TO_4*%
X172035000Y-82299500D03*
%TD*%
D14*
%TO.C,H1*%
X126275000Y-32079500D03*
%TD*%
D15*
%TO.C,J9*%
X133890000Y-75894500D03*
X131350000Y-75894500D03*
%TD*%
D14*
%TO.C,H1*%
X152310000Y-62559500D03*
%TD*%
%TO.C,H1*%
X126275000Y-42239500D03*
%TD*%
D13*
%TO.C,J8*%
X133890000Y-49224500D03*
X131350000Y-49224500D03*
%TD*%
D15*
%TO.C,J9*%
X159925000Y-35254500D03*
X157385000Y-35254500D03*
%TD*%
D13*
%TO.C,J8*%
X159925000Y-28904500D03*
X157385000Y-28904500D03*
%TD*%
%TO.C,J8*%
X159925000Y-39064500D03*
X157385000Y-39064500D03*
%TD*%
D15*
%TO.C,J9*%
X133890000Y-45414500D03*
X131350000Y-45414500D03*
%TD*%
%TO.C,J9*%
X159925000Y-75894500D03*
X157385000Y-75894500D03*
%TD*%
D13*
%TO.C,J8*%
X133890000Y-59384500D03*
X131350000Y-59384500D03*
%TD*%
%TO.C,J8*%
X133890000Y-69544500D03*
X131350000Y-69544500D03*
%TD*%
D16*
%TO.C,KiKit_TO_1*%
X124965000Y-22500000D03*
%TD*%
D15*
%TO.C,J9*%
X159925000Y-45414500D03*
X157385000Y-45414500D03*
%TD*%
D17*
%TO.C,H4*%
X136815000Y-62559500D03*
D18*
X138340000Y-62559500D03*
%TD*%
D19*
%TO.C,J3*%
X172630000Y-34579500D03*
X172630000Y-32079500D03*
D20*
X172630000Y-29579500D03*
%TD*%
D19*
%TO.C,J3*%
X146595000Y-34579500D03*
X146595000Y-32079500D03*
D20*
X146595000Y-29579500D03*
%TD*%
D19*
%TO.C,J3*%
X172630000Y-75219500D03*
X172630000Y-72719500D03*
D20*
X172630000Y-70219500D03*
%TD*%
D17*
%TO.C,H4*%
X162850000Y-32079500D03*
D18*
X164375000Y-32079500D03*
%TD*%
D17*
%TO.C,H4*%
X136815000Y-42239500D03*
D18*
X138340000Y-42239500D03*
%TD*%
D17*
%TO.C,H4*%
X162850000Y-42239500D03*
D18*
X164375000Y-42239500D03*
%TD*%
D17*
%TO.C,H4*%
X136815000Y-72719500D03*
D18*
X138340000Y-72719500D03*
%TD*%
D19*
%TO.C,J3*%
X172630000Y-65059500D03*
X172630000Y-62559500D03*
D20*
X172630000Y-60059500D03*
%TD*%
D17*
%TO.C,H4*%
X162850000Y-72719500D03*
D18*
X164375000Y-72719500D03*
%TD*%
D19*
%TO.C,J3*%
X146595000Y-54899500D03*
X146595000Y-52399500D03*
D20*
X146595000Y-49899500D03*
%TD*%
D19*
%TO.C,J3*%
X172630000Y-44739500D03*
X172630000Y-42239500D03*
D20*
X172630000Y-39739500D03*
%TD*%
D17*
%TO.C,H4*%
X162850000Y-52399500D03*
D18*
X164375000Y-52399500D03*
%TD*%
D17*
%TO.C,H4*%
X136815000Y-52399500D03*
D18*
X138340000Y-52399500D03*
%TD*%
D19*
%TO.C,J3*%
X172630000Y-54899500D03*
X172630000Y-52399500D03*
D20*
X172630000Y-49899500D03*
%TD*%
D19*
%TO.C,J3*%
X146595000Y-75219500D03*
X146595000Y-72719500D03*
D20*
X146595000Y-70219500D03*
%TD*%
D21*
%TO.C,KiKit_FID_B_1*%
X127465000Y-22500000D03*
%TD*%
%TO.C,KiKit_FID_B_3*%
X127465000Y-82299500D03*
%TD*%
%TO.C,KiKit_FID_B_2*%
X169535000Y-22500000D03*
%TD*%
D19*
%TO.C,J3*%
X146595000Y-65059500D03*
X146595000Y-62559500D03*
D20*
X146595000Y-60059500D03*
%TD*%
D17*
%TO.C,H4*%
X136815000Y-32079500D03*
D18*
X138340000Y-32079500D03*
%TD*%
D17*
%TO.C,H4*%
X162850000Y-62559500D03*
D18*
X164375000Y-62559500D03*
%TD*%
D21*
%TO.C,KiKit_FID_B_4*%
X169535000Y-82299500D03*
%TD*%
D19*
%TO.C,J3*%
X146595000Y-44739500D03*
X146595000Y-42239500D03*
D20*
X146595000Y-39739500D03*
%TD*%
D22*
X141515000Y-30199500D03*
X167550000Y-30199500D03*
X141515000Y-40359500D03*
X167550000Y-40359500D03*
X141515000Y-50519500D03*
X167550000Y-50519500D03*
X141515000Y-60679500D03*
X167550000Y-60679500D03*
X141515000Y-70839500D03*
X167550000Y-70839500D03*
%LPD*%
M02*
