%TF.GenerationSoftware,KiCad,Pcbnew,8.0.8*%
%TF.CreationDate,2025-02-20T22:09:20+11:00*%
%TF.ProjectId,panel,70616e65-6c2e-46b6-9963-61645f706362,rev?*%
%TF.SameCoordinates,Original*%
%TF.FileFunction,Profile,NP*%
%FSLAX46Y46*%
G04 Gerber Fmt 4.6, Leading zero omitted, Abs format (unit mm)*
G04 Created by KiCad (PCBNEW 8.0.8) date 2025-02-20 22:09:20*
%MOMM*%
%LPD*%
G01*
G04 APERTURE LIST*
%TA.AperFunction,Profile*%
%ADD10C,0.100000*%
%TD*%
G04 APERTURE END LIST*
D10*
X174535000Y-84799500D02*
X174535000Y-79799500D01*
X122465000Y-25000000D02*
X122465000Y-25999500D01*
X122465000Y-67639500D02*
X122465000Y-77799500D01*
X122465000Y-26999500D02*
X122465000Y-37159500D01*
X174535000Y-78799500D02*
X174535000Y-77799500D01*
X174535000Y-26999500D02*
X174535000Y-25999500D01*
X174535000Y-79799500D02*
X174535000Y-78799500D01*
X122465000Y-37159500D02*
X122465000Y-47319500D01*
X174535000Y-77799500D02*
X174535000Y-67639500D01*
X122465000Y-20000000D02*
X122465000Y-25000000D01*
X122465000Y-78799500D02*
X122465000Y-79799500D01*
X174535000Y-47319500D02*
X174535000Y-37159500D01*
X174535000Y-57479500D02*
X174535000Y-47319500D01*
X122465000Y-25999500D02*
X122465000Y-26999500D01*
X122465000Y-84799500D02*
X174535000Y-84799500D01*
X174535000Y-20000000D02*
X122465000Y-20000000D01*
X122465000Y-79799500D02*
X122465000Y-84799500D01*
X174535000Y-37159500D02*
X174535000Y-26999500D01*
X122465000Y-47319500D02*
X122465000Y-57479500D01*
X122465000Y-77799500D02*
X122465000Y-78799500D01*
X122465000Y-57479500D02*
X122465000Y-67639500D01*
X174535000Y-25999500D02*
X174535000Y-25000000D01*
X174535000Y-67639500D02*
X174535000Y-57479500D01*
X174535000Y-25000000D02*
X174535000Y-20000000D01*
M02*
