%TF.GenerationSoftware,KiCad,Pcbnew,8.0.8*%
%TF.CreationDate,2025-02-20T21:47:34+11:00*%
%TF.ProjectId,Hotglue Switch,486f7467-6c75-4652-9053-77697463682e,rev?*%
%TF.SameCoordinates,Original*%
%TF.FileFunction,Copper,L1,Top*%
%TF.FilePolarity,Positive*%
%FSLAX46Y46*%
G04 Gerber Fmt 4.6, Leading zero omitted, Abs format (unit mm)*
G04 Created by KiCad (PCBNEW 8.0.8) date 2025-02-20 21:47:34*
%MOMM*%
%LPD*%
G01*
G04 APERTURE LIST*
G04 Aperture macros list*
%AMRoundRect*
0 Rectangle with rounded corners*
0 $1 Rounding radius*
0 $2 $3 $4 $5 $6 $7 $8 $9 X,Y pos of 4 corners*
0 Add a 4 corners polygon primitive as box body*
4,1,4,$2,$3,$4,$5,$6,$7,$8,$9,$2,$3,0*
0 Add four circle primitives for the rounded corners*
1,1,$1+$1,$2,$3*
1,1,$1+$1,$4,$5*
1,1,$1+$1,$6,$7*
1,1,$1+$1,$8,$9*
0 Add four rect primitives between the rounded corners*
20,1,$1+$1,$2,$3,$4,$5,0*
20,1,$1+$1,$4,$5,$6,$7,0*
20,1,$1+$1,$6,$7,$8,$9,0*
20,1,$1+$1,$8,$9,$2,$3,0*%
%AMFreePoly0*
4,1,87,-1.493263,2.329895,-1.191775,2.269926,-0.900694,2.171117,-0.625000,2.035160,-0.369411,1.864380,-0.138299,1.661701,0.064380,1.430589,0.235160,1.175000,0.371117,0.899306,0.469926,0.608225,0.529895,0.306737,0.550000,0.000000,0.529895,-0.306737,0.469926,-0.608225,0.371117,-0.899306,0.235160,-1.175000,0.064380,-1.430589,-0.138299,-1.661701,-0.369411,-1.864380,-0.625000,-2.035160,
-0.900694,-2.171117,-1.191775,-2.269926,-1.493263,-2.329895,-1.800000,-2.350000,-2.106737,-2.329895,-2.408225,-2.269926,-2.699306,-2.171117,-2.975000,-2.035160,-3.230589,-1.864380,-3.461701,-1.661701,-3.664380,-1.430589,-3.835160,-1.175000,-3.971117,-0.899306,-4.069926,-0.608225,-4.129895,-0.306737,-4.150000,0.000000,-3.054775,0.000000,-3.035712,-0.217889,-2.979103,-0.429158,-2.886667,-0.627388,
-2.761213,-0.806554,-2.606554,-0.961213,-2.427388,-1.086667,-2.229158,-1.179103,-2.017889,-1.235712,-1.800000,-1.254775,-1.582111,-1.235712,-1.370842,-1.179103,-1.172612,-1.086667,-0.993446,-0.961213,-0.838787,-0.806554,-0.713333,-0.627388,-0.620897,-0.429158,-0.564288,-0.217889,-0.545225,0.000000,-0.564288,0.217889,-0.620897,0.429158,-0.713333,0.627387,-0.838787,0.806554,-0.993446,0.961213,
-1.172612,1.086667,-1.370842,1.179103,-1.582111,1.235712,-1.800000,1.254775,-2.017889,1.235712,-2.229158,1.179103,-2.427387,1.086667,-2.606554,0.961213,-2.761213,0.806554,-2.886667,0.627387,-2.979103,0.429158,-3.035712,0.217889,-3.054775,0.000000,-4.150000,0.000000,-4.129895,0.306737,-4.069926,0.608225,-3.971117,0.899306,-3.835160,1.175000,-3.664380,1.430589,-3.461701,1.661701,
-3.230589,1.864380,-2.975000,2.035160,-2.699306,2.171117,-2.408225,2.269926,-2.106737,2.329895,-1.800000,2.350000,-1.493263,2.329895,-1.493263,2.329895,$1*%
G04 Aperture macros list end*
%TA.AperFunction,SMDPad,CuDef*%
%ADD10RoundRect,0.237500X0.287500X0.237500X-0.287500X0.237500X-0.287500X-0.237500X0.287500X-0.237500X0*%
%TD*%
%TA.AperFunction,ComponentPad*%
%ADD11R,1.700000X1.700000*%
%TD*%
%TA.AperFunction,SMDPad,CuDef*%
%ADD12O,1.100000X1.100000*%
%TD*%
%TA.AperFunction,SMDPad,CuDef*%
%ADD13FreePoly0,0.000000*%
%TD*%
%TA.AperFunction,ComponentPad*%
%ADD14O,1.700000X1.700000*%
%TD*%
%TA.AperFunction,SMDPad,CuDef*%
%ADD15RoundRect,0.250000X-1.075000X0.400000X-1.075000X-0.400000X1.075000X-0.400000X1.075000X0.400000X0*%
%TD*%
%TA.AperFunction,ComponentPad*%
%ADD16RoundRect,0.250000X-0.725000X0.600000X-0.725000X-0.600000X0.725000X-0.600000X0.725000X0.600000X0*%
%TD*%
%TA.AperFunction,ComponentPad*%
%ADD17O,1.950000X1.700000*%
%TD*%
%TA.AperFunction,ViaPad*%
%ADD18C,0.800000*%
%TD*%
%TA.AperFunction,Conductor*%
%ADD19C,1.000000*%
%TD*%
G04 APERTURE END LIST*
D10*
%TO.P,D1,1,K*%
%TO.N,-BATT*%
X86600000Y-54610000D03*
%TO.P,D1,2,A*%
%TO.N,Net-(D1-A)*%
X84850000Y-54610000D03*
%TD*%
D11*
%TO.P,J8,1,Pin_1*%
%TO.N,/BATT SWITCH*%
X73655000Y-47625000D03*
%TO.P,J8,2,Pin_2*%
X76195000Y-47625000D03*
%TD*%
D12*
%TO.P,H2,1,1*%
%TO.N,+BATT*%
X79086155Y-49900000D03*
X79086155Y-51700000D03*
X80645000Y-49000000D03*
X80645000Y-52600000D03*
X82203845Y-49900000D03*
X82203845Y-51699999D03*
D13*
X82445000Y-50800000D03*
%TD*%
D14*
%TO.P,J9,1,Pin_1*%
%TO.N,-BATT*%
X73655000Y-53975000D03*
%TO.P,J9,2,Pin_2*%
X76195000Y-53975000D03*
%TD*%
D15*
%TO.P,R1,1*%
%TO.N,/BATT SWITCH*%
X85725000Y-49250000D03*
%TO.P,R1,2*%
%TO.N,Net-(D1-A)*%
X85725000Y-52350000D03*
%TD*%
D16*
%TO.P,J3,1,Pin_1*%
%TO.N,+BATT*%
X88900000Y-48300000D03*
D17*
%TO.P,J3,2,Pin_2*%
%TO.N,/3.7V*%
X88900000Y-50800000D03*
%TO.P,J3,3,Pin_3*%
%TO.N,-BATT*%
X88900000Y-53300000D03*
%TD*%
D18*
%TO.N,/BATT SWITCH*%
X83820000Y-48920000D03*
%TD*%
D19*
%TO.N,/BATT SWITCH*%
X84150000Y-49250000D02*
X83820000Y-48920000D01*
X85725000Y-49250000D02*
X84150000Y-49250000D01*
%TO.N,Net-(D1-A)*%
X84850000Y-53225000D02*
X85725000Y-52350000D01*
X84850000Y-54610000D02*
X84850000Y-53225000D01*
%TO.N,-BATT*%
X88900000Y-53300000D02*
X88900000Y-53340000D01*
X87630000Y-54610000D02*
X86600000Y-54610000D01*
X88900000Y-53340000D02*
X87630000Y-54610000D01*
%TD*%
%TA.AperFunction,Conductor*%
%TO.N,+BATT*%
G36*
X80970449Y-48119686D02*
G01*
X81291152Y-48178457D01*
X81602433Y-48275456D01*
X81899753Y-48409269D01*
X82178775Y-48577944D01*
X82435431Y-48779021D01*
X82665979Y-49009569D01*
X82867056Y-49266225D01*
X82909690Y-49336751D01*
X82933367Y-49393910D01*
X82933369Y-49393914D01*
X82976717Y-49458790D01*
X83017910Y-49520440D01*
X83019847Y-49523590D01*
X83032180Y-49545457D01*
X83033549Y-49548066D01*
X83078831Y-49641068D01*
X83079459Y-49642408D01*
X83119585Y-49731563D01*
X83120172Y-49732922D01*
X83165557Y-49842492D01*
X83166607Y-49845259D01*
X83205299Y-49957384D01*
X83205760Y-49958790D01*
X83230332Y-50037643D01*
X83230751Y-50039063D01*
X83262593Y-50153286D01*
X83263302Y-50156160D01*
X83288200Y-50272146D01*
X83288488Y-50273598D01*
X83303371Y-50354816D01*
X83303616Y-50356275D01*
X83321461Y-50473525D01*
X83321818Y-50476464D01*
X83332549Y-50594558D01*
X83332661Y-50596033D01*
X83337651Y-50678506D01*
X83337718Y-50679985D01*
X83341299Y-50798520D01*
X83341299Y-50801480D01*
X83337718Y-50920014D01*
X83337651Y-50921493D01*
X83332661Y-51003966D01*
X83332549Y-51005441D01*
X83321818Y-51123535D01*
X83321461Y-51126474D01*
X83303616Y-51243724D01*
X83303371Y-51245183D01*
X83288488Y-51326401D01*
X83288200Y-51327853D01*
X83263302Y-51443839D01*
X83262593Y-51446713D01*
X83230751Y-51560936D01*
X83230332Y-51562356D01*
X83205760Y-51641209D01*
X83205299Y-51642615D01*
X83166607Y-51754740D01*
X83165557Y-51757507D01*
X83120172Y-51867077D01*
X83119585Y-51868436D01*
X83085686Y-51943756D01*
X83085058Y-51945097D01*
X83033146Y-52051714D01*
X83031771Y-52054335D01*
X82973491Y-52157667D01*
X82972745Y-52158944D01*
X82930011Y-52229634D01*
X82929246Y-52230858D01*
X82864849Y-52330457D01*
X82863168Y-52332892D01*
X82812791Y-52401357D01*
X82792884Y-52428411D01*
X82792046Y-52429516D01*
X82761553Y-52468438D01*
X82751866Y-52480802D01*
X82741033Y-52494630D01*
X82740103Y-52495780D01*
X82664192Y-52586867D01*
X82662229Y-52589083D01*
X82580932Y-52675446D01*
X82579901Y-52676508D01*
X82521508Y-52734901D01*
X82520446Y-52735932D01*
X82434083Y-52817229D01*
X82431867Y-52819192D01*
X82340780Y-52895103D01*
X82339630Y-52896033D01*
X82325802Y-52906866D01*
X82313438Y-52916553D01*
X82274516Y-52947046D01*
X82273411Y-52947884D01*
X82246357Y-52967791D01*
X82177892Y-53018168D01*
X82175457Y-53019849D01*
X82114605Y-53059193D01*
X82075816Y-53084272D01*
X82074707Y-53084966D01*
X82027293Y-53113630D01*
X82004677Y-53127301D01*
X82003944Y-53127745D01*
X82002667Y-53128491D01*
X81899335Y-53186771D01*
X81896714Y-53188146D01*
X81790097Y-53240058D01*
X81788756Y-53240686D01*
X81713436Y-53274585D01*
X81712077Y-53275172D01*
X81602507Y-53320557D01*
X81599740Y-53321607D01*
X81487615Y-53360299D01*
X81486209Y-53360760D01*
X81461325Y-53368514D01*
X81430367Y-53378161D01*
X81407322Y-53385341D01*
X81405957Y-53385744D01*
X81367187Y-53396552D01*
X81291713Y-53417593D01*
X81288839Y-53418302D01*
X81224555Y-53432101D01*
X81172819Y-53443206D01*
X81171448Y-53443478D01*
X81130800Y-53450928D01*
X81090183Y-53458371D01*
X81088724Y-53458616D01*
X80971474Y-53476461D01*
X80968535Y-53476818D01*
X80850441Y-53487549D01*
X80848966Y-53487661D01*
X80782402Y-53491688D01*
X80766465Y-53492652D01*
X80765014Y-53492718D01*
X80646480Y-53496299D01*
X80643520Y-53496299D01*
X80524985Y-53492718D01*
X80523533Y-53492652D01*
X80507596Y-53491688D01*
X80441033Y-53487661D01*
X80439558Y-53487549D01*
X80321464Y-53476818D01*
X80318525Y-53476461D01*
X80201275Y-53458616D01*
X80199816Y-53458371D01*
X80159199Y-53450928D01*
X80118550Y-53443478D01*
X80117179Y-53443206D01*
X80054409Y-53429732D01*
X80001160Y-53418302D01*
X79998286Y-53417593D01*
X79937312Y-53400595D01*
X79884041Y-53385744D01*
X79882676Y-53385341D01*
X79859632Y-53378161D01*
X79803788Y-53360759D01*
X79802384Y-53360299D01*
X79690259Y-53321607D01*
X79687492Y-53320557D01*
X79577922Y-53275172D01*
X79576563Y-53274585D01*
X79501243Y-53240686D01*
X79499902Y-53240058D01*
X79393285Y-53188146D01*
X79390664Y-53186771D01*
X79287332Y-53128491D01*
X79286083Y-53127761D01*
X79262706Y-53113630D01*
X79215291Y-53084966D01*
X79214182Y-53084272D01*
X79159640Y-53049008D01*
X79114542Y-53019849D01*
X79112107Y-53018168D01*
X79059282Y-52979299D01*
X79016586Y-52947883D01*
X79015482Y-52947046D01*
X78976561Y-52916553D01*
X78950368Y-52896032D01*
X78949219Y-52895103D01*
X78858132Y-52819192D01*
X78855916Y-52817229D01*
X78769553Y-52735932D01*
X78768491Y-52734901D01*
X78710098Y-52676508D01*
X78709067Y-52675446D01*
X78627770Y-52589083D01*
X78625807Y-52586867D01*
X78549896Y-52495780D01*
X78548966Y-52494630D01*
X78528446Y-52468438D01*
X78497952Y-52429516D01*
X78497115Y-52428412D01*
X78426831Y-52332892D01*
X78425150Y-52330457D01*
X78402624Y-52295618D01*
X78360732Y-52230824D01*
X78360016Y-52229681D01*
X78317225Y-52158895D01*
X78316508Y-52157667D01*
X78258228Y-52054335D01*
X78256860Y-52051728D01*
X78204933Y-51945080D01*
X78204313Y-51943756D01*
X78170414Y-51868436D01*
X78169827Y-51867077D01*
X78124442Y-51757507D01*
X78123392Y-51754740D01*
X78119978Y-51744849D01*
X78084686Y-51642575D01*
X78084253Y-51641251D01*
X78059660Y-51562332D01*
X78059248Y-51560936D01*
X78029827Y-51455399D01*
X78027403Y-51446703D01*
X78026697Y-51443839D01*
X78001791Y-51327815D01*
X78001519Y-51326443D01*
X77986625Y-51245167D01*
X77986383Y-51243724D01*
X77968538Y-51126474D01*
X77968181Y-51123535D01*
X77957450Y-51005441D01*
X77957338Y-51003966D01*
X77952346Y-50921458D01*
X77952282Y-50920050D01*
X77948700Y-50801456D01*
X77948700Y-50798543D01*
X77951628Y-50701583D01*
X79394500Y-50701583D01*
X79394500Y-50898416D01*
X79425290Y-51092823D01*
X79425291Y-51092826D01*
X79486116Y-51280026D01*
X79575472Y-51455399D01*
X79575475Y-51455403D01*
X79575476Y-51455405D01*
X79691172Y-51614646D01*
X79691174Y-51614648D01*
X79691177Y-51614652D01*
X79830347Y-51753822D01*
X79830350Y-51753824D01*
X79830354Y-51753828D01*
X79989595Y-51869524D01*
X79989597Y-51869525D01*
X79989600Y-51869527D01*
X80135284Y-51943756D01*
X80164975Y-51958884D01*
X80352174Y-52019709D01*
X80546583Y-52050500D01*
X80546584Y-52050500D01*
X80743416Y-52050500D01*
X80743417Y-52050500D01*
X80937826Y-52019709D01*
X81125025Y-51958884D01*
X81300405Y-51869524D01*
X81459646Y-51753828D01*
X81598828Y-51614646D01*
X81714524Y-51455405D01*
X81803884Y-51280025D01*
X81864709Y-51092826D01*
X81895500Y-50898417D01*
X81895500Y-50701583D01*
X81864709Y-50507174D01*
X81803884Y-50319975D01*
X81768485Y-50250500D01*
X81714527Y-50144600D01*
X81714525Y-50144597D01*
X81714524Y-50144595D01*
X81598828Y-49985354D01*
X81598824Y-49985350D01*
X81598822Y-49985347D01*
X81459652Y-49846177D01*
X81459653Y-49846177D01*
X81428945Y-49823866D01*
X81300405Y-49730476D01*
X81300403Y-49730475D01*
X81300399Y-49730472D01*
X81125026Y-49641116D01*
X80937826Y-49580291D01*
X80937823Y-49580290D01*
X80788482Y-49556637D01*
X80743417Y-49549500D01*
X80546583Y-49549500D01*
X80509998Y-49555294D01*
X80352176Y-49580290D01*
X80352173Y-49580291D01*
X80164973Y-49641116D01*
X79989600Y-49730472D01*
X79830347Y-49846177D01*
X79691177Y-49985347D01*
X79575472Y-50144600D01*
X79486116Y-50319973D01*
X79425291Y-50507173D01*
X79425290Y-50507176D01*
X79394500Y-50701583D01*
X77951628Y-50701583D01*
X77952282Y-50679946D01*
X77952346Y-50678544D01*
X77957338Y-50596024D01*
X77957450Y-50594558D01*
X77968181Y-50476464D01*
X77968538Y-50473525D01*
X77986383Y-50356275D01*
X77986628Y-50354816D01*
X77993013Y-50319973D01*
X78001521Y-50273543D01*
X78001788Y-50272197D01*
X78026701Y-50156143D01*
X78027401Y-50153304D01*
X78059260Y-50039021D01*
X78059654Y-50037684D01*
X78084259Y-49958727D01*
X78084680Y-49957443D01*
X78123395Y-49845250D01*
X78124442Y-49842492D01*
X78169827Y-49732922D01*
X78170393Y-49731609D01*
X78204332Y-49656201D01*
X78204921Y-49654944D01*
X78256867Y-49548257D01*
X78258213Y-49545690D01*
X78316524Y-49442303D01*
X78317208Y-49441132D01*
X78360034Y-49370289D01*
X78360712Y-49369205D01*
X78425154Y-49269535D01*
X78426831Y-49267107D01*
X78427480Y-49266225D01*
X78497115Y-49171586D01*
X78497952Y-49170483D01*
X78548997Y-49105329D01*
X78549862Y-49104260D01*
X78625820Y-49013117D01*
X78627756Y-49010930D01*
X78709098Y-48924520D01*
X78710064Y-48923525D01*
X78819591Y-48813998D01*
X78820553Y-48813064D01*
X78854499Y-48781108D01*
X78856652Y-48779201D01*
X78869905Y-48768156D01*
X78874207Y-48766815D01*
X78892967Y-48748936D01*
X79111225Y-48577944D01*
X79390247Y-48409269D01*
X79687567Y-48275456D01*
X79998848Y-48178457D01*
X80319551Y-48119686D01*
X80645000Y-48100000D01*
X80970449Y-48119686D01*
G37*
%TD.AperFunction*%
%TD*%
%TA.AperFunction,Conductor*%
%TO.N,+BATT*%
G36*
X90290148Y-46234852D02*
G01*
X90304500Y-46269500D01*
X90304500Y-48437789D01*
X90290148Y-48472437D01*
X90287323Y-48475049D01*
X90180000Y-48566710D01*
X90180000Y-48566711D01*
X90150609Y-48591814D01*
X89938210Y-48721973D01*
X89749835Y-48800000D01*
X87675000Y-48800000D01*
X87675000Y-48846000D01*
X87660648Y-48880648D01*
X87626000Y-48895000D01*
X87599499Y-48895000D01*
X87564851Y-48880648D01*
X87550499Y-48846000D01*
X87550499Y-48799989D01*
X87539999Y-48697205D01*
X87539999Y-48697203D01*
X87484814Y-48530666D01*
X87392712Y-48381344D01*
X87268656Y-48257288D01*
X87268655Y-48257287D01*
X87236518Y-48237465D01*
X88425000Y-48237465D01*
X88425000Y-48362535D01*
X88457370Y-48483343D01*
X88519905Y-48591657D01*
X88608343Y-48680095D01*
X88716657Y-48742630D01*
X88837465Y-48775000D01*
X88962535Y-48775000D01*
X89083343Y-48742630D01*
X89191657Y-48680095D01*
X89280095Y-48591657D01*
X89342630Y-48483343D01*
X89375000Y-48362535D01*
X89375000Y-48237465D01*
X89342630Y-48116657D01*
X89280095Y-48008343D01*
X89191657Y-47919905D01*
X89083343Y-47857370D01*
X88962535Y-47825000D01*
X88837465Y-47825000D01*
X88716657Y-47857370D01*
X88608343Y-47919905D01*
X88519905Y-48008343D01*
X88457370Y-48116657D01*
X88425000Y-48237465D01*
X87236518Y-48237465D01*
X87119334Y-48165186D01*
X86952794Y-48110000D01*
X86850011Y-48099500D01*
X84599989Y-48099500D01*
X84497203Y-48110001D01*
X84460701Y-48122096D01*
X84423297Y-48119371D01*
X84418074Y-48116329D01*
X84293914Y-48033369D01*
X84293911Y-48033367D01*
X84293910Y-48033367D01*
X84111839Y-47957950D01*
X84111837Y-47957949D01*
X84111836Y-47957949D01*
X84111833Y-47957948D01*
X84111824Y-47957946D01*
X83918545Y-47919500D01*
X83918540Y-47919500D01*
X83721460Y-47919500D01*
X83721454Y-47919500D01*
X83528175Y-47957946D01*
X83528160Y-47957950D01*
X83346089Y-48033367D01*
X83182219Y-48142860D01*
X83042860Y-48282219D01*
X82933367Y-48446089D01*
X82857950Y-48628160D01*
X82857946Y-48628175D01*
X82819500Y-48821454D01*
X82819500Y-49018545D01*
X82857946Y-49211824D01*
X82857950Y-49211839D01*
X82909692Y-49336753D01*
X82867056Y-49266225D01*
X82665979Y-49009569D01*
X82435431Y-48779021D01*
X82178775Y-48577944D01*
X81899753Y-48409269D01*
X81602433Y-48275456D01*
X81291152Y-48178457D01*
X80970449Y-48119686D01*
X80645000Y-48100000D01*
X80319551Y-48119686D01*
X79998848Y-48178457D01*
X79687567Y-48275456D01*
X79390247Y-48409269D01*
X79111225Y-48577944D01*
X78931371Y-48718850D01*
X79540906Y-47652165D01*
X87675000Y-47652165D01*
X87675000Y-47800000D01*
X88400000Y-47800000D01*
X89400000Y-47800000D01*
X90125000Y-47800000D01*
X90125000Y-47652165D01*
X90118598Y-47592627D01*
X90118598Y-47592626D01*
X90068351Y-47457908D01*
X89982188Y-47342811D01*
X89867091Y-47256648D01*
X89732373Y-47206401D01*
X89672834Y-47200000D01*
X89400000Y-47200000D01*
X89400000Y-47800000D01*
X88400000Y-47800000D01*
X88400000Y-47200000D01*
X88127166Y-47200000D01*
X88067627Y-47206401D01*
X88067626Y-47206401D01*
X87932908Y-47256648D01*
X87817811Y-47342811D01*
X87731648Y-47457908D01*
X87681401Y-47592626D01*
X87681401Y-47592627D01*
X87675000Y-47652165D01*
X79540906Y-47652165D01*
X79879766Y-47059160D01*
X80068245Y-46729320D01*
X80070188Y-46726199D01*
X80164393Y-46586790D01*
X80235173Y-46482046D01*
X80239728Y-46476289D01*
X80438153Y-46260933D01*
X80443512Y-46255929D01*
X80474244Y-46231276D01*
X80504904Y-46220500D01*
X90255500Y-46220500D01*
X90290148Y-46234852D01*
G37*
%TD.AperFunction*%
%TD*%
M02*
