%TF.GenerationSoftware,KiCad,Pcbnew,9.0.6*%
%TF.CreationDate,2025-11-15T16:18:24+11:00*%
%TF.ProjectId,Hotglue Switch,486f7467-6c75-4652-9053-77697463682e,rev?*%
%TF.SameCoordinates,Original*%
%TF.FileFunction,Legend,Top*%
%TF.FilePolarity,Positive*%
%FSLAX46Y46*%
G04 Gerber Fmt 4.6, Leading zero omitted, Abs format (unit mm)*
G04 Created by KiCad (PCBNEW 9.0.6) date 2025-11-15 16:18:24*
%MOMM*%
%LPD*%
G01*
G04 APERTURE LIST*
G04 Aperture macros list*
%AMRoundRect*
0 Rectangle with rounded corners*
0 $1 Rounding radius*
0 $2 $3 $4 $5 $6 $7 $8 $9 X,Y pos of 4 corners*
0 Add a 4 corners polygon primitive as box body*
4,1,4,$2,$3,$4,$5,$6,$7,$8,$9,$2,$3,0*
0 Add four circle primitives for the rounded corners*
1,1,$1+$1,$2,$3*
1,1,$1+$1,$4,$5*
1,1,$1+$1,$6,$7*
1,1,$1+$1,$8,$9*
0 Add four rect primitives between the rounded corners*
20,1,$1+$1,$2,$3,$4,$5,0*
20,1,$1+$1,$4,$5,$6,$7,0*
20,1,$1+$1,$6,$7,$8,$9,0*
20,1,$1+$1,$8,$9,$2,$3,0*%
G04 Aperture macros list end*
%ADD10C,0.160000*%
%ADD11C,0.120000*%
%ADD12C,0.150000*%
%ADD13RoundRect,0.237500X0.237500X-0.287500X0.237500X0.287500X-0.237500X0.287500X-0.237500X-0.287500X0*%
%ADD14R,1.700000X1.700000*%
%ADD15O,0.900000X0.900000*%
%ADD16C,2.200000*%
%ADD17O,1.700000X1.700000*%
%ADD18RoundRect,0.237500X-0.237500X0.250000X-0.237500X-0.250000X0.237500X-0.250000X0.237500X0.250000X0*%
%ADD19RoundRect,0.250000X-0.725000X0.600000X-0.725000X-0.600000X0.725000X-0.600000X0.725000X0.600000X0*%
%ADD20O,1.950000X1.700000*%
%ADD21C,2.100000*%
%ADD22C,0.800000*%
G04 APERTURE END LIST*
D10*
X88619048Y-46573346D02*
X89380953Y-46573346D01*
X89000000Y-46954299D02*
X89000000Y-46192394D01*
X71059524Y-53649327D02*
X71059524Y-52649327D01*
X71059524Y-53125517D02*
X71630952Y-53125517D01*
X71630952Y-53649327D02*
X71630952Y-52649327D01*
X72297619Y-52649327D02*
X72488095Y-52649327D01*
X72488095Y-52649327D02*
X72583333Y-52696946D01*
X72583333Y-52696946D02*
X72678571Y-52792184D01*
X72678571Y-52792184D02*
X72726190Y-52982660D01*
X72726190Y-52982660D02*
X72726190Y-53315993D01*
X72726190Y-53315993D02*
X72678571Y-53506469D01*
X72678571Y-53506469D02*
X72583333Y-53601708D01*
X72583333Y-53601708D02*
X72488095Y-53649327D01*
X72488095Y-53649327D02*
X72297619Y-53649327D01*
X72297619Y-53649327D02*
X72202381Y-53601708D01*
X72202381Y-53601708D02*
X72107143Y-53506469D01*
X72107143Y-53506469D02*
X72059524Y-53315993D01*
X72059524Y-53315993D02*
X72059524Y-52982660D01*
X72059524Y-52982660D02*
X72107143Y-52792184D01*
X72107143Y-52792184D02*
X72202381Y-52696946D01*
X72202381Y-52696946D02*
X72297619Y-52649327D01*
X73011905Y-52649327D02*
X73583333Y-52649327D01*
X73297619Y-53649327D02*
X73297619Y-52649327D01*
X71130952Y-54306890D02*
X71035714Y-54259271D01*
X71035714Y-54259271D02*
X70892857Y-54259271D01*
X70892857Y-54259271D02*
X70750000Y-54306890D01*
X70750000Y-54306890D02*
X70654762Y-54402128D01*
X70654762Y-54402128D02*
X70607143Y-54497366D01*
X70607143Y-54497366D02*
X70559524Y-54687842D01*
X70559524Y-54687842D02*
X70559524Y-54830699D01*
X70559524Y-54830699D02*
X70607143Y-55021175D01*
X70607143Y-55021175D02*
X70654762Y-55116413D01*
X70654762Y-55116413D02*
X70750000Y-55211652D01*
X70750000Y-55211652D02*
X70892857Y-55259271D01*
X70892857Y-55259271D02*
X70988095Y-55259271D01*
X70988095Y-55259271D02*
X71130952Y-55211652D01*
X71130952Y-55211652D02*
X71178571Y-55164032D01*
X71178571Y-55164032D02*
X71178571Y-54830699D01*
X71178571Y-54830699D02*
X70988095Y-54830699D01*
X72083333Y-55259271D02*
X71607143Y-55259271D01*
X71607143Y-55259271D02*
X71607143Y-54259271D01*
X72416667Y-54259271D02*
X72416667Y-55068794D01*
X72416667Y-55068794D02*
X72464286Y-55164032D01*
X72464286Y-55164032D02*
X72511905Y-55211652D01*
X72511905Y-55211652D02*
X72607143Y-55259271D01*
X72607143Y-55259271D02*
X72797619Y-55259271D01*
X72797619Y-55259271D02*
X72892857Y-55211652D01*
X72892857Y-55211652D02*
X72940476Y-55164032D01*
X72940476Y-55164032D02*
X72988095Y-55068794D01*
X72988095Y-55068794D02*
X72988095Y-54259271D01*
X73464286Y-54735461D02*
X73797619Y-54735461D01*
X73940476Y-55259271D02*
X73464286Y-55259271D01*
X73464286Y-55259271D02*
X73464286Y-54259271D01*
X73464286Y-54259271D02*
X73940476Y-54259271D01*
X70511905Y-46954299D02*
X71083333Y-46954299D01*
X70797619Y-47954299D02*
X70797619Y-46954299D01*
X71416667Y-47430489D02*
X71750000Y-47430489D01*
X71892857Y-47954299D02*
X71416667Y-47954299D01*
X71416667Y-47954299D02*
X71416667Y-46954299D01*
X71416667Y-46954299D02*
X71892857Y-46954299D01*
X72273810Y-47668584D02*
X72750000Y-47668584D01*
X72178572Y-47954299D02*
X72511905Y-46954299D01*
X72511905Y-46954299D02*
X72845238Y-47954299D01*
X73178572Y-47954299D02*
X73178572Y-46954299D01*
X73178572Y-46954299D02*
X73511905Y-47668584D01*
X73511905Y-47668584D02*
X73845238Y-46954299D01*
X73845238Y-46954299D02*
X73845238Y-47954299D01*
X88619048Y-54823346D02*
X89380953Y-54823346D01*
D11*
%TO.C,D1*%
X86065000Y-52800000D02*
X86065000Y-55260000D01*
X86065000Y-55260000D02*
X87535000Y-55260000D01*
X87535000Y-55260000D02*
X87535000Y-52800000D01*
%TO.C,J8*%
X74705000Y-46295000D02*
X76737000Y-46295000D01*
X74705000Y-48955000D02*
X74705000Y-46295000D01*
X74705000Y-48955000D02*
X76737000Y-48955000D01*
D12*
X76991000Y-46355000D02*
X77499000Y-46355000D01*
X76991000Y-48895000D02*
X77499000Y-48895000D01*
X77245000Y-46609000D02*
X77245000Y-46101000D01*
X77245000Y-49149000D02*
X77245000Y-48641000D01*
D11*
X77813000Y-46295000D02*
X79845000Y-46295000D01*
X77813000Y-48955000D02*
X79845000Y-48955000D01*
X79845000Y-48955000D02*
X79845000Y-46295000D01*
%TO.C,H2*%
X85250000Y-50800000D02*
G75*
G02*
X80250000Y-50800000I-2500000J0D01*
G01*
X80250000Y-50800000D02*
G75*
G02*
X85250000Y-50800000I2500000J0D01*
G01*
%TO.C,J9*%
X74705000Y-52645000D02*
X76737000Y-52645000D01*
X74705000Y-55305000D02*
X74705000Y-52645000D01*
X74705000Y-55305000D02*
X76737000Y-55305000D01*
D12*
X76991000Y-52705000D02*
X77499000Y-52705000D01*
X76991000Y-55245000D02*
X77499000Y-55245000D01*
D11*
X77813000Y-52645000D02*
X79845000Y-52645000D01*
X77813000Y-55305000D02*
X79845000Y-55305000D01*
X79845000Y-55305000D02*
X79845000Y-52645000D01*
%TO.C,R1*%
X86277500Y-49745276D02*
X86277500Y-50254724D01*
X87322500Y-49745276D02*
X87322500Y-50254724D01*
%TD*%
%LPC*%
D13*
%TO.C,D1*%
X86800000Y-54475000D03*
X86800000Y-52725000D03*
%TD*%
D14*
%TO.C,J8*%
X75975000Y-47625000D03*
X78515000Y-47625000D03*
%TD*%
D15*
%TO.C,H2*%
X80850000Y-50800000D03*
X81400000Y-49450000D03*
X81400000Y-52150000D03*
X82750000Y-48900000D03*
X82750000Y-52700000D03*
X84100000Y-49450000D03*
X84100000Y-52150000D03*
X84650000Y-50800000D03*
%TD*%
D16*
%TO.C,H1*%
X72250000Y-50800000D03*
%TD*%
D17*
%TO.C,J9*%
X75975000Y-53975000D03*
X78515000Y-53975000D03*
%TD*%
D18*
%TO.C,R1*%
X86800000Y-49087500D03*
X86800000Y-50912500D03*
%TD*%
D19*
%TO.C,J3*%
X89000000Y-48300000D03*
D20*
X89000000Y-50800000D03*
X89000000Y-53300000D03*
%TD*%
D21*
%TO.C,H4*%
X82750000Y-50800000D03*
%TD*%
D22*
X85500000Y-49087500D03*
%LPD*%
M02*
