%TF.GenerationSoftware,KiCad,Pcbnew,8.0.8*%
%TF.CreationDate,2025-02-20T21:47:34+11:00*%
%TF.ProjectId,Hotglue Switch,486f7467-6c75-4652-9053-77697463682e,rev?*%
%TF.SameCoordinates,Original*%
%TF.FileFunction,Legend,Bot*%
%TF.FilePolarity,Positive*%
%FSLAX46Y46*%
G04 Gerber Fmt 4.6, Leading zero omitted, Abs format (unit mm)*
G04 Created by KiCad (PCBNEW 8.0.8) date 2025-02-20 21:47:34*
%MOMM*%
%LPD*%
G01*
G04 APERTURE LIST*
G04 Aperture macros list*
%AMRoundRect*
0 Rectangle with rounded corners*
0 $1 Rounding radius*
0 $2 $3 $4 $5 $6 $7 $8 $9 X,Y pos of 4 corners*
0 Add a 4 corners polygon primitive as box body*
4,1,4,$2,$3,$4,$5,$6,$7,$8,$9,$2,$3,0*
0 Add four circle primitives for the rounded corners*
1,1,$1+$1,$2,$3*
1,1,$1+$1,$4,$5*
1,1,$1+$1,$6,$7*
1,1,$1+$1,$8,$9*
0 Add four rect primitives between the rounded corners*
20,1,$1+$1,$2,$3,$4,$5,0*
20,1,$1+$1,$4,$5,$6,$7,0*
20,1,$1+$1,$6,$7,$8,$9,0*
20,1,$1+$1,$8,$9,$2,$3,0*%
%AMFreePoly0*
4,1,85,-1.240370,1.979643,-0.961535,1.918986,-0.694170,1.819264,-0.443718,1.682507,-0.215279,1.511499,-0.013501,1.309721,0.157507,1.081282,0.294264,0.830830,0.393986,0.563465,0.454643,0.284630,0.475000,0.000000,0.454643,-0.284630,0.393986,-0.563465,0.294264,-0.830830,0.157507,-1.081282,-0.013501,-1.309721,-0.215279,-1.511499,-0.443718,-1.682507,-0.694170,-1.819264,-0.961535,-1.918986,
-1.240370,-1.979643,-1.525000,-2.000000,-1.809630,-1.979643,-2.088465,-1.918986,-2.355830,-1.819264,-2.606282,-1.682507,-2.834721,-1.511499,-3.036499,-1.309721,-3.207507,-1.081282,-3.344264,-0.830830,-3.443986,-0.563465,-3.504643,-0.284630,-3.525000,0.000000,-2.779775,0.000000,-2.760712,-0.217889,-2.704103,-0.429158,-2.611667,-0.627388,-2.486213,-0.806554,-2.331554,-0.961213,-2.152388,-1.086667,
-1.954158,-1.179103,-1.742889,-1.235712,-1.525000,-1.254775,-1.307111,-1.235712,-1.095842,-1.179103,-0.897612,-1.086667,-0.718446,-0.961213,-0.563787,-0.806554,-0.438333,-0.627388,-0.345897,-0.429158,-0.289288,-0.217889,-0.271683,-0.016674,-0.275000,0.000000,-0.271683,0.016674,-0.289288,0.217889,-0.345897,0.429158,-0.438333,0.627387,-0.563787,0.806554,-0.718446,0.961213,-0.897612,1.086667,
-1.095842,1.179103,-1.307111,1.235712,-1.525000,1.254775,-1.742889,1.235712,-1.954158,1.179103,-2.152387,1.086667,-2.331554,0.961213,-2.486213,0.806554,-2.611667,0.627387,-2.704103,0.429158,-2.760712,0.217889,-2.779775,0.000000,-3.525000,0.000000,-3.504643,0.284630,-3.443986,0.563465,-3.344264,0.830830,-3.207507,1.081282,-3.036499,1.309721,-2.834721,1.511499,-2.606282,1.682507,
-2.355830,1.819264,-2.088465,1.918986,-1.809630,1.979643,-1.525000,2.000000,-1.240370,1.979643,-1.240370,1.979643,$1*%
G04 Aperture macros list end*
%ADD10C,0.160000*%
%ADD11C,0.120000*%
%ADD12C,0.150000*%
%ADD13R,1.700000X1.700000*%
%ADD14C,3.200000*%
%ADD15O,1.700000X1.700000*%
%ADD16RoundRect,0.250000X-0.725000X0.600000X-0.725000X-0.600000X0.725000X-0.600000X0.725000X0.600000X0*%
%ADD17O,1.950000X1.700000*%
%ADD18C,2.100000*%
%ADD19FreePoly0,180.000000*%
%ADD20C,0.800000*%
G04 APERTURE END LIST*
D10*
X87381879Y-54447632D02*
X87143784Y-55114299D01*
X87143784Y-55114299D02*
X86905689Y-54447632D01*
X86000927Y-55114299D02*
X86572355Y-55114299D01*
X86286641Y-55114299D02*
X86286641Y-54114299D01*
X86286641Y-54114299D02*
X86381879Y-54257156D01*
X86381879Y-54257156D02*
X86477117Y-54352394D01*
X86477117Y-54352394D02*
X86572355Y-54400013D01*
X85572355Y-55019060D02*
X85524736Y-55066680D01*
X85524736Y-55066680D02*
X85572355Y-55114299D01*
X85572355Y-55114299D02*
X85619974Y-55066680D01*
X85619974Y-55066680D02*
X85572355Y-55019060D01*
X85572355Y-55019060D02*
X85572355Y-55114299D01*
X84905689Y-54114299D02*
X84810451Y-54114299D01*
X84810451Y-54114299D02*
X84715213Y-54161918D01*
X84715213Y-54161918D02*
X84667594Y-54209537D01*
X84667594Y-54209537D02*
X84619975Y-54304775D01*
X84619975Y-54304775D02*
X84572356Y-54495251D01*
X84572356Y-54495251D02*
X84572356Y-54733346D01*
X84572356Y-54733346D02*
X84619975Y-54923822D01*
X84619975Y-54923822D02*
X84667594Y-55019060D01*
X84667594Y-55019060D02*
X84715213Y-55066680D01*
X84715213Y-55066680D02*
X84810451Y-55114299D01*
X84810451Y-55114299D02*
X84905689Y-55114299D01*
X84905689Y-55114299D02*
X85000927Y-55066680D01*
X85000927Y-55066680D02*
X85048546Y-55019060D01*
X85048546Y-55019060D02*
X85096165Y-54923822D01*
X85096165Y-54923822D02*
X85143784Y-54733346D01*
X85143784Y-54733346D02*
X85143784Y-54495251D01*
X85143784Y-54495251D02*
X85096165Y-54304775D01*
X85096165Y-54304775D02*
X85048546Y-54209537D01*
X85048546Y-54209537D02*
X85000927Y-54161918D01*
X85000927Y-54161918D02*
X84905689Y-54114299D01*
X87334260Y-47208584D02*
X86858070Y-47208584D01*
X87429498Y-47494299D02*
X87096165Y-46494299D01*
X87096165Y-46494299D02*
X86762832Y-47494299D01*
X86429498Y-47494299D02*
X86429498Y-46494299D01*
X86429498Y-46494299D02*
X85858070Y-47494299D01*
X85858070Y-47494299D02*
X85858070Y-46494299D01*
X85524736Y-46494299D02*
X84953308Y-46494299D01*
X85239022Y-47494299D02*
X85239022Y-46494299D01*
X84667593Y-47446680D02*
X84524736Y-47494299D01*
X84524736Y-47494299D02*
X84286641Y-47494299D01*
X84286641Y-47494299D02*
X84191403Y-47446680D01*
X84191403Y-47446680D02*
X84143784Y-47399060D01*
X84143784Y-47399060D02*
X84096165Y-47303822D01*
X84096165Y-47303822D02*
X84096165Y-47208584D01*
X84096165Y-47208584D02*
X84143784Y-47113346D01*
X84143784Y-47113346D02*
X84191403Y-47065727D01*
X84191403Y-47065727D02*
X84286641Y-47018108D01*
X84286641Y-47018108D02*
X84477117Y-46970489D01*
X84477117Y-46970489D02*
X84572355Y-46922870D01*
X84572355Y-46922870D02*
X84619974Y-46875251D01*
X84619974Y-46875251D02*
X84667593Y-46780013D01*
X84667593Y-46780013D02*
X84667593Y-46684775D01*
X84667593Y-46684775D02*
X84619974Y-46589537D01*
X84619974Y-46589537D02*
X84572355Y-46541918D01*
X84572355Y-46541918D02*
X84477117Y-46494299D01*
X84477117Y-46494299D02*
X84239022Y-46494299D01*
X84239022Y-46494299D02*
X84096165Y-46541918D01*
X83762831Y-46494299D02*
X83524736Y-47494299D01*
X83524736Y-47494299D02*
X83334260Y-46780013D01*
X83334260Y-46780013D02*
X83143784Y-47494299D01*
X83143784Y-47494299D02*
X82905689Y-46494299D01*
X82524736Y-47494299D02*
X82524736Y-46494299D01*
X82191403Y-46494299D02*
X81619975Y-46494299D01*
X81905689Y-47494299D02*
X81905689Y-46494299D01*
X80715213Y-47399060D02*
X80762832Y-47446680D01*
X80762832Y-47446680D02*
X80905689Y-47494299D01*
X80905689Y-47494299D02*
X81000927Y-47494299D01*
X81000927Y-47494299D02*
X81143784Y-47446680D01*
X81143784Y-47446680D02*
X81239022Y-47351441D01*
X81239022Y-47351441D02*
X81286641Y-47256203D01*
X81286641Y-47256203D02*
X81334260Y-47065727D01*
X81334260Y-47065727D02*
X81334260Y-46922870D01*
X81334260Y-46922870D02*
X81286641Y-46732394D01*
X81286641Y-46732394D02*
X81239022Y-46637156D01*
X81239022Y-46637156D02*
X81143784Y-46541918D01*
X81143784Y-46541918D02*
X81000927Y-46494299D01*
X81000927Y-46494299D02*
X80905689Y-46494299D01*
X80905689Y-46494299D02*
X80762832Y-46541918D01*
X80762832Y-46541918D02*
X80715213Y-46589537D01*
X80286641Y-47494299D02*
X80286641Y-46494299D01*
X80286641Y-46970489D02*
X79715213Y-46970489D01*
X79715213Y-47494299D02*
X79715213Y-46494299D01*
X90550951Y-47063346D02*
X89789047Y-47063346D01*
X90169999Y-47444299D02*
X90169999Y-46682394D01*
X90550951Y-54683346D02*
X89789047Y-54683346D01*
D11*
%TO.C,J8*%
X72385000Y-46295000D02*
X74417000Y-46295000D01*
X72385000Y-48955000D02*
X72385000Y-46295000D01*
X72385000Y-48955000D02*
X74417000Y-48955000D01*
D12*
X74671000Y-46355000D02*
X75179000Y-46355000D01*
X74671000Y-48895000D02*
X75179000Y-48895000D01*
X74925000Y-46609000D02*
X74925000Y-46101000D01*
X74925000Y-49149000D02*
X74925000Y-48641000D01*
D11*
X75493000Y-46295000D02*
X77525000Y-46295000D01*
X75493000Y-48955000D02*
X77525000Y-48955000D01*
X77525000Y-48955000D02*
X77525000Y-46295000D01*
%TO.C,J9*%
X72385000Y-52645000D02*
X74417000Y-52645000D01*
X72385000Y-55305000D02*
X72385000Y-52645000D01*
X72385000Y-55305000D02*
X74417000Y-55305000D01*
D12*
X74671000Y-52705000D02*
X75179000Y-52705000D01*
X74671000Y-55245000D02*
X75179000Y-55245000D01*
D11*
X75493000Y-52645000D02*
X77525000Y-52645000D01*
X75493000Y-55305000D02*
X77525000Y-55305000D01*
X77525000Y-55305000D02*
X77525000Y-52645000D01*
%TO.C,J3*%
X86800000Y-48000000D02*
X87400000Y-48300000D01*
X86800000Y-48600000D02*
X86800000Y-48000000D01*
X87400000Y-48300000D02*
X86800000Y-48600000D01*
X88900000Y-47180000D02*
X88900000Y-46014000D01*
X88900000Y-54440000D02*
X88900000Y-55666000D01*
X89390000Y-47160000D02*
X88900000Y-47160000D01*
X89390000Y-54440000D02*
X88900000Y-54440000D01*
D12*
X90424000Y-46014000D02*
X88900000Y-46014000D01*
X90424000Y-55666000D02*
X88900000Y-55666000D01*
D11*
X90500000Y-48050000D02*
X90500000Y-48550000D01*
X90500000Y-50550000D02*
X90500000Y-51050000D01*
X90500000Y-53050000D02*
X90500000Y-53550000D01*
%TD*%
%LPC*%
D13*
%TO.C,J8*%
X73655000Y-47625000D03*
X76195000Y-47625000D03*
%TD*%
D14*
%TO.C,H1*%
X68580000Y-50800000D03*
%TD*%
D15*
%TO.C,J9*%
X73655000Y-53975000D03*
X76195000Y-53975000D03*
%TD*%
D16*
%TO.C,J3*%
X88900000Y-48300000D03*
D17*
X88900000Y-50800000D03*
X88900000Y-53300000D03*
%TD*%
D18*
%TO.C,H4*%
X80645000Y-50800000D03*
D19*
X79120000Y-50800000D03*
%TD*%
D20*
X83820000Y-48920000D03*
%LPD*%
M02*
