%TF.GenerationSoftware,KiCad,Pcbnew,9.0.6*%
%TF.CreationDate,2025-11-15T16:18:23+11:00*%
%TF.ProjectId,Hotglue Switch,486f7467-6c75-4652-9053-77697463682e,rev?*%
%TF.SameCoordinates,Original*%
%TF.FileFunction,Copper,L2,Bot*%
%TF.FilePolarity,Positive*%
%FSLAX46Y46*%
G04 Gerber Fmt 4.6, Leading zero omitted, Abs format (unit mm)*
G04 Created by KiCad (PCBNEW 9.0.6) date 2025-11-15 16:18:23*
%MOMM*%
%LPD*%
G01*
G04 APERTURE LIST*
G04 Aperture macros list*
%AMRoundRect*
0 Rectangle with rounded corners*
0 $1 Rounding radius*
0 $2 $3 $4 $5 $6 $7 $8 $9 X,Y pos of 4 corners*
0 Add a 4 corners polygon primitive as box body*
4,1,4,$2,$3,$4,$5,$6,$7,$8,$9,$2,$3,0*
0 Add four circle primitives for the rounded corners*
1,1,$1+$1,$2,$3*
1,1,$1+$1,$4,$5*
1,1,$1+$1,$6,$7*
1,1,$1+$1,$8,$9*
0 Add four rect primitives between the rounded corners*
20,1,$1+$1,$2,$3,$4,$5,0*
20,1,$1+$1,$4,$5,$6,$7,0*
20,1,$1+$1,$6,$7,$8,$9,0*
20,1,$1+$1,$8,$9,$2,$3,0*%
%AMFreePoly0*
4,1,92,-1.395801,2.157728,-1.117833,2.083246,-0.851965,1.973120,-0.602745,1.829233,-0.374439,1.654048,-0.170952,1.450561,0.004233,1.222255,0.148120,0.973035,0.258246,0.707167,0.332728,0.429199,0.370290,0.143887,0.370290,-0.143887,0.332728,-0.429199,0.258246,-0.707167,0.148120,-0.973035,0.004233,-1.222255,-0.170952,-1.450561,-0.374439,-1.654048,-0.602745,-1.829233,-0.851965,-1.973120,
-1.117833,-2.083246,-1.395801,-2.157728,-1.681113,-2.195290,-1.968887,-2.195290,-2.254199,-2.157728,-2.532167,-2.083246,-2.798035,-1.973120,-3.047255,-1.829233,-3.275561,-1.654048,-3.479048,-1.450561,-3.654233,-1.222255,-3.798120,-0.973035,-3.908246,-0.707167,-3.982728,-0.429199,-4.020290,-0.143887,-4.020290,0.114117,-3.275000,0.114117,-3.275000,-0.114117,-3.239296,-0.339543,-3.168768,-0.556607,
-3.065151,-0.759966,-2.930998,-0.944612,-2.769612,-1.105998,-2.584966,-1.240151,-2.381607,-1.343768,-2.164543,-1.414296,-1.939117,-1.450000,-1.710883,-1.450000,-1.485457,-1.414296,-1.268393,-1.343768,-1.065034,-1.240151,-0.880388,-1.105998,-0.719002,-0.944612,-0.584849,-0.759966,-0.481232,-0.556607,-0.410704,-0.339543,-0.375000,-0.114117,-0.375000,0.114117,-0.410704,0.339543,-0.481232,0.556607,
-0.584849,0.759966,-0.719002,0.944612,-0.880388,1.105998,-1.065034,1.240151,-1.268393,1.343768,-1.485457,1.414296,-1.710883,1.450000,-1.939117,1.450000,-2.164543,1.414296,-2.381607,1.343768,-2.584966,1.240151,-2.769612,1.105998,-2.930998,0.944612,-3.065151,0.759966,-3.168768,0.556607,-3.239296,0.339543,-3.275000,0.114117,-4.020290,0.114117,-4.020290,0.143887,-3.982728,0.429199,
-3.908246,0.707167,-3.798120,0.973035,-3.654233,1.222255,-3.479048,1.450561,-3.275561,1.654048,-3.047255,1.829233,-2.798035,1.973120,-2.532167,2.083246,-2.254199,2.157728,-1.968887,2.195290,-1.681113,2.195290,-1.395801,2.157728,-1.395801,2.157728,$1*%
G04 Aperture macros list end*
%TA.AperFunction,ComponentPad*%
%ADD10R,1.700000X1.700000*%
%TD*%
%TA.AperFunction,ComponentPad*%
%ADD11O,1.700000X1.700000*%
%TD*%
%TA.AperFunction,ComponentPad*%
%ADD12RoundRect,0.250000X-0.725000X0.600000X-0.725000X-0.600000X0.725000X-0.600000X0.725000X0.600000X0*%
%TD*%
%TA.AperFunction,ComponentPad*%
%ADD13O,1.950000X1.700000*%
%TD*%
%TA.AperFunction,SMDPad,CuDef*%
%ADD14C,0.550000*%
%TD*%
%TA.AperFunction,SMDPad,CuDef*%
%ADD15FreePoly0,180.000000*%
%TD*%
%TA.AperFunction,ViaPad*%
%ADD16C,0.800000*%
%TD*%
%TA.AperFunction,Conductor*%
%ADD17C,1.000000*%
%TD*%
G04 APERTURE END LIST*
D10*
%TO.P,J8,1,Pin_1*%
%TO.N,/BATT SWITCH*%
X75975000Y-47625000D03*
%TO.P,J8,2,Pin_2*%
X78515000Y-47625000D03*
%TD*%
D11*
%TO.P,J9,1,Pin_1*%
%TO.N,-BATT*%
X75975000Y-53975000D03*
%TO.P,J9,2,Pin_2*%
X78515000Y-53975000D03*
%TD*%
D12*
%TO.P,J3,1,Pin_1*%
%TO.N,+BATT*%
X89000000Y-48300000D03*
D13*
%TO.P,J3,2,Pin_2*%
%TO.N,/3.7V*%
X89000000Y-50800000D03*
%TO.P,J3,3,Pin_3*%
%TO.N,-BATT*%
X89000000Y-53300000D03*
%TD*%
D14*
%TO.P,H4,1,1*%
%TO.N,/BATT SWITCH*%
X84575000Y-50800000D03*
X82750000Y-52625000D03*
X82750000Y-48975000D03*
D15*
X80925000Y-50800000D03*
%TD*%
D16*
%TO.N,/BATT SWITCH*%
X85500000Y-49087500D03*
%TD*%
D17*
%TO.N,/BATT SWITCH*%
X85500000Y-49087500D02*
X83727500Y-49087500D01*
X83727500Y-49087500D02*
X83690000Y-49050000D01*
%TD*%
%TA.AperFunction,Conductor*%
%TO.N,/BATT SWITCH*%
G36*
X84747065Y-46234852D02*
G01*
X84887220Y-46375007D01*
X84891799Y-46380290D01*
X85050491Y-46592278D01*
X85054270Y-46598160D01*
X85181166Y-46830552D01*
X85184071Y-46836911D01*
X85276610Y-47085019D01*
X85278579Y-47091727D01*
X85334864Y-47350465D01*
X85335859Y-47357385D01*
X85354875Y-47623252D01*
X85355000Y-47626748D01*
X85355000Y-49254063D01*
X85354886Y-49257399D01*
X85336683Y-49524116D01*
X85335777Y-49530727D01*
X85281502Y-49792513D01*
X85280713Y-49795757D01*
X85144833Y-50281863D01*
X85143868Y-50284924D01*
X85058622Y-50527393D01*
X85056103Y-50533293D01*
X84940632Y-50761123D01*
X84937363Y-50766643D01*
X84793127Y-50977424D01*
X84789166Y-50982470D01*
X84617540Y-51173814D01*
X84615320Y-51176131D01*
X83550756Y-52217037D01*
X83547946Y-52219580D01*
X83366238Y-52371639D01*
X83360071Y-52376036D01*
X83158734Y-52497291D01*
X83151963Y-52500686D01*
X82934335Y-52589470D01*
X82927122Y-52591780D01*
X82698418Y-52645961D01*
X82690935Y-52647132D01*
X82456613Y-52665422D01*
X82449039Y-52665426D01*
X82214699Y-52647385D01*
X82207215Y-52646222D01*
X81978450Y-52592283D01*
X81971234Y-52589980D01*
X81751758Y-52500715D01*
X81748306Y-52499153D01*
X80750011Y-52000005D01*
X80750004Y-52000002D01*
X80750000Y-52000000D01*
X78821572Y-51175004D01*
X78046186Y-50843288D01*
X78046182Y-50843286D01*
X77945000Y-50800000D01*
X77944993Y-50799997D01*
X77944991Y-50799997D01*
X77716731Y-50730811D01*
X77568372Y-50685843D01*
X81299500Y-50685843D01*
X81299500Y-50914156D01*
X81335215Y-51139657D01*
X81335216Y-51139660D01*
X81405769Y-51356800D01*
X81469363Y-51481610D01*
X81509421Y-51560228D01*
X81643621Y-51744937D01*
X81643623Y-51744939D01*
X81643626Y-51744943D01*
X81805056Y-51906373D01*
X81805059Y-51906375D01*
X81805063Y-51906379D01*
X81989772Y-52040579D01*
X82193201Y-52144231D01*
X82410340Y-52214784D01*
X82635843Y-52250500D01*
X82635844Y-52250500D01*
X82864156Y-52250500D01*
X82864157Y-52250500D01*
X83089660Y-52214784D01*
X83306799Y-52144231D01*
X83510228Y-52040579D01*
X83694937Y-51906379D01*
X83856379Y-51744937D01*
X83990579Y-51560228D01*
X84094231Y-51356799D01*
X84164784Y-51139660D01*
X84200500Y-50914157D01*
X84200500Y-50685843D01*
X84164784Y-50460340D01*
X84094231Y-50243201D01*
X83990579Y-50039772D01*
X83856379Y-49855063D01*
X83856375Y-49855059D01*
X83856373Y-49855056D01*
X83694943Y-49693626D01*
X83694939Y-49693623D01*
X83694937Y-49693621D01*
X83510228Y-49559421D01*
X83510222Y-49559418D01*
X83510221Y-49559417D01*
X83306800Y-49455769D01*
X83089660Y-49385216D01*
X83089657Y-49385215D01*
X82874991Y-49351216D01*
X82864157Y-49349500D01*
X82635843Y-49349500D01*
X82625009Y-49351216D01*
X82410342Y-49385215D01*
X82410339Y-49385216D01*
X82193199Y-49455769D01*
X81989778Y-49559417D01*
X81805056Y-49693626D01*
X81643626Y-49855056D01*
X81509417Y-50039778D01*
X81405769Y-50243199D01*
X81335216Y-50460339D01*
X81335215Y-50460342D01*
X81299500Y-50685843D01*
X77568372Y-50685843D01*
X75176517Y-49960865D01*
X75173230Y-49959740D01*
X74913377Y-49860380D01*
X74907083Y-49857447D01*
X74902779Y-49855056D01*
X74665392Y-49723189D01*
X74659590Y-49719405D01*
X74439297Y-49552326D01*
X74434092Y-49547763D01*
X74239625Y-49351216D01*
X74235121Y-49345967D01*
X74070393Y-49123909D01*
X74066664Y-49118055D01*
X73934989Y-48874958D01*
X73932129Y-48868649D01*
X73836135Y-48609366D01*
X73834192Y-48602699D01*
X73811927Y-48499629D01*
X74875000Y-48499629D01*
X74889503Y-48572542D01*
X74944759Y-48655240D01*
X75027457Y-48710496D01*
X75100370Y-48724999D01*
X75100376Y-48725000D01*
X75475000Y-48725000D01*
X76475000Y-48725000D01*
X76849624Y-48725000D01*
X76849629Y-48724999D01*
X76922542Y-48710496D01*
X77005240Y-48655240D01*
X77060496Y-48572542D01*
X77074999Y-48499629D01*
X77415000Y-48499629D01*
X77429503Y-48572542D01*
X77484759Y-48655240D01*
X77567457Y-48710496D01*
X77640370Y-48724999D01*
X77640376Y-48725000D01*
X78015000Y-48725000D01*
X79015000Y-48725000D01*
X79389624Y-48725000D01*
X79389629Y-48724999D01*
X79462542Y-48710496D01*
X79545240Y-48655240D01*
X79600496Y-48572542D01*
X79614999Y-48499629D01*
X79615000Y-48499624D01*
X79615000Y-48125000D01*
X79015000Y-48125000D01*
X79015000Y-48725000D01*
X78015000Y-48725000D01*
X78015000Y-48125000D01*
X77415000Y-48125000D01*
X77415000Y-48499629D01*
X77074999Y-48499629D01*
X77075000Y-48499624D01*
X77075000Y-48125000D01*
X76475000Y-48125000D01*
X76475000Y-48725000D01*
X75475000Y-48725000D01*
X75475000Y-48125000D01*
X74875000Y-48125000D01*
X74875000Y-48499629D01*
X73811927Y-48499629D01*
X73811926Y-48499624D01*
X73775816Y-48332465D01*
X73774837Y-48325607D01*
X73755123Y-48048083D01*
X73755000Y-48044611D01*
X73755000Y-47626748D01*
X73755125Y-47623252D01*
X73759708Y-47559174D01*
X75475000Y-47559174D01*
X75475000Y-47690826D01*
X75509075Y-47817993D01*
X75574901Y-47932007D01*
X75667993Y-48025099D01*
X75782007Y-48090925D01*
X75909174Y-48125000D01*
X76040826Y-48125000D01*
X76167993Y-48090925D01*
X76282007Y-48025099D01*
X76375099Y-47932007D01*
X76440925Y-47817993D01*
X76475000Y-47690826D01*
X76475000Y-47559174D01*
X78015000Y-47559174D01*
X78015000Y-47690826D01*
X78049075Y-47817993D01*
X78114901Y-47932007D01*
X78207993Y-48025099D01*
X78322007Y-48090925D01*
X78449174Y-48125000D01*
X78580826Y-48125000D01*
X78707993Y-48090925D01*
X78822007Y-48025099D01*
X78915099Y-47932007D01*
X78980925Y-47817993D01*
X79015000Y-47690826D01*
X79015000Y-47559174D01*
X78980925Y-47432007D01*
X78915099Y-47317993D01*
X78822007Y-47224901D01*
X78707993Y-47159075D01*
X78580826Y-47125000D01*
X79015000Y-47125000D01*
X79615000Y-47125000D01*
X79615000Y-46750376D01*
X79614999Y-46750370D01*
X79600496Y-46677457D01*
X79545240Y-46594759D01*
X79462542Y-46539503D01*
X79389629Y-46525000D01*
X79015000Y-46525000D01*
X79015000Y-47125000D01*
X78580826Y-47125000D01*
X78449174Y-47125000D01*
X78322007Y-47159075D01*
X78207993Y-47224901D01*
X78114901Y-47317993D01*
X78049075Y-47432007D01*
X78015000Y-47559174D01*
X76475000Y-47559174D01*
X76440925Y-47432007D01*
X76375099Y-47317993D01*
X76282007Y-47224901D01*
X76167993Y-47159075D01*
X76040826Y-47125000D01*
X76475000Y-47125000D01*
X77075000Y-47125000D01*
X77075000Y-46750376D01*
X77074999Y-46750370D01*
X77415000Y-46750370D01*
X77415000Y-47125000D01*
X78015000Y-47125000D01*
X78015000Y-46525000D01*
X77640370Y-46525000D01*
X77567457Y-46539503D01*
X77484759Y-46594759D01*
X77429503Y-46677457D01*
X77415000Y-46750370D01*
X77074999Y-46750370D01*
X77060496Y-46677457D01*
X77005240Y-46594759D01*
X76922542Y-46539503D01*
X76849629Y-46525000D01*
X76475000Y-46525000D01*
X76475000Y-47125000D01*
X76040826Y-47125000D01*
X75909174Y-47125000D01*
X75782007Y-47159075D01*
X75667993Y-47224901D01*
X75574901Y-47317993D01*
X75509075Y-47432007D01*
X75475000Y-47559174D01*
X73759708Y-47559174D01*
X73774140Y-47357385D01*
X73775135Y-47350465D01*
X73831420Y-47091727D01*
X73833389Y-47085019D01*
X73925932Y-46836902D01*
X73928828Y-46830562D01*
X73972616Y-46750370D01*
X74875000Y-46750370D01*
X74875000Y-47125000D01*
X75475000Y-47125000D01*
X75475000Y-46525000D01*
X75100370Y-46525000D01*
X75027457Y-46539503D01*
X74944759Y-46594759D01*
X74889503Y-46677457D01*
X74875000Y-46750370D01*
X73972616Y-46750370D01*
X74055733Y-46598153D01*
X74059503Y-46592285D01*
X74218206Y-46380281D01*
X74222772Y-46375014D01*
X74362935Y-46234852D01*
X74397583Y-46220500D01*
X84712417Y-46220500D01*
X84747065Y-46234852D01*
G37*
%TD.AperFunction*%
%TD*%
%TA.AperFunction,Conductor*%
%TO.N,-BATT*%
G36*
X80843199Y-52719352D02*
G01*
X80938885Y-52815038D01*
X80938891Y-52815043D01*
X80938897Y-52815049D01*
X80950244Y-52825000D01*
X80987153Y-52857370D01*
X80988595Y-52858634D01*
X80988610Y-52858647D01*
X81217368Y-53034180D01*
X81217385Y-53034192D01*
X81217393Y-53034198D01*
X81244702Y-53052445D01*
X81272366Y-53070929D01*
X81272369Y-53070931D01*
X81272374Y-53070934D01*
X81522128Y-53215129D01*
X81581430Y-53244374D01*
X81847869Y-53354737D01*
X81910483Y-53375992D01*
X81910498Y-53375996D01*
X81910501Y-53375997D01*
X82189027Y-53450628D01*
X82189030Y-53450629D01*
X82189038Y-53450630D01*
X82189047Y-53450633D01*
X82253898Y-53463532D01*
X82539822Y-53501175D01*
X82539838Y-53501176D01*
X82539846Y-53501177D01*
X82605795Y-53505500D01*
X82605804Y-53505500D01*
X82894205Y-53505500D01*
X82960153Y-53501177D01*
X82960159Y-53501176D01*
X82960178Y-53501175D01*
X83246102Y-53463532D01*
X83310953Y-53450633D01*
X83310964Y-53450629D01*
X83310969Y-53450629D01*
X83310972Y-53450628D01*
X83589498Y-53375997D01*
X83589496Y-53375997D01*
X83589517Y-53375992D01*
X83652131Y-53354737D01*
X83918570Y-53244374D01*
X83977872Y-53215129D01*
X84227626Y-53070934D01*
X84282607Y-53034198D01*
X84282624Y-53034184D01*
X84282631Y-53034180D01*
X84511389Y-52858647D01*
X84511391Y-52858644D01*
X84511403Y-52858636D01*
X84561115Y-52815038D01*
X84656801Y-52719352D01*
X84691449Y-52705000D01*
X87863649Y-52705000D01*
X87898297Y-52719352D01*
X87912649Y-52754000D01*
X87907308Y-52776246D01*
X87895205Y-52800000D01*
X88951000Y-52800000D01*
X88985648Y-52814352D01*
X88990059Y-52825000D01*
X88937465Y-52825000D01*
X88816657Y-52857370D01*
X88708343Y-52919905D01*
X88619905Y-53008343D01*
X88557370Y-53116657D01*
X88525000Y-53237465D01*
X88525000Y-53362535D01*
X88557370Y-53483343D01*
X88619905Y-53591657D01*
X88708343Y-53680095D01*
X88816657Y-53742630D01*
X88937465Y-53775000D01*
X89062535Y-53775000D01*
X89183343Y-53742630D01*
X89291657Y-53680095D01*
X89380095Y-53591657D01*
X89442630Y-53483343D01*
X89475000Y-53362535D01*
X89475000Y-53309941D01*
X89485648Y-53314352D01*
X89500000Y-53349000D01*
X89500000Y-54334762D01*
X89547249Y-54319411D01*
X89701527Y-54240802D01*
X89701530Y-54240800D01*
X89841603Y-54139031D01*
X89841608Y-54139028D01*
X89964028Y-54016608D01*
X89964031Y-54016603D01*
X90065800Y-53876530D01*
X90065802Y-53876527D01*
X90144410Y-53722251D01*
X90197913Y-53557584D01*
X90197914Y-53557581D01*
X90207103Y-53499568D01*
X90226698Y-53467591D01*
X90263165Y-53458836D01*
X90295142Y-53478431D01*
X90304500Y-53507233D01*
X90304500Y-54877247D01*
X90304192Y-54882734D01*
X90292593Y-54985666D01*
X90290151Y-54996362D01*
X90256858Y-55091512D01*
X90252097Y-55101399D01*
X90198461Y-55186759D01*
X90191620Y-55195337D01*
X90120337Y-55266620D01*
X90111759Y-55273461D01*
X90026399Y-55327097D01*
X90016512Y-55331858D01*
X89921362Y-55365151D01*
X89910666Y-55367593D01*
X89814877Y-55378386D01*
X89807732Y-55379192D01*
X89802247Y-55379500D01*
X74212210Y-55379500D01*
X74177562Y-55365148D01*
X74174950Y-55362323D01*
X74144864Y-55327097D01*
X74060687Y-55228537D01*
X74056170Y-55222320D01*
X74034378Y-55186759D01*
X73930039Y-55016494D01*
X73926550Y-55009645D01*
X73834174Y-54786627D01*
X73831798Y-54779315D01*
X73810740Y-54691603D01*
X73775443Y-54544584D01*
X73774242Y-54536996D01*
X73769492Y-54476639D01*
X73769363Y-54475000D01*
X74995204Y-54475000D01*
X75034196Y-54551524D01*
X75135968Y-54691603D01*
X75135972Y-54691608D01*
X75258392Y-54814028D01*
X75258396Y-54814031D01*
X75398469Y-54915800D01*
X75398477Y-54915805D01*
X75475000Y-54954795D01*
X75475000Y-54954794D01*
X76475000Y-54954794D01*
X76551522Y-54915805D01*
X76551530Y-54915800D01*
X76691603Y-54814031D01*
X76691608Y-54814028D01*
X76814028Y-54691608D01*
X76814031Y-54691603D01*
X76915803Y-54551524D01*
X76954796Y-54475000D01*
X77535204Y-54475000D01*
X77574196Y-54551524D01*
X77675968Y-54691603D01*
X77675972Y-54691608D01*
X77798392Y-54814028D01*
X77798396Y-54814031D01*
X77938469Y-54915800D01*
X77938477Y-54915805D01*
X78015000Y-54954795D01*
X78015000Y-54954794D01*
X79015000Y-54954794D01*
X79091522Y-54915805D01*
X79091530Y-54915800D01*
X79231603Y-54814031D01*
X79231608Y-54814028D01*
X79354028Y-54691608D01*
X79354031Y-54691603D01*
X79455803Y-54551524D01*
X79494796Y-54475000D01*
X79015000Y-54475000D01*
X79015000Y-54954794D01*
X78015000Y-54954794D01*
X78015000Y-54475000D01*
X77535204Y-54475000D01*
X76954796Y-54475000D01*
X76475000Y-54475000D01*
X76475000Y-54954794D01*
X75475000Y-54954794D01*
X75475000Y-54475000D01*
X74995204Y-54475000D01*
X73769363Y-54475000D01*
X73758326Y-54334762D01*
X73755302Y-54296337D01*
X73755302Y-54288662D01*
X73774243Y-54047994D01*
X73775443Y-54040417D01*
X73806952Y-53909174D01*
X75475000Y-53909174D01*
X75475000Y-54040826D01*
X75509075Y-54167993D01*
X75574901Y-54282007D01*
X75667993Y-54375099D01*
X75782007Y-54440925D01*
X75909174Y-54475000D01*
X76040826Y-54475000D01*
X76167993Y-54440925D01*
X76282007Y-54375099D01*
X76375099Y-54282007D01*
X76440925Y-54167993D01*
X76475000Y-54040826D01*
X76475000Y-53909174D01*
X78015000Y-53909174D01*
X78015000Y-54040826D01*
X78049075Y-54167993D01*
X78114901Y-54282007D01*
X78207993Y-54375099D01*
X78322007Y-54440925D01*
X78449174Y-54475000D01*
X78580826Y-54475000D01*
X78707993Y-54440925D01*
X78822007Y-54375099D01*
X78915099Y-54282007D01*
X78980925Y-54167993D01*
X79015000Y-54040826D01*
X79015000Y-53909174D01*
X78985746Y-53800000D01*
X87895204Y-53800000D01*
X87934196Y-53876524D01*
X88035968Y-54016603D01*
X88035972Y-54016608D01*
X88158392Y-54139028D01*
X88158396Y-54139031D01*
X88298469Y-54240800D01*
X88298472Y-54240802D01*
X88452750Y-54319411D01*
X88500000Y-54334763D01*
X88500000Y-53800000D01*
X87895204Y-53800000D01*
X78985746Y-53800000D01*
X78980925Y-53782007D01*
X78915099Y-53667993D01*
X78822007Y-53574901D01*
X78707993Y-53509075D01*
X78580826Y-53475000D01*
X79015000Y-53475000D01*
X79494795Y-53475000D01*
X79455803Y-53398475D01*
X79354031Y-53258396D01*
X79354028Y-53258392D01*
X79231608Y-53135972D01*
X79231603Y-53135968D01*
X79091524Y-53034196D01*
X79015000Y-52995204D01*
X79015000Y-53475000D01*
X78580826Y-53475000D01*
X78449174Y-53475000D01*
X78322007Y-53509075D01*
X78207993Y-53574901D01*
X78114901Y-53667993D01*
X78049075Y-53782007D01*
X78015000Y-53909174D01*
X76475000Y-53909174D01*
X76440925Y-53782007D01*
X76375099Y-53667993D01*
X76282007Y-53574901D01*
X76167993Y-53509075D01*
X76040826Y-53475000D01*
X76475000Y-53475000D01*
X76954795Y-53475000D01*
X77535204Y-53475000D01*
X78015000Y-53475000D01*
X78015000Y-52995204D01*
X77938475Y-53034196D01*
X77798396Y-53135968D01*
X77675968Y-53258396D01*
X77574196Y-53398475D01*
X77535204Y-53475000D01*
X76954795Y-53475000D01*
X76915803Y-53398475D01*
X76814031Y-53258396D01*
X76814028Y-53258392D01*
X76691608Y-53135972D01*
X76691603Y-53135968D01*
X76551524Y-53034196D01*
X76475000Y-52995204D01*
X76475000Y-53475000D01*
X76040826Y-53475000D01*
X75909174Y-53475000D01*
X75782007Y-53509075D01*
X75667993Y-53574901D01*
X75574901Y-53667993D01*
X75509075Y-53782007D01*
X75475000Y-53909174D01*
X73806952Y-53909174D01*
X73831798Y-53805681D01*
X73834171Y-53798378D01*
X73926554Y-53575346D01*
X73930036Y-53568510D01*
X73987340Y-53475000D01*
X74995204Y-53475000D01*
X75475000Y-53475000D01*
X75475000Y-52995204D01*
X75398475Y-53034196D01*
X75258396Y-53135968D01*
X75135968Y-53258396D01*
X75034196Y-53398475D01*
X74995204Y-53475000D01*
X73987340Y-53475000D01*
X74056173Y-53362675D01*
X74060682Y-53356468D01*
X74217468Y-53172894D01*
X74222894Y-53167468D01*
X74406468Y-53010682D01*
X74412669Y-53006177D01*
X74618510Y-52880036D01*
X74625346Y-52876554D01*
X74848374Y-52784173D01*
X74855681Y-52781798D01*
X75090417Y-52725443D01*
X75097996Y-52724243D01*
X75320812Y-52706706D01*
X75340582Y-52705151D01*
X75344426Y-52705000D01*
X80808551Y-52705000D01*
X80843199Y-52719352D01*
G37*
%TD.AperFunction*%
%TD*%
M02*
