%TF.GenerationSoftware,KiCad,Pcbnew,8.0.8*%
%TF.CreationDate,2025-02-19T21:31:31+11:00*%
%TF.ProjectId,Hotglue Switch,486f7467-6c75-4652-9053-77697463682e,rev?*%
%TF.SameCoordinates,Original*%
%TF.FileFunction,Copper,L1,Top*%
%TF.FilePolarity,Positive*%
%FSLAX46Y46*%
G04 Gerber Fmt 4.6, Leading zero omitted, Abs format (unit mm)*
G04 Created by KiCad (PCBNEW 8.0.8) date 2025-02-19 21:31:31*
%MOMM*%
%LPD*%
G01*
G04 APERTURE LIST*
G04 Aperture macros list*
%AMRoundRect*
0 Rectangle with rounded corners*
0 $1 Rounding radius*
0 $2 $3 $4 $5 $6 $7 $8 $9 X,Y pos of 4 corners*
0 Add a 4 corners polygon primitive as box body*
4,1,4,$2,$3,$4,$5,$6,$7,$8,$9,$2,$3,0*
0 Add four circle primitives for the rounded corners*
1,1,$1+$1,$2,$3*
1,1,$1+$1,$4,$5*
1,1,$1+$1,$6,$7*
1,1,$1+$1,$8,$9*
0 Add four rect primitives between the rounded corners*
20,1,$1+$1,$2,$3,$4,$5,0*
20,1,$1+$1,$4,$5,$6,$7,0*
20,1,$1+$1,$6,$7,$8,$9,0*
20,1,$1+$1,$8,$9,$2,$3,0*%
%AMFreePoly0*
4,1,87,-1.493263,2.329895,-1.191775,2.269926,-0.900694,2.171117,-0.625000,2.035160,-0.369411,1.864380,-0.138299,1.661701,0.064380,1.430589,0.235160,1.175000,0.371117,0.899306,0.469926,0.608225,0.529895,0.306737,0.550000,0.000000,0.529895,-0.306737,0.469926,-0.608225,0.371117,-0.899306,0.235160,-1.175000,0.064380,-1.430589,-0.138299,-1.661701,-0.369411,-1.864380,-0.625000,-2.035160,
-0.900694,-2.171117,-1.191775,-2.269926,-1.493263,-2.329895,-1.800000,-2.350000,-2.106737,-2.329895,-2.408225,-2.269926,-2.699306,-2.171117,-2.975000,-2.035160,-3.230589,-1.864380,-3.461701,-1.661701,-3.664380,-1.430589,-3.835160,-1.175000,-3.971117,-0.899306,-4.069926,-0.608225,-4.129895,-0.306737,-4.150000,0.000000,-3.054775,0.000000,-3.035712,-0.217889,-2.979103,-0.429158,-2.886667,-0.627388,
-2.761213,-0.806554,-2.606554,-0.961213,-2.427388,-1.086667,-2.229158,-1.179103,-2.017889,-1.235712,-1.800000,-1.254775,-1.582111,-1.235712,-1.370842,-1.179103,-1.172612,-1.086667,-0.993446,-0.961213,-0.838787,-0.806554,-0.713333,-0.627388,-0.620897,-0.429158,-0.564288,-0.217889,-0.545225,0.000000,-0.564288,0.217889,-0.620897,0.429158,-0.713333,0.627387,-0.838787,0.806554,-0.993446,0.961213,
-1.172612,1.086667,-1.370842,1.179103,-1.582111,1.235712,-1.800000,1.254775,-2.017889,1.235712,-2.229158,1.179103,-2.427387,1.086667,-2.606554,0.961213,-2.761213,0.806554,-2.886667,0.627387,-2.979103,0.429158,-3.035712,0.217889,-3.054775,0.000000,-4.150000,0.000000,-4.129895,0.306737,-4.069926,0.608225,-3.971117,0.899306,-3.835160,1.175000,-3.664380,1.430589,-3.461701,1.661701,
-3.230589,1.864380,-2.975000,2.035160,-2.699306,2.171117,-2.408225,2.269926,-2.106737,2.329895,-1.800000,2.350000,-1.493263,2.329895,-1.493263,2.329895,$1*%
G04 Aperture macros list end*
%TA.AperFunction,SMDPad,CuDef*%
%ADD10RoundRect,0.237500X0.287500X0.237500X-0.287500X0.237500X-0.287500X-0.237500X0.287500X-0.237500X0*%
%TD*%
%TA.AperFunction,ComponentPad*%
%ADD11R,1.700000X1.700000*%
%TD*%
%TA.AperFunction,SMDPad,CuDef*%
%ADD12O,1.100000X1.100000*%
%TD*%
%TA.AperFunction,SMDPad,CuDef*%
%ADD13FreePoly0,0.000000*%
%TD*%
%TA.AperFunction,ComponentPad*%
%ADD14O,1.700000X1.700000*%
%TD*%
%TA.AperFunction,SMDPad,CuDef*%
%ADD15RoundRect,0.250000X-1.075000X0.400000X-1.075000X-0.400000X1.075000X-0.400000X1.075000X0.400000X0*%
%TD*%
%TA.AperFunction,ComponentPad*%
%ADD16RoundRect,0.250000X-0.725000X0.600000X-0.725000X-0.600000X0.725000X-0.600000X0.725000X0.600000X0*%
%TD*%
%TA.AperFunction,ComponentPad*%
%ADD17O,1.950000X1.700000*%
%TD*%
%TA.AperFunction,ViaPad*%
%ADD18C,0.800000*%
%TD*%
%TA.AperFunction,Conductor*%
%ADD19C,1.000000*%
%TD*%
%TA.AperFunction,Conductor*%
%ADD20C,2.000000*%
%TD*%
G04 APERTURE END LIST*
D10*
%TO.P,D1,1,K*%
%TO.N,-BATT*%
X86600000Y-54610000D03*
%TO.P,D1,2,A*%
%TO.N,Net-(D1-A)*%
X84850000Y-54610000D03*
%TD*%
D11*
%TO.P,J8,1,Pin_1*%
%TO.N,/BATT SWITCH*%
X73655000Y-47625000D03*
%TO.P,J8,2,Pin_2*%
X76195000Y-47625000D03*
%TD*%
D12*
%TO.P,H2,1,1*%
%TO.N,+BATT*%
X79086155Y-49900000D03*
X79086155Y-51700000D03*
X80645000Y-49000000D03*
X80645000Y-52600000D03*
X82203845Y-49900000D03*
X82203845Y-51699999D03*
D13*
X82445000Y-50800000D03*
%TD*%
D14*
%TO.P,J9,1,Pin_1*%
%TO.N,-BATT*%
X73655000Y-53975000D03*
%TO.P,J9,2,Pin_2*%
X76195000Y-53975000D03*
%TD*%
D15*
%TO.P,R1,1*%
%TO.N,/BATT SWITCH*%
X85725000Y-49250000D03*
%TO.P,R1,2*%
%TO.N,Net-(D1-A)*%
X85725000Y-52350000D03*
%TD*%
D16*
%TO.P,J3,1,Pin_1*%
%TO.N,+BATT*%
X88900000Y-48300000D03*
D17*
%TO.P,J3,2,Pin_2*%
%TO.N,/3.7V*%
X88900000Y-50800000D03*
%TO.P,J3,3,Pin_3*%
%TO.N,-BATT*%
X88900000Y-53300000D03*
%TD*%
D18*
%TO.N,/BATT SWITCH*%
X83820000Y-48895000D03*
%TD*%
D19*
%TO.N,/BATT SWITCH*%
X85725000Y-49250000D02*
X84175000Y-49250000D01*
X84175000Y-49250000D02*
X83820000Y-48895000D01*
%TO.N,Net-(D1-A)*%
X84850000Y-53225000D02*
X85725000Y-52350000D01*
X84850000Y-54610000D02*
X84850000Y-53225000D01*
%TO.N,-BATT*%
X88900000Y-53300000D02*
X88900000Y-53340000D01*
X87630000Y-54610000D02*
X86600000Y-54610000D01*
X88900000Y-53340000D02*
X87630000Y-54610000D01*
D20*
%TO.N,+BATT*%
X87720000Y-47120000D02*
X82550000Y-47120000D01*
X82550000Y-47120000D02*
X81120000Y-48550000D01*
X81120000Y-48550000D02*
X80645000Y-48550000D01*
X88900000Y-48300000D02*
X87720000Y-47120000D01*
%TD*%
M02*
